<svg width="120" height="120" viewBox="0 0 120 120" fill="none" xmlns="http://www.w3.org/2000/svg">
<path d="M108.126 54.2197C101.578 54.2197 96.2515 59.5466 96.2515 66.094C96.2515 71.4181 99.7737 75.9347 104.61 77.4368V105.21C104.61 109.487 101.131 112.966 96.8541 112.966C92.5774 112.966 89.0979 109.487 89.0979 105.21V93.5309C89.0979 85.3772 82.4644 78.7439 74.3108 78.7439C66.1571 78.7439 59.5238 85.3772 59.5238 93.5309V105.21C59.5238 109.487 56.0445 112.966 51.7677 112.966C47.4908 112.966 44.0115 109.487 44.0115 105.21V80.4905C55.4443 79.1496 65.2048 71.3422 68.9157 60.2185L80.224 26.3207C81.7318 21.801 80.9989 16.9916 78.2136 13.1261C75.428 9.26055 71.0982 7.04383 66.3336 7.04383H57.9022V0.00439453H50.8714V21.1138H57.9022V14.0746H66.3334C68.81 14.0746 71.0614 15.227 72.5091 17.2366C73.9573 19.2458 74.3384 21.7462 73.5544 24.0955L62.2461 57.9934C59.1191 67.3679 50.3783 73.666 40.4964 73.666C30.6144 73.666 21.8737 67.3676 18.7464 57.9934L7.43784 24.0958C6.6541 21.7462 7.03495 19.2461 8.48292 17.2366C9.93112 15.227 12.1821 14.0746 14.6589 14.0746H23.0908V21.1138H30.1215V0.00439453H23.0908V7.0436H14.6589C9.89432 7.0436 5.56402 9.26055 2.77871 13.1261C-0.00659442 16.9916 -0.739484 21.8008 0.768248 26.3207L12.0766 60.2185C15.7874 71.3422 25.548 79.1499 36.9808 80.4905V105.21C36.9808 113.364 43.614 119.997 51.7677 119.997C59.9213 119.997 66.5546 113.364 66.5546 105.21V93.5309C66.5546 89.254 70.0341 85.7747 74.3108 85.7747C78.5876 85.7747 82.0672 89.254 82.0672 93.5309V105.21C82.0672 113.364 88.7004 119.997 96.8541 119.997C105.008 119.997 111.641 113.364 111.641 105.21V77.4368C116.477 75.9347 120 71.4183 120 66.094C120 59.5463 114.673 54.2197 108.126 54.2197ZM108.126 70.9374C105.455 70.9374 103.282 68.7647 103.282 66.0938C103.282 63.4229 105.455 61.2502 108.126 61.2502C110.796 61.2502 112.969 63.4229 112.969 66.0938C112.969 68.7647 110.796 70.9374 108.126 70.9374Z" fill="white"/>
</svg>
