<svg width="121" height="141" viewBox="0 0 121 141" fill="none" xmlns="http://www.w3.org/2000/svg">
<g clip-path="url(#clip0)">
<mask id="path-1-outside-1" maskUnits="userSpaceOnUse" x="-1.02783" y="-1.03345" width="123" height="122" fill="black">
<rect fill="white" x="-1.02783" y="-1.03345" width="123" height="122"/>
<path d="M69.1884 64.9605L68.7914 64.2829C67.2037 64.4352 65.7002 65.0655 64.4813 66.0899C63.7954 66.7446 63.308 67.5782 63.0749 68.4954C62.6552 70.02 62.2469 71.5447 61.8499 73.0806C61.6004 74.0292 61.3849 74.9892 61.1353 75.9379C60.8914 76.8058 60.8914 77.7238 61.1353 78.5918C61.4325 79.6343 61.3604 80.7469 60.9312 81.7427C60.3414 83.1657 59.7969 84.6 59.1164 85.9891C56.7274 90.8745 53.9551 95.5645 50.8252 100.016C49.9387 101.335 48.9203 102.561 47.7854 103.675C47.4175 104.03 47.0059 104.337 46.5604 104.59C46.2057 104.763 45.8205 104.867 45.4262 104.895C45.2962 104.915 45.1631 104.893 45.0467 104.832C44.9302 104.771 44.8366 104.674 44.7797 104.556C44.7228 104.439 44.7021 104.308 44.7203 104.179C44.7384 104.05 44.7947 103.93 44.8818 103.833C45.0762 103.606 45.2886 103.394 45.517 103.2C47.2341 101.624 48.7571 99.8496 50.0539 97.9151C52.7773 93.8745 55.2654 89.6814 57.5058 85.3567C58.2204 83.945 58.8669 82.4994 59.5474 81.0764C60.0637 79.934 60.164 78.648 59.831 77.4399C59.7121 76.8966 59.7121 76.3343 59.831 75.791L60.3867 72.9902C59.9784 72.8999 59.6608 72.8208 59.3206 72.7644C56.9954 72.3578 54.6702 71.9738 52.3564 71.5447C52.0315 71.4432 51.6832 71.4432 51.3582 71.5447C49.239 72.269 47.0085 72.6168 44.7684 72.5724C41.7557 72.6617 38.7403 72.5636 35.7399 72.2787C33.4714 72.0755 31.305 71.8157 29.1046 71.443C23.1846 70.5691 17.4779 68.6126 12.2726 65.672C10.8948 64.9925 9.68897 64.0119 8.74511 62.8035C8.68731 62.809 8.63123 62.8261 8.58024 62.8538C8.52924 62.8815 8.48439 62.9191 8.44837 62.9645C8.41236 63.0098 8.38592 63.0619 8.37064 63.1177C8.35536 63.1735 8.35156 63.2318 8.35947 63.2891C8.30838 64.0976 8.30838 64.9086 8.35947 65.7172C8.43711 66.3288 8.64154 66.9177 8.9598 67.4465C9.27806 67.9753 9.7032 68.4325 10.2083 68.789C11.2077 69.533 12.2837 70.169 13.4182 70.6864C18.1073 72.8105 23.0076 74.4382 28.0384 75.5426C30.3517 76.0804 32.6913 76.4988 35.048 76.7962C36.4431 76.9769 37.8722 77.0672 39.2787 77.135C41.2976 77.2366 43.3165 77.2818 45.3355 77.3608C45.6371 77.3599 45.9378 77.394 46.2315 77.4625C46.3063 77.4976 46.3719 77.5495 46.4231 77.6142C46.4743 77.6789 46.5097 77.7545 46.5264 77.8352C46.5418 77.915 46.5363 77.9975 46.5105 78.0746C46.4847 78.1517 46.4394 78.2209 46.379 78.2756C46.1339 78.4448 45.8615 78.5708 45.5737 78.6483C44.2776 78.9526 42.9456 79.078 41.6152 79.021C40.7078 79.021 39.8118 78.9532 38.9044 78.9081C38.5641 78.8663 38.2198 78.942 37.9289 79.1226C36.4771 80.1278 34.9572 81.0312 33.5962 82.1267C30.9541 84.3254 28.9135 87.1536 27.6641 90.3484C26.3231 93.5982 25.4487 97.0199 25.0667 100.513C24.7753 103.138 24.6351 105.777 24.6471 108.418C24.6471 112.1 24.6471 115.782 24.6471 119.463C24.6529 119.717 24.6301 119.971 24.579 120.22C24.5498 120.274 24.5094 120.321 24.4605 120.358C24.4116 120.395 24.3553 120.421 24.2954 120.434C24.2347 120.445 24.1723 120.441 24.1133 120.424C24.0542 120.406 24.0001 120.375 23.9552 120.333C23.8131 120.12 23.713 119.883 23.6603 119.633C23.5129 118.887 23.4144 118.132 23.3654 117.374C23.2633 113.387 23.1158 109.468 23.1045 105.437C23.0969 101.285 23.6929 97.1537 24.8739 93.1718C25.8067 89.779 27.3727 86.5914 29.4902 83.7756C30.4836 82.4873 31.6257 81.3198 32.8929 80.2972C33.4824 79.8847 34.0959 79.5076 34.7304 79.1678L35.4676 78.6935L32.0082 78.1401C25.2494 77.0608 18.6753 75.0461 12.4767 72.1545C11.1417 71.5538 9.90634 70.754 8.81316 69.7829C7.97659 69.0042 7.35866 68.0216 7.02048 66.9322C6.6823 65.8428 6.63559 64.6843 6.88497 63.5714C6.98567 62.7095 7.38709 61.9101 8.0192 61.3127C8.0192 59.7429 7.76967 58.1392 8.63169 56.6372C7.37269 55.0109 7.4294 53.1249 7.59954 51.2389C7.59954 50.8097 7.70162 50.3918 7.75833 49.9062C7.35 49.7707 7.00973 49.6352 6.62409 49.5448C5.42436 49.2795 4.3064 48.7305 3.3647 47.9442C2.42301 47.1579 1.68526 46.1575 1.2138 45.0274C0.271192 42.8182 -0.144225 40.4214 0.000172755 38.0254C0.0890945 35.4134 0.650053 32.8387 1.65615 30.4248C1.73555 30.2328 1.8036 30.0296 1.89434 29.7924C1.74689 29.5891 1.59944 29.3858 1.44065 29.1938C1.09576 28.7779 0.851038 28.2889 0.725216 27.7643C0.599394 27.2397 0.59581 26.6934 0.71474 26.1672C0.819045 25.5776 0.990278 25.0017 1.22514 24.4505C1.8738 22.8105 2.90727 21.3488 4.23919 20.1876C5.5711 19.0265 7.16278 18.1996 8.88122 17.7761C9.70921 17.5615 10.5485 17.3921 11.3879 17.2114C13.4681 16.7846 15.4045 15.8361 17.0137 14.4558C18.5307 13.1483 19.931 11.7124 21.199 10.1642C22.4693 8.60569 23.751 7.04718 25.0667 5.52255C26.4682 3.94924 28.092 2.58728 29.8872 1.47946C31.2602 0.573185 32.8574 0.0612835 34.5035 4.92483e-06C35.2741 -0.0912686 36.0554 0.00490855 36.7804 0.280288C37.5054 0.555668 38.1525 1.00203 38.6662 1.5811C38.8436 1.59399 39.0218 1.59399 39.1993 1.5811C41.2664 1.01481 43.381 0.636805 45.517 0.451747C49.1961 0.0452939 52.9036 -0.0453886 56.5984 0.180702C58.0502 0.304931 59.502 0.372692 60.9652 0.530802C66.6546 1.05329 72.2454 2.34902 77.5817 4.3819C78.8458 4.92076 80.0414 5.60692 81.1432 6.42604C81.7444 6.8439 81.7897 6.93425 82.2775 7.88291L82.9693 7.3634C84.0246 6.53746 85.2965 6.03167 86.6329 5.90653C86.9732 5.90653 87.3021 5.81618 87.6537 5.77101C89.1043 5.50707 90.6014 5.69643 91.9396 6.31313C93.2778 6.92982 94.3916 7.94364 95.1283 9.21554C95.979 10.6385 96.7503 12.118 97.5442 13.5523C98.3382 14.9865 99.1662 16.6693 100.085 18.1713C102.227 21.7678 105.421 24.6281 109.238 26.3705C110.866 27.03 112.542 27.5661 114.251 27.9741C114.705 28.1097 115.17 28.2 115.624 28.3355C117.082 28.7632 118.333 29.7072 119.14 30.9895C119.971 32.2947 120.513 33.7618 120.728 35.2924C121.17 37.8765 121.058 40.5244 120.399 43.0623C119.68 46.1029 118.164 48.8993 116.006 51.1668C113.849 53.4344 111.126 55.092 108.115 55.9709C105.158 56.9081 102.042 57.2461 98.9507 56.9647C97.7144 56.863 96.5007 56.5581 95.2758 56.3435L94.5725 56.2306C94.552 56.4447 94.552 56.6602 94.5725 56.8743C94.8522 59.2545 94.9054 61.6556 94.7313 64.0457C94.7313 65.6268 94.5385 67.2079 94.4591 68.789C94.4713 69.0819 94.5407 69.3696 94.6633 69.6361C94.8674 70.2007 95.1397 70.7654 95.3211 71.3075C95.6043 72.2198 95.6043 73.196 95.3211 74.1083C95.7434 74.3321 96.206 74.4703 96.6822 74.5149C96.9799 74.5621 97.2724 74.6378 97.5556 74.7407C97.719 74.794 97.8617 74.8966 97.9639 75.0344C98.2513 75.4523 98.449 75.9248 98.5446 76.4222C98.6402 76.9197 98.6317 77.4315 98.5197 77.9255C98.4259 78.3985 98.1569 78.8191 97.766 79.1037C97.3752 79.3882 96.8911 79.5159 96.41 79.4614C95.5593 79.4614 94.7086 79.3033 93.7786 79.213C93.6654 79.426 93.5632 79.6446 93.4723 79.868C93.2001 80.5908 92.9279 81.3023 92.667 82.0364C92.2648 83.027 91.6757 83.9317 90.9316 84.7017C90.8635 84.8103 90.765 84.8967 90.6481 84.9501C90.4553 85.0179 90.2057 85.1082 90.0583 85.0292C89.9796 84.9655 89.917 84.8843 89.8756 84.7921C89.8342 84.6999 89.8152 84.5992 89.8201 84.4984C89.8501 84.2045 89.9307 83.918 90.0583 83.6514C90.4439 82.6914 90.8749 81.7653 91.1925 80.7941C91.6349 79.5518 92.0432 78.2869 92.4515 77.0333C92.8598 75.7797 93.1321 74.7746 93.5177 73.6453C93.7959 72.9178 93.7959 72.114 93.5177 71.3866C93.3038 70.8307 93.0498 70.291 92.7578 69.7716C92.4416 69.1034 91.9147 68.5564 91.2575 68.2139C90.6002 67.8714 89.8485 67.7521 89.1169 67.8743C87.5743 68.1114 87.4722 67.8743 86.5875 66.8804C86.2002 66.3931 85.7047 66.0018 85.1399 65.7372C84.575 65.4727 83.9563 65.3421 83.3323 65.3558C82.733 65.3631 82.1347 65.4045 81.5402 65.48C81.1547 65.5684 80.7554 65.5789 80.3658 65.511C79.9762 65.4431 79.6041 65.2982 79.2717 65.0848C78.5586 64.6281 77.7981 64.2494 77.0033 63.9554C76.6035 63.8027 76.1829 63.7113 75.7556 63.6843C74.2971 63.5314 72.8227 63.713 71.4455 64.2151C70.9238 64.4184 70.402 64.6217 69.8803 64.8024C69.6524 64.8663 69.4215 64.9191 69.1884 64.9605ZM9.07404 48.5623C8.81999 46.6352 8.86974 44.6805 9.22149 42.7687C9.34655 42.1841 9.51721 41.6102 9.73189 41.0521C9.77785 40.9004 9.86406 40.7638 9.98143 40.6568C10.0348 40.6324 10.0928 40.6198 10.1516 40.6198C10.2103 40.6198 10.2683 40.6324 10.3217 40.6568C10.3814 40.6765 10.4354 40.7105 10.4789 40.7558C10.5224 40.8011 10.5541 40.8563 10.5712 40.9165C10.6052 41.213 10.6052 41.5123 10.5712 41.8087C10.3501 43.592 10.3045 45.3924 10.4351 47.1845C10.4612 48.3076 10.8122 49.3994 11.4459 50.3289C12.0797 51.2583 12.9692 51.986 14.008 52.4247C14.7082 52.7442 15.428 53.0196 16.163 53.2491C18.3532 53.8681 20.6048 54.2468 22.8777 54.3785C29.1138 54.746 35.3298 53.3815 40.8326 50.437C42.4659 49.5787 44.0992 48.7204 45.7438 47.8847C47.3884 47.049 49.1465 46.1568 50.9386 45.321C52.4378 44.6393 54.0396 44.2081 55.6797 44.0449C57.1715 43.8114 58.6984 43.9631 60.1145 44.4853C60.8 44.7218 61.4239 45.1077 61.9406 45.6147C62.2809 45.9761 62.3603 46.3036 62.1675 46.5182C61.9747 46.7327 61.6117 46.5182 61.3395 46.5182C59.0211 45.6996 56.5113 45.5817 54.1258 46.1793C52.8399 46.5252 51.5932 47.0021 50.4055 47.6023C48.0236 48.7317 45.6757 50.0304 43.2938 51.2163C41.6379 52.0407 39.9932 52.8877 38.2919 53.5879C34.0628 55.3226 29.527 56.1944 24.9533 56.1516C23.0184 56.1686 21.086 56.0098 19.1801 55.6772C17.5683 55.4271 15.987 55.0107 14.4616 54.4349C12.3879 53.7828 10.6533 52.3476 9.62981 50.437C9.44834 50.0643 9.41431 50.0756 8.82451 50.2111C8.82451 51.1485 8.82451 52.0859 8.82451 53.0232C8.83384 53.4948 8.92597 53.9611 9.09672 54.4011C9.27197 54.9752 9.58591 55.4977 10.0111 55.923C10.4362 56.3483 10.9596 56.6633 11.5353 56.8405C12.3973 57.0663 13.2253 57.439 14.076 57.7326C15.2102 58.094 16.2651 58.478 17.388 58.7942C18.5109 59.1105 19.7245 59.3363 20.8927 59.6187C21.1381 59.6794 21.3773 59.7626 21.6073 59.8671C21.7775 59.9349 21.7775 60.3189 21.6073 60.4205C21.4708 60.5243 21.3223 60.6115 21.165 60.6803C20.4239 60.893 19.6376 60.893 18.8965 60.6803C15.9372 59.9572 13.0515 58.9629 10.2763 57.7101L9.73189 57.5971C9.6819 57.7444 9.64397 57.8955 9.61847 58.0489C9.61847 59.1782 9.61847 60.3076 9.61847 61.5047C9.62065 61.6999 9.6678 61.8921 9.75628 62.0664C9.84477 62.2406 9.97224 62.3923 10.1289 62.5098C10.586 62.8987 11.0712 63.2535 11.5807 63.5714C13.706 64.8823 15.9367 66.0155 18.25 66.9595C22.3828 68.5274 26.6835 69.615 31.0668 70.2007C31.3025 70.1616 31.5341 70.1011 31.7587 70.02C31.6525 69.9572 31.5426 69.9007 31.4298 69.8506C29.4449 69.3198 27.46 68.7213 25.5318 68.0324C24.807 67.7562 24.1268 67.3757 23.5128 66.903C22.8201 66.3387 22.3105 65.5829 22.0481 64.7309C21.7857 63.8788 21.7823 62.9685 22.0383 62.1145C22.2246 61.5182 22.5498 60.9741 22.9874 60.5266C23.425 60.0792 23.9626 59.741 24.5563 59.5396C25.0719 59.3605 25.5354 59.058 25.9061 58.6587C26.7365 57.7248 27.7573 56.9779 28.9004 56.4678C29.2451 56.2842 29.6375 56.2086 30.0261 56.2509C30.4148 56.2932 30.7815 56.4515 31.0782 56.7049L31.4751 56.9986C32.9837 56.4565 34.4582 55.9596 35.8193 57.168C36.4335 56.9199 37.1037 56.8419 37.7588 56.9421C38.3597 57.145 38.8749 57.5426 39.222 58.0715C41.3203 57.5971 42.4091 58.0715 43.1351 59.822C43.4204 59.8626 43.6936 59.9635 43.9365 60.118C44.1794 60.2725 44.3862 60.477 44.5431 60.7177C44.6999 60.9585 44.8032 61.2298 44.846 61.5136C44.8888 61.7974 44.87 62.087 44.791 62.363C46.0614 63.1197 45.8459 64.1248 45.2674 65.2203L58.175 67.2983C58.9909 66.6433 59.6529 65.8184 60.1145 64.8815C61.1465 62.9076 62.0042 60.8482 62.6779 58.7265C63.0526 57.4996 63.3332 56.2462 63.5172 54.977C63.7882 53.0679 63.5537 51.1213 62.8367 49.3302C62.6826 48.9313 62.5834 48.5134 62.5418 48.088C62.5429 48.0028 62.564 47.9191 62.6036 47.8436C62.6432 47.7682 62.7001 47.703 62.7697 47.6536C62.8393 47.6041 62.9196 47.5716 63.0042 47.5588C63.0887 47.5459 63.1751 47.5531 63.2564 47.5797C63.4861 47.6332 63.701 47.7369 63.8854 47.8835C64.0699 48.03 64.2192 48.2156 64.3225 48.4268C64.5095 48.8141 64.6687 49.2141 64.7989 49.6239C65.4047 51.6391 65.5098 53.7707 65.1052 55.8353C64.6329 58.2737 63.8397 60.6394 62.746 62.8712C62.0495 64.6095 60.9947 66.1831 59.6495 67.4903C60.3187 67.6597 60.8631 67.863 61.4643 67.9533C61.6344 67.5242 61.7819 67.1741 61.9406 66.824C62.4748 65.5419 63.4306 64.4786 64.6515 63.8086C65.3635 63.3524 66.1923 63.1098 67.039 63.1098C67.8857 63.1098 68.7146 63.3524 69.4266 63.8086C69.541 63.776 69.6514 63.7305 69.7555 63.6731C71.0857 62.7199 72.6573 62.1566 74.2924 62.0468C75.2737 61.9088 76.2734 61.9859 77.2216 62.2727C78.1698 62.5594 79.0437 63.0489 79.7821 63.7069L80.5307 64.3733C81.7745 64.0136 83.0724 63.876 84.3644 63.9667C85.2709 64.0015 86.1419 64.3262 86.8484 64.8928C87.4583 65.3507 87.9775 65.9175 88.3796 66.5642C88.8333 66.4964 89.2076 66.3948 89.5819 66.3722C89.9275 66.3498 90.2745 66.3725 90.6141 66.44C91.0017 66.5182 91.3814 66.6316 91.7483 66.7788C92.0886 66.9143 92.4175 67.0837 92.8825 67.287C93.029 66.5049 93.1011 65.7109 93.098 64.9154C93.098 64.1474 93.2001 63.3794 93.2455 62.6566C93.2909 61.9338 93.3249 61.2111 93.3476 60.477C93.3703 59.7429 93.3476 58.9411 93.3476 58.2183C93.4137 57.465 93.387 56.7064 93.2682 55.9596L92.202 55.3384C89.3148 54.2048 86.696 52.4857 84.5119 50.2902C81.8604 47.5885 79.7915 44.3756 78.4324 40.8488C77.986 39.6432 77.6889 38.3878 77.5477 37.1106C77.5114 36.8147 77.5385 36.5145 77.6271 36.2297C77.6711 36.1394 77.7329 36.0588 77.8089 35.9928C77.8849 35.9268 77.9735 35.8768 78.0694 35.8457C78.1715 35.8457 78.3984 35.97 78.4664 36.1055C78.6806 36.5232 78.8699 36.9531 79.0335 37.393C79.8175 39.5673 80.7772 41.6748 81.9032 43.6948C83.6876 47.1205 86.3737 49.9988 89.6741 52.0218C92.9746 54.0449 96.7652 55.1367 100.641 55.1803C103.178 55.2855 105.712 54.9021 108.104 54.051C110.495 53.287 112.668 51.9663 114.443 50.1986C116.218 48.4309 117.545 46.2671 118.312 43.8868C119.165 41.2725 119.398 38.497 118.993 35.778C118.864 34.7117 118.549 33.6759 118.063 32.7174C117.758 32.0544 117.307 31.4684 116.743 31.003C116.18 30.5376 115.518 30.2048 114.807 30.0296C113.514 29.7133 112.244 29.3294 110.962 28.9002C108.532 28.1697 106.262 26.9897 104.27 25.4218C101.985 23.6648 100.06 21.4871 98.5991 19.0071C97.7144 17.4937 96.9317 15.9239 96.0924 14.3767C95.4005 13.1005 94.754 11.7905 94.0054 10.5369C93.5787 9.85056 93.0807 9.21084 92.5196 8.62828C91.8868 7.97574 91.0594 7.544 90.1604 7.39728C89.2706 7.23317 88.3628 7.18759 87.4609 7.26176C85.7115 7.30498 84.0268 7.92906 82.6744 9.03485C82.5419 9.1428 82.4017 9.24094 82.2548 9.32848C82.1572 9.41454 82.0406 9.47645 81.9145 9.50918C81.7565 9.52114 81.5985 9.48574 81.4608 9.40753C81.432 9.35568 81.4169 9.29739 81.4169 9.23813C81.4169 9.17887 81.432 9.12059 81.4608 9.06873C81.562 8.82041 81.6795 8.57896 81.8124 8.34594C81.2566 8.07489 80.6782 7.87161 80.2472 7.61186C76.7121 5.75393 72.9321 4.40049 69.0183 3.59135C64.769 2.63013 60.4414 2.05182 56.088 1.86344C51.495 1.58857 46.8856 1.81199 42.3411 2.52976C37.2907 3.2819 32.6029 5.58804 28.9345 9.1252C27.8002 10.2546 26.666 11.463 25.5318 12.6262C25.2936 12.8634 25.1234 13.2022 24.6244 13.1457C24.5846 12.9558 24.5846 12.7597 24.6244 12.5697C24.8038 12.1387 25.0321 11.7294 25.3049 11.35C26.0762 10.3788 26.8588 9.39624 27.7095 8.50405C29.5541 6.45865 31.7562 4.76351 34.2086 3.50101C35.048 3.08314 35.9213 2.72175 36.7834 2.37165C36.9195 2.30389 37.0442 2.21354 37.2824 2.06673C36.5034 1.55407 35.5667 1.33391 34.6397 1.44558C33.0839 1.52181 31.585 2.05202 30.3296 2.97021C28.8139 4.02457 27.4382 5.26539 26.235 6.6632C25.1386 7.9582 24.0573 9.27578 22.9911 10.6159C21.6331 12.3884 20.1144 14.0329 18.4541 15.5286C16.5473 17.2852 14.1937 18.4881 11.6487 19.0071C10.6359 19.1928 9.63584 19.4418 8.65437 19.7524C7.27423 20.1859 6.01699 20.9391 4.98582 21.9501C3.95464 22.9612 3.17893 24.2012 2.72233 25.5686C2.53733 26.0105 2.44208 26.4846 2.44208 26.9634C2.44208 27.4421 2.53733 27.9162 2.72233 28.3581C2.86978 28.2113 2.99455 28.1097 3.09663 27.9854C3.96272 26.9721 4.99891 26.1161 6.15906 25.4557C9.4219 23.4589 12.9937 22.0126 16.7301 21.1754C17.6876 20.9211 18.6772 20.807 19.6678 20.8366C19.7973 20.8364 19.9242 20.8736 20.0329 20.9438C20.1416 21.014 20.2276 21.114 20.2803 21.2319C20.371 21.4013 20.1668 21.6723 19.8719 21.7966C19.577 21.9208 19.475 21.9547 19.2708 22.0224L14.5978 23.7165C11.9112 24.6224 9.32946 25.8112 6.89631 27.2626C4.98709 28.3886 3.56467 30.1791 2.90381 32.2883C2.33413 33.9497 1.95367 35.6696 1.76958 37.4155C1.5073 39.9372 1.93857 42.4825 3.01723 44.7789C4.20818 47.2071 6.37456 48.1218 9.07404 48.5623ZM61.1127 69.5344C61.0219 69.4441 60.9879 69.3989 60.9539 69.3876L45.3695 66.5077C44.2353 66.2819 43.0216 66.0108 41.8534 65.7737C41.6197 65.7352 41.3972 65.6466 41.2014 65.514C41.0055 65.3814 40.841 65.2079 40.7191 65.0057C40.1763 64.1698 39.3825 63.5256 38.4507 63.1648C38.0197 62.9954 37.5773 62.8147 37.135 62.6792C34.1734 61.8063 31.1351 61.2164 28.0611 60.9174C27.1575 60.8582 26.2502 60.9421 25.373 61.1659C25.0054 61.2491 24.6671 61.4293 24.3937 61.6877C24.1203 61.946 23.9218 62.2729 23.8191 62.634C23.6475 63.1393 23.6348 63.6846 23.7827 64.1972C23.9307 64.7098 24.2322 65.1652 24.6471 65.5026C25.2178 65.9533 25.8678 66.2941 26.5639 66.5077C28.7853 67.3178 31.0589 67.9781 33.3693 68.4841C34.913 68.8469 36.4907 69.0475 38.0764 69.0827C38.3749 69.1284 38.6804 69.0891 38.9574 68.9692C39.2344 68.8492 39.4716 68.6537 39.6416 68.4051C39.7429 68.2659 39.8825 68.1588 40.0434 68.0967C40.2044 68.0346 40.38 68.0201 40.549 68.055C40.8099 68.055 41.0594 68.055 41.3203 68.055C42.4545 68.2244 43.5888 68.3712 44.723 68.5745C49.1578 69.365 53.5813 70.1781 58.0049 70.9574C58.8982 71.1614 59.8106 71.2712 60.727 71.2849C60.8631 70.7089 60.9992 70.0991 61.1127 69.5344ZM43.3619 61.2675C42.615 60.8616 41.9528 60.3172 41.411 59.6638C41.2586 59.4564 41.056 59.2906 40.822 59.182C40.588 59.0734 40.3302 59.0255 40.0726 59.0427C39.7664 59.0427 39.4715 59.0427 39.1652 59.0427C38.9556 59.073 38.7419 59.0606 38.5372 59.0062C38.3325 58.9519 38.141 58.8567 37.9743 58.7265C37.7477 58.5285 37.4786 58.3849 37.1876 58.3066C36.8966 58.2283 36.5915 58.2174 36.2956 58.2747C35.7419 58.3607 35.1753 58.3023 34.651 58.1053C33.8842 57.8073 33.0421 57.7598 32.2464 57.9698C31.6642 58.1334 31.0479 58.1334 30.4657 57.9698C30.0659 57.8066 29.6178 57.8066 29.218 57.9698C28.5495 58.2005 27.9466 58.5878 27.46 59.0992C27.9594 59.2608 28.4896 59.3051 29.009 59.2287C29.5285 59.1523 30.0232 58.9572 30.4543 58.6587C30.4543 58.6587 30.6812 58.6587 30.8173 58.7152L30.6472 59.4041C31.1122 59.4831 31.5319 59.7316 31.9288 59.6413C32.3712 59.3025 32.7341 59.0088 33.1311 58.7491C33.2105 58.6926 33.4033 58.7491 33.6075 58.8281L33.1311 59.822C33.381 59.9697 33.6746 60.0268 33.9619 59.9836C34.2493 59.9403 34.5128 59.7994 34.7077 59.5848C34.8666 59.4389 35.0566 59.3308 35.2635 59.2686C35.4435 59.2364 35.6279 59.2364 35.8079 59.2686L35.2181 60.2963L36.4204 60.556C36.9535 60.4092 37.2144 59.8558 37.8268 60.0365L37.634 60.9174L38.9271 61.3579C39.324 61.0868 39.6303 60.8497 39.9592 60.6577C40.2881 60.4657 40.3789 60.5447 40.515 60.8723L39.8912 61.8096L40.8099 62.3291L41.3883 61.9564C41.4955 61.8852 41.6095 61.8247 41.7286 61.7757C41.7967 61.7757 41.9328 61.7757 41.9555 61.8322C41.9781 61.8887 42.0802 62.0807 42.0349 62.1597C41.9895 62.2388 41.7286 62.5663 41.5925 62.7809C41.5538 62.8711 41.5271 62.9661 41.5131 63.0632C41.6492 63.3343 41.808 63.6279 41.9895 63.9667C42.3298 63.8199 42.636 63.6731 42.9422 63.5601C42.9422 63.5601 43.0784 63.6166 43.2258 63.6843L42.7608 64.9605C42.9517 64.999 43.1449 65.0254 43.3392 65.0396C43.5016 65.0507 43.6646 65.0507 43.8269 65.0396C44.1202 64.6481 44.3112 64.1901 44.3827 63.7069C43.7878 63.0243 43.4298 62.1688 43.3619 61.2675ZM38.5641 70.7541C41.6304 71.0568 44.7192 71.0568 47.7854 70.7541C45.3241 70.0878 42.9536 69.7603 40.583 69.1617C40.4227 69.5842 40.1502 69.9554 39.7947 70.2359C39.4391 70.5163 39.0138 70.6954 38.5641 70.7541ZM96.7729 77.7787L97.0225 76.3557C96.3267 76.0167 95.6016 75.7407 94.8561 75.5313C94.5007 76.2334 94.3033 77.0042 94.2776 77.79C95.0958 77.8793 95.9216 77.8755 96.7389 77.7787H96.7729Z"/>
</mask>
<path d="M69.1884 64.9605L68.7914 64.2829C67.2037 64.4352 65.7002 65.0655 64.4813 66.0899C63.7954 66.7446 63.308 67.5782 63.0749 68.4954C62.6552 70.02 62.2469 71.5447 61.8499 73.0806C61.6004 74.0292 61.3849 74.9892 61.1353 75.9379C60.8914 76.8058 60.8914 77.7238 61.1353 78.5918C61.4325 79.6343 61.3604 80.7469 60.9312 81.7427C60.3414 83.1657 59.7969 84.6 59.1164 85.9891C56.7274 90.8745 53.9551 95.5645 50.8252 100.016C49.9387 101.335 48.9203 102.561 47.7854 103.675C47.4175 104.03 47.0059 104.337 46.5604 104.59C46.2057 104.763 45.8205 104.867 45.4262 104.895C45.2962 104.915 45.1631 104.893 45.0467 104.832C44.9302 104.771 44.8366 104.674 44.7797 104.556C44.7228 104.439 44.7021 104.308 44.7203 104.179C44.7384 104.05 44.7947 103.93 44.8818 103.833C45.0762 103.606 45.2886 103.394 45.517 103.2C47.2341 101.624 48.7571 99.8496 50.0539 97.9151C52.7773 93.8745 55.2654 89.6814 57.5058 85.3567C58.2204 83.945 58.8669 82.4994 59.5474 81.0764C60.0637 79.934 60.164 78.648 59.831 77.4399C59.7121 76.8966 59.7121 76.3343 59.831 75.791L60.3867 72.9902C59.9784 72.8999 59.6608 72.8208 59.3206 72.7644C56.9954 72.3578 54.6702 71.9738 52.3564 71.5447C52.0315 71.4432 51.6832 71.4432 51.3582 71.5447C49.239 72.269 47.0085 72.6168 44.7684 72.5724C41.7557 72.6617 38.7403 72.5636 35.7399 72.2787C33.4714 72.0755 31.305 71.8157 29.1046 71.443C23.1846 70.5691 17.4779 68.6126 12.2726 65.672C10.8948 64.9925 9.68897 64.0119 8.74511 62.8035C8.68731 62.809 8.63123 62.8261 8.58024 62.8538C8.52924 62.8815 8.48439 62.9191 8.44837 62.9645C8.41236 63.0098 8.38592 63.0619 8.37064 63.1177C8.35536 63.1735 8.35156 63.2318 8.35947 63.2891C8.30838 64.0976 8.30838 64.9086 8.35947 65.7172C8.43711 66.3288 8.64154 66.9177 8.9598 67.4465C9.27806 67.9753 9.7032 68.4325 10.2083 68.789C11.2077 69.533 12.2837 70.169 13.4182 70.6864C18.1073 72.8105 23.0076 74.4382 28.0384 75.5426C30.3517 76.0804 32.6913 76.4988 35.048 76.7962C36.4431 76.9769 37.8722 77.0672 39.2787 77.135C41.2976 77.2366 43.3165 77.2818 45.3355 77.3608C45.6371 77.3599 45.9378 77.394 46.2315 77.4625C46.3063 77.4976 46.3719 77.5495 46.4231 77.6142C46.4743 77.6789 46.5097 77.7545 46.5264 77.8352C46.5418 77.915 46.5363 77.9975 46.5105 78.0746C46.4847 78.1517 46.4394 78.2209 46.379 78.2756C46.1339 78.4448 45.8615 78.5708 45.5737 78.6483C44.2776 78.9526 42.9456 79.078 41.6152 79.021C40.7078 79.021 39.8118 78.9532 38.9044 78.9081C38.5641 78.8663 38.2198 78.942 37.9289 79.1226C36.4771 80.1278 34.9572 81.0312 33.5962 82.1267C30.9541 84.3254 28.9135 87.1536 27.6641 90.3484C26.3231 93.5982 25.4487 97.0199 25.0667 100.513C24.7753 103.138 24.6351 105.777 24.6471 108.418C24.6471 112.1 24.6471 115.782 24.6471 119.463C24.6529 119.717 24.6301 119.971 24.579 120.22C24.5498 120.274 24.5094 120.321 24.4605 120.358C24.4116 120.395 24.3553 120.421 24.2954 120.434C24.2347 120.445 24.1723 120.441 24.1133 120.424C24.0542 120.406 24.0001 120.375 23.9552 120.333C23.8131 120.12 23.713 119.883 23.6603 119.633C23.5129 118.887 23.4144 118.132 23.3654 117.374C23.2633 113.387 23.1158 109.468 23.1045 105.437C23.0969 101.285 23.6929 97.1537 24.8739 93.1718C25.8067 89.779 27.3727 86.5914 29.4902 83.7756C30.4836 82.4873 31.6257 81.3198 32.8929 80.2972C33.4824 79.8847 34.0959 79.5076 34.7304 79.1678L35.4676 78.6935L32.0082 78.1401C25.2494 77.0608 18.6753 75.0461 12.4767 72.1545C11.1417 71.5538 9.90634 70.754 8.81316 69.7829C7.97659 69.0042 7.35866 68.0216 7.02048 66.9322C6.6823 65.8428 6.63559 64.6843 6.88497 63.5714C6.98567 62.7095 7.38709 61.9101 8.0192 61.3127C8.0192 59.7429 7.76967 58.1392 8.63169 56.6372C7.37269 55.0109 7.4294 53.1249 7.59954 51.2389C7.59954 50.8097 7.70162 50.3918 7.75833 49.9062C7.35 49.7707 7.00973 49.6352 6.62409 49.5448C5.42436 49.2795 4.3064 48.7305 3.3647 47.9442C2.42301 47.1579 1.68526 46.1575 1.2138 45.0274C0.271192 42.8182 -0.144225 40.4214 0.000172755 38.0254C0.0890945 35.4134 0.650053 32.8387 1.65615 30.4248C1.73555 30.2328 1.8036 30.0296 1.89434 29.7924C1.74689 29.5891 1.59944 29.3858 1.44065 29.1938C1.09576 28.7779 0.851038 28.2889 0.725216 27.7643C0.599394 27.2397 0.59581 26.6934 0.71474 26.1672C0.819045 25.5776 0.990278 25.0017 1.22514 24.4505C1.8738 22.8105 2.90727 21.3488 4.23919 20.1876C5.5711 19.0265 7.16278 18.1996 8.88122 17.7761C9.70921 17.5615 10.5485 17.3921 11.3879 17.2114C13.4681 16.7846 15.4045 15.8361 17.0137 14.4558C18.5307 13.1483 19.931 11.7124 21.199 10.1642C22.4693 8.60569 23.751 7.04718 25.0667 5.52255C26.4682 3.94924 28.092 2.58728 29.8872 1.47946C31.2602 0.573185 32.8574 0.0612835 34.5035 4.92483e-06C35.2741 -0.0912686 36.0554 0.00490855 36.7804 0.280288C37.5054 0.555668 38.1525 1.00203 38.6662 1.5811C38.8436 1.59399 39.0218 1.59399 39.1993 1.5811C41.2664 1.01481 43.381 0.636805 45.517 0.451747C49.1961 0.0452939 52.9036 -0.0453886 56.5984 0.180702C58.0502 0.304931 59.502 0.372692 60.9652 0.530802C66.6546 1.05329 72.2454 2.34902 77.5817 4.3819C78.8458 4.92076 80.0414 5.60692 81.1432 6.42604C81.7444 6.8439 81.7897 6.93425 82.2775 7.88291L82.9693 7.3634C84.0246 6.53746 85.2965 6.03167 86.6329 5.90653C86.9732 5.90653 87.3021 5.81618 87.6537 5.77101C89.1043 5.50707 90.6014 5.69643 91.9396 6.31313C93.2778 6.92982 94.3916 7.94364 95.1283 9.21554C95.979 10.6385 96.7503 12.118 97.5442 13.5523C98.3382 14.9865 99.1662 16.6693 100.085 18.1713C102.227 21.7678 105.421 24.6281 109.238 26.3705C110.866 27.03 112.542 27.5661 114.251 27.9741C114.705 28.1097 115.17 28.2 115.624 28.3355C117.082 28.7632 118.333 29.7072 119.14 30.9895C119.971 32.2947 120.513 33.7618 120.728 35.2924C121.17 37.8765 121.058 40.5244 120.399 43.0623C119.68 46.1029 118.164 48.8993 116.006 51.1668C113.849 53.4344 111.126 55.092 108.115 55.9709C105.158 56.9081 102.042 57.2461 98.9507 56.9647C97.7144 56.863 96.5007 56.5581 95.2758 56.3435L94.5725 56.2306C94.552 56.4447 94.552 56.6602 94.5725 56.8743C94.8522 59.2545 94.9054 61.6556 94.7313 64.0457C94.7313 65.6268 94.5385 67.2079 94.4591 68.789C94.4713 69.0819 94.5407 69.3696 94.6633 69.6361C94.8674 70.2007 95.1397 70.7654 95.3211 71.3075C95.6043 72.2198 95.6043 73.196 95.3211 74.1083C95.7434 74.3321 96.206 74.4703 96.6822 74.5149C96.9799 74.5621 97.2724 74.6378 97.5556 74.7407C97.719 74.794 97.8617 74.8966 97.9639 75.0344C98.2513 75.4523 98.449 75.9248 98.5446 76.4222C98.6402 76.9197 98.6317 77.4315 98.5197 77.9255C98.4259 78.3985 98.1569 78.8191 97.766 79.1037C97.3752 79.3882 96.8911 79.5159 96.41 79.4614C95.5593 79.4614 94.7086 79.3033 93.7786 79.213C93.6654 79.426 93.5632 79.6446 93.4723 79.868C93.2001 80.5908 92.9279 81.3023 92.667 82.0364C92.2648 83.027 91.6757 83.9317 90.9316 84.7017C90.8635 84.8103 90.765 84.8967 90.6481 84.9501C90.4553 85.0179 90.2057 85.1082 90.0583 85.0292C89.9796 84.9655 89.917 84.8843 89.8756 84.7921C89.8342 84.6999 89.8152 84.5992 89.8201 84.4984C89.8501 84.2045 89.9307 83.918 90.0583 83.6514C90.4439 82.6914 90.8749 81.7653 91.1925 80.7941C91.6349 79.5518 92.0432 78.2869 92.4515 77.0333C92.8598 75.7797 93.1321 74.7746 93.5177 73.6453C93.7959 72.9178 93.7959 72.114 93.5177 71.3866C93.3038 70.8307 93.0498 70.291 92.7578 69.7716C92.4416 69.1034 91.9147 68.5564 91.2575 68.2139C90.6002 67.8714 89.8485 67.7521 89.1169 67.8743C87.5743 68.1114 87.4722 67.8743 86.5875 66.8804C86.2002 66.3931 85.7047 66.0018 85.1399 65.7372C84.575 65.4727 83.9563 65.3421 83.3323 65.3558C82.733 65.3631 82.1347 65.4045 81.5402 65.48C81.1547 65.5684 80.7554 65.5789 80.3658 65.511C79.9762 65.4431 79.6041 65.2982 79.2717 65.0848C78.5586 64.6281 77.7981 64.2494 77.0033 63.9554C76.6035 63.8027 76.1829 63.7113 75.7556 63.6843C74.2971 63.5314 72.8227 63.713 71.4455 64.2151C70.9238 64.4184 70.402 64.6217 69.8803 64.8024C69.6524 64.8663 69.4215 64.9191 69.1884 64.9605ZM9.07404 48.5623C8.81999 46.6352 8.86974 44.6805 9.22149 42.7687C9.34655 42.1841 9.51721 41.6102 9.73189 41.0521C9.77785 40.9004 9.86406 40.7638 9.98143 40.6568C10.0348 40.6324 10.0928 40.6198 10.1516 40.6198C10.2103 40.6198 10.2683 40.6324 10.3217 40.6568C10.3814 40.6765 10.4354 40.7105 10.4789 40.7558C10.5224 40.8011 10.5541 40.8563 10.5712 40.9165C10.6052 41.213 10.6052 41.5123 10.5712 41.8087C10.3501 43.592 10.3045 45.3924 10.4351 47.1845C10.4612 48.3076 10.8122 49.3994 11.4459 50.3289C12.0797 51.2583 12.9692 51.986 14.008 52.4247C14.7082 52.7442 15.428 53.0196 16.163 53.2491C18.3532 53.8681 20.6048 54.2468 22.8777 54.3785C29.1138 54.746 35.3298 53.3815 40.8326 50.437C42.4659 49.5787 44.0992 48.7204 45.7438 47.8847C47.3884 47.049 49.1465 46.1568 50.9386 45.321C52.4378 44.6393 54.0396 44.2081 55.6797 44.0449C57.1715 43.8114 58.6984 43.9631 60.1145 44.4853C60.8 44.7218 61.4239 45.1077 61.9406 45.6147C62.2809 45.9761 62.3603 46.3036 62.1675 46.5182C61.9747 46.7327 61.6117 46.5182 61.3395 46.5182C59.0211 45.6996 56.5113 45.5817 54.1258 46.1793C52.8399 46.5252 51.5932 47.0021 50.4055 47.6023C48.0236 48.7317 45.6757 50.0304 43.2938 51.2163C41.6379 52.0407 39.9932 52.8877 38.2919 53.5879C34.0628 55.3226 29.527 56.1944 24.9533 56.1516C23.0184 56.1686 21.086 56.0098 19.1801 55.6772C17.5683 55.4271 15.987 55.0107 14.4616 54.4349C12.3879 53.7828 10.6533 52.3476 9.62981 50.437C9.44834 50.0643 9.41431 50.0756 8.82451 50.2111C8.82451 51.1485 8.82451 52.0859 8.82451 53.0232C8.83384 53.4948 8.92597 53.9611 9.09672 54.4011C9.27197 54.9752 9.58591 55.4977 10.0111 55.923C10.4362 56.3483 10.9596 56.6633 11.5353 56.8405C12.3973 57.0663 13.2253 57.439 14.076 57.7326C15.2102 58.094 16.2651 58.478 17.388 58.7942C18.5109 59.1105 19.7245 59.3363 20.8927 59.6187C21.1381 59.6794 21.3773 59.7626 21.6073 59.8671C21.7775 59.9349 21.7775 60.3189 21.6073 60.4205C21.4708 60.5243 21.3223 60.6115 21.165 60.6803C20.4239 60.893 19.6376 60.893 18.8965 60.6803C15.9372 59.9572 13.0515 58.9629 10.2763 57.7101L9.73189 57.5971C9.6819 57.7444 9.64397 57.8955 9.61847 58.0489C9.61847 59.1782 9.61847 60.3076 9.61847 61.5047C9.62065 61.6999 9.6678 61.8921 9.75628 62.0664C9.84477 62.2406 9.97224 62.3923 10.1289 62.5098C10.586 62.8987 11.0712 63.2535 11.5807 63.5714C13.706 64.8823 15.9367 66.0155 18.25 66.9595C22.3828 68.5274 26.6835 69.615 31.0668 70.2007C31.3025 70.1616 31.5341 70.1011 31.7587 70.02C31.6525 69.9572 31.5426 69.9007 31.4298 69.8506C29.4449 69.3198 27.46 68.7213 25.5318 68.0324C24.807 67.7562 24.1268 67.3757 23.5128 66.903C22.8201 66.3387 22.3105 65.5829 22.0481 64.7309C21.7857 63.8788 21.7823 62.9685 22.0383 62.1145C22.2246 61.5182 22.5498 60.9741 22.9874 60.5266C23.425 60.0792 23.9626 59.741 24.5563 59.5396C25.0719 59.3605 25.5354 59.058 25.9061 58.6587C26.7365 57.7248 27.7573 56.9779 28.9004 56.4678C29.2451 56.2842 29.6375 56.2086 30.0261 56.2509C30.4148 56.2932 30.7815 56.4515 31.0782 56.7049L31.4751 56.9986C32.9837 56.4565 34.4582 55.9596 35.8193 57.168C36.4335 56.9199 37.1037 56.8419 37.7588 56.9421C38.3597 57.145 38.8749 57.5426 39.222 58.0715C41.3203 57.5971 42.4091 58.0715 43.1351 59.822C43.4204 59.8626 43.6936 59.9635 43.9365 60.118C44.1794 60.2725 44.3862 60.477 44.5431 60.7177C44.6999 60.9585 44.8032 61.2298 44.846 61.5136C44.8888 61.7974 44.87 62.087 44.791 62.363C46.0614 63.1197 45.8459 64.1248 45.2674 65.2203L58.175 67.2983C58.9909 66.6433 59.6529 65.8184 60.1145 64.8815C61.1465 62.9076 62.0042 60.8482 62.6779 58.7265C63.0526 57.4996 63.3332 56.2462 63.5172 54.977C63.7882 53.0679 63.5537 51.1213 62.8367 49.3302C62.6826 48.9313 62.5834 48.5134 62.5418 48.088C62.5429 48.0028 62.564 47.9191 62.6036 47.8436C62.6432 47.7682 62.7001 47.703 62.7697 47.6536C62.8393 47.6041 62.9196 47.5716 63.0042 47.5588C63.0887 47.5459 63.1751 47.5531 63.2564 47.5797C63.4861 47.6332 63.701 47.7369 63.8854 47.8835C64.0699 48.03 64.2192 48.2156 64.3225 48.4268C64.5095 48.8141 64.6687 49.2141 64.7989 49.6239C65.4047 51.6391 65.5098 53.7707 65.1052 55.8353C64.6329 58.2737 63.8397 60.6394 62.746 62.8712C62.0495 64.6095 60.9947 66.1831 59.6495 67.4903C60.3187 67.6597 60.8631 67.863 61.4643 67.9533C61.6344 67.5242 61.7819 67.1741 61.9406 66.824C62.4748 65.5419 63.4306 64.4786 64.6515 63.8086C65.3635 63.3524 66.1923 63.1098 67.039 63.1098C67.8857 63.1098 68.7146 63.3524 69.4266 63.8086C69.541 63.776 69.6514 63.7305 69.7555 63.6731C71.0857 62.7199 72.6573 62.1566 74.2924 62.0468C75.2737 61.9088 76.2734 61.9859 77.2216 62.2727C78.1698 62.5594 79.0437 63.0489 79.7821 63.7069L80.5307 64.3733C81.7745 64.0136 83.0724 63.876 84.3644 63.9667C85.2709 64.0015 86.1419 64.3262 86.8484 64.8928C87.4583 65.3507 87.9775 65.9175 88.3796 66.5642C88.8333 66.4964 89.2076 66.3948 89.5819 66.3722C89.9275 66.3498 90.2745 66.3725 90.6141 66.44C91.0017 66.5182 91.3814 66.6316 91.7483 66.7788C92.0886 66.9143 92.4175 67.0837 92.8825 67.287C93.029 66.5049 93.1011 65.7109 93.098 64.9154C93.098 64.1474 93.2001 63.3794 93.2455 62.6566C93.2909 61.9338 93.3249 61.2111 93.3476 60.477C93.3703 59.7429 93.3476 58.9411 93.3476 58.2183C93.4137 57.465 93.387 56.7064 93.2682 55.9596L92.202 55.3384C89.3148 54.2048 86.696 52.4857 84.5119 50.2902C81.8604 47.5885 79.7915 44.3756 78.4324 40.8488C77.986 39.6432 77.6889 38.3878 77.5477 37.1106C77.5114 36.8147 77.5385 36.5145 77.6271 36.2297C77.6711 36.1394 77.7329 36.0588 77.8089 35.9928C77.8849 35.9268 77.9735 35.8768 78.0694 35.8457C78.1715 35.8457 78.3984 35.97 78.4664 36.1055C78.6806 36.5232 78.8699 36.9531 79.0335 37.393C79.8175 39.5673 80.7772 41.6748 81.9032 43.6948C83.6876 47.1205 86.3737 49.9988 89.6741 52.0218C92.9746 54.0449 96.7652 55.1367 100.641 55.1803C103.178 55.2855 105.712 54.9021 108.104 54.051C110.495 53.287 112.668 51.9663 114.443 50.1986C116.218 48.4309 117.545 46.2671 118.312 43.8868C119.165 41.2725 119.398 38.497 118.993 35.778C118.864 34.7117 118.549 33.6759 118.063 32.7174C117.758 32.0544 117.307 31.4684 116.743 31.003C116.18 30.5376 115.518 30.2048 114.807 30.0296C113.514 29.7133 112.244 29.3294 110.962 28.9002C108.532 28.1697 106.262 26.9897 104.27 25.4218C101.985 23.6648 100.06 21.4871 98.5991 19.0071C97.7144 17.4937 96.9317 15.9239 96.0924 14.3767C95.4005 13.1005 94.754 11.7905 94.0054 10.5369C93.5787 9.85056 93.0807 9.21084 92.5196 8.62828C91.8868 7.97574 91.0594 7.544 90.1604 7.39728C89.2706 7.23317 88.3628 7.18759 87.4609 7.26176C85.7115 7.30498 84.0268 7.92906 82.6744 9.03485C82.5419 9.1428 82.4017 9.24094 82.2548 9.32848C82.1572 9.41454 82.0406 9.47645 81.9145 9.50918C81.7565 9.52114 81.5985 9.48574 81.4608 9.40753C81.432 9.35568 81.4169 9.29739 81.4169 9.23813C81.4169 9.17887 81.432 9.12059 81.4608 9.06873C81.562 8.82041 81.6795 8.57896 81.8124 8.34594C81.2566 8.07489 80.6782 7.87161 80.2472 7.61186C76.7121 5.75393 72.9321 4.40049 69.0183 3.59135C64.769 2.63013 60.4414 2.05182 56.088 1.86344C51.495 1.58857 46.8856 1.81199 42.3411 2.52976C37.2907 3.2819 32.6029 5.58804 28.9345 9.1252C27.8002 10.2546 26.666 11.463 25.5318 12.6262C25.2936 12.8634 25.1234 13.2022 24.6244 13.1457C24.5846 12.9558 24.5846 12.7597 24.6244 12.5697C24.8038 12.1387 25.0321 11.7294 25.3049 11.35C26.0762 10.3788 26.8588 9.39624 27.7095 8.50405C29.5541 6.45865 31.7562 4.76351 34.2086 3.50101C35.048 3.08314 35.9213 2.72175 36.7834 2.37165C36.9195 2.30389 37.0442 2.21354 37.2824 2.06673C36.5034 1.55407 35.5667 1.33391 34.6397 1.44558C33.0839 1.52181 31.585 2.05202 30.3296 2.97021C28.8139 4.02457 27.4382 5.26539 26.235 6.6632C25.1386 7.9582 24.0573 9.27578 22.9911 10.6159C21.6331 12.3884 20.1144 14.0329 18.4541 15.5286C16.5473 17.2852 14.1937 18.4881 11.6487 19.0071C10.6359 19.1928 9.63584 19.4418 8.65437 19.7524C7.27423 20.1859 6.01699 20.9391 4.98582 21.9501C3.95464 22.9612 3.17893 24.2012 2.72233 25.5686C2.53733 26.0105 2.44208 26.4846 2.44208 26.9634C2.44208 27.4421 2.53733 27.9162 2.72233 28.3581C2.86978 28.2113 2.99455 28.1097 3.09663 27.9854C3.96272 26.9721 4.99891 26.1161 6.15906 25.4557C9.4219 23.4589 12.9937 22.0126 16.7301 21.1754C17.6876 20.9211 18.6772 20.807 19.6678 20.8366C19.7973 20.8364 19.9242 20.8736 20.0329 20.9438C20.1416 21.014 20.2276 21.114 20.2803 21.2319C20.371 21.4013 20.1668 21.6723 19.8719 21.7966C19.577 21.9208 19.475 21.9547 19.2708 22.0224L14.5978 23.7165C11.9112 24.6224 9.32946 25.8112 6.89631 27.2626C4.98709 28.3886 3.56467 30.1791 2.90381 32.2883C2.33413 33.9497 1.95367 35.6696 1.76958 37.4155C1.5073 39.9372 1.93857 42.4825 3.01723 44.7789C4.20818 47.2071 6.37456 48.1218 9.07404 48.5623ZM61.1127 69.5344C61.0219 69.4441 60.9879 69.3989 60.9539 69.3876L45.3695 66.5077C44.2353 66.2819 43.0216 66.0108 41.8534 65.7737C41.6197 65.7352 41.3972 65.6466 41.2014 65.514C41.0055 65.3814 40.841 65.2079 40.7191 65.0057C40.1763 64.1698 39.3825 63.5256 38.4507 63.1648C38.0197 62.9954 37.5773 62.8147 37.135 62.6792C34.1734 61.8063 31.1351 61.2164 28.0611 60.9174C27.1575 60.8582 26.2502 60.9421 25.373 61.1659C25.0054 61.2491 24.6671 61.4293 24.3937 61.6877C24.1203 61.946 23.9218 62.2729 23.8191 62.634C23.6475 63.1393 23.6348 63.6846 23.7827 64.1972C23.9307 64.7098 24.2322 65.1652 24.6471 65.5026C25.2178 65.9533 25.8678 66.2941 26.5639 66.5077C28.7853 67.3178 31.0589 67.9781 33.3693 68.4841C34.913 68.8469 36.4907 69.0475 38.0764 69.0827C38.3749 69.1284 38.6804 69.0891 38.9574 68.9692C39.2344 68.8492 39.4716 68.6537 39.6416 68.4051C39.7429 68.2659 39.8825 68.1588 40.0434 68.0967C40.2044 68.0346 40.38 68.0201 40.549 68.055C40.8099 68.055 41.0594 68.055 41.3203 68.055C42.4545 68.2244 43.5888 68.3712 44.723 68.5745C49.1578 69.365 53.5813 70.1781 58.0049 70.9574C58.8982 71.1614 59.8106 71.2712 60.727 71.2849C60.8631 70.7089 60.9992 70.0991 61.1127 69.5344ZM43.3619 61.2675C42.615 60.8616 41.9528 60.3172 41.411 59.6638C41.2586 59.4564 41.056 59.2906 40.822 59.182C40.588 59.0734 40.3302 59.0255 40.0726 59.0427C39.7664 59.0427 39.4715 59.0427 39.1652 59.0427C38.9556 59.073 38.7419 59.0606 38.5372 59.0062C38.3325 58.9519 38.141 58.8567 37.9743 58.7265C37.7477 58.5285 37.4786 58.3849 37.1876 58.3066C36.8966 58.2283 36.5915 58.2174 36.2956 58.2747C35.7419 58.3607 35.1753 58.3023 34.651 58.1053C33.8842 57.8073 33.0421 57.7598 32.2464 57.9698C31.6642 58.1334 31.0479 58.1334 30.4657 57.9698C30.0659 57.8066 29.6178 57.8066 29.218 57.9698C28.5495 58.2005 27.9466 58.5878 27.46 59.0992C27.9594 59.2608 28.4896 59.3051 29.009 59.2287C29.5285 59.1523 30.0232 58.9572 30.4543 58.6587C30.4543 58.6587 30.6812 58.6587 30.8173 58.7152L30.6472 59.4041C31.1122 59.4831 31.5319 59.7316 31.9288 59.6413C32.3712 59.3025 32.7341 59.0088 33.1311 58.7491C33.2105 58.6926 33.4033 58.7491 33.6075 58.8281L33.1311 59.822C33.381 59.9697 33.6746 60.0268 33.9619 59.9836C34.2493 59.9403 34.5128 59.7994 34.7077 59.5848C34.8666 59.4389 35.0566 59.3308 35.2635 59.2686C35.4435 59.2364 35.6279 59.2364 35.8079 59.2686L35.2181 60.2963L36.4204 60.556C36.9535 60.4092 37.2144 59.8558 37.8268 60.0365L37.634 60.9174L38.9271 61.3579C39.324 61.0868 39.6303 60.8497 39.9592 60.6577C40.2881 60.4657 40.3789 60.5447 40.515 60.8723L39.8912 61.8096L40.8099 62.3291L41.3883 61.9564C41.4955 61.8852 41.6095 61.8247 41.7286 61.7757C41.7967 61.7757 41.9328 61.7757 41.9555 61.8322C41.9781 61.8887 42.0802 62.0807 42.0349 62.1597C41.9895 62.2388 41.7286 62.5663 41.5925 62.7809C41.5538 62.8711 41.5271 62.9661 41.5131 63.0632C41.6492 63.3343 41.808 63.6279 41.9895 63.9667C42.3298 63.8199 42.636 63.6731 42.9422 63.5601C42.9422 63.5601 43.0784 63.6166 43.2258 63.6843L42.7608 64.9605C42.9517 64.999 43.1449 65.0254 43.3392 65.0396C43.5016 65.0507 43.6646 65.0507 43.8269 65.0396C44.1202 64.6481 44.3112 64.1901 44.3827 63.7069C43.7878 63.0243 43.4298 62.1688 43.3619 61.2675ZM38.5641 70.7541C41.6304 71.0568 44.7192 71.0568 47.7854 70.7541C45.3241 70.0878 42.9536 69.7603 40.583 69.1617C40.4227 69.5842 40.1502 69.9554 39.7947 70.2359C39.4391 70.5163 39.0138 70.6954 38.5641 70.7541ZM96.7729 77.7787L97.0225 76.3557C96.3267 76.0167 95.6016 75.7407 94.8561 75.5313C94.5007 76.2334 94.3033 77.0042 94.2776 77.79C95.0958 77.8793 95.9216 77.8755 96.7389 77.7787H96.7729Z" fill="white"/>
<path d="M69.1884 64.9605L68.7914 64.2829C67.2037 64.4352 65.7002 65.0655 64.4813 66.0899C63.7954 66.7446 63.308 67.5782 63.0749 68.4954C62.6552 70.02 62.2469 71.5447 61.8499 73.0806C61.6004 74.0292 61.3849 74.9892 61.1353 75.9379C60.8914 76.8058 60.8914 77.7238 61.1353 78.5918C61.4325 79.6343 61.3604 80.7469 60.9312 81.7427C60.3414 83.1657 59.7969 84.6 59.1164 85.9891C56.7274 90.8745 53.9551 95.5645 50.8252 100.016C49.9387 101.335 48.9203 102.561 47.7854 103.675C47.4175 104.03 47.0059 104.337 46.5604 104.59C46.2057 104.763 45.8205 104.867 45.4262 104.895C45.2962 104.915 45.1631 104.893 45.0467 104.832C44.9302 104.771 44.8366 104.674 44.7797 104.556C44.7228 104.439 44.7021 104.308 44.7203 104.179C44.7384 104.05 44.7947 103.93 44.8818 103.833C45.0762 103.606 45.2886 103.394 45.517 103.2C47.2341 101.624 48.7571 99.8496 50.0539 97.9151C52.7773 93.8745 55.2654 89.6814 57.5058 85.3567C58.2204 83.945 58.8669 82.4994 59.5474 81.0764C60.0637 79.934 60.164 78.648 59.831 77.4399C59.7121 76.8966 59.7121 76.3343 59.831 75.791L60.3867 72.9902C59.9784 72.8999 59.6608 72.8208 59.3206 72.7644C56.9954 72.3578 54.6702 71.9738 52.3564 71.5447C52.0315 71.4432 51.6832 71.4432 51.3582 71.5447C49.239 72.269 47.0085 72.6168 44.7684 72.5724C41.7557 72.6617 38.7403 72.5636 35.7399 72.2787C33.4714 72.0755 31.305 71.8157 29.1046 71.443C23.1846 70.5691 17.4779 68.6126 12.2726 65.672C10.8948 64.9925 9.68897 64.0119 8.74511 62.8035C8.68731 62.809 8.63123 62.8261 8.58024 62.8538C8.52924 62.8815 8.48439 62.9191 8.44837 62.9645C8.41236 63.0098 8.38592 63.0619 8.37064 63.1177C8.35536 63.1735 8.35156 63.2318 8.35947 63.2891C8.30838 64.0976 8.30838 64.9086 8.35947 65.7172C8.43711 66.3288 8.64154 66.9177 8.9598 67.4465C9.27806 67.9753 9.7032 68.4325 10.2083 68.789C11.2077 69.533 12.2837 70.169 13.4182 70.6864C18.1073 72.8105 23.0076 74.4382 28.0384 75.5426C30.3517 76.0804 32.6913 76.4988 35.048 76.7962C36.4431 76.9769 37.8722 77.0672 39.2787 77.135C41.2976 77.2366 43.3165 77.2818 45.3355 77.3608C45.6371 77.3599 45.9378 77.394 46.2315 77.4625C46.3063 77.4976 46.3719 77.5495 46.4231 77.6142C46.4743 77.6789 46.5097 77.7545 46.5264 77.8352C46.5418 77.915 46.5363 77.9975 46.5105 78.0746C46.4847 78.1517 46.4394 78.2209 46.379 78.2756C46.1339 78.4448 45.8615 78.5708 45.5737 78.6483C44.2776 78.9526 42.9456 79.078 41.6152 79.021C40.7078 79.021 39.8118 78.9532 38.9044 78.9081C38.5641 78.8663 38.2198 78.942 37.9289 79.1226C36.4771 80.1278 34.9572 81.0312 33.5962 82.1267C30.9541 84.3254 28.9135 87.1536 27.6641 90.3484C26.3231 93.5982 25.4487 97.0199 25.0667 100.513C24.7753 103.138 24.6351 105.777 24.6471 108.418C24.6471 112.1 24.6471 115.782 24.6471 119.463C24.6529 119.717 24.6301 119.971 24.579 120.22C24.5498 120.274 24.5094 120.321 24.4605 120.358C24.4116 120.395 24.3553 120.421 24.2954 120.434C24.2347 120.445 24.1723 120.441 24.1133 120.424C24.0542 120.406 24.0001 120.375 23.9552 120.333C23.8131 120.12 23.713 119.883 23.6603 119.633C23.5129 118.887 23.4144 118.132 23.3654 117.374C23.2633 113.387 23.1158 109.468 23.1045 105.437C23.0969 101.285 23.6929 97.1537 24.8739 93.1718C25.8067 89.779 27.3727 86.5914 29.4902 83.7756C30.4836 82.4873 31.6257 81.3198 32.8929 80.2972C33.4824 79.8847 34.0959 79.5076 34.7304 79.1678L35.4676 78.6935L32.0082 78.1401C25.2494 77.0608 18.6753 75.0461 12.4767 72.1545C11.1417 71.5538 9.90634 70.754 8.81316 69.7829C7.97659 69.0042 7.35866 68.0216 7.02048 66.9322C6.6823 65.8428 6.63559 64.6843 6.88497 63.5714C6.98567 62.7095 7.38709 61.9101 8.0192 61.3127C8.0192 59.7429 7.76967 58.1392 8.63169 56.6372C7.37269 55.0109 7.4294 53.1249 7.59954 51.2389C7.59954 50.8097 7.70162 50.3918 7.75833 49.9062C7.35 49.7707 7.00973 49.6352 6.62409 49.5448C5.42436 49.2795 4.3064 48.7305 3.3647 47.9442C2.42301 47.1579 1.68526 46.1575 1.2138 45.0274C0.271192 42.8182 -0.144225 40.4214 0.000172755 38.0254C0.0890945 35.4134 0.650053 32.8387 1.65615 30.4248C1.73555 30.2328 1.8036 30.0296 1.89434 29.7924C1.74689 29.5891 1.59944 29.3858 1.44065 29.1938C1.09576 28.7779 0.851038 28.2889 0.725216 27.7643C0.599394 27.2397 0.59581 26.6934 0.71474 26.1672C0.819045 25.5776 0.990278 25.0017 1.22514 24.4505C1.8738 22.8105 2.90727 21.3488 4.23919 20.1876C5.5711 19.0265 7.16278 18.1996 8.88122 17.7761C9.70921 17.5615 10.5485 17.3921 11.3879 17.2114C13.4681 16.7846 15.4045 15.8361 17.0137 14.4558C18.5307 13.1483 19.931 11.7124 21.199 10.1642C22.4693 8.60569 23.751 7.04718 25.0667 5.52255C26.4682 3.94924 28.092 2.58728 29.8872 1.47946C31.2602 0.573185 32.8574 0.0612835 34.5035 4.92483e-06C35.2741 -0.0912686 36.0554 0.00490855 36.7804 0.280288C37.5054 0.555668 38.1525 1.00203 38.6662 1.5811C38.8436 1.59399 39.0218 1.59399 39.1993 1.5811C41.2664 1.01481 43.381 0.636805 45.517 0.451747C49.1961 0.0452939 52.9036 -0.0453886 56.5984 0.180702C58.0502 0.304931 59.502 0.372692 60.9652 0.530802C66.6546 1.05329 72.2454 2.34902 77.5817 4.3819C78.8458 4.92076 80.0414 5.60692 81.1432 6.42604C81.7444 6.8439 81.7897 6.93425 82.2775 7.88291L82.9693 7.3634C84.0246 6.53746 85.2965 6.03167 86.6329 5.90653C86.9732 5.90653 87.3021 5.81618 87.6537 5.77101C89.1043 5.50707 90.6014 5.69643 91.9396 6.31313C93.2778 6.92982 94.3916 7.94364 95.1283 9.21554C95.979 10.6385 96.7503 12.118 97.5442 13.5523C98.3382 14.9865 99.1662 16.6693 100.085 18.1713C102.227 21.7678 105.421 24.6281 109.238 26.3705C110.866 27.03 112.542 27.5661 114.251 27.9741C114.705 28.1097 115.17 28.2 115.624 28.3355C117.082 28.7632 118.333 29.7072 119.14 30.9895C119.971 32.2947 120.513 33.7618 120.728 35.2924C121.17 37.8765 121.058 40.5244 120.399 43.0623C119.68 46.1029 118.164 48.8993 116.006 51.1668C113.849 53.4344 111.126 55.092 108.115 55.9709C105.158 56.9081 102.042 57.2461 98.9507 56.9647C97.7144 56.863 96.5007 56.5581 95.2758 56.3435L94.5725 56.2306C94.552 56.4447 94.552 56.6602 94.5725 56.8743C94.8522 59.2545 94.9054 61.6556 94.7313 64.0457C94.7313 65.6268 94.5385 67.2079 94.4591 68.789C94.4713 69.0819 94.5407 69.3696 94.6633 69.6361C94.8674 70.2007 95.1397 70.7654 95.3211 71.3075C95.6043 72.2198 95.6043 73.196 95.3211 74.1083C95.7434 74.3321 96.206 74.4703 96.6822 74.5149C96.9799 74.5621 97.2724 74.6378 97.5556 74.7407C97.719 74.794 97.8617 74.8966 97.9639 75.0344C98.2513 75.4523 98.449 75.9248 98.5446 76.4222C98.6402 76.9197 98.6317 77.4315 98.5197 77.9255C98.4259 78.3985 98.1569 78.8191 97.766 79.1037C97.3752 79.3882 96.8911 79.5159 96.41 79.4614C95.5593 79.4614 94.7086 79.3033 93.7786 79.213C93.6654 79.426 93.5632 79.6446 93.4723 79.868C93.2001 80.5908 92.9279 81.3023 92.667 82.0364C92.2648 83.027 91.6757 83.9317 90.9316 84.7017C90.8635 84.8103 90.765 84.8967 90.6481 84.9501C90.4553 85.0179 90.2057 85.1082 90.0583 85.0292C89.9796 84.9655 89.917 84.8843 89.8756 84.7921C89.8342 84.6999 89.8152 84.5992 89.8201 84.4984C89.8501 84.2045 89.9307 83.918 90.0583 83.6514C90.4439 82.6914 90.8749 81.7653 91.1925 80.7941C91.6349 79.5518 92.0432 78.2869 92.4515 77.0333C92.8598 75.7797 93.1321 74.7746 93.5177 73.6453C93.7959 72.9178 93.7959 72.114 93.5177 71.3866C93.3038 70.8307 93.0498 70.291 92.7578 69.7716C92.4416 69.1034 91.9147 68.5564 91.2575 68.2139C90.6002 67.8714 89.8485 67.7521 89.1169 67.8743C87.5743 68.1114 87.4722 67.8743 86.5875 66.8804C86.2002 66.3931 85.7047 66.0018 85.1399 65.7372C84.575 65.4727 83.9563 65.3421 83.3323 65.3558C82.733 65.3631 82.1347 65.4045 81.5402 65.48C81.1547 65.5684 80.7554 65.5789 80.3658 65.511C79.9762 65.4431 79.6041 65.2982 79.2717 65.0848C78.5586 64.6281 77.7981 64.2494 77.0033 63.9554C76.6035 63.8027 76.1829 63.7113 75.7556 63.6843C74.2971 63.5314 72.8227 63.713 71.4455 64.2151C70.9238 64.4184 70.402 64.6217 69.8803 64.8024C69.6524 64.8663 69.4215 64.9191 69.1884 64.9605ZM9.07404 48.5623C8.81999 46.6352 8.86974 44.6805 9.22149 42.7687C9.34655 42.1841 9.51721 41.6102 9.73189 41.0521C9.77785 40.9004 9.86406 40.7638 9.98143 40.6568C10.0348 40.6324 10.0928 40.6198 10.1516 40.6198C10.2103 40.6198 10.2683 40.6324 10.3217 40.6568C10.3814 40.6765 10.4354 40.7105 10.4789 40.7558C10.5224 40.8011 10.5541 40.8563 10.5712 40.9165C10.6052 41.213 10.6052 41.5123 10.5712 41.8087C10.3501 43.592 10.3045 45.3924 10.4351 47.1845C10.4612 48.3076 10.8122 49.3994 11.4459 50.3289C12.0797 51.2583 12.9692 51.986 14.008 52.4247C14.7082 52.7442 15.428 53.0196 16.163 53.2491C18.3532 53.8681 20.6048 54.2468 22.8777 54.3785C29.1138 54.746 35.3298 53.3815 40.8326 50.437C42.4659 49.5787 44.0992 48.7204 45.7438 47.8847C47.3884 47.049 49.1465 46.1568 50.9386 45.321C52.4378 44.6393 54.0396 44.2081 55.6797 44.0449C57.1715 43.8114 58.6984 43.9631 60.1145 44.4853C60.8 44.7218 61.4239 45.1077 61.9406 45.6147C62.2809 45.9761 62.3603 46.3036 62.1675 46.5182C61.9747 46.7327 61.6117 46.5182 61.3395 46.5182C59.0211 45.6996 56.5113 45.5817 54.1258 46.1793C52.8399 46.5252 51.5932 47.0021 50.4055 47.6023C48.0236 48.7317 45.6757 50.0304 43.2938 51.2163C41.6379 52.0407 39.9932 52.8877 38.2919 53.5879C34.0628 55.3226 29.527 56.1944 24.9533 56.1516C23.0184 56.1686 21.086 56.0098 19.1801 55.6772C17.5683 55.4271 15.987 55.0107 14.4616 54.4349C12.3879 53.7828 10.6533 52.3476 9.62981 50.437C9.44834 50.0643 9.41431 50.0756 8.82451 50.2111C8.82451 51.1485 8.82451 52.0859 8.82451 53.0232C8.83384 53.4948 8.92597 53.9611 9.09672 54.4011C9.27197 54.9752 9.58591 55.4977 10.0111 55.923C10.4362 56.3483 10.9596 56.6633 11.5353 56.8405C12.3973 57.0663 13.2253 57.439 14.076 57.7326C15.2102 58.094 16.2651 58.478 17.388 58.7942C18.5109 59.1105 19.7245 59.3363 20.8927 59.6187C21.1381 59.6794 21.3773 59.7626 21.6073 59.8671C21.7775 59.9349 21.7775 60.3189 21.6073 60.4205C21.4708 60.5243 21.3223 60.6115 21.165 60.6803C20.4239 60.893 19.6376 60.893 18.8965 60.6803C15.9372 59.9572 13.0515 58.9629 10.2763 57.7101L9.73189 57.5971C9.6819 57.7444 9.64397 57.8955 9.61847 58.0489C9.61847 59.1782 9.61847 60.3076 9.61847 61.5047C9.62065 61.6999 9.6678 61.8921 9.75628 62.0664C9.84477 62.2406 9.97224 62.3923 10.1289 62.5098C10.586 62.8987 11.0712 63.2535 11.5807 63.5714C13.706 64.8823 15.9367 66.0155 18.25 66.9595C22.3828 68.5274 26.6835 69.615 31.0668 70.2007C31.3025 70.1616 31.5341 70.1011 31.7587 70.02C31.6525 69.9572 31.5426 69.9007 31.4298 69.8506C29.4449 69.3198 27.46 68.7213 25.5318 68.0324C24.807 67.7562 24.1268 67.3757 23.5128 66.903C22.8201 66.3387 22.3105 65.5829 22.0481 64.7309C21.7857 63.8788 21.7823 62.9685 22.0383 62.1145C22.2246 61.5182 22.5498 60.9741 22.9874 60.5266C23.425 60.0792 23.9626 59.741 24.5563 59.5396C25.0719 59.3605 25.5354 59.058 25.9061 58.6587C26.7365 57.7248 27.7573 56.9779 28.9004 56.4678C29.2451 56.2842 29.6375 56.2086 30.0261 56.2509C30.4148 56.2932 30.7815 56.4515 31.0782 56.7049L31.4751 56.9986C32.9837 56.4565 34.4582 55.9596 35.8193 57.168C36.4335 56.9199 37.1037 56.8419 37.7588 56.9421C38.3597 57.145 38.8749 57.5426 39.222 58.0715C41.3203 57.5971 42.4091 58.0715 43.1351 59.822C43.4204 59.8626 43.6936 59.9635 43.9365 60.118C44.1794 60.2725 44.3862 60.477 44.5431 60.7177C44.6999 60.9585 44.8032 61.2298 44.846 61.5136C44.8888 61.7974 44.87 62.087 44.791 62.363C46.0614 63.1197 45.8459 64.1248 45.2674 65.2203L58.175 67.2983C58.9909 66.6433 59.6529 65.8184 60.1145 64.8815C61.1465 62.9076 62.0042 60.8482 62.6779 58.7265C63.0526 57.4996 63.3332 56.2462 63.5172 54.977C63.7882 53.0679 63.5537 51.1213 62.8367 49.3302C62.6826 48.9313 62.5834 48.5134 62.5418 48.088C62.5429 48.0028 62.564 47.9191 62.6036 47.8436C62.6432 47.7682 62.7001 47.703 62.7697 47.6536C62.8393 47.6041 62.9196 47.5716 63.0042 47.5588C63.0887 47.5459 63.1751 47.5531 63.2564 47.5797C63.4861 47.6332 63.701 47.7369 63.8854 47.8835C64.0699 48.03 64.2192 48.2156 64.3225 48.4268C64.5095 48.8141 64.6687 49.2141 64.7989 49.6239C65.4047 51.6391 65.5098 53.7707 65.1052 55.8353C64.6329 58.2737 63.8397 60.6394 62.746 62.8712C62.0495 64.6095 60.9947 66.1831 59.6495 67.4903C60.3187 67.6597 60.8631 67.863 61.4643 67.9533C61.6344 67.5242 61.7819 67.1741 61.9406 66.824C62.4748 65.5419 63.4306 64.4786 64.6515 63.8086C65.3635 63.3524 66.1923 63.1098 67.039 63.1098C67.8857 63.1098 68.7146 63.3524 69.4266 63.8086C69.541 63.776 69.6514 63.7305 69.7555 63.6731C71.0857 62.7199 72.6573 62.1566 74.2924 62.0468C75.2737 61.9088 76.2734 61.9859 77.2216 62.2727C78.1698 62.5594 79.0437 63.0489 79.7821 63.7069L80.5307 64.3733C81.7745 64.0136 83.0724 63.876 84.3644 63.9667C85.2709 64.0015 86.1419 64.3262 86.8484 64.8928C87.4583 65.3507 87.9775 65.9175 88.3796 66.5642C88.8333 66.4964 89.2076 66.3948 89.5819 66.3722C89.9275 66.3498 90.2745 66.3725 90.6141 66.44C91.0017 66.5182 91.3814 66.6316 91.7483 66.7788C92.0886 66.9143 92.4175 67.0837 92.8825 67.287C93.029 66.5049 93.1011 65.7109 93.098 64.9154C93.098 64.1474 93.2001 63.3794 93.2455 62.6566C93.2909 61.9338 93.3249 61.2111 93.3476 60.477C93.3703 59.7429 93.3476 58.9411 93.3476 58.2183C93.4137 57.465 93.387 56.7064 93.2682 55.9596L92.202 55.3384C89.3148 54.2048 86.696 52.4857 84.5119 50.2902C81.8604 47.5885 79.7915 44.3756 78.4324 40.8488C77.986 39.6432 77.6889 38.3878 77.5477 37.1106C77.5114 36.8147 77.5385 36.5145 77.6271 36.2297C77.6711 36.1394 77.7329 36.0588 77.8089 35.9928C77.8849 35.9268 77.9735 35.8768 78.0694 35.8457C78.1715 35.8457 78.3984 35.97 78.4664 36.1055C78.6806 36.5232 78.8699 36.9531 79.0335 37.393C79.8175 39.5673 80.7772 41.6748 81.9032 43.6948C83.6876 47.1205 86.3737 49.9988 89.6741 52.0218C92.9746 54.0449 96.7652 55.1367 100.641 55.1803C103.178 55.2855 105.712 54.9021 108.104 54.051C110.495 53.287 112.668 51.9663 114.443 50.1986C116.218 48.4309 117.545 46.2671 118.312 43.8868C119.165 41.2725 119.398 38.497 118.993 35.778C118.864 34.7117 118.549 33.6759 118.063 32.7174C117.758 32.0544 117.307 31.4684 116.743 31.003C116.18 30.5376 115.518 30.2048 114.807 30.0296C113.514 29.7133 112.244 29.3294 110.962 28.9002C108.532 28.1697 106.262 26.9897 104.27 25.4218C101.985 23.6648 100.06 21.4871 98.5991 19.0071C97.7144 17.4937 96.9317 15.9239 96.0924 14.3767C95.4005 13.1005 94.754 11.7905 94.0054 10.5369C93.5787 9.85056 93.0807 9.21084 92.5196 8.62828C91.8868 7.97574 91.0594 7.544 90.1604 7.39728C89.2706 7.23317 88.3628 7.18759 87.4609 7.26176C85.7115 7.30498 84.0268 7.92906 82.6744 9.03485C82.5419 9.1428 82.4017 9.24094 82.2548 9.32848C82.1572 9.41454 82.0406 9.47645 81.9145 9.50918C81.7565 9.52114 81.5985 9.48574 81.4608 9.40753C81.432 9.35568 81.4169 9.29739 81.4169 9.23813C81.4169 9.17887 81.432 9.12059 81.4608 9.06873C81.562 8.82041 81.6795 8.57896 81.8124 8.34594C81.2566 8.07489 80.6782 7.87161 80.2472 7.61186C76.7121 5.75393 72.9321 4.40049 69.0183 3.59135C64.769 2.63013 60.4414 2.05182 56.088 1.86344C51.495 1.58857 46.8856 1.81199 42.3411 2.52976C37.2907 3.2819 32.6029 5.58804 28.9345 9.1252C27.8002 10.2546 26.666 11.463 25.5318 12.6262C25.2936 12.8634 25.1234 13.2022 24.6244 13.1457C24.5846 12.9558 24.5846 12.7597 24.6244 12.5697C24.8038 12.1387 25.0321 11.7294 25.3049 11.35C26.0762 10.3788 26.8588 9.39624 27.7095 8.50405C29.5541 6.45865 31.7562 4.76351 34.2086 3.50101C35.048 3.08314 35.9213 2.72175 36.7834 2.37165C36.9195 2.30389 37.0442 2.21354 37.2824 2.06673C36.5034 1.55407 35.5667 1.33391 34.6397 1.44558C33.0839 1.52181 31.585 2.05202 30.3296 2.97021C28.8139 4.02457 27.4382 5.26539 26.235 6.6632C25.1386 7.9582 24.0573 9.27578 22.9911 10.6159C21.6331 12.3884 20.1144 14.0329 18.4541 15.5286C16.5473 17.2852 14.1937 18.4881 11.6487 19.0071C10.6359 19.1928 9.63584 19.4418 8.65437 19.7524C7.27423 20.1859 6.01699 20.9391 4.98582 21.9501C3.95464 22.9612 3.17893 24.2012 2.72233 25.5686C2.53733 26.0105 2.44208 26.4846 2.44208 26.9634C2.44208 27.4421 2.53733 27.9162 2.72233 28.3581C2.86978 28.2113 2.99455 28.1097 3.09663 27.9854C3.96272 26.9721 4.99891 26.1161 6.15906 25.4557C9.4219 23.4589 12.9937 22.0126 16.7301 21.1754C17.6876 20.9211 18.6772 20.807 19.6678 20.8366C19.7973 20.8364 19.9242 20.8736 20.0329 20.9438C20.1416 21.014 20.2276 21.114 20.2803 21.2319C20.371 21.4013 20.1668 21.6723 19.8719 21.7966C19.577 21.9208 19.475 21.9547 19.2708 22.0224L14.5978 23.7165C11.9112 24.6224 9.32946 25.8112 6.89631 27.2626C4.98709 28.3886 3.56467 30.1791 2.90381 32.2883C2.33413 33.9497 1.95367 35.6696 1.76958 37.4155C1.5073 39.9372 1.93857 42.4825 3.01723 44.7789C4.20818 47.2071 6.37456 48.1218 9.07404 48.5623ZM61.1127 69.5344C61.0219 69.4441 60.9879 69.3989 60.9539 69.3876L45.3695 66.5077C44.2353 66.2819 43.0216 66.0108 41.8534 65.7737C41.6197 65.7352 41.3972 65.6466 41.2014 65.514C41.0055 65.3814 40.841 65.2079 40.7191 65.0057C40.1763 64.1698 39.3825 63.5256 38.4507 63.1648C38.0197 62.9954 37.5773 62.8147 37.135 62.6792C34.1734 61.8063 31.1351 61.2164 28.0611 60.9174C27.1575 60.8582 26.2502 60.9421 25.373 61.1659C25.0054 61.2491 24.6671 61.4293 24.3937 61.6877C24.1203 61.946 23.9218 62.2729 23.8191 62.634C23.6475 63.1393 23.6348 63.6846 23.7827 64.1972C23.9307 64.7098 24.2322 65.1652 24.6471 65.5026C25.2178 65.9533 25.8678 66.2941 26.5639 66.5077C28.7853 67.3178 31.0589 67.9781 33.3693 68.4841C34.913 68.8469 36.4907 69.0475 38.0764 69.0827C38.3749 69.1284 38.6804 69.0891 38.9574 68.9692C39.2344 68.8492 39.4716 68.6537 39.6416 68.4051C39.7429 68.2659 39.8825 68.1588 40.0434 68.0967C40.2044 68.0346 40.38 68.0201 40.549 68.055C40.8099 68.055 41.0594 68.055 41.3203 68.055C42.4545 68.2244 43.5888 68.3712 44.723 68.5745C49.1578 69.365 53.5813 70.1781 58.0049 70.9574C58.8982 71.1614 59.8106 71.2712 60.727 71.2849C60.8631 70.7089 60.9992 70.0991 61.1127 69.5344ZM43.3619 61.2675C42.615 60.8616 41.9528 60.3172 41.411 59.6638C41.2586 59.4564 41.056 59.2906 40.822 59.182C40.588 59.0734 40.3302 59.0255 40.0726 59.0427C39.7664 59.0427 39.4715 59.0427 39.1652 59.0427C38.9556 59.073 38.7419 59.0606 38.5372 59.0062C38.3325 58.9519 38.141 58.8567 37.9743 58.7265C37.7477 58.5285 37.4786 58.3849 37.1876 58.3066C36.8966 58.2283 36.5915 58.2174 36.2956 58.2747C35.7419 58.3607 35.1753 58.3023 34.651 58.1053C33.8842 57.8073 33.0421 57.7598 32.2464 57.9698C31.6642 58.1334 31.0479 58.1334 30.4657 57.9698C30.0659 57.8066 29.6178 57.8066 29.218 57.9698C28.5495 58.2005 27.9466 58.5878 27.46 59.0992C27.9594 59.2608 28.4896 59.3051 29.009 59.2287C29.5285 59.1523 30.0232 58.9572 30.4543 58.6587C30.4543 58.6587 30.6812 58.6587 30.8173 58.7152L30.6472 59.4041C31.1122 59.4831 31.5319 59.7316 31.9288 59.6413C32.3712 59.3025 32.7341 59.0088 33.1311 58.7491C33.2105 58.6926 33.4033 58.7491 33.6075 58.8281L33.1311 59.822C33.381 59.9697 33.6746 60.0268 33.9619 59.9836C34.2493 59.9403 34.5128 59.7994 34.7077 59.5848C34.8666 59.4389 35.0566 59.3308 35.2635 59.2686C35.4435 59.2364 35.6279 59.2364 35.8079 59.2686L35.2181 60.2963L36.4204 60.556C36.9535 60.4092 37.2144 59.8558 37.8268 60.0365L37.634 60.9174L38.9271 61.3579C39.324 61.0868 39.6303 60.8497 39.9592 60.6577C40.2881 60.4657 40.3789 60.5447 40.515 60.8723L39.8912 61.8096L40.8099 62.3291L41.3883 61.9564C41.4955 61.8852 41.6095 61.8247 41.7286 61.7757C41.7967 61.7757 41.9328 61.7757 41.9555 61.8322C41.9781 61.8887 42.0802 62.0807 42.0349 62.1597C41.9895 62.2388 41.7286 62.5663 41.5925 62.7809C41.5538 62.8711 41.5271 62.9661 41.5131 63.0632C41.6492 63.3343 41.808 63.6279 41.9895 63.9667C42.3298 63.8199 42.636 63.6731 42.9422 63.5601C42.9422 63.5601 43.0784 63.6166 43.2258 63.6843L42.7608 64.9605C42.9517 64.999 43.1449 65.0254 43.3392 65.0396C43.5016 65.0507 43.6646 65.0507 43.8269 65.0396C44.1202 64.6481 44.3112 64.1901 44.3827 63.7069C43.7878 63.0243 43.4298 62.1688 43.3619 61.2675ZM38.5641 70.7541C41.6304 71.0568 44.7192 71.0568 47.7854 70.7541C45.3241 70.0878 42.9536 69.7603 40.583 69.1617C40.4227 69.5842 40.1502 69.9554 39.7947 70.2359C39.4391 70.5163 39.0138 70.6954 38.5641 70.7541ZM96.7729 77.7787L97.0225 76.3557C96.3267 76.0167 95.6016 75.7407 94.8561 75.5313C94.5007 76.2334 94.3033 77.0042 94.2776 77.79C95.0958 77.8793 95.9216 77.8755 96.7389 77.7787H96.7729Z" stroke="white" mask="url(#path-1-outside-1)"/>
<path d="M36.9528 131.274L36.9528 131.274C34.1758 130.753 31.5092 129.761 29.0696 128.341L29.0671 128.34C28.1395 127.786 27.2514 127.168 26.4091 126.492C25.4763 125.77 24.8115 124.759 24.5195 123.618C24.4563 123.407 24.4054 123.191 24.3669 122.974L24.3644 122.96L24.3648 122.96C24.3327 122.692 24.359 122.432 24.4428 122.228C24.5228 122.034 24.6904 121.822 24.9647 121.822C25.1794 121.822 25.3682 121.939 25.5024 122.064C25.639 122.192 25.7535 122.359 25.8193 122.529C26.4553 123.93 27.5447 125.079 28.9138 125.792L28.9214 125.796L28.9287 125.8C31.68 127.482 34.7303 128.621 37.9136 129.155L37.9148 129.155C41.0735 129.701 44.2865 129.866 47.4849 129.649L47.492 129.649L47.492 129.649C54.4569 129.373 61.0936 126.629 66.2057 121.911C69.8451 118.543 73.0334 114.722 75.692 110.543C78.7752 105.682 81.5284 100.621 83.9332 95.3938L83.9346 95.3908C84.3468 94.525 84.7338 93.6475 85.1225 92.766L85.1232 92.7645C85.5112 91.8847 85.9008 91.0011 86.3163 90.1283C86.7244 89.2592 87.1956 88.4129 87.6597 87.5795C87.7552 87.408 87.8504 87.237 87.9447 87.0665C87.9449 87.0661 87.9452 87.0657 87.9454 87.0653L88.1642 87.1862C88.3229 86.8926 88.5384 86.5764 88.9581 86.6442C89.3778 86.7119 89.3891 87.0959 89.287 87.6493L36.9528 131.274ZM36.9528 131.274L36.9574 131.274M36.9528 131.274L36.9574 131.274M36.9574 131.274C37.5375 131.372 38.1101 131.487 38.7114 131.608C38.8755 131.641 39.0418 131.674 39.211 131.708C39.2154 132.237 39.2366 132.637 39.2666 133.087C39.2569 133.367 39.2355 133.649 39.2136 133.938C39.2099 133.987 39.2061 134.037 39.2024 134.087C39.177 134.427 39.1537 134.774 39.1535 135.121C39.1325 135.57 39.1059 136.021 39.0792 136.474C39.0204 137.473 38.9612 138.478 38.9606 139.473C38.9316 139.742 38.9321 140.013 38.9622 140.282L38.9635 140.294M36.9574 131.274L38.9635 140.294M38.9635 140.294L38.9659 140.306C39.0119 140.527 39.1272 140.727 39.2951 140.878L39.4624 140.693L38.9635 140.294Z" fill="white" stroke="white" stroke-width="0.5"/>
<path d="M118.097 125.757V126.16C118.097 129.032 118.04 131.904 117.927 134.765L117.927 134.765C117.871 136.099 117.716 137.426 117.563 138.741C117.529 139.041 117.494 139.34 117.46 139.639L117.46 139.642C117.414 140.016 117.279 140.375 117.067 140.688L117.061 140.697L117.054 140.706C116.855 140.951 116.569 141.109 116.255 141.147L116.24 141.148H116.225C115.754 141.148 115.468 140.816 115.334 140.469L115.333 140.466C115.251 140.247 115.2 140.017 115.182 139.783C115.152 139.552 115.152 139.317 115.183 139.085C115.605 134.97 115.767 130.832 115.669 126.697L115.669 126.691H115.669C115.669 122.669 115.669 118.657 115.386 114.647L115.385 114.642C114.993 106.886 113.609 99.2111 111.269 91.8029C110.729 90.157 110.031 88.5536 109.328 86.9496C108.517 85.1763 107.469 83.5207 106.211 82.0281L106.206 82.0216L106.206 82.0215C105.352 80.9355 104.294 80.0248 103.092 79.3399L103.091 79.3398C102.465 78.9823 101.836 78.6348 101.207 78.2868C100.822 78.0744 100.438 77.8618 100.054 77.6468L100.045 77.6421L100.037 77.6367C99.774 77.4614 99.5336 77.2545 99.3213 77.0207L99.5064 76.8527M118.097 125.757L99.6565 76.0778C99.4366 76.1265 99.3064 76.3174 99.2509 76.4659C99.2206 76.5473 99.2026 76.6393 99.2073 76.7315C99.2119 76.8225 99.2401 76.9325 99.3225 77.022L99.5064 76.8527M118.097 125.757L117.961 125.824M118.097 125.757L117.961 125.824M99.5064 76.8527C99.3816 76.7171 99.5064 76.367 99.7106 76.3219C99.8338 76.2946 99.9616 76.2946 100.085 76.3219M99.5064 76.8527C99.7049 77.0713 99.9296 77.2647 100.176 77.4286C100.558 77.6423 100.941 77.8543 101.325 78.0666C101.956 78.4153 102.588 78.7646 103.215 79.1227C104.446 79.8235 105.528 80.7555 106.403 81.867C107.675 83.3774 108.736 85.0529 109.556 86.8475L100.085 76.3219M100.085 76.3219C100.427 76.352 100.765 76.4163 101.094 76.5139C103.757 77.3268 106.122 78.897 107.9 81.0313L100.085 76.3219ZM117.961 125.824V125.818V125.809V125.799V125.79V125.78V125.771V125.761V125.752V125.742V125.733V125.723V125.714V125.704V125.694V125.685V125.675V125.666V125.656V125.647V125.637V125.628V125.618V125.609V125.599V125.59V125.58V125.571V125.561V125.552V125.542V125.532V125.523V125.513V125.504V125.494V125.485V125.475V125.466V125.456V125.447V125.437V125.428V125.418V125.409V125.399V125.39V125.38V125.37V125.361V125.351V125.342V125.332V125.323V125.313V125.304V125.294V125.285V125.275V125.266V125.256V125.247V125.237V125.228V125.218V125.208V125.199V125.189V125.18V125.17V125.161V125.151V125.142V125.132V125.123V125.113V125.104V125.094V125.085V125.075V125.066V125.056V125.046V125.037V125.027V125.018V125.008V124.999V124.989V124.98V124.97V124.961V124.951V124.942V124.932V124.923V124.913V124.904V124.894V124.884V124.875V124.865V124.856V124.846V124.837V124.827V124.818V124.808V124.799V124.789V124.78V124.77V124.761V124.751V124.742V124.732V124.722V124.713V124.703V124.694V124.684V124.675V124.665V124.656V124.646V124.637V124.627V124.618V124.608V124.599V124.589V124.58V124.57V124.561V124.551V124.541V124.532V124.522V124.513V124.503V124.494V124.484V124.475V124.465V124.456V124.446V124.437V124.427V124.418V124.408V124.399V124.389V124.379V124.37V124.36V124.351V124.341V124.332V124.322V124.313V124.303V124.294V124.284V124.275V124.265V124.256V124.246V124.237V124.227V124.217V124.208V124.198V124.189V124.179V124.17V124.16V124.151V124.141V124.132V124.122V124.113V124.103V124.094V124.084V124.075V124.065V124.055V124.046V124.036V124.027V124.017V124.008V123.998V123.989V123.979V123.97V123.96V123.951V123.941V123.932V123.922V123.913V123.903V123.893V123.884V123.874V123.865V123.855V123.846V123.836V123.827V123.817V123.808V123.798V123.789V123.779V123.77V123.76V123.751V123.741V123.731V123.722V123.712V123.703V123.693V123.684V123.674V123.665V123.655V123.646V123.636V123.627V123.617V123.608V123.598V123.589V123.579V123.569V123.56V123.55V123.541V123.531V123.522V123.512V123.503V123.493V123.484V123.474V123.465V123.455V123.446V123.436V123.427V123.417V123.408V123.398V123.388V123.379V123.369V123.36V123.35V123.341V123.331V123.322V123.312V123.303V123.293V123.284V123.274V123.265V123.255V123.246V123.236V123.226V123.217V123.207V123.198V123.188V123.179V123.169V123.16V123.15V123.141V123.131V123.122V123.112V123.103V123.093V123.084V123.074V123.064V123.055V123.045V123.036V123.026V123.017V123.007V122.998V122.988V122.979V122.969V122.96V122.95V122.941V122.931V122.922V122.912V122.902V122.893V122.883V122.874V122.864V122.855V122.845V122.836V122.826V122.817V122.807V122.798V122.788V122.779V122.769V122.76V122.75V122.74V122.731V122.721V122.712V122.702V122.693V122.683V122.674V122.664V122.655V122.645V122.636V122.626V122.617V122.607V122.598V122.588V122.578V122.569V122.559V122.55V122.54V122.531V122.521V122.512V122.502V122.493V122.483V122.474V122.464V122.455V122.445V122.436V122.426V122.416V122.407V122.397V122.388V122.378V122.369V122.359V122.35V122.34V122.331V122.321V122.312V122.302V122.293V122.283V122.274V122.264V122.254V122.245V122.235V122.226V122.216V122.207V122.197V122.188V122.178V122.169V122.159V122.15V122.14V122.131V122.121V122.112V122.102V122.093V122.083V122.073V122.064V122.054V122.045V122.035V122.026V122.016V122.007V121.997V121.988V121.978V121.969V121.959V121.95V121.94V121.931V121.921V121.911V121.902V121.892V121.883V121.873V121.864V121.854V121.845V121.835V121.826V121.816V121.807V121.797V121.788V121.778V121.769V121.759V121.749V121.74V121.73V121.721V121.711V121.702V121.692V121.683V121.673V121.664V121.654V121.645V121.635V121.626V121.616V121.607V121.597V121.587V121.578V121.568V121.559V121.549V121.54V121.53V121.521V121.511V121.502V121.492V121.483V121.473V121.464V121.454V121.445V121.435V121.425V121.416V121.406V121.397V121.387V121.378V121.368V121.359V121.35C117.995 117.542 117.688 113.782 117.347 110.033L117.347 110.033C117.028 106.608 116.508 103.205 115.789 99.8405C115.097 96.4358 114.161 93.0846 112.99 89.8124C111.845 86.5948 110.193 83.579 108.097 80.878L108.097 80.8779L108.092 80.8713C106.283 78.6995 103.876 77.1018 101.167 76.2747L101.167 76.2747L101.165 76.2742C100.825 76.1733 100.476 76.1063 100.122 76.0742C99.9685 76.0426 99.8098 76.0438 99.6566 76.0778L117.961 125.824ZM115.544 99.8915C116.261 103.246 116.78 106.64 117.098 110.056L115.544 99.8915Z" fill="white" stroke="white" stroke-width="0.5"/>
<path d="M99.1322 139.408L99.3818 139.423C99.4431 138.418 99.5065 137.412 99.57 136.406C99.7645 133.319 99.9596 130.225 100.097 127.131L100.097 127.131C100.203 124.662 100.248 122.197 100.301 119.349C100.327 117.946 100.354 116.451 100.392 114.816L100.392 114.816L98.7806 94.2898M99.1322 139.408L99.3818 139.422C99.3631 139.736 99.3077 140.046 99.217 140.347C99.1665 140.619 99.014 140.861 98.7905 141.025C98.5625 141.191 98.2784 141.263 97.9983 141.225L97.9852 141.223L97.9724 141.22C97.7328 141.161 97.5185 141.027 97.3615 140.837C97.2051 140.647 97.114 140.412 97.1019 140.167C97.0786 139.815 97.0787 139.462 97.102 139.11C97.1693 137.925 97.2467 136.743 97.324 135.561C97.3639 134.953 97.4037 134.344 97.4422 133.734C97.4878 132.97 97.5393 132.209 97.5907 131.448C97.6805 130.121 97.77 128.798 97.8276 127.471L97.8277 127.47C98.0846 121.917 98.213 116.361 98.213 110.801V110.772V110.743V110.714V110.685V110.656V110.627V110.598V110.569V110.54V110.511V110.482V110.453V110.424V110.395V110.366V110.337V110.307V110.278V110.249V110.22V110.191V110.162V110.133V110.104V110.075V110.046V110.017V109.988V109.959V109.93V109.901V109.872V109.843V109.814V109.785V109.756V109.727V109.698V109.669V109.64V109.611V109.582V109.553V109.524V109.495V109.466V109.436V109.407V109.378V109.349V109.32V109.291V109.262V109.233V109.204V109.175V109.146V109.117V109.088V109.059V109.03V109.001V108.972V108.943V108.914V108.885V108.856V108.827V108.798V108.769V108.74V108.711V108.681V108.652V108.623V108.594V108.565V108.536V108.507V108.478V108.449V108.42V108.391V108.362V108.333V108.304V108.275V108.246V108.217V108.188V108.159V108.13V108.101V108.072V108.043V108.014V107.984V107.955V107.926V107.897V107.868V107.839V107.81V107.781V107.752V107.723V107.694V107.665V107.636V107.607V107.578V107.549V107.52V107.491V107.462V107.433V107.404V107.374V107.345V107.316V107.287V107.258V107.229V107.2V107.171V107.142V107.113V107.084V107.055V107.026V106.997V106.968V106.939V106.91V106.881V106.852V106.823V106.793V106.764V106.735V106.706V106.677V106.648V106.619V106.59V106.561V106.532V106.503V106.474V106.445V106.416V106.387V106.358V106.329V106.3V106.271V106.241V106.212V106.183V106.154V106.125V106.096V106.067V106.038V106.009V105.98V105.951V105.922V105.893V105.864V105.835V105.806V105.777V105.748V105.718V105.689V105.66V105.631V105.602V105.573V105.544V105.515V105.486V105.457V105.428V105.399V105.37V105.341V105.312V105.283V105.254V105.224V105.195V105.166V105.137V105.108V105.079V105.05V105.021V104.992V104.963V104.934V104.905V104.876V104.847V104.818V104.789V104.759V104.73V104.701V104.672V104.643V104.614V104.585V104.556V104.527V104.498V104.469V104.44V104.411V104.382V104.353V104.323V104.294V104.265V104.236V104.207V104.178V104.149V104.12V104.091V104.062V104.033V104.004V103.975V103.946V103.917V103.887V103.858V103.829V103.8V103.771V103.742V103.713V103.684V103.655V103.626V103.597V103.568V103.539V103.51V103.48V103.451V103.422V103.393V103.364V103.335V103.306V103.277V103.248V103.219V103.19V103.161V103.132V103.103V103.073V103.044V103.015V102.986V102.957V102.928V102.899V102.87V102.841V102.812V102.783V102.754V102.725V102.695V102.666V102.637V102.608V102.579V102.55V102.521V102.492V102.463V102.434V102.405V102.376V102.347V102.317V102.288V102.259V102.23V102.201V102.172V102.143V102.114V102.085V102.056V102.027V101.998V101.969V101.939V101.91V101.881V101.852V101.823V101.794V101.765V101.736V101.707V101.678V101.649V101.62V101.59V101.561V101.532V101.503V101.474V101.445V101.416V101.387V101.358V101.329V101.3V101.271V101.241V101.212V101.183V101.154V101.125V101.096V101.067V101.038V101.009V100.98V100.951V100.922V100.892V100.863V100.834V100.805V100.776V100.747V100.718V100.689V100.66V100.631V100.602V100.572V100.543V100.514V100.485V100.456V100.427V100.398V100.369V100.34V100.311V100.282V100.252V100.223V100.194V100.165V100.136V100.107V100.078V100.049V100.02V99.9907V99.9616V99.9325V99.9034V99.8743V99.8452V99.8161V99.787V99.7579V99.7288V99.6997V99.6706V99.6415V99.6125V99.5834V99.5543V99.5252V99.4961V99.467V99.4379V99.4088V99.3797V99.3506V99.3215V99.2924V99.2633V99.2342V99.2051V99.176V99.1469V99.1178V99.0887V99.0596V99.0305V99.0014V98.9723V98.9432V98.9141V98.885V98.8559V98.8268V98.7977V98.7686V98.7395V98.7104V98.6813V98.6522V98.6231V98.594V98.5649V98.5358V98.5067V98.4776V98.4485V98.4194V98.3903V98.3612V98.3321V98.303V98.2739V98.2448V98.2157V98.1866V98.1575V98.1284V98.0993V98.0702V98.0411V98.012V97.9829V97.9538V97.9247V97.8956V97.8665V97.8374V97.8083V97.7792V97.7501V97.721V97.6919V97.6627V97.6336V97.6045V97.5754V97.5463V97.5172V97.4881V97.459V97.4299V97.4008V97.3717V97.3426V97.3135V97.2844V97.2552V97.2261V97.197V97.1679V97.1388V97.1097V97.0806V97.0515V97.0224V96.9933V96.9642V96.935V96.9059V96.8768V96.8477V96.8186V96.7895V96.7604V96.7313V96.7022V96.673V96.6439V96.6148V96.5857V96.5566V96.5275V96.4984V96.4693V96.4402V96.411V96.3819V96.3528V96.3237V96.2946V96.2655V96.2364V96.2072V96.1781V96.149V96.1199V96.0908V96.0617V96.0326V96.0034V95.9743V95.9452V95.925C98.1858 95.5401 98.186 95.1537 98.2137 94.7688L98.2149 94.7512L98.2186 94.734C98.274 94.4774 98.4198 94.2493 98.6293 94.0908M99.1322 139.408C99.1144 139.706 99.0611 140.002 98.9734 140.288L100.142 114.81C100.104 116.448 100.077 117.945 100.051 119.349C99.9984 122.194 99.9531 124.655 99.8468 127.12C99.71 130.211 99.5151 133.302 99.3206 136.388C99.2571 137.395 99.1936 138.402 99.1322 139.408ZM98.6293 94.0908C98.6295 94.0907 98.6297 94.0905 98.6299 94.0903L98.7806 94.2898M98.6293 94.0908C98.629 94.091 98.6288 94.0912 98.6286 94.0913L98.7806 94.2898M98.6293 94.0908C98.7382 94.0077 98.8643 93.999 98.968 94.0229C99.0668 94.0457 99.1538 94.0986 99.2238 94.1567C99.3615 94.2709 99.4816 94.4451 99.5474 94.6406M98.7806 94.2898C98.9281 94.1769 99.2116 94.414 99.3137 94.7303M99.5474 94.6406C99.5456 94.6366 99.5439 94.6327 99.5421 94.6287L99.3137 94.7303M99.5474 94.6406C99.5488 94.6449 99.5502 94.6492 99.5516 94.6535L99.3137 94.7303M99.5474 94.6406L99.3137 94.7303M99.6629 95.0538C99.6627 95.0523 99.6624 95.0509 99.6622 95.0494L99.4158 95.0917L99.6636 95.0587C99.6634 95.0571 99.6632 95.0554 99.6629 95.0538ZM99.8919 96.4731C99.8919 96.4728 99.8919 96.4725 99.8918 96.4721L99.6426 96.4921L99.892 96.4742C99.892 96.4738 99.8919 96.4735 99.8919 96.4731ZM100.131 100.327C100.131 100.327 100.131 100.327 100.131 100.327L99.8808 100.332L100.131 100.327C100.131 100.327 100.131 100.327 100.131 100.327Z" fill="white" stroke="white" stroke-width="0.5"/>
<path d="M41.5812 100.78L41.5808 100.788V100.795C41.5808 100.901 41.5799 101.008 41.579 101.117C41.5753 101.56 41.5714 102.022 41.6268 102.454C41.6404 102.769 41.7028 103.081 41.8116 103.377L41.8116 103.377L41.812 103.378C41.8834 103.57 42.0139 103.733 42.1845 103.845C42.3521 103.956 42.55 104.011 42.7504 104.004C42.9508 104.01 43.1484 103.955 43.3168 103.845L43.1808 103.636L43.3168 103.845C43.4873 103.735 43.6195 103.575 43.6952 103.386C43.8938 102.919 43.9744 102.41 43.9297 101.904C43.9754 98.923 44.1788 95.9072 44.394 92.896L44.3941 92.896L44.3945 92.8867C44.4193 92.1541 44.3926 91.4207 44.3147 90.6919C44.3061 90.4795 44.2425 90.2728 44.13 90.0921L44.122 90.0793L44.1126 90.0675C43.9718 89.8925 43.771 89.776 43.5492 89.7402L43.529 89.737L43.5084 89.7371C43.4016 89.7375 43.2967 89.7663 43.2046 89.8207C43.1125 89.875 43.0366 89.9529 42.9846 90.0464L42.9845 90.0463L42.9806 90.0539C42.8546 90.3001 42.7663 90.5639 42.7187 90.8362L42.7187 90.8362L42.7186 90.8372C42.1574 94.1284 41.7777 97.4477 41.5812 100.78Z" fill="white" stroke="white" stroke-width="0.5"/>
<path d="M19.2543 118.247C19.2243 118.106 19.1555 117.948 19.039 117.832C18.9123 117.706 18.7188 117.625 18.4967 117.703L18.4802 117.708L18.4646 117.716C18.3448 117.778 18.2388 117.863 18.1529 117.967C18.0671 118.071 18.0031 118.19 17.965 118.32L17.9611 118.333L17.9587 118.346C17.9106 118.613 17.8903 118.883 17.8981 119.154L17.898 119.154L17.8984 119.161C18.0931 122.751 19.4135 126.19 21.6737 128.994L21.6793 129.001L21.6855 129.007L21.6883 129.01C21.8339 129.167 21.9866 129.33 22.1523 129.483L22.1522 129.484L22.1574 129.488C22.404 129.704 22.66 129.865 22.881 129.937C22.9888 129.972 23.1154 129.995 23.237 129.968C23.3776 129.936 23.4927 129.839 23.537 129.688C23.6268 129.393 23.542 129.159 23.4157 128.979C23.3564 128.894 23.2871 128.82 23.2278 128.757C23.216 128.745 23.2048 128.733 23.1939 128.722C23.1459 128.672 23.1062 128.631 23.0709 128.588L23.0704 128.587C21.7441 126.984 20.7608 125.128 20.1807 123.134C19.8353 121.868 19.5838 120.578 19.4285 119.276C19.3883 118.93 19.3302 118.587 19.2543 118.247ZM19.2543 118.247C19.2542 118.246 19.2541 118.246 19.254 118.246L19.01 118.3L19.2546 118.248C19.2545 118.248 19.2544 118.247 19.2543 118.247Z" fill="white" stroke="white" stroke-width="0.5"/>
<path d="M14.6555 120.592L14.6372 120.647L20.1214 130.971L20.0131 131.197C20.0131 131.197 20.0132 131.197 20.0132 131.197C20.0824 131.23 20.1581 131.247 20.2348 131.247C20.3115 131.247 20.3873 131.23 20.4566 131.197L20.4947 131.178L20.5246 131.148C20.6306 131.043 20.6622 130.892 20.6742 130.821C20.6817 130.776 20.6853 130.736 20.6871 130.707C20.688 130.693 20.6885 130.681 20.6887 130.672L20.6889 130.661L20.689 130.657L20.689 130.656L20.689 130.656L20.689 130.655V130.655C20.689 130.655 20.689 130.655 20.439 130.655H20.689V130.579L20.6466 130.516C20.375 130.111 20.0763 129.725 19.7526 129.36L19.7527 129.36L19.7474 129.354C18.4774 128.009 17.5591 126.374 17.0733 124.592L17.0733 124.592L17.0721 124.588C16.742 123.455 16.4905 122.3 16.3195 121.132L16.3182 121.123L16.316 121.114C16.2114 120.65 16.0675 120.196 15.8859 119.757C15.8406 119.635 15.7403 119.571 15.6671 119.541C15.5891 119.509 15.5053 119.499 15.432 119.5C15.358 119.501 15.2773 119.514 15.2031 119.544C15.1347 119.572 15.0348 119.629 14.9827 119.743L14.9827 119.743L14.9819 119.745C14.8412 120.06 14.7249 120.385 14.6555 120.592Z" fill="white" stroke="white" stroke-width="0.5"/>
<path d="M93.4609 85.3454L93.5293 85.105C93.4509 85.0827 93.3783 85.0932 93.3301 85.1052C93.2788 85.1181 93.2312 85.1389 93.1911 85.1604C93.1127 85.2024 93.0334 85.2631 92.9765 85.3292L92.9763 85.3289L92.9682 85.3393C92.8684 85.4684 92.7984 85.6178 92.7631 85.777L92.7629 85.7778C92.2247 88.245 91.3434 90.6253 90.1444 92.85L90.1443 92.85L90.1428 92.8529C90.0105 93.1063 89.9281 93.3826 89.9001 93.6669L89.896 93.7086L89.9057 93.7493C89.9542 93.9525 90.0714 94.1322 90.2369 94.2585C90.2958 94.3218 90.3696 94.3533 90.4374 94.3647C90.5099 94.377 90.5771 94.3671 90.6197 94.359C90.6522 94.3528 90.6891 94.3434 90.7143 94.337C90.7214 94.3352 90.7275 94.3337 90.7324 94.3325C90.7554 94.3268 90.7644 94.3256 90.7651 94.3253H90.8458L90.9129 94.2742C91.2881 93.9885 91.5692 93.5976 91.7199 93.1516C92.6749 91.0983 93.4038 88.9481 93.8939 86.7386C93.9832 86.4971 93.9832 86.251 93.9831 86.0811C93.9831 86.078 93.9831 86.0749 93.9831 86.0718C93.9881 85.8947 93.9656 85.7178 93.9166 85.5474L93.9167 85.5474L93.9158 85.5444C93.8883 85.4532 93.8379 85.3638 93.7827 85.2932C93.7353 85.2325 93.6485 85.1389 93.5293 85.105L93.4609 85.3454Z" fill="white" stroke="white" stroke-width="0.5"/>
<path d="M96.829 86.5658L96.8279 86.5744C96.5993 88.3525 96.0945 90.0844 95.3318 91.7081L96.829 86.5658ZM96.829 86.5658L96.8295 86.5572M96.829 86.5658L96.8295 86.5572M96.8295 86.5572C96.8405 86.3703 96.8321 86.1827 96.8045 85.9974L96.8013 85.9757L96.7943 85.9549C96.7702 85.8829 96.7279 85.7942 96.6724 85.7185C96.6446 85.6805 96.6071 85.6371 96.5593 85.6011C96.5155 85.5682 96.4473 85.5298 96.3598 85.525C96.2642 85.5155 96.1676 85.5293 96.0785 85.5655L96.1722 85.7965L96.0785 85.5655C95.9856 85.6031 95.9038 85.6638 95.8409 85.7419L95.823 85.764L95.8106 85.7896C95.6906 86.037 95.6005 86.2976 95.5422 86.5662C95.1042 88.4063 94.4224 90.1803 93.5148 91.8415C93.3651 92.1035 93.2309 92.374 93.1127 92.6515C93.0222 92.8063 92.9853 92.9867 93.008 93.1647C93.0177 93.2758 93.049 93.3838 93.1002 93.483C93.1524 93.5841 93.2241 93.6739 93.3113 93.7472L93.3333 93.7657L93.3589 93.7787C93.4642 93.8322 93.5808 93.8601 93.699 93.8601C93.8172 93.8601 93.9337 93.8322 94.0391 93.7787L94.0637 93.7662M96.8295 86.5572L94.0637 93.7662M94.0637 93.7662L94.0851 93.7485M94.0637 93.7662L94.0851 93.7485M94.0851 93.7485C94.271 93.5949 94.423 93.4045 94.5314 93.1893M94.0851 93.7485L94.5314 93.1893M94.5314 93.1893C94.8136 92.706 95.0894 92.2252 95.3317 91.7083L94.5314 93.1893Z" fill="white" stroke="white" stroke-width="0.5"/>
<path d="M11.359 29.5768L11.3269 29.5747L11.2953 29.5808C10.9922 29.6394 10.6769 29.6955 10.3547 29.7528C9.88669 29.836 9.40386 29.9219 8.92184 30.0219C8.6749 30.0722 8.45259 30.2054 8.29226 30.3997C8.13567 30.5894 8.04753 30.8259 8.04186 31.0714C7.98065 31.5055 8.01444 31.9478 8.14099 32.3678C8.26908 32.7929 8.48908 33.1849 8.78546 33.5162C9.23734 34.0256 9.80766 34.4168 10.4464 34.6557C12.0482 35.3086 13.8056 35.4856 15.5062 35.1654L15.5062 35.1655L15.5152 35.1635C15.947 35.0657 16.3574 34.8905 16.7263 34.6464C17.117 34.4178 17.4087 34.0524 17.5443 33.621C17.6791 33.192 17.6497 32.7288 17.4622 32.3204C17.2931 31.8135 16.9375 31.3893 16.4672 31.133C14.9083 30.2276 13.1597 29.6949 11.359 29.5768Z" fill="white" stroke="white" stroke-width="0.5"/>
<path d="M57.5623 57.2922C57.8286 57.1557 58.0828 56.997 58.3222 56.8179C58.442 56.6973 58.5381 56.5556 58.6058 56.4C58.641 56.2993 58.6372 56.1891 58.5953 56.091C58.5533 55.9929 58.4762 55.9138 58.3789 55.8692C58.1741 55.8185 57.9599 55.8185 57.7551 55.8692C57.3081 56.0149 56.8722 56.1923 56.4507 56.4L57.5623 57.2922ZM57.5623 57.2922C54.5677 58.7899 51.3753 59.8583 48.0801 60.4657L57.5623 57.2922ZM45.087 60.2136L44.8306 60.4484L45.1348 60.6167C45.1972 60.6512 45.239 60.6781 45.2816 60.7055C45.3079 60.7225 45.3345 60.7397 45.3665 60.7589C45.4003 60.7793 45.4457 60.805 45.4961 60.8221C45.539 60.8366 45.5965 60.8488 45.6616 60.8403C46.4798 60.8548 47.298 60.8125 48.1102 60.7139L48.1179 60.7129L48.1254 60.7115C51.4437 60.0999 54.6585 59.024 57.6741 57.5158L57.6741 57.5158L57.6764 57.5146C57.9551 57.3717 58.2213 57.2056 58.472 57.018L58.4867 57.007L58.4996 56.994C58.6412 56.8514 58.755 56.6838 58.835 56.4997L58.8387 56.4912L58.8418 56.4824C58.8975 56.3228 58.8916 56.1482 58.8252 55.9927C58.7587 55.8373 58.6367 55.7123 58.4831 55.6419L58.4618 55.6322L58.439 55.6265C58.1947 55.5661 57.9393 55.5661 57.695 55.6265L57.6862 55.6287L57.6776 55.6315C57.2194 55.7809 56.7724 55.9628 56.3402 56.1757L56.3398 56.1759C53.1704 57.7451 49.8133 58.9063 46.3494 59.6315C45.8782 59.6898 45.4368 59.8932 45.087 60.2136Z" fill="white" stroke="white" stroke-width="0.5"/>
<path d="M50.4449 24.1691L50.445 24.1691L50.4432 24.1621C50.3201 23.6853 50.2247 23.2019 50.1574 22.7141C50.1851 22.4523 50.1842 22.1883 50.1547 21.9266L50.1525 21.9074L50.1474 21.8887C50.1154 21.7714 50.0551 21.6638 49.972 21.5751C49.8888 21.4864 49.7854 21.4194 49.6705 21.3796L49.6556 21.3744L49.6401 21.3712C49.5252 21.347 49.4065 21.3475 49.2918 21.3726C49.1771 21.3976 49.069 21.4467 48.9747 21.5167L48.9638 21.5248L48.9538 21.534C48.7972 21.6791 48.6806 21.8617 48.6152 22.0646C48.4076 22.6193 48.3238 23.2124 48.3696 23.8027C48.4154 24.3936 48.5899 24.9674 48.881 25.4842C49.0879 25.8826 49.3907 26.2235 49.7622 26.4767C50.135 26.7306 50.5654 26.8882 51.0145 26.9353L51.0145 26.9353C51.7797 27.0153 52.552 26.8752 53.2399 26.5317C53.9278 26.1882 54.5026 25.6555 54.896 24.9965L54.9046 24.9821L54.9112 24.9667C55.0428 24.6591 55.0925 24.3229 55.0556 23.9906C55.0489 23.8526 55.006 23.7186 54.9314 23.6022C54.8547 23.4827 54.7474 23.386 54.6207 23.3221C54.494 23.2582 54.3525 23.2293 54.2108 23.2384C54.0705 23.2475 53.935 23.2935 53.8183 23.3719C53.663 23.4711 53.5203 23.5865 53.3887 23.6976C53.3497 23.7305 53.3122 23.7627 53.2755 23.794C53.1837 23.8725 53.0974 23.9464 53.0078 24.0161L53.0005 24.0219L52.9935 24.0282C52.6881 24.3053 52.3611 24.5577 52.0155 24.7832L52.0154 24.7832L52.0124 24.7853C51.8748 24.8779 51.7166 24.9358 51.5514 24.9538C51.3862 24.9719 51.2191 24.9495 51.0646 24.8887C50.9101 24.8279 50.773 24.7305 50.665 24.6051C50.5571 24.4797 50.4816 24.33 50.4449 24.1691Z" fill="white" stroke="white" stroke-width="0.5"/>
<path d="M25.4917 15.9726L25.4829 15.9814L25.4751 15.9909C25.0281 16.5337 24.8049 17.2253 24.8506 17.9258C24.8351 18.2954 24.9002 18.664 25.0412 19.0063C25.1841 19.3531 25.4016 19.6645 25.6782 19.9185C25.9549 20.1725 26.284 20.363 26.6424 20.4766C26.9888 20.5864 27.3545 20.6219 27.7154 20.5809C27.8299 20.5978 27.9466 20.5957 28.0606 20.5744C29.1654 20.3799 30.1572 19.7807 30.8409 18.8945C31.0145 18.6935 31.1102 18.437 31.1102 18.1713C31.1102 17.9029 31.0124 17.6437 30.8353 17.4418L30.8182 17.4224L30.7976 17.4069C30.5851 17.2471 30.3231 17.1669 30.0575 17.1801C29.7963 17.1931 29.5477 17.2956 29.3536 17.4702C29.2129 17.5761 29.0821 17.692 28.9597 17.8003L28.9561 17.8034C28.8272 17.9175 28.7073 18.0235 28.5809 18.1179L28.5807 18.1175L28.5701 18.1264C28.2188 18.4203 27.7737 18.5799 27.3146 18.5764L27.3054 18.5763L27.2962 18.5769C27.1224 18.5884 26.951 18.5321 26.8185 18.4201C26.6873 18.3091 26.6043 18.1523 26.5865 17.9824C26.5706 17.6978 26.5706 17.4125 26.5866 17.1279C26.6105 16.859 26.6104 16.5884 26.5863 16.3194L26.583 16.2828L26.5693 16.2487C26.527 16.1432 26.4636 16.0474 26.383 15.9672C26.303 15.8875 26.2076 15.8248 26.1028 15.7828C26.0206 15.7489 25.9405 15.7553 25.8914 15.7635C25.8363 15.7727 25.7838 15.7908 25.7389 15.8103C25.6518 15.8479 25.5583 15.9063 25.4917 15.9726Z" fill="white" stroke="white" stroke-width="0.5"/>
</g>
<defs>
<clipPath id="clip0">
<rect width="121" height="141" fill="white"/>
</clipPath>
</defs>
</svg>
