<svg width="130" height="130" viewBox="0 0 130 130" fill="none" xmlns="http://www.w3.org/2000/svg">
<path d="M57.4141 43.1736C56.1897 42.4898 54.6429 42.9281 53.9592 44.1521C52.8859 46.0734 50.8993 47.2671 48.7749 47.2671C46.6505 47.2671 44.6639 46.0734 43.5907 44.1521C42.9069 42.9281 41.3601 42.4903 40.1358 43.1736C38.9117 43.8576 38.4735 45.4044 39.1572 46.6285C41.127 50.1545 44.8122 52.3449 48.7749 52.3449C52.7374 52.3449 56.4228 50.1545 58.3926 46.6285C59.0764 45.4044 58.6379 43.8576 57.4141 43.1736Z" fill="#444444"/>
<path d="M122.298 20.5915C121.073 19.1638 119.896 17.7594 118.758 16.401C113.961 10.6747 109.818 5.72938 105.179 2.79576C99.7906 -0.611659 94.177 -0.886893 88.0186 1.95279C87.6418 2.12646 86.9905 2.48447 84.2006 4.38978C78.6314 1.41756 72.2683 0 65.0002 0C62.5653 0 60.2324 0.159453 57.9962 0.482929C57.8406 0.492577 57.6839 0.516698 57.5278 0.556561C53.2728 1.21976 49.3718 2.48345 45.7996 4.38978C43.0135 2.48701 42.361 2.12798 41.9821 1.9533C35.8229 -0.887147 30.2095 -0.611405 24.8214 2.79601C20.1823 5.72964 16.0393 10.6747 11.242 16.4008C10.104 17.7592 8.92741 19.1638 7.70181 20.5915C2.48151 26.6736 0.51145 33.8345 2.00442 41.3001C3.62002 49.3776 9.24683 57.0828 16.5629 61.415C15.8126 66.0132 15.1895 72.6902 15.4122 79.4207C12.9592 84.0926 12.0525 89.6376 12.8617 95.0476C13.6846 100.55 16.2582 105.687 20.1084 109.512C24.8092 114.181 31.1858 116.807 38.5488 117.106C39.03 117.125 39.5142 117.135 40.0017 117.135C43.2049 117.135 46.5509 116.714 50.0254 115.877C50.4875 123.742 57.0261 130 65.0002 130C72.9584 130 79.4861 123.767 79.9715 115.923C83.447 116.761 86.794 117.182 89.9983 117.182C90.4853 117.182 90.9707 117.173 91.4514 117.153C98.8144 116.855 105.191 114.229 109.892 109.559C113.742 105.734 116.315 100.598 117.138 95.0951C117.948 89.6833 117.04 84.1367 114.586 79.4644C114.813 72.7163 114.188 66.0173 113.437 61.4147C120.754 57.0828 126.38 49.3773 127.996 41.2995C129.489 33.8347 127.519 26.6738 122.298 20.5915ZM65.0002 5.07812C76.0474 5.07812 84.2531 8.6008 90.824 16.1641C93.5659 19.3202 96.0521 23.2204 98.2997 27.8938C86.017 26.2643 76.0708 21.7155 68.6941 14.3381C65.2338 10.8773 63.0969 7.48565 61.8881 5.17714C62.8999 5.11163 63.9364 5.07812 65.0002 5.07812ZM56.5731 5.8769C57.7367 8.43399 60.238 12.9985 64.8842 17.7084C70.9807 23.8882 82.0921 31.511 100.644 33.2683C102.167 37.1132 103.565 41.38 104.842 46.092C89.3117 47.5093 75.2176 41.6083 62.9129 28.5189C55.5113 20.6453 50.8694 12.2482 48.9717 8.45075C51.32 7.28786 53.8449 6.43448 56.5731 5.8769ZM44.6144 11.1071C45.0948 12.06 45.7087 13.2265 46.4595 14.5557C43.8448 16.5945 41.4106 19.2367 39.208 22.4354C38.4127 23.5904 38.7042 25.1715 39.8592 25.9667C40.299 26.2696 40.8005 26.4148 41.2971 26.4148C42.1043 26.4148 42.8982 26.0307 43.3906 25.3154C45.16 22.7456 47.0752 20.6118 49.1014 18.9447C51.6001 22.8513 54.923 27.4157 59.105 31.8822C65.3156 38.5147 72.1337 43.5377 79.3708 46.8113C86.081 49.8468 93.1447 51.3715 100.456 51.3715C102.324 51.3715 104.208 51.2702 106.107 51.0706C106.816 54.0469 107.484 57.1806 108.111 60.4745C108.113 60.4887 108.117 60.5024 108.119 60.5167C108.138 60.6149 108.157 60.7106 108.176 60.8092C108.741 63.7989 109.283 68.1331 109.479 72.8953C107.353 70.9837 104.86 69.4338 102.058 68.3047C96.5523 66.0871 90.0653 65.5242 82.7495 66.6142C82.3506 65.5605 81.726 64.5743 80.8721 63.7339C79.355 62.2407 77.3479 61.4183 75.221 61.4183L54.7975 61.4018C51.3706 61.4018 48.4377 63.5493 47.2662 66.5688C39.944 65.4759 33.4517 66.0378 27.9427 68.257C25.1416 69.3853 22.6492 70.9344 20.5235 72.8451C20.7211 68.1041 21.2604 63.7928 21.8243 60.8087C21.8416 60.7172 21.8596 60.6281 21.8769 60.537C21.8812 60.5139 21.8865 60.4908 21.8903 60.4677C25.8967 39.4356 31.5519 24.9394 39.1762 16.1639C40.8726 14.2111 42.6791 12.53 44.6144 11.1071ZM77.3406 71.5821L67.1407 82.0029C66.5567 82.5836 65.7934 82.9033 64.9911 82.9033C64.1969 82.9033 63.4476 82.5859 62.8854 82.0138L52.9562 71.8701C52.9123 71.8251 52.8666 71.7817 52.8191 71.7401C52.1704 71.169 51.7984 70.3464 51.7984 69.4831C51.7986 67.8274 53.1438 66.4801 54.7952 66.4801L75.2197 66.4964C76.0063 66.4964 76.7484 66.8006 77.3096 67.3526C78.4831 68.5081 78.4989 70.4038 77.3406 71.5821ZM6.98402 40.304C5.80843 34.4258 7.389 28.7528 11.5551 23.8991C12.8002 22.4483 13.987 21.032 15.1344 19.662C25.1322 7.72788 30.3596 2.18587 39.8331 6.55407C39.9214 6.59876 40.2198 6.76735 41.1463 7.37876C30.1273 15.7483 22.6419 31.5087 17.5904 56.034C12.2927 52.3066 8.18956 46.3307 6.98402 40.304ZM74.9257 114.987C74.9257 120.465 70.4732 124.922 65.0002 124.922C59.5273 124.922 55.0748 120.465 55.0748 114.987V114.397C57.4836 113.571 59.9472 112.557 62.4612 111.359V115.755C62.4612 117.157 63.5979 118.294 65.0002 118.294C66.4025 118.294 67.5393 117.157 67.5393 115.755V111.407C70.0532 112.605 72.5169 113.619 74.9257 114.445V114.987ZM106.313 105.957C97.7952 114.417 83.3233 114.143 66.5673 105.227C66.5386 105.204 66.5087 105.184 66.4792 105.163C66.4556 105.146 66.433 105.128 66.4089 105.112C66.3721 105.088 66.334 105.066 66.2962 105.043C66.2621 105.023 66.2289 105.002 66.1938 104.983C66.1641 104.967 66.1334 104.954 66.1032 104.94C66.0588 104.918 66.0143 104.896 65.9684 104.877C65.9445 104.867 65.9199 104.859 65.8955 104.85C65.8429 104.83 65.7901 104.81 65.736 104.794C65.7117 104.786 65.6868 104.782 65.6624 104.775C65.6083 104.76 65.5542 104.745 65.4989 104.734C65.4491 104.724 65.3988 104.718 65.3486 104.712C65.3179 104.707 65.2879 104.701 65.2569 104.698C65.0881 104.681 64.9169 104.681 64.7461 104.698C64.7247 104.7 64.7042 104.704 64.6831 104.707C64.6219 104.715 64.561 104.722 64.5003 104.735C64.4591 104.743 64.4195 104.755 64.3792 104.765C64.3396 104.775 64.2997 104.783 64.2606 104.795C64.2009 104.813 64.143 104.835 64.0854 104.858C64.0658 104.865 64.0458 104.871 64.0265 104.879C63.944 104.914 63.8632 104.952 63.7855 104.994C46.8797 114.096 32.2647 114.429 23.6875 105.909C17.3982 99.6621 15.8222 89.4886 19.9398 81.7188C24.4268 73.2516 34.2433 69.6387 47.0239 71.67C47.433 73.1251 48.2447 74.452 49.3873 75.4839L59.2602 85.5703C60.7887 87.1257 62.824 87.9822 64.9913 87.9822C67.1546 87.9822 69.1965 87.1308 70.741 85.5855C70.7471 85.5794 70.7532 85.5731 70.7596 85.5668L80.9663 75.1388C81.9393 74.1489 82.6043 72.9692 82.9623 71.72C95.75 69.6839 105.572 73.2962 110.06 81.7665C114.177 89.5358 112.602 99.7093 106.313 105.957ZM123.016 40.304C121.811 46.3309 117.707 52.3069 112.409 56.0342C107.358 31.5087 99.8724 15.7483 88.8534 7.37876C89.7776 6.76837 90.0696 6.60307 90.1445 6.56448C99.6411 2.18562 104.868 7.72813 114.866 19.6622C116.013 21.032 117.2 22.4483 118.445 23.8991C122.611 28.7531 124.192 34.4258 123.016 40.304Z" fill="#444444"/>
<path d="M38.8309 27.7993C37.5819 27.1628 36.0526 27.6594 35.4158 28.9092C35.4136 28.9137 35.4065 28.928 35.4042 28.9325C34.7587 30.1774 35.2445 31.7097 36.4894 32.3552C36.8629 32.5489 37.2623 32.6406 37.6561 32.6406C38.5744 32.6411 39.4606 32.1414 39.9125 31.2702L39.941 31.2144C40.5777 29.9649 40.0806 28.4361 38.8309 27.7993Z" fill="#444444"/>
<path d="M36.3721 80.97C34.9736 80.97 33.833 82.1108 33.833 83.509C33.833 84.9076 34.9736 86.0484 36.3721 86.0484C37.7706 86.0484 38.9111 84.9076 38.9111 83.509C38.9111 82.111 37.7706 80.97 36.3721 80.97Z" fill="#444444"/>
<path d="M31.04 94.9349C29.6415 94.9349 28.501 96.0757 28.501 97.4742C28.501 98.8727 29.6415 100.013 31.04 100.013C32.4385 100.013 33.5791 98.8727 33.5791 97.4742C33.5793 96.076 32.4388 94.9349 31.04 94.9349Z" fill="#444444"/>
<path d="M46.1474 91.3802C44.7489 91.3802 43.6084 92.521 43.6084 93.9195C43.6084 95.3181 44.7489 96.4586 46.1474 96.4586C47.546 96.4586 48.6865 95.3181 48.6865 93.9195C48.6865 92.5213 47.546 91.3802 46.1474 91.3802Z" fill="#444444"/>
<path d="M93.6279 80.97C92.2294 80.97 91.0889 82.1108 91.0889 83.509C91.0889 84.9076 92.2294 86.0484 93.6279 86.0484C95.0264 86.0484 96.167 84.9076 96.167 83.509C96.167 82.111 95.0264 80.97 93.6279 80.97Z" fill="#444444"/>
<path d="M98.96 94.9349C97.5614 94.9349 96.4209 96.0757 96.4209 97.4742C96.4209 98.8727 97.5614 100.013 98.96 100.013C100.358 100.013 101.499 98.8727 101.499 97.4742C101.499 96.076 100.358 94.9349 98.96 94.9349Z" fill="#444444"/>
<path d="M83.8525 91.3802C82.454 91.3802 81.3135 92.521 81.3135 93.9195C81.3135 95.3181 82.454 96.4586 83.8525 96.4586C85.251 96.4586 86.3916 95.3181 86.3916 93.9195C86.3916 92.5213 85.251 91.3802 83.8525 91.3802Z" fill="#444444"/>
</svg>
