<svg width="167" height="158" viewBox="0 0 167 158" fill="none" xmlns="http://www.w3.org/2000/svg">
<g clip-path="url(#clip0)">
<path d="M62.5299 128.331C62.0745 128.852 61.388 129.15 60.6464 129.15C59.9039 129.15 59.2174 128.852 58.7629 128.332C58.4477 127.972 57.9757 127.759 57.4977 127.759C57.0178 127.759 56.5467 127.971 56.2306 128.332C55.7762 128.852 55.0897 129.151 54.3472 129.151C53.6055 129.151 52.9181 128.852 52.4637 128.332C51.8525 127.633 50.7904 127.562 50.0916 128.173C49.392 128.784 49.3211 129.845 49.9323 130.545C51.025 131.795 52.6344 132.513 54.3472 132.513C55.4828 132.513 56.5721 132.196 57.4968 131.619C58.4214 132.196 59.5098 132.513 60.6455 132.513C62.3582 132.513 63.9676 131.795 65.0613 130.545C65.6716 129.845 65.6007 128.784 64.9019 128.173C64.2023 127.562 63.1402 127.633 62.5299 128.331Z" fill="white"/>
<path d="M40.1017 108.518V104.501C40.1017 103.571 39.3486 102.819 38.4205 102.819C37.4914 102.819 36.7393 103.571 36.7393 104.501V108.518C36.7393 109.446 37.4914 110.199 38.4205 110.199C39.3486 110.199 40.1017 109.446 40.1017 108.518Z" fill="white"/>
<path d="M32.962 112.321C32.0338 112.321 31.2808 113.073 31.2808 114.002C31.2808 114.93 32.0338 115.683 32.962 115.683H37.4828C38.411 115.683 39.164 114.93 39.164 114.002C39.164 113.073 38.411 112.321 37.4828 112.321H32.962Z" fill="white"/>
<path d="M78.2545 108.518V104.501C78.2545 103.571 77.5014 102.819 76.5733 102.819C75.6442 102.819 74.8921 103.571 74.8921 104.501V108.518C74.8921 109.446 75.6442 110.199 76.5733 110.199C77.5014 110.199 78.2545 109.446 78.2545 108.518Z" fill="white"/>
<path d="M77.5108 115.683H82.0308C82.9598 115.683 83.712 114.93 83.712 114.002C83.712 113.073 82.9598 112.321 82.0308 112.321H77.5108C76.5826 112.321 75.8296 113.073 75.8296 114.002C75.8296 114.93 76.5826 115.683 77.5108 115.683Z" fill="white"/>
<path d="M96.4716 57.4025C92.9648 49.6112 87.9439 44.8513 85.9475 43.1666C84.8162 42.2122 83.149 42.0809 81.8785 42.8304C74.1266 47.4029 71.2397 55.224 70.273 58.8972C66.4999 57.6258 62.2496 56.8491 57.4968 56.8491C52.7439 56.8491 48.4936 57.6258 44.7205 58.8972C43.7539 55.224 40.8669 47.4029 33.115 42.8304C31.8235 42.0677 30.1878 42.2034 29.046 43.1666C27.5566 44.4231 24.6399 47.1638 21.8335 51.4001C21.3213 52.1733 21.5332 53.217 22.3072 53.7301C23.0813 54.2424 24.1241 54.0305 24.6372 53.2564C27.2116 49.3713 29.863 46.8775 31.2149 45.7366C31.2657 45.6928 31.3436 45.6893 31.4067 45.7269C38.3355 49.8144 40.8144 57.181 41.5543 60.1239C40.1384 60.7448 38.7978 61.433 37.5334 62.1703C36.8347 60.018 35.6596 57.2931 33.7499 55.0234C32.6956 53.7704 30.7062 53.7853 29.6738 55.0541C27.3193 57.9445 21.8624 65.9451 21.5086 78.2564C20.485 79.9253 19.5525 81.6503 18.7198 83.4085C17.282 74.5148 18.2329 66.2717 21.5629 58.8394C21.9429 57.9927 21.5638 56.998 20.7162 56.618C19.8695 56.2388 18.8748 56.618 18.4947 57.4647C14.2594 66.9179 13.5729 77.5287 16.4493 89.009C15.4301 92.0177 14.7217 95.0491 14.3776 97.9947C14.2086 99.4342 13.579 100.739 12.6036 101.669L8.68076 105.414C7.27976 106.75 6.6642 108.802 7.07311 110.771C7.61425 113.375 8.89791 118.63 11.4145 124.574C11.4171 124.579 11.4188 124.586 11.4206 124.592C15.184 133.478 20.2644 140.72 26.5233 146.115C34.9862 153.409 45.4079 157.109 57.4968 157.109C72.3018 157.109 84.4992 151.62 93.7493 140.793C94.3526 140.087 94.2686 139.025 93.5628 138.423C92.8571 137.82 91.7958 137.903 91.1925 138.609C82.6105 148.654 71.2738 153.746 57.4968 153.746C32.925 153.746 20.6891 137.563 14.7261 123.767C14.8101 123.393 14.9038 123.02 15.0071 122.65C16.1831 118.454 18.7417 114.728 22.1969 112.079C23.4166 111.144 24.7817 110.464 26.0409 109.598C28.3945 107.978 30.1554 105.55 31.0214 102.832C32.3121 98.781 34.9827 94.6892 39.6953 94.6892C45.4105 94.6892 48.1004 100.827 49.0978 105.591C49.0995 105.599 49.1013 105.606 49.103 105.615C49.9699 109.745 50.0303 113.899 50.0014 115.814C49.9997 115.815 49.9979 115.817 49.9953 115.818C49.1845 116.331 48.6749 117.313 48.6722 118.271C48.6591 122.837 53.3883 125.615 57.4968 125.615C61.6385 125.615 66.3222 122.828 66.3222 118.254C66.3222 118.25 66.3222 118.248 66.3222 118.245C66.316 117.291 65.7933 116.343 64.9982 115.817C64.9965 115.816 64.9947 115.814 64.993 115.813C64.9632 113.897 65.0245 109.739 65.8931 105.606C65.894 105.602 65.8949 105.599 65.8957 105.594C66.9465 100.69 69.3912 94.6892 75.2991 94.6892C80.0887 94.6892 82.6648 98.7179 83.973 102.833C84.6069 104.825 85.6796 106.599 87.0955 108.038C87.9448 108.902 88.9176 109.645 89.9929 110.242C93.8246 112.372 97.0171 115.595 98.8656 119.595C99.4671 120.896 100.26 123.73 100.268 123.766C98.7623 127.248 97.011 130.507 95.0601 133.46C94.5479 134.235 94.7607 135.278 95.5356 135.79C96.3105 136.302 97.3534 136.09 97.8647 135.315C100.021 132.053 101.941 128.444 103.573 124.59C106.095 118.639 107.379 113.378 107.921 110.771C108.33 108.803 107.714 106.75 106.314 105.414L102.39 101.668C101.415 100.74 100.786 99.4351 100.617 97.9955C100.273 95.0499 99.5643 92.0185 98.5451 89.0099C101.428 77.5024 100.732 66.8706 96.4716 57.4025ZM88.4877 71.4134C86.2575 68.8408 83.7523 66.5221 81.0134 64.5003C81.0029 64.4924 80.5931 64.1956 80.3969 64.0581C80.8899 62.3235 81.7752 59.9296 83.269 57.8867C85.1507 60.3753 88.2592 65.3943 89.5516 72.6856C89.3335 72.416 88.6225 71.5692 88.4877 71.4134ZM83.586 45.7269C83.6394 45.6954 83.7015 45.6718 83.7786 45.7366C85.599 47.2724 90.1812 51.6199 93.4052 58.7825C96.7562 66.2288 97.715 74.4921 96.2737 83.4085C95.441 81.6503 94.5085 79.9253 93.4849 78.2564C93.1302 65.9451 87.6751 57.9445 85.3206 55.0541C84.2891 53.7879 82.2927 53.7774 81.2437 55.0226C79.3339 57.2931 78.1588 60.0171 77.4601 62.1703C76.1948 61.4321 74.8534 60.743 73.4357 60.1213C74.1669 57.1827 76.6265 49.8327 83.586 45.7269ZM31.7237 57.8867C33.2184 59.9296 34.1027 62.3235 34.5966 64.0572C34.3996 64.1956 33.9924 64.4898 33.9845 64.4959C31.0669 66.6184 28.4304 69.1324 26.103 71.8871C25.8798 72.1506 25.6591 72.4168 25.4411 72.6856C26.7335 65.3943 29.8428 60.3753 31.7237 57.8867ZM62.8494 119.025C62.2278 121.232 59.5834 122.253 57.4968 122.253C57.4915 122.253 57.4871 122.252 57.4827 122.252C55.3778 122.204 52.5994 121.19 52.102 118.851C52.0898 118.795 52.0767 118.74 52.0679 118.683H62.9256C62.9177 118.736 62.867 118.963 62.8494 119.025ZM100.068 104.1L103.991 107.846C104.55 108.38 104.801 109.259 104.628 110.087C104.253 111.893 103.504 115.035 102.198 118.798C102.145 118.673 102.09 118.549 102.034 118.426C99.9155 113.675 96.1512 109.816 91.6251 107.303C89.5095 106.128 87.9299 104.178 87.1769 101.814C84.4222 93.1463 79.1973 91.3268 75.2991 91.3268C71.1556 91.3268 67.7118 93.571 65.5639 97.0297C65.5516 97.0499 65.5394 97.07 65.5271 97.0901C61.9589 102.911 61.5956 111.597 61.6192 115.321H53.3778C53.4102 111.562 53.0521 102.762 49.3648 96.9247C47.1364 93.3968 43.5586 91.2068 39.3249 91.332C35.4722 91.4476 30.4855 93.4178 27.8166 101.813C27.223 103.684 26.0619 105.372 24.4998 106.564C22.8702 107.806 21.0113 108.679 19.4168 109.996C16.6568 112.277 14.4248 115.145 12.9626 118.418C12.9065 118.544 12.8496 118.67 12.7944 118.799C11.4889 115.035 10.7402 111.893 10.3646 110.088C10.1921 109.26 10.4425 108.38 11.002 107.846L14.924 104.102C16.4642 102.634 17.4554 100.604 17.7163 98.3861C18.31 93.3092 20.4789 86.1816 24.7826 79.3693C31.9522 68.0203 43.8458 60.2115 57.4959 60.2115C70.8763 60.2115 83.1928 68.2585 90.2127 79.3737C94.5146 86.1851 96.6835 93.3101 97.2763 98.3869C97.5373 100.604 98.5285 102.633 100.068 104.1Z" fill="white"/>
<path d="M352 210.672C321.562 210.672 292.977 198.93 271.5 177.605C250.031 156.293 238.211 127.906 238.211 97.6758C238.211 89.3906 231.492 82.6758 223.211 82.6758C214.926 82.6758 208.211 89.3906 208.211 97.6758C208.211 127.906 196.387 156.293 174.918 177.605C153.441 198.93 124.855 210.672 94.418 210.672C86.1328 210.672 79.418 217.387 79.418 225.672C79.418 233.957 86.1328 240.672 94.418 240.672C157.16 240.672 208.211 291.512 208.211 354C208.211 362.285 214.926 369 223.211 369C231.492 369 238.211 362.285 238.211 354C238.211 291.512 289.258 240.672 352 240.672C360.285 240.672 367 233.957 367 225.672C367 217.387 360.285 210.672 352 210.672Z" fill="black"/>
</g>
<g clip-path="url(#clip1)">
<path d="M144.594 21.2402C145.034 21.6577 145.73 21.6393 146.147 21.199C146.565 20.7588 146.546 20.0634 146.106 19.6459C145.666 19.2283 144.971 19.2468 144.553 19.687C144.135 20.1273 144.154 20.8226 144.594 21.2402Z" fill="white" stroke="white" stroke-width="0.5"/>
<path d="M144.869 49.6907L141.349 53.4022L112.65 26.1844L114.771 23.948C117.303 21.2779 121.536 21.1657 124.206 23.698L129.246 28.4779C130.518 29.6842 132.534 29.6308 133.74 28.3588L142.874 18.7274C144.004 17.5362 145.892 17.4863 147.083 18.6159C148.275 19.7456 148.325 21.6342 147.195 22.8253L138.061 32.4566C136.855 33.7285 136.908 35.7441 138.18 36.9505L143.22 41.7305C144.294 42.7488 144.984 44.0558 145.217 45.5126L145.217 45.5126C145.313 46.1116 145.877 46.5196 146.476 46.4237C147.075 46.3278 147.483 45.7643 147.387 45.1652C147.077 43.2284 146.159 41.4886 144.732 40.1362L139.692 35.3562C139.3 34.984 139.283 34.3612 139.655 33.9686L148.789 24.3374C150.753 22.2668 150.666 18.9853 148.596 17.0217C146.525 15.058 143.243 15.1449 141.28 17.2155L132.146 26.8467C131.774 27.2392 131.151 27.2557 130.758 26.8835L125.718 22.1036C122.168 18.7373 116.543 18.8865 113.176 22.436L110.3 25.4695C110.23 25.5433 110.172 25.6244 110.127 25.7098L98.686 37.7734C98.2685 38.2136 98.2868 38.909 98.7272 39.3265C99.1675 39.7441 99.8628 39.7256 100.28 39.2854L111.167 27.8063L112.324 28.9036L101.437 40.3827C101.02 40.823 101.038 41.5183 101.478 41.9359C101.919 42.3535 102.614 42.335 103.032 41.8947L113.918 30.4156L115.075 31.5129L104.195 42.9849C103.778 43.4251 103.796 44.1205 104.237 44.538C104.677 44.9556 105.372 44.9371 105.79 44.4969L116.669 33.0249L117.826 34.1222L106.947 45.5942C106.529 46.0344 106.548 46.7298 106.988 47.1473C107.428 47.5649 108.124 47.5464 108.541 47.1062L119.421 35.6342L120.578 36.7315L109.698 48.2035C109.281 48.6437 109.299 49.3391 109.739 49.7566C110.18 50.1742 110.875 50.1557 111.293 49.7155L122.172 38.2435L123.329 39.3409L112.45 50.8129C112.032 51.2531 112.051 51.9485 112.491 52.3661C112.931 52.7837 113.627 52.7651 114.044 52.3249L124.924 40.8529L126.081 41.9502L115.194 53.4294C114.777 53.8696 114.795 54.5649 115.235 54.9825C115.676 55.4001 116.371 55.3816 116.789 54.9414L127.675 43.4622L128.832 44.5595L117.946 56.0387C117.528 56.4789 117.546 57.1742 117.987 57.5918C118.427 58.0094 119.122 57.9909 119.54 57.5507L130.426 46.0715L131.583 47.1688L120.704 58.6408C120.286 59.081 120.305 59.7764 120.745 60.194C121.185 60.6115 121.881 60.593 122.298 60.1528L133.178 48.6808L134.335 49.7781L123.455 61.2501C123.038 61.6903 123.056 62.3857 123.496 62.8033C123.937 63.2208 124.632 63.2023 125.049 62.7621L135.929 51.2901L137.086 52.3874L126.207 63.8594C125.789 64.2996 125.807 64.995 126.248 65.4126C126.688 65.8301 127.383 65.8116 127.801 65.3714L138.681 53.8994L139.838 54.9967L128.958 66.4687C128.54 66.9089 128.559 67.6043 128.999 68.0219C129.439 68.4394 130.135 68.4209 130.552 67.9807L142.163 55.7375C142.168 55.7326 142.172 55.7282 142.175 55.7249L142.175 55.7242L142.176 55.7235C142.179 55.7205 142.183 55.7164 142.188 55.7115L146.464 51.2028L146.464 51.2027C146.881 50.7624 146.863 50.0671 146.422 49.6495C145.982 49.2319 145.287 49.2504 144.869 49.6907ZM142.182 55.7164L142.181 55.7176C142.182 55.7161 142.182 55.7161 142.182 55.7163L142.182 55.7164Z" fill="white" stroke="white" stroke-width="0.5"/>
<path d="M141.003 47.7756L117.248 25.2473C116.808 24.8297 116.113 24.8482 115.695 25.2885C115.278 25.7287 115.296 26.424 115.736 26.8416L139.491 49.3699C139.931 49.7875 140.627 49.769 141.044 49.3288C141.462 48.8885 141.443 48.1932 141.003 47.7756Z" fill="white" stroke="white" stroke-width="0.5"/>
</g>
<path d="M154.945 109.868C152.805 109.868 150.795 109.042 149.285 107.543C147.776 106.044 146.944 104.048 146.944 101.922C146.944 101.34 146.472 100.868 145.89 100.868C145.307 100.868 144.835 101.34 144.835 101.922C144.835 104.048 144.004 106.044 142.494 107.543C140.984 109.042 138.974 109.868 136.834 109.868C136.251 109.868 135.779 110.34 135.779 110.922C135.779 111.505 136.251 111.977 136.834 111.977C141.246 111.977 144.835 115.552 144.835 119.945C144.835 120.528 145.307 121 145.89 121C146.472 121 146.944 120.528 146.944 119.945C146.944 115.552 150.534 111.977 154.945 111.977C155.528 111.977 156 111.505 156 110.922C156 110.34 155.528 109.868 154.945 109.868Z" fill="white"/>
<path d="M134.431 101.621C131.324 101.621 128.797 99.1125 128.797 96.0289C128.797 95.4467 128.325 94.9742 127.743 94.9742C127.16 94.9742 126.688 95.4467 126.688 96.0289C126.688 99.1125 124.161 101.621 121.055 101.621C120.472 101.621 120 102.093 120 102.676C120 103.258 120.472 103.73 121.055 103.73C124.161 103.73 126.688 106.247 126.688 109.34C126.688 109.922 127.16 110.394 127.743 110.394C128.325 110.394 128.797 109.922 128.797 109.34C128.797 106.247 131.324 103.73 134.431 103.73C135.013 103.73 135.485 103.258 135.485 102.676C135.485 102.093 135.013 101.621 134.431 101.621Z" fill="white"/>
<path d="M136.146 92.2883C138.431 92.2883 140.289 94.1327 140.289 96.3994C140.289 96.9817 140.762 97.4541 141.344 97.4541C141.927 97.4541 142.399 96.9817 142.399 96.3994C142.399 94.1252 144.257 92.2751 146.542 92.2751C147.124 92.2751 147.596 91.8027 147.596 91.2205C147.596 90.6379 147.124 90.1658 146.542 90.1658C144.257 90.1658 142.399 88.3214 142.399 86.0547C142.399 85.4721 141.927 85 141.344 85C140.762 85 140.289 85.4721 140.289 86.0547C140.289 88.3289 138.431 90.179 136.146 90.179C135.564 90.179 135.092 90.6511 135.092 91.2336C135.092 91.8162 135.564 92.2883 136.146 92.2883Z" fill="white"/>
<defs>
<clipPath id="clip0">
<rect width="114.77" height="114.77" fill="white" transform="translate(0 42.3391)"/>
</clipPath>
<clipPath id="clip1">
<rect width="50" height="50" fill="white" transform="translate(130.284) rotate(43.4819)"/>
</clipPath>
</defs>
</svg>
