<svg width="167" height="773" viewBox="0 0 167 773" fill="none" xmlns="http://www.w3.org/2000/svg">
<path d="M141.753 957.2C138.584 960.48 141.997 962.916 142.102 967.784C142.125 968.781 142.422 969.769 142.964 970.658C143.505 971.547 144.276 972.309 145.205 972.875C146.002 973.399 146.912 973.753 147.865 973.91C148.818 974.066 149.787 974.019 150.696 973.774C151.605 973.529 152.43 973.092 153.104 972.497C153.778 971.902 154.285 971.166 154.583 970.346C155.199 968.73 156.35 967.348 157.883 966.384C158.641 965.917 159.272 965.302 159.731 964.579C160.191 963.857 160.469 963.045 160.546 962.199C160.623 961.352 160.498 960.492 160.179 959.677C159.859 958.862 159.354 958.111 158.696 957.476C157.942 956.81 157.023 956.323 156.026 956.061C155.029 955.799 153.988 955.771 153 955.979C147.884 956.837 144.996 953.963 141.753 957.2ZM132.852 963.002C128.862 962.061 125.361 962.534 128.186 966.642C131.011 970.749 134.285 972.21 136.618 972.021C137.575 971.962 138.48 971.652 139.224 971.127C139.968 970.602 140.521 969.884 140.814 969.06C141.176 966.546 136.776 963.979 132.852 963.002ZM137.524 955.106C135.913 953.299 128.66 946.26 126.916 952.145C126.643 953.102 126.596 954.111 126.776 955.106C126.957 956.102 127.362 957.061 127.966 957.924C128.6 958.855 129.441 959.661 130.431 960.286C131.42 960.911 132.536 961.34 133.701 961.545C138.908 962.595 140.446 958.319 137.524 955.106ZM147.245 948.58C148.479 951.879 151.524 955.529 154.053 954.622C156.582 953.715 159.782 947.766 150.863 944.107C146.652 942.298 146.011 945.282 147.272 948.587L147.245 948.58ZM145.767 949.583C145.521 948.615 145.056 947.696 144.404 946.885C143.751 946.074 142.925 945.389 141.98 944.875C141.034 944.361 139.99 944.03 138.915 943.902C137.841 943.774 136.759 943.853 135.741 944.133C129.274 945.692 136.886 952.279 139.002 953.62C142.97 955.983 147.203 953.949 145.794 949.589L145.767 949.583ZM123.488 911.98C123.781 911.383 123.864 910.709 123.726 910.048C123.588 909.388 123.236 908.771 122.715 908.281C121.588 906.878 120.178 905.679 118.568 904.753C115.357 902.9 111.908 902.545 112.83 906.815C113.752 911.085 116.171 913.185 118.459 913.547C119.403 913.722 120.368 913.67 121.259 913.398C122.151 913.125 122.938 912.641 123.541 911.993L123.488 911.98ZM137.38 895.351C137.116 898.653 138.703 902.494 141.395 902.339C144.088 902.184 149.142 897.489 142.481 892.145C139.312 889.511 137.585 892.06 137.38 895.351ZM122.829 893.906C121.291 892.269 119.33 891.475 117.385 893.871C116.745 894.606 116.301 895.471 116.085 896.402C115.87 897.333 115.888 898.306 116.138 899.25C116.389 900.195 116.866 901.086 117.533 901.858C118.201 902.63 119.043 903.265 119.997 903.714C120.788 904.195 121.716 904.435 122.642 904.397C123.568 904.359 124.441 904.045 125.127 903.503C125.814 902.961 126.277 902.22 126.445 901.394C126.614 900.568 126.479 899.701 126.062 898.926C125.329 897.104 124.243 895.405 122.856 893.912L122.829 893.906ZM129.009 901.787C128.198 902.143 127.513 902.689 127.021 903.373C126.529 904.057 126.247 904.855 126.203 905.688C126.17 907.553 125.817 909.387 125.157 911.125C124.782 911.968 124.653 912.895 124.783 913.817C124.913 914.74 125.298 915.629 125.901 916.399C126.507 917.062 127.263 917.599 128.113 917.97C128.962 918.341 129.884 918.536 130.808 918.542C131.733 918.547 132.637 918.361 133.453 917.999C134.269 917.637 134.977 917.108 135.522 916.451C136.711 915.156 138.293 914.213 140.086 913.73C140.948 913.52 141.744 913.148 142.425 912.637C143.107 912.126 143.658 911.488 144.046 910.761C144.433 910.034 144.648 909.235 144.677 908.414C144.706 907.592 144.549 906.766 144.215 905.987C143.81 905.196 143.174 904.514 142.38 904.021C141.586 903.527 140.666 903.24 139.726 903.194C134.833 902.856 133.206 899.668 129.035 901.794L129.009 901.787ZM128.017 897.934C128.531 898.653 129.282 899.209 130.154 899.516C131.027 899.822 131.972 899.862 132.844 899.63C133.716 899.397 134.465 898.905 134.976 898.229C135.488 897.553 135.732 896.731 135.672 895.891C135.824 895.004 135.75 894.088 135.455 893.212C135.159 892.336 134.651 891.524 133.968 890.839C133.285 890.153 132.446 889.612 131.516 889.258C130.586 888.903 129.589 888.745 128.602 888.794C125.386 888.774 124.806 890.651 125.275 892.75C125.851 894.605 126.79 896.364 128.044 897.94L128.017 897.934ZM81.6617 868.925C81.7075 872.352 83.3652 876.617 86.1263 876.53C88.8873 876.442 94.0429 871.796 86.698 865.755C83.1931 862.863 81.6158 865.499 81.6885 868.932L81.6617 868.925ZM72.0538 871.349C74.889 874.567 79.756 873.931 79.8996 869.453C79.9775 868.487 79.8322 867.506 79.4733 866.575C79.1144 865.644 78.5496 864.782 77.8152 864.045C77.0808 863.308 76.1928 862.712 75.2083 862.294C74.2238 861.877 73.1643 861.648 72.0977 861.622C65.416 861.32 70.4369 869.565 72.0806 871.355L72.0538 871.349ZM73.3649 875.405C69.1834 877.579 71.5999 880.775 69.8834 885.213C69.5445 886.127 69.4676 887.116 69.6599 888.088C69.8522 889.06 70.3074 889.984 70.9837 890.774C71.577 891.482 72.333 892.065 73.1943 892.48C74.0557 892.894 74.9998 893.128 75.9552 893.164C76.9105 893.2 77.852 893.038 78.7082 892.689C79.5644 892.34 80.313 891.814 80.8971 891.15C82.0552 889.831 83.6575 888.898 85.4764 888.484C86.3741 888.285 87.2041 887.907 87.9085 887.377C88.6128 886.847 89.1746 886.178 89.5546 885.416C89.9347 884.654 90.1238 883.817 90.1089 882.965C90.094 882.112 89.8754 881.264 89.4684 880.479C88.9869 879.634 88.2798 878.907 87.4158 878.368C86.5518 877.829 85.5602 877.497 84.5374 877.404C79.5612 876.816 77.562 873.286 73.403 875.363L73.3649 875.405ZM70.0773 872.31C69.0708 870.212 64.5687 861.681 60.8534 866.693C60.2539 867.524 59.8595 868.47 59.696 869.469C59.5326 870.468 59.6037 871.497 59.9047 872.489C60.2058 873.481 60.73 874.414 61.4431 875.227C62.1563 876.04 63.0424 876.715 64.0435 877.208C68.7621 879.621 71.762 876.097 70.104 872.316L70.0773 872.31ZM68.241 886.074C69.5559 883.836 66.2305 880.298 62.7744 878.285C59.3184 876.271 55.8008 875.849 57.0581 880.377C58.3154 884.905 60.872 887.14 63.1916 887.61C64.1328 887.829 65.11 887.801 66.0089 887.53C66.9078 887.259 67.6913 886.756 68.2678 886.081L68.241 886.074ZM89.2383 815.656C88.1287 818.708 88.3108 822.88 90.9306 823.396C93.5503 823.912 100.014 820.798 95.1067 813.88C92.7987 810.583 90.3804 812.586 89.2651 815.662L89.2383 815.656ZM79.1827 819.63C74.4297 820.625 75.7765 823.925 72.5552 827.549C71.899 828.233 71.4641 829.074 71.2957 829.985C71.1274 830.895 71.2317 831.842 71.5979 832.727C71.987 833.509 72.5581 834.211 73.2697 834.781C73.9813 835.352 74.8157 835.776 75.7124 836.024C76.609 836.273 77.5455 836.338 78.4539 836.216C79.3624 836.094 80.22 835.788 80.9646 835.319C82.5332 834.439 84.3608 833.987 86.2421 834.015C87.1562 834.051 88.0592 833.912 88.8933 833.607C89.7274 833.303 90.4743 832.84 91.0863 832.248C91.6982 831.656 92.1616 830.947 92.4469 830.168C92.7323 829.389 92.8332 828.557 92.7432 827.724C92.5517 826.86 92.1174 826.047 91.4837 825.366C90.85 824.684 90.0391 824.157 89.1319 823.839C84.496 822.159 83.9513 818.691 79.1827 819.63ZM79.3035 815.734C79.6013 816.538 80.1726 817.244 80.9317 817.748C81.6909 818.251 82.5968 818.523 83.5136 818.524C84.4304 818.525 85.3085 818.254 86.0162 817.752C86.7239 817.251 87.223 816.545 87.4385 815.741C87.8809 814.926 88.1067 814.021 88.0984 813.094C88.09 812.167 87.8478 811.244 87.3904 810.397C86.933 809.549 86.2728 808.8 85.4608 808.208C84.6489 807.615 83.707 807.194 82.7082 806.978C76.2936 805.414 78.4675 813.752 79.3035 815.734ZM77.113 816.16C77.0142 814.047 75.3845 805.556 70.2732 809.168C69.4321 809.718 68.7426 810.435 68.2536 811.27C67.7646 812.104 67.488 813.036 67.4434 813.998C67.3989 814.96 67.5874 815.93 67.9958 816.838C68.4041 817.746 69.0222 818.571 69.8063 819.254C70.4473 819.88 71.282 820.313 72.188 820.487C73.0939 820.662 74.0235 820.569 74.8405 820.223C75.6575 819.877 76.319 819.296 76.728 818.565C77.1369 817.834 77.2719 816.991 77.113 816.16ZM70.6932 827.9C72.742 826.268 70.6937 822.343 68.0653 819.811C65.437 817.28 62.3653 815.918 61.8736 820.313C61.193 829.38 68.8601 829.455 70.6932 827.9ZM32.3393 776.768C34.1213 780.502 39.1907 780.934 40.5279 776.788C40.8955 775.888 41.0442 774.916 40.964 773.939C40.8838 772.963 40.5766 772.003 40.0628 771.124C39.549 770.245 38.8405 769.467 37.9847 768.843C37.1289 768.219 36.1455 767.763 35.1003 767.504C28.4631 765.683 31.3061 774.664 32.3393 776.768ZM24.4106 789.885C26.3749 788.131 24.0393 783.986 21.1982 781.277C18.3571 778.567 15.2036 777.314 14.9936 781.954C15.0104 791.542 22.6578 791.46 24.4106 789.885ZM30.1741 777.328C29.9373 775.08 27.6385 765.948 22.706 769.882C21.9044 770.547 21.272 771.364 20.8496 772.281C20.4272 773.198 20.224 774.195 20.2531 775.207C20.2823 776.22 20.543 777.226 21.0187 778.16C21.4944 779.095 22.1744 779.938 23.0152 780.635C26.7637 783.813 30.5806 781.145 30.084 777.23L30.1741 777.328ZM42.3911 776.795C41.6167 780.104 42.0609 784.364 44.7652 785.002C47.4694 785.64 53.8602 782.355 48.2609 774.891C45.6403 771.24 43.3064 773.366 42.3009 776.697L42.3911 776.795ZM32.4988 781.037C27.7823 782.116 29.3517 785.673 26.3643 789.505C25.7494 790.276 25.3702 791.189 25.263 792.155C25.1558 793.12 25.3242 794.107 25.7521 795.019C26.1623 795.807 26.7539 796.51 27.4848 797.079C28.2157 797.648 29.0677 798.069 29.98 798.311C30.8924 798.553 31.8425 798.611 32.7625 798.479C33.6824 798.348 34.5496 798.032 35.302 797.553C36.8406 796.634 38.6718 796.177 40.5527 796.243C41.4833 796.274 42.4001 796.118 43.2379 795.785C44.0756 795.452 44.8136 794.951 45.399 794.318C45.9845 793.684 46.4031 792.933 46.6249 792.119C46.8466 791.305 46.8661 790.448 46.682 789.609C46.4587 788.695 45.9866 787.837 45.3102 787.115C44.6339 786.394 43.7754 785.833 42.8157 785.485C37.9671 783.627 37.2477 779.94 32.4087 780.939L32.4988 781.037ZM54.8544 725.341C54.8737 726.209 55.2147 727.06 55.8217 727.754C56.4287 728.449 57.266 728.946 58.1972 729.166C59.1285 729.386 60.0989 729.315 60.9504 728.964C61.8019 728.614 62.4844 728.005 62.8867 727.236C63.5516 726.534 64.0186 725.69 64.2499 724.774C64.4813 723.858 64.4705 722.895 64.2186 721.962C63.9666 721.03 63.4805 720.154 62.7995 719.405C62.1184 718.657 61.2615 718.056 60.2978 717.653C54.4803 714.624 54.4837 723.061 54.7642 725.243L54.8544 725.341ZM64.6399 727.471C62.7342 730.182 61.817 734.223 64.2744 735.312C66.7317 736.402 73.9233 734.887 70.8682 727.054C70.1167 725.195 69.0925 724.622 67.9409 724.834C66.4991 725.276 65.2984 726.175 64.5497 727.373L64.6399 727.471ZM53.6781 729.04C48.7284 728.943 49.1491 732.457 45.0687 735.165C44.2537 735.692 43.6112 736.409 43.2027 737.245C42.7942 738.082 42.6335 739.01 42.7361 739.942C42.9146 740.776 43.2916 741.573 43.8401 742.275C44.3885 742.977 45.0948 743.567 45.9083 744.003C46.7218 744.438 47.6224 744.709 48.5455 744.795C49.4686 744.88 50.3913 744.779 51.2474 744.499C53.0619 743.971 55.0318 743.948 56.9132 744.434C57.7917 744.643 58.6995 744.687 59.5797 744.561C60.4599 744.436 61.2934 744.144 62.0278 743.705C62.7622 743.265 63.3816 742.687 63.847 742.007C64.3125 741.327 64.614 740.56 64.7326 739.753C64.7754 738.889 64.5695 738.018 64.1352 737.227C63.701 736.436 63.0533 735.753 62.2562 735.244C58.1367 732.564 58.5207 729.112 53.588 728.942L53.6781 729.04ZM42.713 726.759C40.8953 723.781 38.2003 721.896 36.5052 725.88C33.3768 734.42 40.9653 736.16 43.1632 735.098C45.3611 734.036 44.4885 729.675 42.6229 726.661L42.713 726.759ZM52.4726 725.136C52.953 723.083 53.5628 714.56 47.5109 716.879C46.5621 717.232 45.7182 717.772 45.0372 718.462C44.3562 719.152 43.8541 719.976 43.5655 720.876C43.2769 721.777 43.2087 722.733 43.3654 723.679C43.5222 724.626 43.9002 725.54 44.4736 726.358C47.1561 730.228 51.7051 728.778 52.4726 725.136ZM17.8631 681.668C12.9386 681.704 13.5551 685.469 9.59993 688.487C8.79594 689.088 8.19069 689.881 7.8454 690.784C7.50011 691.687 7.42702 692.669 7.63354 693.63C7.81104 694.49 8.19628 695.311 8.76076 696.033C9.32524 696.756 10.0546 697.361 10.8948 697.804C11.735 698.247 12.6647 698.516 13.6152 698.592C14.5656 698.669 15.5125 698.55 16.3859 698.244C18.1329 697.641 20.0674 697.555 21.925 697.996C22.8301 698.225 23.7697 698.271 24.6776 698.133C25.5854 697.994 26.4394 697.674 27.1792 697.195C27.9191 696.716 28.5268 696.089 28.9596 695.359C29.3923 694.629 29.6396 693.813 29.6839 692.97C29.6839 692.04 29.4305 691.114 28.9463 690.275C28.4622 689.435 27.7626 688.709 26.9103 688.161C22.6302 685.443 22.6635 681.679 17.8631 681.668ZM28.6898 679.71C26.9798 682.672 26.3007 687.023 28.8327 688.156C31.3647 689.288 38.4676 687.549 34.8929 679.16C33.1251 675.124 30.3534 676.585 28.5559 679.679L28.6898 679.71ZM16.466 677.617C16.7548 675.416 16.938 666.181 11.0423 668.92C10.0758 669.376 9.23662 670.019 8.58059 670.807C7.92457 671.595 7.46667 672.509 7.23733 673.49C7.00798 674.47 7.01244 675.493 7.2504 676.492C7.48836 677.491 7.95438 678.442 8.6175 679.283C11.3691 683.22 15.8943 681.509 16.3321 677.585L16.466 677.617ZM6.77245 679.561C4.6602 676.514 1.70308 674.542 0.513738 678.9C-2.01606 688.142 5.50493 689.687 7.7043 688.498C9.90367 687.309 8.7169 682.722 6.63857 679.529L6.77245 679.561ZM18.7478 677.645C19.6573 681.607 24.3806 683.154 26.8141 679.395C27.3923 678.604 27.775 677.703 27.9373 676.749C28.0997 675.796 28.0379 674.813 27.7561 673.864C27.4743 672.914 26.9788 672.02 26.3019 671.24C25.625 670.46 24.7821 669.811 23.828 669.336C17.754 666.196 18.1727 675.394 18.6139 677.614L18.7478 677.645ZM53.8011 632.643C53.6512 633.468 53.8056 634.328 54.2406 635.091C54.6756 635.854 55.3671 636.477 56.2083 636.864C57.0496 637.251 57.9939 637.38 58.8957 637.232C59.7975 637.084 60.6066 636.667 61.1984 636.045C62.0663 635.457 62.7435 634.669 63.165 633.755C63.5866 632.842 63.7384 631.833 63.606 630.827C63.386 629.156 62.4926 627.59 61.1013 626.438C56.0215 622.308 53.708 630.505 53.6673 632.611L53.8011 632.643ZM43.3736 631.686C43.622 632.512 44.155 633.255 44.8921 633.801C45.6291 634.347 46.53 634.668 47.4582 634.714C48.3864 634.76 49.2913 634.529 50.0359 634.056C50.7805 633.584 51.3242 632.895 51.5845 632.094C52.3481 630.159 55.2564 622.077 48.7148 623.108C47.6625 623.213 46.6611 623.535 45.7851 624.049C44.9091 624.563 44.181 625.257 43.6549 626.078C43.1288 626.899 42.8183 627.827 42.7464 628.793C42.6745 629.758 42.8432 630.736 43.2398 631.655L43.3736 631.686ZM62.9301 636.734C60.375 638.96 58.3235 642.656 60.5226 644.246C62.7217 645.835 70.0463 645.804 69.1647 637.618C68.6414 633.697 65.3838 634.458 62.7962 636.702L62.9301 636.734ZM41.5443 631.535C40.423 628.237 38.0398 625.865 35.598 629.419C30.4618 637.001 37.3349 640.228 39.8115 639.665C42.2882 639.103 42.505 634.795 41.3837 631.497L41.5443 631.535ZM51.7964 636.019C46.9769 634.882 46.4745 638.357 41.7393 640.12C40.8054 640.447 39.9974 641.002 39.4002 641.727C38.8031 642.452 38.4389 643.32 38.3458 644.239C38.2921 645.079 38.4468 645.929 38.7985 646.725C39.1502 647.522 39.6899 648.244 40.3778 648.84C41.0657 649.435 41.8841 649.888 42.7727 650.165C43.6613 650.442 44.5973 650.537 45.5116 650.441C47.3617 650.306 49.2405 650.67 50.9174 651.487C51.7351 651.902 52.6305 652.16 53.5465 652.245C54.4624 652.33 55.3786 652.241 56.2367 651.983C57.0948 651.725 57.8758 651.304 58.5298 650.746C59.1838 650.188 59.6965 649.506 60.035 648.744C60.3126 647.912 60.329 647.014 60.0823 646.151C59.8357 645.288 59.3355 644.492 58.637 643.852C55.0959 640.391 56.5298 637.161 51.5821 635.968L51.7964 636.019ZM39.1055 583.397C36.5685 585.908 34.9466 590.062 37.1951 591.561C38.0253 592.001 38.9554 592.242 39.8957 592.263C40.836 592.284 41.7548 592.084 42.5634 591.681C44.4864 590.707 45.962 588.506 45.353 584.106C44.7439 579.706 41.4495 580.866 38.8914 583.346L39.1055 583.397ZM17.5559 578.899C16.3233 575.473 13.8597 573.082 11.5319 576.993C9.204 580.905 9.87577 584.071 11.2362 585.743C11.8387 586.47 12.6436 587.039 13.5606 587.386C14.4775 587.733 15.4703 587.844 16.4272 587.707C18.7138 586.87 18.5094 582.31 17.3149 578.842L17.5559 578.899ZM29.8835 579.462C29.7458 583.432 34.0345 585.871 37.3949 582.738C38.1635 582.088 38.7625 581.288 39.1518 580.393C39.541 579.498 39.7115 578.527 39.6518 577.547C39.592 576.567 39.3034 575.6 38.8053 574.712C38.3073 573.823 37.6113 573.032 36.7641 572.394C31.3095 568.176 29.7115 577.179 29.6425 579.405L29.8835 579.462ZM31.7328 586.169C31.3958 585.373 30.8348 584.663 30.1082 584.115C29.3816 583.567 28.5162 583.2 27.6023 583.053C22.6841 582.097 22.4042 585.829 17.9704 587.994C16.6863 588.607 15.7031 589.625 15.1947 590.869C14.6863 592.113 14.6855 593.501 15.1924 594.79C15.6993 596.078 16.6813 597.183 17.9646 597.909C19.2479 598.634 20.7498 598.934 22.2047 598.756C24.0488 598.534 25.9503 598.84 27.6501 599.633C28.4957 600.029 29.4165 600.259 30.3497 600.305C31.2829 600.351 32.2064 600.214 33.0573 599.902C33.9082 599.589 34.6663 599.11 35.28 598.496C35.8936 597.882 36.3483 597.148 36.613 596.344C36.8531 595.449 36.8305 594.501 36.5474 593.594C36.2642 592.687 35.7303 591.852 34.9981 591.171C33.6197 589.668 32.516 587.977 31.7328 586.169ZM27.3595 579.02C28.1838 576.946 30.3822 568.033 23.932 569.519C22.8837 569.78 21.9175 570.241 21.0957 570.873C20.2739 571.505 19.6147 572.294 19.1606 573.188C18.7064 574.082 18.4675 575.062 18.4591 576.065C18.4507 577.068 18.673 578.072 19.1118 579.011C21.0964 583.328 25.9268 582.607 27.3595 579.02ZM62.8169 539.414C62.4539 536.015 60.7995 533.305 57.4575 536.238C50.6928 542.569 56.7407 547.029 59.3467 546.879C61.9528 546.73 63.2236 542.747 62.8395 539.318L62.8169 539.414ZM64.6376 539.844C64.7027 540.69 65.0674 541.507 65.6767 542.171C66.286 542.835 67.1065 543.31 68.0142 543.524C68.9219 543.739 69.8674 543.68 70.7074 543.358C71.5475 543.036 72.2364 542.467 72.67 541.739C73.9944 540.063 78.6766 532.731 72.0047 532.508C70.9364 532.429 69.8735 532.567 68.8927 532.911C67.9119 533.256 67.0377 533.798 66.3329 534.5C65.6282 535.202 65.1106 536.045 64.8175 536.969C64.5243 537.893 64.4628 538.875 64.6376 539.844ZM78.7009 555.447C80.3235 557.207 87.8275 558.824 88.75 550.656C89.1765 546.78 85.8404 546.911 82.7923 548.588C79.7442 550.264 77.001 553.415 78.7009 555.447ZM71.9093 545.714C67.4061 543.708 65.9892 546.866 61.0543 547.792C60.0545 547.93 59.123 548.303 58.3504 548.875C57.5778 549.448 56.9904 550.2 56.6452 551.06C56.4037 551.866 56.365 552.719 56.532 553.558C56.699 554.397 57.0675 555.201 57.6107 555.91C58.1538 556.62 58.858 557.217 59.6718 557.659C60.4856 558.1 61.3885 558.375 62.3149 558.464C64.1914 558.729 65.9758 559.459 67.472 560.573C68.1739 561.138 68.992 561.568 69.8727 561.832C70.7535 562.097 71.6768 562.191 72.5821 562.109C73.4873 562.026 74.354 561.769 75.1251 561.353C75.8963 560.938 76.5545 560.374 77.0564 559.699C77.5187 558.949 77.7502 558.092 77.7275 557.214C77.7048 556.336 77.4286 555.468 76.927 554.698C74.4348 550.618 76.4182 547.695 71.9319 545.617L71.9093 545.714ZM74.6918 542.878C74.3687 543.651 74.3353 544.51 74.5967 545.327C74.8581 546.143 75.4 546.872 76.1406 547.404C76.8811 547.936 77.7799 548.241 78.7012 548.274C79.6224 548.307 80.516 548.065 81.2468 547.586C82.1411 547.201 82.9211 546.636 83.5309 545.932C84.1406 545.227 84.5648 544.4 84.773 543.511C84.9811 542.621 84.968 541.691 84.7345 540.788C84.501 539.884 84.0531 539.03 83.4229 538.286C79.5191 533.235 75.3555 540.767 74.7144 542.782L74.6918 542.878ZM52.7604 484.228C53.6089 488.812 58.6107 489.049 60.8776 485.76C62.1345 483.89 66.2577 475.687 59.5854 475.948C58.494 476.003 57.4385 476.268 56.4879 476.726C55.5373 477.183 54.713 477.824 54.0688 478.606C53.4247 479.387 52.9752 480.292 52.7497 481.26C52.5243 482.229 52.5279 483.24 52.7604 484.228ZM50.9129 483.792C50.4711 480.247 48.5701 477.504 45.4167 480.838C42.2633 484.173 42.0444 487.282 43.1763 489.206C43.6018 490.005 44.2566 490.692 45.0679 491.189C45.8793 491.687 46.8154 491.975 47.7721 492.023C50.615 491.827 51.4294 487.38 51.0144 483.841L50.9129 483.792ZM71.2736 492.164C69.7504 493.156 68.4877 494.438 67.5674 495.929C67.1526 496.468 66.9326 497.118 66.9362 497.792C66.9398 498.466 67.1669 499.133 67.5877 499.706C68.3025 500.322 69.1737 500.763 70.1137 500.985C71.0537 501.206 72.0294 501.201 72.9426 500.969C74.1405 500.638 75.1548 499.931 75.812 498.97C76.7704 497.559 77.3069 495.931 77.3708 494.24C77.7173 489.861 74.3839 490.221 71.375 492.213L71.2736 492.164ZM63.6268 493.571C63.4755 492.744 63.0832 491.958 62.4916 491.298C61.9 490.638 61.131 490.128 60.2663 489.822C59.4183 489.433 58.4822 489.255 57.5559 489.305C56.6296 489.356 55.747 489.633 55.0006 490.109C53.3672 491.259 51.5269 492.151 49.5517 492.749C48.1435 493.098 46.941 493.899 46.1587 495.008C45.3763 496.118 45.065 497.464 45.2802 498.806C45.4953 500.149 46.223 501.401 47.3335 502.339C48.4439 503.277 49.865 503.84 51.3433 503.928C53.2213 504.085 55.0329 504.743 56.5513 505.819C57.2927 506.369 58.1488 506.77 59.06 506.995C59.9712 507.22 60.9157 507.263 61.828 507.121C62.7402 506.98 63.5982 506.658 64.3424 506.176C65.0866 505.695 65.6992 505.066 66.1375 504.334C66.5513 503.524 66.7272 502.622 66.6486 501.711C66.57 500.801 66.2395 499.913 65.6882 499.13C64.7158 497.389 64.0539 495.528 63.7283 493.621L63.6268 493.571ZM62.994 486.617C62.0953 490.457 65.6295 493.585 69.6957 491.18C70.5962 490.693 71.3626 490.03 71.9435 489.236C72.5244 488.443 72.9062 487.537 73.0634 486.579C73.2206 485.621 73.1494 484.634 72.8548 483.684C72.5601 482.734 72.0487 481.842 71.355 481.07C67.2299 476.12 63.6576 484.505 63.0954 486.666L62.994 486.617ZM104.083 452.647C104.422 457.112 109.337 457.965 112.025 454.929C113.655 453.274 118.285 445.318 111.472 445.215C110.418 445.209 109.384 445.402 108.435 445.782C107.487 446.163 106.644 446.721 105.96 447.424C105.275 448.126 104.764 448.957 104.459 449.865C104.153 450.772 104.06 451.736 104.184 452.697L104.083 452.647ZM102.302 452.049C102.229 448.616 100.542 445.924 97.1058 448.656C89.8919 454.372 95.6027 459.186 98.1239 459.398C100.645 459.611 102.476 455.531 102.403 452.098L102.302 452.049ZM114.037 455.99C112.533 459.637 115.723 463.27 120.167 461.183C121.257 460.719 122.202 460.026 122.929 459.159C123.656 458.291 124.146 457.273 124.36 456.182C124.63 454.381 124.16 452.52 123.041 450.952C119.252 445.775 115.117 454.027 114.138 456.039L114.037 455.99ZM116.486 469.669C117.842 471.722 125.161 474.01 127.339 464.583C128.368 460.186 124.869 460.406 121.541 462.195C118.212 463.984 115.212 467.508 116.695 469.744L116.486 469.669ZM110.765 458.863C106.416 456.562 104.845 460.015 99.6596 460.321C98.6542 460.391 97.6968 460.693 96.8767 461.199C96.0566 461.705 95.4007 462.4 94.9702 463.217C94.596 463.971 94.4154 464.8 94.4414 465.644C94.4674 466.487 94.6995 467.324 95.1207 468.093C95.5418 468.861 96.1415 469.542 96.8759 470.087C97.6102 470.631 98.4608 471.024 99.3655 471.238C101.218 471.73 102.889 472.72 104.154 474.075C104.779 474.753 105.556 475.302 106.427 475.682C107.298 476.062 108.243 476.264 109.191 476.273C110.139 476.282 111.067 476.097 111.908 475.733C112.748 475.368 113.48 474.833 114.05 474.167C114.698 473.429 115.111 472.537 115.245 471.583C115.379 470.628 115.229 469.647 114.811 468.739C112.968 464.302 115.306 461.311 110.974 458.938L110.765 458.863ZM87.0151 398.687C85.8445 395.48 83.3949 393.27 81.1069 396.528C76.1037 403.301 82.7441 406.677 85.2445 406.375C87.745 406.073 88.4747 401.988 87.2237 398.762L87.0151 398.687ZM108.294 404.344C105.812 406.741 103.588 410.448 105.683 412.242C106.482 412.778 107.414 413.117 108.381 413.225C109.349 413.332 110.319 413.204 111.19 412.853C113.24 412.062 115.144 409.962 114.634 405.381C114.123 400.8 111.085 402.072 108.523 404.45L108.294 404.344ZM88.8331 398.887C89.0645 399.709 89.5796 400.452 90.3004 401.006C91.0213 401.559 91.9088 401.891 92.8291 401.953C93.7493 402.015 94.6523 401.802 95.4017 401.348C96.1511 400.893 96.7062 400.221 96.9833 399.433C97.854 397.523 100.206 389.284 93.7316 390.509C92.7401 390.668 91.811 391.03 91.0129 391.569C90.2148 392.107 89.5682 392.808 89.1206 393.62C88.673 394.432 88.436 395.334 88.427 396.259C88.4179 397.185 88.6371 398.11 89.0685 398.968L88.8331 398.887ZM99.1943 400.006C99.0267 400.836 99.1652 401.706 99.5885 402.484C100.012 403.261 100.697 403.902 101.538 404.309C102.379 404.716 103.33 404.866 104.246 404.736C105.161 404.606 105.99 404.203 106.606 403.589C107.385 402.975 107.999 402.206 108.405 401.336C108.811 400.466 108.998 399.516 108.954 398.553C108.91 397.59 108.636 396.638 108.15 395.763C107.665 394.888 106.98 394.112 106.144 393.489C101.357 389.555 99.5563 397.975 99.4296 400.087L99.1943 400.006ZM97.1895 403.381C92.3969 402.251 91.7945 405.55 87.0637 406.932C86.1335 407.168 85.3018 407.63 84.6549 408.271C84.008 408.912 83.5698 409.708 83.3858 410.575C83.3196 411.404 83.4455 412.245 83.7555 413.043C84.0655 413.841 84.5526 414.578 85.1854 415.208C85.8182 415.838 86.5827 416.346 87.4293 416.699C88.2759 417.052 89.1858 417.242 90.1003 417.257C91.9695 417.335 93.7991 417.909 95.3648 418.907C96.1207 419.425 96.9861 419.787 97.8975 419.966C98.8088 420.146 99.743 420.138 100.631 419.944C101.519 419.75 102.339 419.375 103.03 418.846C103.721 418.317 104.266 417.647 104.624 416.886C105 416.027 105.112 415.081 104.949 414.146C104.785 413.211 104.351 412.321 103.693 411.569C100.845 408.042 102.226 404.799 97.4248 403.462L97.1895 403.381ZM140.063 364.684C135.355 363.191 134.486 366.784 129.627 368.11C128.659 368.363 127.787 368.836 127.092 369.487C126.397 370.138 125.9 370.946 125.647 371.836C125.454 372.652 125.465 373.506 125.678 374.335C125.891 375.165 126.302 375.949 126.881 376.632C127.459 377.315 128.191 377.879 129.023 378.284C129.854 378.688 130.766 378.923 131.691 378.971C133.571 379.118 135.386 379.778 136.899 380.863C137.649 381.422 138.52 381.826 139.446 382.046C140.372 382.267 141.331 382.297 142.252 382.135C143.173 381.974 144.033 381.624 144.768 381.113C145.504 380.601 146.097 379.94 146.503 379.178C146.959 378.333 147.16 377.385 147.088 376.425C147.015 375.465 146.671 374.527 146.089 373.702C143.248 369.667 144.861 366.275 140.063 364.684ZM151.311 366.115C148.47 368.478 146.127 372.334 148.048 374.266C149.969 376.198 157.44 376.992 157.492 367.471C157.405 363.015 154.157 363.855 151.311 366.115ZM132.196 359.668C133.519 364.033 138.47 364.003 140.465 360.548C141.653 358.611 144.579 349.972 137.999 351.045C136.942 351.19 135.942 351.537 135.063 352.066C134.183 352.594 133.445 353.292 132.896 354.112C132.346 354.933 131.999 355.858 131.875 356.828C131.752 357.797 131.855 358.79 132.179 359.74L132.196 359.668ZM130.362 359.413C129.516 356.028 127.342 353.603 124.575 356.978C118.824 363.93 125.406 367.675 127.788 367.396C130.17 367.117 131.165 362.865 130.345 359.486L130.362 359.413ZM142.6 361.205C141.942 365.102 145.816 368.107 149.673 365.269C150.625 364.618 151.39 363.768 151.909 362.786C152.428 361.803 152.687 360.715 152.666 359.603C152.547 357.787 151.711 356.041 150.312 354.689C145.413 350.271 143.071 359.073 142.583 361.277L142.6 361.205ZM114.397 308.109C114.877 306.056 115.504 297.461 109.452 299.78C108.499 300.085 107.643 300.585 106.949 301.243C106.254 301.902 105.739 302.701 105.44 303.583C105.141 304.465 105.068 305.406 105.224 306.337C105.38 307.268 105.762 308.165 106.343 308.962C106.734 309.732 107.381 310.378 108.188 310.804C108.996 311.23 109.92 311.412 110.824 311.325C111.727 311.237 112.562 310.884 113.202 310.317C113.843 309.751 114.256 309.002 114.38 308.182L114.397 308.109ZM104.482 309.186C102.691 306.214 99.9468 304.42 98.2773 308.053C94.8056 315.646 101.964 317.895 104.346 317.132C106.729 316.368 106.327 312.17 104.482 309.186ZM116.67 308.416C116.651 309.275 116.947 310.13 117.511 310.844C118.076 311.558 118.877 312.091 119.787 312.358C120.698 312.625 121.665 312.612 122.537 312.32C123.409 312.028 124.135 311.474 124.6 310.746C125.277 310.014 125.759 309.145 126.01 308.203C126.262 307.261 126.276 306.27 126.054 305.301C125.831 304.333 125.376 303.412 124.722 302.605C124.069 301.799 123.233 301.127 122.275 300.639C116.404 297.597 116.357 306.252 116.681 308.368L116.67 308.416ZM126.389 311.193C124.439 313.971 123.06 318.055 125.443 319.458C126.319 319.837 127.276 320.005 128.221 319.946C129.166 319.888 130.067 319.604 130.833 319.124C132.651 317.998 134.064 315.579 132.698 311.153C131.333 306.727 128.409 308.356 126.4 311.145L126.389 311.193ZM115.354 312.108C110.456 311.666 110.566 315.184 106.239 317.374C105.387 317.786 104.683 318.404 104.202 319.165C103.72 319.927 103.479 320.802 103.504 321.699C103.598 322.533 103.884 323.348 104.343 324.09C104.802 324.832 105.424 325.484 106.167 326.004C106.91 326.523 107.758 326.899 108.655 327.105C109.551 327.311 110.477 327.344 111.37 327.2C113.211 326.966 115.111 327.212 116.855 327.908C117.698 328.289 118.613 328.497 119.536 328.518C120.459 328.539 121.365 328.372 122.19 328.03C123.014 327.687 123.735 327.177 124.301 326.538C124.867 325.898 125.264 325.144 125.462 324.331C125.634 323.428 125.538 322.488 125.183 321.607C124.829 320.726 124.228 319.936 123.442 319.318C119.636 316.024 120.332 312.568 115.365 312.059L115.354 312.108ZM138.664 262.958C137.214 259.736 134.574 257.736 132.559 261.518C128.29 269.381 135.444 272.012 137.83 271.351C140.217 270.691 140.125 266.132 138.675 262.909L138.664 262.958ZM150.974 262.752C151.067 266.7 155.464 269.037 158.78 265.614C159.509 264.894 160.053 264.033 160.374 263.088C160.696 262.144 160.788 261.137 160.644 260.137C160.501 259.137 160.125 258.166 159.542 257.29C158.959 256.414 158.183 255.654 157.266 255.061C151.532 251.312 151 260.465 150.985 262.704L150.974 262.752ZM149.27 266.531C144.376 265.835 144.22 269.519 139.738 271.648C138.841 272.056 138.083 272.669 137.534 273.431C136.985 274.193 136.663 275.079 136.6 276.006C136.577 276.849 136.759 277.695 137.134 278.484C137.51 279.272 138.068 279.983 138.769 280.565C139.471 281.148 140.298 281.587 141.191 281.851C142.084 282.116 143.02 282.199 143.933 282.095C145.782 281.924 147.671 282.272 149.35 283.092C150.196 283.516 151.126 283.767 152.072 283.828C153.018 283.89 153.957 283.759 154.822 283.447C155.687 283.134 156.456 282.647 157.073 282.02C157.691 281.393 158.142 280.642 158.394 279.822C158.665 278.906 158.663 277.93 158.386 276.991C158.109 276.053 157.568 275.187 156.818 274.48C153.252 270.886 154.159 267.251 149.281 266.482L149.27 266.531ZM160.433 266.157C158.113 268.948 156.587 273.176 158.839 274.778C161.092 276.38 168.518 275.915 166.723 266.443C165.852 261.955 162.764 263.317 160.444 266.108L160.433 266.157ZM148.706 262.421C149.456 260.304 150.587 251.242 144.403 253.402C143.414 253.726 142.52 254.238 141.779 254.907C141.038 255.576 140.467 256.386 140.102 257.285C139.737 258.183 139.587 259.151 139.661 260.125C139.736 261.099 140.032 262.058 140.533 262.94C142.666 266.986 147.497 266.138 148.717 262.373L148.706 262.421ZM106.009 221.761C105.542 220.108 104.692 218.551 103.517 217.197C101.309 214.56 98.1133 213.245 97.2413 217.092C96.3694 220.939 97.7689 223.411 99.6187 224.561C100.432 225.072 101.363 225.393 102.327 225.496C103.29 225.598 104.255 225.479 105.132 225.148C105.636 224.749 105.989 224.214 106.145 223.614C106.3 223.014 106.251 222.377 106.004 221.785L106.009 221.761ZM114.71 208.724C114.542 210.668 114.75 212.641 115.324 214.553C115.48 215.412 115.942 216.213 116.639 216.829C117.336 217.446 118.226 217.843 119.171 217.958C120.116 218.072 121.06 217.898 121.856 217.463C122.652 217.028 123.253 216.356 123.565 215.554C124.065 214.725 124.35 213.797 124.401 212.835C124.452 211.874 124.268 210.904 123.861 209.996C123.455 209.088 122.836 208.264 122.05 207.584C121.264 206.904 120.33 206.384 119.316 206.064C115.985 204.844 114.902 206.577 114.597 208.723L114.71 208.724ZM112.991 214.742C112.988 212.795 112.602 210.847 111.85 208.992C110.913 206.961 109.183 205.661 106.592 207.318C105.729 207.778 104.999 208.413 104.454 209.177C103.91 209.941 103.565 210.814 103.445 211.733C103.324 212.652 103.432 213.594 103.759 214.489C104.086 215.385 104.625 216.213 105.336 216.912C105.876 217.608 106.641 218.136 107.516 218.418C108.39 218.7 109.328 218.72 110.189 218.476C111.05 218.232 111.788 217.737 112.293 217.064C112.798 216.391 113.043 215.576 112.991 214.742ZM114.704 218.408C109.814 218.784 110.756 222.243 106.915 225.135C106.172 225.672 105.609 226.387 105.284 227.206C104.958 228.025 104.881 228.919 105.061 229.796C105.317 230.607 105.755 231.368 106.347 232.029C106.94 232.69 107.673 233.235 108.498 233.63C109.324 234.024 110.223 234.259 111.137 234.318C112.051 234.377 112.96 234.26 113.803 233.974C115.569 233.418 117.499 233.351 119.357 233.78C120.257 234.016 121.194 234.069 122.1 233.936C123.005 233.803 123.858 233.486 124.596 233.01C125.334 232.533 125.94 231.908 126.369 231.18C126.798 230.451 127.04 229.637 127.078 228.796C127.06 227.877 126.782 226.966 126.269 226.152C125.756 225.339 125.027 224.651 124.152 224.155C119.848 221.661 119.551 218.099 114.678 218.402L114.704 218.408ZM125.288 215.68C123.855 218.783 123.564 223.048 126.151 224.066C128.738 225.084 135.861 223.017 131.47 214.615C129.316 210.538 126.716 212.474 125.261 215.674L125.288 215.68ZM137.158 163.5C137.334 161.299 136.76 152.038 131.144 155.275C130.238 155.762 129.464 156.423 128.874 157.215C128.283 158.007 127.89 158.912 127.719 159.871C127.548 160.83 127.603 161.821 127.882 162.778C128.16 163.736 128.655 164.638 129.333 165.426C132.313 169.112 136.801 167.443 137.131 163.494L137.158 163.5ZM127.525 165.79C125.384 162.863 122.379 161.339 121.258 165.407C120.136 169.476 121.303 172.096 123.069 173.482C123.838 174.046 124.747 174.423 125.704 174.572C126.661 174.722 127.633 174.64 128.52 174.334C130.775 173.031 129.73 168.681 127.498 165.784L127.525 165.79ZM139.365 163.485C140.399 167.4 145.116 168.972 147.488 164.994C148.027 164.14 148.36 163.185 148.465 162.189C148.57 161.192 148.444 160.177 148.097 159.208C147.75 158.238 147.188 157.336 146.447 156.558C145.707 155.781 144.804 155.145 143.796 154.692C137.679 151.974 138.817 161.241 139.409 163.419L139.365 163.485ZM138.582 167.557C133.662 167.697 134.263 171.407 130.282 174.291C129.488 174.842 128.871 175.575 128.49 176.422C128.109 177.269 127.976 178.201 128.105 179.13C128.27 179.968 128.632 180.771 129.166 181.484C129.7 182.196 130.394 182.801 131.197 183.255C132.001 183.709 132.895 184.002 133.818 184.113C134.74 184.225 135.669 184.151 136.538 183.898C138.353 183.405 140.318 183.441 142.165 184.002C143.072 184.285 144.029 184.382 144.963 184.285C145.897 184.189 146.786 183.902 147.565 183.446C148.343 182.989 148.991 182.375 149.462 181.647C149.933 180.919 150.214 180.097 150.286 179.24C150.363 178.263 150.158 177.273 149.691 176.367C149.225 175.461 148.512 174.671 147.623 174.075C143.356 171.182 143.529 167.425 138.626 167.491L138.582 167.557ZM149.348 165.255C147.694 168.458 146.96 172.924 149.502 174.136C152.044 175.347 159.168 173.638 155.543 164.499C153.692 160.213 150.985 162.123 149.392 165.188L149.348 165.255ZM86.5262 134.655C88.489 133.028 86.2123 129.356 83.4342 127.222C80.6562 125.088 77.243 124.461 77.3267 128.33C77.2949 136.556 84.8171 136.164 86.5262 134.655ZM104.084 121.439C103.31 124.749 103.914 129.046 106.674 129.57C109.433 130.093 115.837 126.634 109.721 119.201C106.862 115.723 104.837 118.1 104.191 121.465L104.084 121.439ZM94.1134 122.273C94.4821 123.066 95.1189 123.74 95.9271 124.193C96.7354 124.645 97.6709 124.852 98.5919 124.781C99.5128 124.71 100.369 124.365 101.03 123.799C101.691 123.233 102.122 122.477 102.256 121.645C102.53 120.722 102.572 119.745 102.38 118.784C102.188 117.824 101.766 116.904 101.145 116.092C100.524 115.279 99.7197 114.594 98.7894 114.087C97.8592 113.579 96.8267 113.261 95.7665 113.156C89.4233 112.373 93.0504 120.417 94.2205 122.298L94.1134 122.273ZM91.9637 122.888C91.5153 120.819 88.4591 112.63 83.9789 116.925C83.2438 117.529 82.6785 118.285 82.3265 119.135C81.9745 119.986 81.8452 120.908 81.9485 121.831C82.0518 122.754 82.385 123.654 82.9224 124.46C83.4598 125.266 84.1872 125.958 85.0484 126.481C85.7185 127.119 86.5923 127.543 87.531 127.688C88.4697 127.832 89.4195 127.688 90.2295 127.279C91.0395 126.87 91.6633 126.218 92.0017 125.428C92.3402 124.638 92.3739 123.755 92.0975 122.919L91.9637 122.888ZM94.4493 126.15C89.7947 127.448 91.3783 130.702 88.3516 134.219C87.741 134.879 87.352 135.69 87.228 136.561C87.104 137.432 87.25 138.329 87.6496 139.151C88.0669 139.904 88.6513 140.573 89.3637 141.116C90.0761 141.659 90.9001 142.062 91.7806 142.299C92.6612 142.535 93.578 142.6 94.47 142.489C95.3619 142.377 96.2084 142.092 96.9529 141.652C98.543 140.759 100.402 140.313 102.311 140.367C103.238 140.438 104.161 140.322 105.015 140.028C105.868 139.734 106.632 139.269 107.25 138.665C107.869 138.062 108.327 137.335 108.593 136.537C108.86 135.738 108.927 134.888 108.791 134.046C108.565 133.138 108.084 132.29 107.395 131.586C106.707 130.882 105.836 130.347 104.869 130.036C100.077 128.421 99.2264 124.932 94.5564 126.176L94.4493 126.15ZM96.7829 79.9535C98.7627 78.254 96.5708 74.2193 93.6181 71.8659C90.6654 69.5125 87.4581 68.7303 87.5105 72.9739C87.4692 74.6942 87.9013 76.4172 88.7675 77.986C89.1497 78.6186 89.6714 79.1761 90.2979 79.6215C90.9243 80.0669 91.6412 80.3899 92.401 80.5691C93.1607 80.7484 93.9459 80.7797 94.7043 80.6611C95.4627 80.5424 96.1771 80.2765 96.7999 79.881L96.7829 79.9535ZM104.727 70.9949C100.111 72.2507 101.68 75.8071 98.6351 79.5238C98.0257 80.2442 97.6327 81.102 97.4924 82.0179C97.3522 82.9337 97.4693 83.8782 97.8328 84.7638C98.2051 85.5514 98.7569 86.2638 99.4501 86.8516C100.143 87.4395 100.961 87.8887 101.847 88.168C102.734 88.4474 103.667 88.5502 104.582 88.4695C105.497 88.3888 106.372 88.1264 107.147 87.7004C108.75 86.8295 110.636 86.4543 112.54 86.6278C113.494 86.7132 114.447 86.6025 115.328 86.3039C116.209 86.0053 116.996 85.5265 117.63 84.9028C118.264 84.2792 118.73 83.5266 118.992 82.7007C119.254 81.8749 119.307 80.9969 119.146 80.1316C118.934 79.1587 118.463 78.2378 117.773 77.4521C117.084 76.6664 116.199 76.0407 115.198 75.6317C110.459 73.5452 109.6 69.8505 104.861 71.0264L104.727 70.9949ZM114.314 66.2471C113.698 69.8485 114.164 74.4957 116.949 75.1526C119.733 75.8096 126.038 72.5306 120.015 64.1C117.145 60.1858 115.134 62.7445 114.528 66.2976L114.314 66.2471ZM102.262 67.4054C101.777 65.3178 100.911 63.3035 99.7003 61.4483C98.2738 59.455 96.2237 58.436 94.221 60.7164C93.5123 61.4298 92.98 62.2763 92.6572 63.2028C92.3344 64.1292 92.2283 65.1157 92.3453 66.1005C92.4623 67.0852 92.8 68.047 93.3373 68.9256C93.8746 69.8041 94.5998 70.5806 95.4676 71.2062C99.2896 74.0706 103.128 71.4331 102.262 67.4054ZM102.314 60.663C102.654 62.7865 103.36 64.8632 104.406 66.8152C106.522 70.4497 111.578 71.0564 112.658 66.4426C112.937 65.4526 112.986 64.4107 112.801 63.3826C112.615 62.3544 112.2 61.3623 111.58 60.469C110.961 59.5756 110.152 58.8004 109.203 58.1921C108.254 57.5839 107.187 57.1559 106.068 56.9351C102.605 56.3986 102.132 58.3006 102.341 60.6693L102.314 60.663ZM46.4025 52.5699C47.7977 50.3501 44.3306 47.9008 41.132 46.8403C37.9333 45.7798 34.7647 46.2811 35.9211 49.7911C37.0775 53.3011 39.453 54.4988 41.6164 54.5504C42.5446 54.5835 43.4587 54.4221 44.2883 54.0788C45.118 53.7355 45.8412 53.2193 46.4025 52.5699ZM47.5417 40.094C46.4407 38.2794 40.6026 31.9571 38.1709 37.3989C37.7624 38.1726 37.5413 39.024 37.5218 39.8977C37.5023 40.7714 37.685 41.6479 38.0579 42.4701C38.4289 43.2107 38.9959 43.862 39.7058 44.3627C40.4744 44.9835 41.386 45.4344 42.3645 45.6782C43.2133 45.9962 44.1374 46.0682 45.007 45.8841C45.8766 45.7 46.6482 45.2691 47.2133 44.6517C47.7785 44.0344 48.1089 43.2616 48.1582 42.4419C48.2075 41.6222 47.9732 40.7968 47.4882 40.0814L47.5417 40.094ZM56.5335 35.7156C56.4938 34.6665 56.148 33.6328 55.5319 32.7212C54.9157 31.8096 54.0515 31.0532 53.0286 30.53C51.3266 29.6876 49.3728 29.4355 47.5437 29.8223C41.2484 31.3703 47.6152 37.4859 49.307 38.8282C49.9468 39.4406 50.7752 39.8591 51.6708 40.0226C52.5664 40.186 53.4822 40.0857 54.2841 39.7363C55.0859 39.3869 55.7317 38.8069 56.1269 38.0811C56.522 37.3553 56.6457 36.5219 56.4799 35.7029L56.5335 35.7156ZM50.9031 42.3909C47.0328 45.0463 49.7162 47.4636 47.9548 51.6106C47.5812 52.3719 47.4529 53.2234 47.5844 54.0694C47.7158 54.9154 48.1018 55.7224 48.6989 56.3997C49.3715 56.9669 50.1559 57.4103 51.0055 57.7035C51.8551 57.9966 52.7525 58.1336 53.6445 58.1063C54.5364 58.079 55.4046 57.8879 56.1976 57.5443C56.9905 57.2008 57.692 56.7119 58.2604 56.1066C59.4956 54.8526 61.1047 53.9529 62.9087 53.5074C63.8021 53.3417 64.6334 52.9924 65.3408 52.4855C66.0482 51.9785 66.6136 51.327 66.9949 50.5793C67.3761 49.8317 67.5635 49.0071 67.543 48.1669C67.5225 47.3267 67.2947 46.4924 66.8766 45.7261C66.3938 44.8899 65.6715 44.182 64.7906 43.6815C63.9097 43.1811 62.905 42.9079 61.889 42.8927C56.79 42.7092 54.7087 39.7712 50.8496 42.3783L50.9031 42.3909ZM58.6055 30.7242C57.9441 32.0047 57.7705 33.4675 58.1111 34.8898C58.6347 38.3269 60.7493 42.0885 63.4372 41.8305C64.3321 41.6034 65.1366 41.1665 65.773 40.5621C66.4093 39.9576 66.856 39.206 67.0699 38.3799C67.5334 36.3991 66.6147 33.6843 62.4473 30.9679C60.5285 29.7505 59.2486 29.9074 58.6055 30.7242ZM33.5983 -1.37866C34.4848 -3.71844 30.1821 -6.33941 26.5042 -7.2836C22.8262 -8.22779 19.5684 -6.98272 22.0623 -3.51404C24.384 0.449282 26.9231 1.43065 29.1966 1.25332C30.1312 1.19741 31.0241 0.927031 31.7933 0.467112C32.5625 0.00719261 33.1832 -0.627508 33.5983 -1.37866ZM31.1938 -15.2514C29.3951 -17.1031 20.4565 -23.6981 19.9693 -17.3897C19.8338 -16.3943 19.9219 -15.3744 20.2284 -14.3915C20.5348 -13.4086 21.0533 -12.4831 21.7526 -11.6704C22.4519 -10.8578 23.3175 -10.1749 24.2975 -9.66278C25.2774 -9.15069 26.3515 -8.81997 27.4549 -8.69056C32.2547 -7.7111 34.2515 -11.7771 31.1938 -15.2514ZM39.542 -20.6227C39.0525 -21.9311 38.2666 -23.142 37.237 -24.1743C36.2119 -25.022 35.0224 -25.6838 33.7372 -26.1215C31.6552 -26.9492 29.3531 -27.0856 27.2444 -26.5063C23.9782 -25.4671 24.8282 -23.3039 26.6522 -21.3188C28.3984 -19.5611 30.3829 -18.0128 32.5533 -16.7149C36.5996 -14.2054 41.3755 -15.7805 39.5153 -20.6291L39.542 -20.6227ZM41.083 -21.5336C41.9543 -19.6208 43.16 -17.8377 44.6513 -16.2567C46.0739 -14.8505 47.4629 -13.7835 48.8992 -14.0054C49.8148 -14.2589 50.606 -14.773 51.1606 -15.4747C51.7153 -16.1764 52.0053 -17.0303 51.9895 -17.9154C52.0057 -19.2948 51.5088 -20.6608 50.5797 -21.791C48.9735 -23.569 46.9836 -25.0294 44.7446 -26.0735C39.4271 -28.7045 39.387 -25.2729 41.1366 -21.521L41.083 -21.5336ZM43.8602 -13.359L40.7276 -14.0981C39.7956 -14.3774 38.8085 -14.4146 37.8799 -14.2053C36.9513 -13.996 36.1189 -13.5488 35.4783 -12.9151C32.1545 -9.69749 35.7229 -7.19872 34.9703 -2.53331C34.803 -1.61618 34.8857 -0.664963 35.211 0.237942C35.5364 1.14085 36.0946 1.96816 36.8375 2.64818C37.5197 3.22772 38.3262 3.66921 39.1999 3.94142C40.0737 4.21362 40.9932 4.30987 41.8934 4.22334C42.8429 4.1731 43.7577 3.92818 44.5702 3.50666C45.3828 3.08514 46.0724 2.49781 46.5881 1.78798C47.596 0.364113 49.1154 -0.686663 50.9027 -1.19595C51.7938 -1.46984 52.5906 -1.93654 53.2271 -2.55754C53.8637 -3.17853 54.3218 -3.93597 54.5636 -4.76735C54.8411 -5.6375 54.8813 -6.566 54.6807 -7.47411C54.48 -8.38222 54.0445 -9.24319 53.4111 -9.98421C52.7023 -10.8578 51.787 -11.5776 50.7385 -12.0861C49.6899 -12.5946 48.5371 -12.8777 47.3722 -12.9128C46.1837 -12.9322 44.9953 -13.0842 43.8335 -13.3654L43.8602 -13.359Z" fill="#90D9C4"/>
</svg>
