<svg width="23" height="23" viewBox="0 0 23 23" fill="none" xmlns="http://www.w3.org/2000/svg">
<g clip-path="url(#clip0)">
<path d="M19.5253 9.61237C19.2467 9.61237 19.02 9.83904 19.02 10.1177C19.02 10.3963 19.2467 10.623 19.5253 10.623C19.804 10.623 20.0307 10.3963 20.0307 10.1177C20.0307 9.83904 19.804 9.61237 19.5253 9.61237Z" fill="white"/>
<path d="M8.54541 4.33879V11.2074L8.93088 10.8739C9.2886 10.5643 9.76028 10.4381 10.2248 10.5278C10.6893 10.6174 11.0802 10.9099 11.2972 11.3302L12.5183 13.6963C12.5496 13.7567 12.5994 13.781 12.6356 13.7907C12.6719 13.8004 12.7272 13.8042 12.7844 13.7673L14.4252 12.7093V2.08295L8.54541 4.33879Z" fill="white"/>
<path d="M13.5142 14.9C13.1515 15.1338 12.7046 15.2041 12.2876 15.0928C11.8708 14.9816 11.5182 14.6979 11.3203 14.3145L10.0991 11.9484C10.0631 11.8786 10.0022 11.8575 9.96908 11.8511C9.93593 11.8447 9.87156 11.8417 9.81221 11.8931L8.54492 12.9896V20.9827L14.4248 18.7361V14.3129L13.5142 14.9Z" fill="white"/>
<path d="M15.7725 2.03918V11.8404L17.7301 10.5781C17.6923 10.4308 17.6722 10.2766 17.6722 10.1177C17.6722 9.09599 18.5034 8.26476 19.5251 8.26476C20.5469 8.26476 21.3781 9.09599 21.3781 10.1177C21.3781 11.1395 20.5469 11.9707 19.5251 11.9707C19.1545 11.9707 18.8092 11.8609 18.5193 11.6727L15.7725 13.4439V18.7117L23 21.4616V4.85861L15.7725 2.03918Z" fill="white"/>
<path d="M4.53701 9.61408V14.2686C4.53701 14.3673 4.59608 14.4151 4.64568 14.4377C4.69527 14.4604 4.76998 14.4738 4.84464 14.4093L7.19737 12.3735V4.33443L0 1.53845V18.1393L7.19732 20.912V14.1556L5.72641 15.4284C5.43958 15.6765 5.08681 15.8049 4.72779 15.8049C4.51159 15.8049 4.29313 15.7583 4.08537 15.6634C3.53269 15.4107 3.18936 14.8763 3.18936 14.2686V9.61408L2.70366 10.0408L1.81421 9.02835L2.8422 8.12524L1.81421 7.22213L2.70366 6.20969L3.86318 7.22833L5.02271 6.20969L5.91216 7.22213L4.88417 8.12524L5.91216 9.02835L5.02271 10.0408L4.53701 9.61408Z" fill="white"/>
</g>
<defs>
<clipPath id="clip0">
<rect width="23" height="23" fill="white"/>
</clipPath>
</defs>
</svg>
