<svg width="95" height="157" viewBox="0 0 95 157" fill="none" xmlns="http://www.w3.org/2000/svg">
<g clip-path="url(#clip0)">
<mask id="path-1-inside-1" fill="white">
<path d="M10.7657 116.059C8.91704 115.905 7.11052 115.428 5.42978 114.651L5.17121 115.209C5.01569 115.512 4.78096 115.768 4.49153 115.95C4.20209 116.132 3.86857 116.234 3.52579 116.245C2.70182 116.341 1.86661 116.253 1.08115 115.989C0.761277 115.916 0.47766 115.733 0.279971 115.474C0.0822829 115.214 -0.016874 114.894 -0.000132878 114.569C-0.00183921 113.703 0.153411 112.844 0.458237 112.032C0.589242 111.743 0.65697 111.43 0.65697 111.113C0.65697 110.796 0.589242 110.483 0.458237 110.194C0.343652 109.937 0.260781 109.667 0.211422 109.391C0.0876056 108.857 0.0990056 108.302 0.244606 107.774C0.390206 107.246 0.665482 106.762 1.04589 106.365C1.64124 105.734 2.36135 105.231 3.16144 104.887C4.46634 104.318 5.81422 103.851 7.19274 103.49C8.72064 103.025 10.2603 102.583 11.7882 102.071C13.1913 101.623 14.4844 100.889 15.5844 99.9177C16.3652 99.2071 16.9687 98.3267 17.3474 97.3459C17.5119 96.9269 17.653 96.4847 17.794 96.0541C18.0999 95.3925 18.3248 94.6971 18.4639 93.9827C18.4199 93.2651 18.3137 92.5526 18.1466 91.853C18.0508 91.1786 18.0193 90.4967 18.0526 89.8165C18.2271 86.5466 18.9541 83.3289 20.2034 80.2971C20.5399 79.4951 20.9326 78.7173 21.3787 77.9696C22.8781 75.3156 25.3671 73.3482 28.313 72.4884L29.2297 72.1858C28.9419 72.023 28.6435 71.8791 28.3365 71.7552C24.2606 70.3229 20.4163 68.3119 16.9243 65.7853C14.3856 63.9697 12.1625 61.7568 10.3426 59.2334C8.43902 56.4853 7.11212 53.3867 6.44055 50.1213C5.91562 47.7672 5.65158 45.3635 5.65309 42.9527C5.5741 36.5222 6.67316 30.1308 8.89694 24.0885C9.5566 22.3418 10.3996 20.6685 11.4121 19.0961C12.5527 17.5082 13.8478 16.0348 15.2788 14.6971C14.8322 13.9291 15.1613 13.1261 15.2788 12.3697C15.6073 9.70484 16.1817 7.07543 16.9948 4.51442C17.3148 3.46648 17.7649 2.46188 18.3346 1.52361C18.6217 0.926805 19.1208 0.455657 19.7366 0.200192C20.3523 -0.0552731 21.0415 -0.0771435 21.6725 0.13876C22.7932 0.418186 23.8396 0.934267 24.7401 1.65162C26.0564 2.69899 27.3257 3.81617 28.5951 4.945C29.4644 5.78613 30.1347 6.80755 30.5578 7.93581L31.2042 7.67979C31.7566 7.47031 32.2973 7.21429 32.8732 7.03973C34.676 6.50563 36.5193 6.11646 38.3854 5.87599C40.9005 5.55015 43.4157 5.32903 45.9308 5.21266C49.512 4.99154 53.1037 4.99154 56.6849 5.21266L61.3861 5.56178C65.3379 5.75327 69.2374 6.53805 72.9511 7.88926C74.1684 6.45706 75.5667 5.1859 77.1117 4.10711C78.6664 2.95277 80.3408 1.96578 82.1068 1.16285C82.4024 1.03506 82.7044 0.922416 83.0117 0.825366C83.3892 0.705883 83.7967 0.719414 84.1652 0.863661C84.5337 1.00791 84.8404 1.27398 85.0333 1.61671C85.2325 1.9201 85.398 2.24395 85.5269 2.58261C85.86 3.43054 86.1425 4.29707 86.3731 5.17775C86.8315 7.30739 87.2429 9.46031 87.6189 11.6016C87.8643 12.6425 87.7268 13.736 87.2311 14.6855C87.2932 14.7943 87.3725 14.8926 87.4662 14.9764C88.693 15.7902 89.7047 16.8837 90.4162 18.1651C91.7986 20.5283 92.854 23.0646 93.5542 25.7061C94.8255 30.3265 95.2671 35.132 94.8588 39.9037C94.5523 44.2034 93.5028 48.4192 91.756 52.3674C88.9954 58.634 84.2515 63.8418 78.24 67.205L76.8296 68.008C76.9596 68.1266 77.1014 68.2319 77.2527 68.3222C79.2619 69.4334 81.0726 70.8646 82.6121 72.5582C84.3384 74.3887 85.8923 76.3714 87.2546 78.4817C87.8006 79.3785 88.2988 80.303 88.7472 81.2514C89.1114 81.8941 89.3162 82.6133 89.3448 83.3497C89.3734 84.0862 89.225 84.8188 88.9118 85.4874C89.0998 85.7899 89.2996 86.0925 89.4994 86.3951C91.3026 89.2431 91.902 92.6791 91.1684 95.961C90.8273 97.4809 90.0378 98.8662 88.9 99.941C87.3765 101.337 85.5862 102.417 83.6347 103.118L82.859 103.386L82.6709 103.502C82.6709 103.77 82.6709 104.084 82.6709 104.386C82.7732 105.385 82.7217 106.394 82.5181 107.377C82.4395 107.728 82.2917 108.06 82.0832 108.355C82.0107 108.467 81.9082 108.557 81.7871 108.615C81.666 108.673 81.531 108.697 81.3972 108.684C81.2633 108.67 81.1358 108.621 81.0287 108.54C80.9216 108.459 80.8391 108.351 80.7904 108.227C80.6795 107.849 80.6241 107.457 80.6259 107.063C80.6259 106.481 80.6259 105.899 80.6259 105.294C80.6195 102.952 80.4032 100.616 79.9795 98.3118C79.1837 93.2789 77.9409 88.3254 76.2655 83.509C75.5494 81.4453 74.6772 79.438 73.6563 77.5041C73.5211 77.318 73.4215 77.109 73.3625 76.8873C73.3372 76.6755 73.387 76.4616 73.5035 76.2822C73.5421 76.2379 73.5899 76.2023 73.6437 76.1779C73.6974 76.1536 73.7559 76.1409 73.815 76.1409C73.8741 76.1409 73.9325 76.1536 73.9863 76.1779C74.04 76.2023 74.0878 76.2379 74.1264 76.2822C74.5232 76.5839 74.8857 76.9272 75.2077 77.3063C75.566 77.7777 75.8807 78.2802 76.148 78.8075C77.4297 81.2762 78.4612 83.8646 79.2273 86.5347C79.4858 87.3959 79.7561 88.2571 80.0147 89.0833C80.191 89.0833 80.2968 89.0833 80.3556 89.0833C81.8482 88.2687 83.3526 87.4773 84.7982 86.6162C85.4201 86.2237 85.9923 85.7587 86.5024 85.2313C86.8488 84.9023 87.0852 84.4761 87.1798 84.0101C87.2743 83.5441 87.2225 83.0606 87.0313 82.6246C86.6815 81.7246 86.2692 80.8497 85.7972 80.0061C84.3746 77.7147 82.7334 75.5636 80.8962 73.5823C79.8283 72.4502 78.6469 71.4286 77.3703 70.5333C76.5371 69.911 75.6139 69.4166 74.6318 69.067C70.8298 70.6089 66.8965 71.8123 62.8787 72.663C62.9845 72.9655 63.0668 73.1983 63.1608 73.4427C63.5722 74.6064 63.9835 75.6538 64.3361 76.771C64.5792 77.3688 64.6836 78.0131 64.6417 78.6562C64.6256 78.8987 64.5469 79.1331 64.4131 79.3368C64.2794 79.5406 64.095 79.7069 63.8778 79.8199C63.5252 80.0178 63.1491 80.1807 62.773 80.3669C60.3166 79.8665 58.3538 78.3885 56.2853 77.1433C55.483 77.5429 54.7364 78.0435 54.064 78.6329C53.3705 79.145 52.7006 79.7036 52.0072 80.2273C51.7647 80.4377 51.486 80.6032 51.1845 80.716C50.9702 80.7487 50.7514 80.6987 50.5733 80.5764C50.4821 80.5033 50.4236 80.3977 50.4104 80.2823C50.3972 80.1669 50.4304 80.051 50.5028 79.9596C50.5925 79.799 50.7076 79.6536 50.8436 79.529L54.8397 76.1774C55.2301 75.8162 55.7374 75.6039 56.2712 75.5783C56.8049 75.5528 57.3305 75.7156 57.7544 76.0378C59.1765 76.9455 60.6339 77.8183 62.0795 78.7028L62.6202 79.0286C62.6816 79.0204 62.7406 78.9997 62.7934 78.9677C62.8463 78.9357 62.8918 78.8932 62.9272 78.8429C62.9626 78.7925 62.987 78.7355 62.9989 78.6753C63.0107 78.6151 63.0099 78.5531 62.9963 78.4933C63.0249 77.9508 62.9814 77.407 62.867 76.8757C62.4909 75.6189 62.0208 74.3853 61.6329 73.2681C61.4659 73.1458 61.2692 73.0696 61.0627 73.0471C60.8563 73.0246 60.6475 73.0567 60.4576 73.1401C59.0472 73.3379 57.6486 73.5939 56.2383 73.8034L53.2295 74.2107C52.5361 75.2697 51.9602 76.2356 51.302 77.1666C50.9048 77.6689 50.4686 78.1397 49.9974 78.5747C49.7668 78.7931 49.5055 78.9773 49.2217 79.1217C48.8853 79.3373 48.4865 79.437 48.087 79.4055C47.6876 79.3739 47.3097 79.2128 47.0121 78.9471C46.6474 78.6712 46.3196 78.3506 46.0366 77.9929C45.3784 77.1666 44.7673 76.3171 44.1444 75.4676C43.9328 75.1766 43.7448 74.8741 43.5802 74.6297L36.6929 73.9547C35.8272 75.3713 35.1403 76.8877 34.6479 78.47L35.4236 78.1907C36.6812 77.7601 37.9388 77.3063 39.1963 76.8873C39.5372 76.771 39.9133 76.7244 40.2659 76.6313C40.4892 76.5735 40.7221 76.5612 40.9504 76.5952C41.1787 76.6292 41.3977 76.7088 41.594 76.8291C43.2981 77.8067 45.0141 78.7726 46.7065 79.7734C46.975 79.9474 47.2165 80.1591 47.4235 80.4018C47.4617 80.4581 47.4851 80.523 47.4916 80.5906C47.4981 80.6581 47.4874 80.7262 47.4605 80.7887C47.4337 80.8511 47.3915 80.9059 47.3378 80.9481C47.2841 80.9903 47.2207 81.0185 47.1532 81.0302C46.7922 81.0408 46.4317 80.9977 46.0836 80.9022C45.785 80.7833 45.5011 80.631 45.2374 80.4484C44.1444 79.785 43.0161 79.1683 41.9583 78.4467C41.6465 78.2182 41.2758 78.0817 40.889 78.0528C40.5022 78.024 40.115 78.1041 39.7722 78.2838C38.2561 78.9471 36.7164 79.5407 35.2003 80.1807C34.524 80.4721 33.7828 80.5844 33.0495 80.5066C32.5323 80.5066 32.2973 80.1807 32.4736 79.6803C32.8379 78.598 33.2375 77.539 33.6489 76.4684C34.0602 75.3977 34.4011 74.6297 34.7537 73.7569C34.6479 73.3961 34.3893 73.431 34.1778 73.3845C33.681 73.2945 33.1903 73.174 32.7086 73.0237C32.3519 72.8681 31.9594 72.8108 31.5725 72.8579C31.1856 72.905 30.8188 73.0548 30.5108 73.2914C30.0031 73.6009 29.4529 73.8361 28.8771 73.9896C26.1163 74.9655 23.8564 76.9814 22.5893 79.5988C21.8124 81.1503 21.2359 82.7925 20.8733 84.4865C20.3562 86.9769 20.0153 89.5023 19.698 92.0276C19.6799 92.3221 19.6799 92.6175 19.698 92.912C20.6067 93.4207 21.6104 93.7414 22.648 93.8546C24.4694 94.2554 26.3596 94.2355 28.172 93.7964C28.1882 93.166 28.1009 92.5372 27.9134 91.9345C27.5461 89.1372 27.0362 86.36 26.3855 83.6137C26.2994 83.3101 26.2482 82.9978 26.2327 82.6828C26.2327 82.5198 26.3385 82.2638 26.456 82.2289C26.5536 82.1841 26.6599 82.1609 26.7675 82.1609C26.875 82.1609 26.9813 82.1841 27.0789 82.2289C27.4199 82.5944 27.6943 83.0157 27.8899 83.4741C28.2165 84.3703 28.4796 85.288 28.6773 86.2205C29.5057 90.069 30.1334 93.9571 30.5578 97.8695C31.0204 102.082 31.2362 106.317 31.2042 110.554C31.1825 111.037 31.1354 111.519 31.0632 111.997C32.0581 113.038 33.2581 113.866 34.5891 114.43C36.1677 115.052 37.8116 115.497 39.4902 115.756C42.3842 116.255 45.3101 116.55 48.2462 116.641C50.5968 116.71 52.9474 116.838 55.298 116.804C57.6486 116.769 59.7877 116.548 62.0325 116.408C64.2797 116.248 66.5137 115.941 68.72 115.489C71.478 115.013 74.1637 114.192 76.7121 113.045C77.9953 112.522 79.1857 111.799 80.238 110.903C80.3085 110.845 80.3791 110.764 80.4613 110.752C80.5436 110.74 80.8492 110.659 80.955 110.752C81.0208 110.81 81.0729 110.882 81.1074 110.963C81.142 111.043 81.1581 111.13 81.1548 111.218C81.1173 111.484 81.0503 111.745 80.955 111.997C80.8844 112.218 80.7904 112.428 80.7081 112.661C81.392 114.827 81.8218 117.065 81.9892 119.329C82.4006 122.82 82.7297 126.393 83.0588 129.919C83.3056 132.549 83.4819 135.179 83.7052 137.809C83.8227 139.264 83.9755 140.707 84.093 142.161C84.1341 142.704 84.1341 143.248 84.093 143.791C84.0436 144.197 83.9202 144.591 83.7287 144.954C83.4113 145.548 83.0235 146.118 82.6592 146.688C82.7649 146.886 82.8472 147.049 82.9412 147.2C83.3737 147.982 83.6101 148.855 83.6306 149.746C83.651 150.638 83.4549 151.52 83.0588 152.321C82.8013 152.893 82.4273 153.407 81.9601 153.829C81.493 154.252 80.9427 154.574 80.3438 154.776C79.2887 155.219 78.195 155.566 77.0764 155.812C73.3089 156.654 69.456 157.064 65.5937 157.034C64.5007 157.034 63.3959 156.883 62.3028 156.778C61.4595 156.754 60.636 156.52 59.9086 156.097C59.1812 155.674 58.5736 155.075 58.1423 154.357C56.4792 155.225 54.6477 155.729 52.7711 155.835C50.1815 156.233 47.5642 156.427 44.9436 156.417C43.2883 156.422 41.6373 156.25 40.019 155.905C39.1707 155.716 38.3495 155.423 37.5744 155.032C36.7108 154.624 36.0335 153.909 35.6766 153.03C35.3196 152.151 35.309 151.171 35.6469 150.284C35.8963 149.545 36.2963 148.863 36.8222 148.283C37.0573 148.015 37.3158 147.747 37.6097 147.445C37.3806 147.057 37.0818 146.714 36.7282 146.432C36.4286 146.093 36.0981 145.781 35.7409 145.501C35.4764 145.317 35.2575 145.076 35.1007 144.796C34.944 144.515 34.8534 144.204 34.8359 143.884C34.4716 140.823 34.072 137.751 33.6606 134.679C33.2493 131.606 32.9672 128.72 32.6499 125.729C32.4266 123.693 32.2738 121.656 32.027 119.62C31.8154 118.002 31.5216 116.385 31.2395 114.779C31.1848 114.515 31.068 114.268 30.8987 114.057C30.704 113.806 30.4834 113.576 30.2405 113.371C29.8594 113.043 29.6059 112.595 29.5236 112.102C29.3541 111.338 29.2674 110.557 29.265 109.775V108.692C28.9006 108.599 28.8066 108.832 28.6773 108.995C27.544 110.319 26.193 111.444 24.6813 112.323C22.6299 113.6 20.4005 114.572 18.0643 115.209C17.7117 115.302 17.3709 115.43 16.9595 115.57C16.9361 115.829 16.9361 116.09 16.9595 116.35C17.1357 118.937 17.171 121.532 17.0653 124.123C17.0183 131.362 16.9674 138.6 16.9125 145.839C16.9073 145.928 16.9073 146.017 16.9125 146.107C17.2137 146.435 17.4741 146.799 17.6882 147.189C17.8324 147.67 17.923 148.166 17.9585 148.667C18.0291 149.202 18.0173 149.761 18.1348 150.284C18.2419 150.866 18.2056 151.465 18.0291 152.03C17.9732 152.271 17.8683 152.499 17.7208 152.699C17.5733 152.899 17.3863 153.067 17.1711 153.194C16.4973 153.666 15.7209 153.975 14.9044 154.097C14.0879 154.218 13.254 154.148 12.4699 153.892C11.7119 153.601 11.0548 153.1 10.5776 152.449C10.4166 152.23 10.3376 151.963 10.3543 151.692C10.2668 150.144 10.5361 148.596 11.1418 147.166C11.2701 146.877 11.3226 146.56 11.2946 146.246C11.1927 143.197 11.0791 140.152 10.9537 137.111C10.9537 136.285 10.895 135.47 10.895 134.655C10.895 129.015 10.8754 123.371 10.8362 117.723C10.8127 117.176 10.7892 116.676 10.7657 116.059ZM83.4466 2.68735C82.4666 3.04694 81.5256 3.50309 80.6376 4.04892C78.3265 5.45933 76.1085 7.01413 73.9971 8.70388C73.7888 8.87912 73.5432 9.00568 73.2787 9.07418C73.0143 9.14267 72.7376 9.15134 72.4692 9.09955C71.9286 9.01809 71.3762 8.97154 70.8356 8.89007C67.4859 8.36639 64.1363 7.79616 60.7514 7.50523C57.9542 7.27248 55.1687 7.05137 52.3598 7.02809C48.2714 6.97379 44.183 7.14084 40.1131 7.5285C37.37 7.74579 34.6521 8.20535 31.9917 8.90171C31.6051 9.01179 31.2127 9.10114 30.8164 9.16937C30.5464 9.23627 30.2627 9.22585 29.9985 9.13931C29.7342 9.05278 29.5002 8.89371 29.3238 8.6806L28.8066 8.14528C27.341 6.39204 25.6812 4.80719 23.8586 3.4205C23.3431 3.04156 22.8011 2.69934 22.2367 2.39641C21.9111 2.22873 21.5683 2.09608 21.2141 2.00074C20.5795 1.81454 20.3209 1.90764 19.9448 2.47788C19.6925 2.84457 19.476 3.23425 19.2984 3.64161C18.8964 4.55877 18.551 5.49925 18.2641 6.45786C17.6765 8.64569 17.1593 10.8684 16.6187 13.0679C16.5545 13.6585 16.3312 14.2212 15.9723 14.6971C15.885 14.8024 15.8354 14.9334 15.8312 15.0695C15.8052 15.5786 15.6112 16.0651 15.2788 16.4544C14.8557 17.1061 14.4444 17.7578 13.9978 18.3978C12.1742 21.079 10.7898 24.0285 9.89595 27.1375C8.83812 30.6688 8.15664 34.3001 7.86267 37.9719C7.714 39.4685 7.64731 40.9719 7.66286 42.4756C7.68792 44.8197 7.92789 47.1568 8.3798 49.458C9.10285 53.1845 10.7553 56.6728 13.1868 59.6058C14.8581 61.5485 16.7829 63.2626 18.9105 64.703C26.0092 69.4985 34.3342 72.2058 42.9221 72.5117C46.9625 72.6883 51.0108 72.4974 55.016 71.9414C58.0189 71.5609 61.0002 71.0288 63.9483 70.3471C67.6244 69.5479 71.2082 68.3781 74.6436 66.8559C81.4846 63.8301 86.9349 58.3795 89.9225 51.576C91.6033 47.7008 92.5935 43.5666 92.8491 39.3568C93.1051 35.5242 92.8003 31.6751 91.9441 27.9288C91.0566 23.2169 88.8446 18.8485 85.5622 15.3256C85.1978 14.9532 85.1743 14.8019 85.4916 14.3946C85.6745 14.1896 85.7712 13.9231 85.762 13.6498C85.762 13.2425 85.762 12.8352 85.6797 12.4278C85.3946 10.0794 84.9786 7.7484 84.4339 5.44541C84.2621 4.47804 83.9285 3.54587 83.4466 2.68735ZM58.3538 146.758C58.3538 146.153 58.248 145.594 58.201 144.989C58.0247 142.313 57.8484 139.636 57.6486 136.96C57.5311 135.412 57.3783 133.876 57.2255 132.305C57.061 130.582 56.8847 128.813 56.7319 127.149C56.684 126.974 56.684 126.789 56.7319 126.614C56.7625 126.533 56.8096 126.459 56.8702 126.397C56.9309 126.335 57.0038 126.286 57.0845 126.253C57.1711 126.244 57.2587 126.255 57.3402 126.286C57.4218 126.316 57.4952 126.365 57.5546 126.428C57.7081 126.601 57.8169 126.809 57.8719 127.033C58.0003 127.468 58.0984 127.911 58.1658 128.359C58.5536 131.199 58.9532 134.027 59.2823 136.878C59.5409 139.206 59.7172 141.533 59.9287 143.802C59.9287 144.349 60.0815 144.885 60.0933 145.432C60.082 145.98 60.0428 146.528 59.9757 147.072C60.4944 147.589 61.1914 147.893 61.9268 147.922C62.3734 147.992 62.8435 147.922 63.3019 148.027C66.2665 148.366 69.2557 148.444 72.2342 148.259C75.5985 148.05 78.845 146.953 81.6366 145.082C81.8421 144.931 82.0383 144.768 82.2243 144.594C82.2362 144.388 82.2362 144.182 82.2243 143.977C81.8952 141.649 81.8364 139.322 81.6719 136.913C81.5544 135.237 81.4486 133.55 81.3193 131.874C81.0842 128.837 80.8139 125.799 80.6141 122.762C80.4378 120.039 80.097 117.339 79.7091 114.616C79.6478 114.347 79.5693 114.083 79.4741 113.824C79.3259 113.865 79.1806 113.916 79.0392 113.976C75.9533 115.6 72.624 116.724 69.1784 117.304C67.1108 117.727 65.0186 118.023 62.914 118.188C60.9983 118.328 59.0825 118.584 57.155 118.631C51.6888 118.827 46.2156 118.562 40.7947 117.839C38.3311 117.568 35.9225 116.932 33.6489 115.954C33.5196 115.954 33.3433 115.686 33.1905 115.954C33.1804 116.047 33.1804 116.141 33.1905 116.233C33.8191 119.12 34.2666 122.043 34.5304 124.985C34.7654 126.835 34.9652 128.685 35.1885 130.536C35.5176 133.154 35.8467 135.761 36.1875 138.379C36.4226 140.23 36.6694 142.08 36.881 143.93C36.9296 144.383 37.1527 144.8 37.5039 145.094C38.6843 146.18 40.1052 146.977 41.6527 147.422C43.1482 147.848 44.6777 148.148 46.2247 148.318C49.2425 148.674 52.3019 148.417 55.2158 147.561C56.2148 147.305 57.2255 147.049 58.3538 146.758ZM19.9801 94.6809C19.9318 94.8797 19.9003 95.0821 19.886 95.286C19.859 96.3803 19.6123 97.4584 19.1603 98.4574C18.7083 99.4563 18.0601 100.356 17.2534 101.105C15.999 102.318 14.4666 103.212 12.7872 103.712C10.8714 104.328 8.90869 104.875 6.98119 105.376C5.88815 105.701 4.79512 106.051 3.72559 106.458C3.21787 106.665 2.74288 106.943 2.31522 107.284C2.01853 107.505 1.79285 107.806 1.66559 108.151C1.53832 108.496 1.51494 108.87 1.59828 109.228C1.7938 110.346 2.25284 111.402 2.93813 112.312C3.13874 112.591 3.40279 112.819 3.70901 112.979C4.01523 113.139 4.35505 113.225 4.70109 113.231C5.24644 113.28 5.78569 113.381 6.31126 113.533C6.93417 113.673 7.48657 113.871 8.16825 114.022C8.56785 114.115 8.97921 114.162 9.34355 114.232C9.79352 114.355 10.2687 114.355 10.7187 114.232C10.7187 113.976 10.7187 113.755 10.7774 113.533C10.8434 113.139 10.7583 112.734 10.5388 112.398C10.3192 112.062 9.98103 111.82 9.59037 111.718C9.27969 111.631 9.01112 111.436 8.83406 111.169C8.65699 110.902 8.58333 110.58 8.62661 110.263C8.6026 109.759 8.69925 109.257 8.90869 108.797C9.15677 108.243 9.55257 107.766 10.0536 107.417C10.5547 107.069 11.1421 106.862 11.7529 106.819C12.5215 106.653 13.3244 106.758 14.0236 107.114C14.7228 107.471 15.2747 108.058 15.5844 108.774C15.9743 109.714 16.2237 110.706 16.3249 111.718C16.4053 112.348 16.519 112.973 16.6657 113.592C16.8609 113.615 17.0582 113.615 17.2534 113.592C20.1868 112.806 22.924 111.427 25.2925 109.542C26.4678 108.588 27.4198 107.412 28.4893 106.353C28.7026 106.149 28.8664 105.899 28.9682 105.623C29.07 105.347 29.1072 105.051 29.0769 104.759C28.9242 102.536 28.8419 100.313 28.6656 98.0907C28.6529 97.2798 28.5344 96.4741 28.313 95.6934C25.4944 96.1367 22.6068 95.7858 19.9801 94.6809ZM60.7397 149.505C60.1005 150.344 59.6952 151.336 59.5644 152.379C59.4769 152.834 59.5615 153.305 59.8021 153.702C60.0427 154.099 60.4225 154.394 60.869 154.532C61.1539 154.674 61.4591 154.772 61.774 154.823C62.4508 154.943 63.1334 155.028 63.819 155.079C68.0952 155.252 72.3756 154.86 76.5476 153.915C77.4864 153.702 78.4061 153.414 79.2978 153.054C79.9421 152.875 80.5089 152.491 80.9105 151.961C81.312 151.43 81.5259 150.784 81.5191 150.121C81.5191 149.528 81.5191 148.958 81.5191 148.353C81.5191 148.143 81.5191 147.887 81.1783 147.782L80.6141 148.062C78.4464 149.165 76.0917 149.864 73.6681 150.121C70.602 150.434 67.5096 150.391 64.4537 149.993C63.2313 149.842 62.009 149.668 60.7397 149.505ZM58.6947 147.794C57.9426 148.31 57.1574 148.776 56.344 149.19C55.0324 149.74 53.639 150.074 52.2187 150.18C50.3063 150.397 48.3762 150.416 46.4597 150.238C44.6833 150.063 42.9304 149.704 41.2296 149.167C40.4539 148.899 39.69 148.597 38.879 148.294C38.0821 148.917 37.5025 149.772 37.2218 150.738C37.1129 151.003 37.0591 151.286 37.0638 151.572C37.0684 151.858 37.1314 152.139 37.2489 152.4C37.3663 152.661 37.5359 152.896 37.7474 153.09C37.9589 153.285 38.2079 153.435 38.4794 153.531C38.973 153.768 39.494 153.944 40.0308 154.055C42.0086 154.462 44.0311 154.614 46.0484 154.509C48.5221 154.408 50.9872 154.156 53.4293 153.752C54.8984 153.485 56.3793 153.205 57.7544 152.856C57.9379 152.123 58.1615 151.401 58.4243 150.692C58.7064 150.04 59.1178 149.435 59.4586 148.806L58.6947 147.794ZM82.5651 101.547C83.7404 100.942 84.7277 100.383 85.7032 99.8479C86.3625 99.4427 86.9805 98.975 87.5484 98.4514C88.5538 97.5235 89.2299 96.2991 89.4759 94.9602C89.8203 93.1774 89.7113 91.3377 89.1586 89.607C88.9257 88.6797 88.5277 87.8009 87.9833 87.0118C87.8485 87.0637 87.7219 87.1342 87.6072 87.2213C86.4027 88.2731 85.0677 89.1686 83.6347 89.8863C82.8741 90.3119 82.0346 90.5811 81.1665 90.6776C80.9448 90.7217 80.7282 90.788 80.5201 90.8755C80.6865 92.0518 80.9219 93.2175 81.2253 94.3667C81.4368 95.5304 81.6836 96.764 81.9187 97.9626C82.0729 99.1675 82.2886 100.364 82.5651 101.547ZM12.5874 118.41V119.573C12.5874 120.388 12.5874 121.202 12.5874 122.029C12.5874 130.167 12.6266 138.313 12.7049 146.467C12.7049 146.816 12.7049 147.166 12.7754 147.538C13.268 147.662 13.7848 147.655 14.2738 147.518C14.7628 147.381 15.2068 147.119 15.5609 146.758C15.5609 145.466 15.5609 144.245 15.4904 143.023C15.3729 135.831 15.2632 128.643 15.1613 121.459C15.1613 120.644 15.1613 119.818 15.1613 119.003C15.129 118.728 15.0779 118.456 15.0085 118.188L12.5874 118.41ZM12.2113 148.795C12.1265 149.727 12.099 150.664 12.129 151.599C12.1338 151.76 12.1934 151.914 12.298 152.036C12.4026 152.159 12.546 152.243 12.7049 152.274C13.2561 152.436 13.8366 152.477 14.4052 152.392C14.9739 152.308 15.5169 152.101 15.9958 151.786C16.1331 151.701 16.2428 151.58 16.3117 151.435C16.3805 151.291 16.4055 151.129 16.3836 150.971C16.3836 150.343 16.3014 149.702 16.2544 149.074C16.2544 148.853 16.2544 148.609 15.9605 148.527C13.9037 149.167 13.892 149.167 12.2113 148.795ZM45.3197 74.5599C45.9993 75.7991 46.9272 76.8881 48.0464 77.7601C49.2622 76.9887 50.1779 75.8318 50.6438 74.4784L45.3197 74.5599Z"/>
</mask>
<path d="M10.7657 116.059C8.91704 115.905 7.11052 115.428 5.42978 114.651L5.17121 115.209C5.01569 115.512 4.78096 115.768 4.49153 115.95C4.20209 116.132 3.86857 116.234 3.52579 116.245C2.70182 116.341 1.86661 116.253 1.08115 115.989C0.761277 115.916 0.47766 115.733 0.279971 115.474C0.0822829 115.214 -0.016874 114.894 -0.000132878 114.569C-0.00183921 113.703 0.153411 112.844 0.458237 112.032C0.589242 111.743 0.65697 111.43 0.65697 111.113C0.65697 110.796 0.589242 110.483 0.458237 110.194C0.343652 109.937 0.260781 109.667 0.211422 109.391C0.0876056 108.857 0.0990056 108.302 0.244606 107.774C0.390206 107.246 0.665482 106.762 1.04589 106.365C1.64124 105.734 2.36135 105.231 3.16144 104.887C4.46634 104.318 5.81422 103.851 7.19274 103.49C8.72064 103.025 10.2603 102.583 11.7882 102.071C13.1913 101.623 14.4844 100.889 15.5844 99.9177C16.3652 99.2071 16.9687 98.3267 17.3474 97.3459C17.5119 96.9269 17.653 96.4847 17.794 96.0541C18.0999 95.3925 18.3248 94.6971 18.4639 93.9827C18.4199 93.2651 18.3137 92.5526 18.1466 91.853C18.0508 91.1786 18.0193 90.4967 18.0526 89.8165C18.2271 86.5466 18.9541 83.3289 20.2034 80.2971C20.5399 79.4951 20.9326 78.7173 21.3787 77.9696C22.8781 75.3156 25.3671 73.3482 28.313 72.4884L29.2297 72.1858C28.9419 72.023 28.6435 71.8791 28.3365 71.7552C24.2606 70.3229 20.4163 68.3119 16.9243 65.7853C14.3856 63.9697 12.1625 61.7568 10.3426 59.2334C8.43902 56.4853 7.11212 53.3867 6.44055 50.1213C5.91562 47.7672 5.65158 45.3635 5.65309 42.9527C5.5741 36.5222 6.67316 30.1308 8.89694 24.0885C9.5566 22.3418 10.3996 20.6685 11.4121 19.0961C12.5527 17.5082 13.8478 16.0348 15.2788 14.6971C14.8322 13.9291 15.1613 13.1261 15.2788 12.3697C15.6073 9.70484 16.1817 7.07543 16.9948 4.51442C17.3148 3.46648 17.7649 2.46188 18.3346 1.52361C18.6217 0.926805 19.1208 0.455657 19.7366 0.200192C20.3523 -0.0552731 21.0415 -0.0771435 21.6725 0.13876C22.7932 0.418186 23.8396 0.934267 24.7401 1.65162C26.0564 2.69899 27.3257 3.81617 28.5951 4.945C29.4644 5.78613 30.1347 6.80755 30.5578 7.93581L31.2042 7.67979C31.7566 7.47031 32.2973 7.21429 32.8732 7.03973C34.676 6.50563 36.5193 6.11646 38.3854 5.87599C40.9005 5.55015 43.4157 5.32903 45.9308 5.21266C49.512 4.99154 53.1037 4.99154 56.6849 5.21266L61.3861 5.56178C65.3379 5.75327 69.2374 6.53805 72.9511 7.88926C74.1684 6.45706 75.5667 5.1859 77.1117 4.10711C78.6664 2.95277 80.3408 1.96578 82.1068 1.16285C82.4024 1.03506 82.7044 0.922416 83.0117 0.825366C83.3892 0.705883 83.7967 0.719414 84.1652 0.863661C84.5337 1.00791 84.8404 1.27398 85.0333 1.61671C85.2325 1.9201 85.398 2.24395 85.5269 2.58261C85.86 3.43054 86.1425 4.29707 86.3731 5.17775C86.8315 7.30739 87.2429 9.46031 87.6189 11.6016C87.8643 12.6425 87.7268 13.736 87.2311 14.6855C87.2932 14.7943 87.3725 14.8926 87.4662 14.9764C88.693 15.7902 89.7047 16.8837 90.4162 18.1651C91.7986 20.5283 92.854 23.0646 93.5542 25.7061C94.8255 30.3265 95.2671 35.132 94.8588 39.9037C94.5523 44.2034 93.5028 48.4192 91.756 52.3674C88.9954 58.634 84.2515 63.8418 78.24 67.205L76.8296 68.008C76.9596 68.1266 77.1014 68.2319 77.2527 68.3222C79.2619 69.4334 81.0726 70.8646 82.6121 72.5582C84.3384 74.3887 85.8923 76.3714 87.2546 78.4817C87.8006 79.3785 88.2988 80.303 88.7472 81.2514C89.1114 81.8941 89.3162 82.6133 89.3448 83.3497C89.3734 84.0862 89.225 84.8188 88.9118 85.4874C89.0998 85.7899 89.2996 86.0925 89.4994 86.3951C91.3026 89.2431 91.902 92.6791 91.1684 95.961C90.8273 97.4809 90.0378 98.8662 88.9 99.941C87.3765 101.337 85.5862 102.417 83.6347 103.118L82.859 103.386L82.6709 103.502C82.6709 103.77 82.6709 104.084 82.6709 104.386C82.7732 105.385 82.7217 106.394 82.5181 107.377C82.4395 107.728 82.2917 108.06 82.0832 108.355C82.0107 108.467 81.9082 108.557 81.7871 108.615C81.666 108.673 81.531 108.697 81.3972 108.684C81.2633 108.67 81.1358 108.621 81.0287 108.54C80.9216 108.459 80.8391 108.351 80.7904 108.227C80.6795 107.849 80.6241 107.457 80.6259 107.063C80.6259 106.481 80.6259 105.899 80.6259 105.294C80.6195 102.952 80.4032 100.616 79.9795 98.3118C79.1837 93.2789 77.9409 88.3254 76.2655 83.509C75.5494 81.4453 74.6772 79.438 73.6563 77.5041C73.5211 77.318 73.4215 77.109 73.3625 76.8873C73.3372 76.6755 73.387 76.4616 73.5035 76.2822C73.5421 76.2379 73.5899 76.2023 73.6437 76.1779C73.6974 76.1536 73.7559 76.1409 73.815 76.1409C73.8741 76.1409 73.9325 76.1536 73.9863 76.1779C74.04 76.2023 74.0878 76.2379 74.1264 76.2822C74.5232 76.5839 74.8857 76.9272 75.2077 77.3063C75.566 77.7777 75.8807 78.2802 76.148 78.8075C77.4297 81.2762 78.4612 83.8646 79.2273 86.5347C79.4858 87.3959 79.7561 88.2571 80.0147 89.0833C80.191 89.0833 80.2968 89.0833 80.3556 89.0833C81.8482 88.2687 83.3526 87.4773 84.7982 86.6162C85.4201 86.2237 85.9923 85.7587 86.5024 85.2313C86.8488 84.9023 87.0852 84.4761 87.1798 84.0101C87.2743 83.5441 87.2225 83.0606 87.0313 82.6246C86.6815 81.7246 86.2692 80.8497 85.7972 80.0061C84.3746 77.7147 82.7334 75.5636 80.8962 73.5823C79.8283 72.4502 78.6469 71.4286 77.3703 70.5333C76.5371 69.911 75.6139 69.4166 74.6318 69.067C70.8298 70.6089 66.8965 71.8123 62.8787 72.663C62.9845 72.9655 63.0668 73.1983 63.1608 73.4427C63.5722 74.6064 63.9835 75.6538 64.3361 76.771C64.5792 77.3688 64.6836 78.0131 64.6417 78.6562C64.6256 78.8987 64.5469 79.1331 64.4131 79.3368C64.2794 79.5406 64.095 79.7069 63.8778 79.8199C63.5252 80.0178 63.1491 80.1807 62.773 80.3669C60.3166 79.8665 58.3538 78.3885 56.2853 77.1433C55.483 77.5429 54.7364 78.0435 54.064 78.6329C53.3705 79.145 52.7006 79.7036 52.0072 80.2273C51.7647 80.4377 51.486 80.6032 51.1845 80.716C50.9702 80.7487 50.7514 80.6987 50.5733 80.5764C50.4821 80.5033 50.4236 80.3977 50.4104 80.2823C50.3972 80.1669 50.4304 80.051 50.5028 79.9596C50.5925 79.799 50.7076 79.6536 50.8436 79.529L54.8397 76.1774C55.2301 75.8162 55.7374 75.6039 56.2712 75.5783C56.8049 75.5528 57.3305 75.7156 57.7544 76.0378C59.1765 76.9455 60.6339 77.8183 62.0795 78.7028L62.6202 79.0286C62.6816 79.0204 62.7406 78.9997 62.7934 78.9677C62.8463 78.9357 62.8918 78.8932 62.9272 78.8429C62.9626 78.7925 62.987 78.7355 62.9989 78.6753C63.0107 78.6151 63.0099 78.5531 62.9963 78.4933C63.0249 77.9508 62.9814 77.407 62.867 76.8757C62.4909 75.6189 62.0208 74.3853 61.6329 73.2681C61.4659 73.1458 61.2692 73.0696 61.0627 73.0471C60.8563 73.0246 60.6475 73.0567 60.4576 73.1401C59.0472 73.3379 57.6486 73.5939 56.2383 73.8034L53.2295 74.2107C52.5361 75.2697 51.9602 76.2356 51.302 77.1666C50.9048 77.6689 50.4686 78.1397 49.9974 78.5747C49.7668 78.7931 49.5055 78.9773 49.2217 79.1217C48.8853 79.3373 48.4865 79.437 48.087 79.4055C47.6876 79.3739 47.3097 79.2128 47.0121 78.9471C46.6474 78.6712 46.3196 78.3506 46.0366 77.9929C45.3784 77.1666 44.7673 76.3171 44.1444 75.4676C43.9328 75.1766 43.7448 74.8741 43.5802 74.6297L36.6929 73.9547C35.8272 75.3713 35.1403 76.8877 34.6479 78.47L35.4236 78.1907C36.6812 77.7601 37.9388 77.3063 39.1963 76.8873C39.5372 76.771 39.9133 76.7244 40.2659 76.6313C40.4892 76.5735 40.7221 76.5612 40.9504 76.5952C41.1787 76.6292 41.3977 76.7088 41.594 76.8291C43.2981 77.8067 45.0141 78.7726 46.7065 79.7734C46.975 79.9474 47.2165 80.1591 47.4235 80.4018C47.4617 80.4581 47.4851 80.523 47.4916 80.5906C47.4981 80.6581 47.4874 80.7262 47.4605 80.7887C47.4337 80.8511 47.3915 80.9059 47.3378 80.9481C47.2841 80.9903 47.2207 81.0185 47.1532 81.0302C46.7922 81.0408 46.4317 80.9977 46.0836 80.9022C45.785 80.7833 45.5011 80.631 45.2374 80.4484C44.1444 79.785 43.0161 79.1683 41.9583 78.4467C41.6465 78.2182 41.2758 78.0817 40.889 78.0528C40.5022 78.024 40.115 78.1041 39.7722 78.2838C38.2561 78.9471 36.7164 79.5407 35.2003 80.1807C34.524 80.4721 33.7828 80.5844 33.0495 80.5066C32.5323 80.5066 32.2973 80.1807 32.4736 79.6803C32.8379 78.598 33.2375 77.539 33.6489 76.4684C34.0602 75.3977 34.4011 74.6297 34.7537 73.7569C34.6479 73.3961 34.3893 73.431 34.1778 73.3845C33.681 73.2945 33.1903 73.174 32.7086 73.0237C32.3519 72.8681 31.9594 72.8108 31.5725 72.8579C31.1856 72.905 30.8188 73.0548 30.5108 73.2914C30.0031 73.6009 29.4529 73.8361 28.8771 73.9896C26.1163 74.9655 23.8564 76.9814 22.5893 79.5988C21.8124 81.1503 21.2359 82.7925 20.8733 84.4865C20.3562 86.9769 20.0153 89.5023 19.698 92.0276C19.6799 92.3221 19.6799 92.6175 19.698 92.912C20.6067 93.4207 21.6104 93.7414 22.648 93.8546C24.4694 94.2554 26.3596 94.2355 28.172 93.7964C28.1882 93.166 28.1009 92.5372 27.9134 91.9345C27.5461 89.1372 27.0362 86.36 26.3855 83.6137C26.2994 83.3101 26.2482 82.9978 26.2327 82.6828C26.2327 82.5198 26.3385 82.2638 26.456 82.2289C26.5536 82.1841 26.6599 82.1609 26.7675 82.1609C26.875 82.1609 26.9813 82.1841 27.0789 82.2289C27.4199 82.5944 27.6943 83.0157 27.8899 83.4741C28.2165 84.3703 28.4796 85.288 28.6773 86.2205C29.5057 90.069 30.1334 93.9571 30.5578 97.8695C31.0204 102.082 31.2362 106.317 31.2042 110.554C31.1825 111.037 31.1354 111.519 31.0632 111.997C32.0581 113.038 33.2581 113.866 34.5891 114.43C36.1677 115.052 37.8116 115.497 39.4902 115.756C42.3842 116.255 45.3101 116.55 48.2462 116.641C50.5968 116.71 52.9474 116.838 55.298 116.804C57.6486 116.769 59.7877 116.548 62.0325 116.408C64.2797 116.248 66.5137 115.941 68.72 115.489C71.478 115.013 74.1637 114.192 76.7121 113.045C77.9953 112.522 79.1857 111.799 80.238 110.903C80.3085 110.845 80.3791 110.764 80.4613 110.752C80.5436 110.74 80.8492 110.659 80.955 110.752C81.0208 110.81 81.0729 110.882 81.1074 110.963C81.142 111.043 81.1581 111.13 81.1548 111.218C81.1173 111.484 81.0503 111.745 80.955 111.997C80.8844 112.218 80.7904 112.428 80.7081 112.661C81.392 114.827 81.8218 117.065 81.9892 119.329C82.4006 122.82 82.7297 126.393 83.0588 129.919C83.3056 132.549 83.4819 135.179 83.7052 137.809C83.8227 139.264 83.9755 140.707 84.093 142.161C84.1341 142.704 84.1341 143.248 84.093 143.791C84.0436 144.197 83.9202 144.591 83.7287 144.954C83.4113 145.548 83.0235 146.118 82.6592 146.688C82.7649 146.886 82.8472 147.049 82.9412 147.2C83.3737 147.982 83.6101 148.855 83.6306 149.746C83.651 150.638 83.4549 151.52 83.0588 152.321C82.8013 152.893 82.4273 153.407 81.9601 153.829C81.493 154.252 80.9427 154.574 80.3438 154.776C79.2887 155.219 78.195 155.566 77.0764 155.812C73.3089 156.654 69.456 157.064 65.5937 157.034C64.5007 157.034 63.3959 156.883 62.3028 156.778C61.4595 156.754 60.636 156.52 59.9086 156.097C59.1812 155.674 58.5736 155.075 58.1423 154.357C56.4792 155.225 54.6477 155.729 52.7711 155.835C50.1815 156.233 47.5642 156.427 44.9436 156.417C43.2883 156.422 41.6373 156.25 40.019 155.905C39.1707 155.716 38.3495 155.423 37.5744 155.032C36.7108 154.624 36.0335 153.909 35.6766 153.03C35.3196 152.151 35.309 151.171 35.6469 150.284C35.8963 149.545 36.2963 148.863 36.8222 148.283C37.0573 148.015 37.3158 147.747 37.6097 147.445C37.3806 147.057 37.0818 146.714 36.7282 146.432C36.4286 146.093 36.0981 145.781 35.7409 145.501C35.4764 145.317 35.2575 145.076 35.1007 144.796C34.944 144.515 34.8534 144.204 34.8359 143.884C34.4716 140.823 34.072 137.751 33.6606 134.679C33.2493 131.606 32.9672 128.72 32.6499 125.729C32.4266 123.693 32.2738 121.656 32.027 119.62C31.8154 118.002 31.5216 116.385 31.2395 114.779C31.1848 114.515 31.068 114.268 30.8987 114.057C30.704 113.806 30.4834 113.576 30.2405 113.371C29.8594 113.043 29.6059 112.595 29.5236 112.102C29.3541 111.338 29.2674 110.557 29.265 109.775V108.692C28.9006 108.599 28.8066 108.832 28.6773 108.995C27.544 110.319 26.193 111.444 24.6813 112.323C22.6299 113.6 20.4005 114.572 18.0643 115.209C17.7117 115.302 17.3709 115.43 16.9595 115.57C16.9361 115.829 16.9361 116.09 16.9595 116.35C17.1357 118.937 17.171 121.532 17.0653 124.123C17.0183 131.362 16.9674 138.6 16.9125 145.839C16.9073 145.928 16.9073 146.017 16.9125 146.107C17.2137 146.435 17.4741 146.799 17.6882 147.189C17.8324 147.67 17.923 148.166 17.9585 148.667C18.0291 149.202 18.0173 149.761 18.1348 150.284C18.2419 150.866 18.2056 151.465 18.0291 152.03C17.9732 152.271 17.8683 152.499 17.7208 152.699C17.5733 152.899 17.3863 153.067 17.1711 153.194C16.4973 153.666 15.7209 153.975 14.9044 154.097C14.0879 154.218 13.254 154.148 12.4699 153.892C11.7119 153.601 11.0548 153.1 10.5776 152.449C10.4166 152.23 10.3376 151.963 10.3543 151.692C10.2668 150.144 10.5361 148.596 11.1418 147.166C11.2701 146.877 11.3226 146.56 11.2946 146.246C11.1927 143.197 11.0791 140.152 10.9537 137.111C10.9537 136.285 10.895 135.47 10.895 134.655C10.895 129.015 10.8754 123.371 10.8362 117.723C10.8127 117.176 10.7892 116.676 10.7657 116.059ZM83.4466 2.68735C82.4666 3.04694 81.5256 3.50309 80.6376 4.04892C78.3265 5.45933 76.1085 7.01413 73.9971 8.70388C73.7888 8.87912 73.5432 9.00568 73.2787 9.07418C73.0143 9.14267 72.7376 9.15134 72.4692 9.09955C71.9286 9.01809 71.3762 8.97154 70.8356 8.89007C67.4859 8.36639 64.1363 7.79616 60.7514 7.50523C57.9542 7.27248 55.1687 7.05137 52.3598 7.02809C48.2714 6.97379 44.183 7.14084 40.1131 7.5285C37.37 7.74579 34.6521 8.20535 31.9917 8.90171C31.6051 9.01179 31.2127 9.10114 30.8164 9.16937C30.5464 9.23627 30.2627 9.22585 29.9985 9.13931C29.7342 9.05278 29.5002 8.89371 29.3238 8.6806L28.8066 8.14528C27.341 6.39204 25.6812 4.80719 23.8586 3.4205C23.3431 3.04156 22.8011 2.69934 22.2367 2.39641C21.9111 2.22873 21.5683 2.09608 21.2141 2.00074C20.5795 1.81454 20.3209 1.90764 19.9448 2.47788C19.6925 2.84457 19.476 3.23425 19.2984 3.64161C18.8964 4.55877 18.551 5.49925 18.2641 6.45786C17.6765 8.64569 17.1593 10.8684 16.6187 13.0679C16.5545 13.6585 16.3312 14.2212 15.9723 14.6971C15.885 14.8024 15.8354 14.9334 15.8312 15.0695C15.8052 15.5786 15.6112 16.0651 15.2788 16.4544C14.8557 17.1061 14.4444 17.7578 13.9978 18.3978C12.1742 21.079 10.7898 24.0285 9.89595 27.1375C8.83812 30.6688 8.15664 34.3001 7.86267 37.9719C7.714 39.4685 7.64731 40.9719 7.66286 42.4756C7.68792 44.8197 7.92789 47.1568 8.3798 49.458C9.10285 53.1845 10.7553 56.6728 13.1868 59.6058C14.8581 61.5485 16.7829 63.2626 18.9105 64.703C26.0092 69.4985 34.3342 72.2058 42.9221 72.5117C46.9625 72.6883 51.0108 72.4974 55.016 71.9414C58.0189 71.5609 61.0002 71.0288 63.9483 70.3471C67.6244 69.5479 71.2082 68.3781 74.6436 66.8559C81.4846 63.8301 86.9349 58.3795 89.9225 51.576C91.6033 47.7008 92.5935 43.5666 92.8491 39.3568C93.1051 35.5242 92.8003 31.6751 91.9441 27.9288C91.0566 23.2169 88.8446 18.8485 85.5622 15.3256C85.1978 14.9532 85.1743 14.8019 85.4916 14.3946C85.6745 14.1896 85.7712 13.9231 85.762 13.6498C85.762 13.2425 85.762 12.8352 85.6797 12.4278C85.3946 10.0794 84.9786 7.7484 84.4339 5.44541C84.2621 4.47804 83.9285 3.54587 83.4466 2.68735ZM58.3538 146.758C58.3538 146.153 58.248 145.594 58.201 144.989C58.0247 142.313 57.8484 139.636 57.6486 136.96C57.5311 135.412 57.3783 133.876 57.2255 132.305C57.061 130.582 56.8847 128.813 56.7319 127.149C56.684 126.974 56.684 126.789 56.7319 126.614C56.7625 126.533 56.8096 126.459 56.8702 126.397C56.9309 126.335 57.0038 126.286 57.0845 126.253C57.1711 126.244 57.2587 126.255 57.3402 126.286C57.4218 126.316 57.4952 126.365 57.5546 126.428C57.7081 126.601 57.8169 126.809 57.8719 127.033C58.0003 127.468 58.0984 127.911 58.1658 128.359C58.5536 131.199 58.9532 134.027 59.2823 136.878C59.5409 139.206 59.7172 141.533 59.9287 143.802C59.9287 144.349 60.0815 144.885 60.0933 145.432C60.082 145.98 60.0428 146.528 59.9757 147.072C60.4944 147.589 61.1914 147.893 61.9268 147.922C62.3734 147.992 62.8435 147.922 63.3019 148.027C66.2665 148.366 69.2557 148.444 72.2342 148.259C75.5985 148.05 78.845 146.953 81.6366 145.082C81.8421 144.931 82.0383 144.768 82.2243 144.594C82.2362 144.388 82.2362 144.182 82.2243 143.977C81.8952 141.649 81.8364 139.322 81.6719 136.913C81.5544 135.237 81.4486 133.55 81.3193 131.874C81.0842 128.837 80.8139 125.799 80.6141 122.762C80.4378 120.039 80.097 117.339 79.7091 114.616C79.6478 114.347 79.5693 114.083 79.4741 113.824C79.3259 113.865 79.1806 113.916 79.0392 113.976C75.9533 115.6 72.624 116.724 69.1784 117.304C67.1108 117.727 65.0186 118.023 62.914 118.188C60.9983 118.328 59.0825 118.584 57.155 118.631C51.6888 118.827 46.2156 118.562 40.7947 117.839C38.3311 117.568 35.9225 116.932 33.6489 115.954C33.5196 115.954 33.3433 115.686 33.1905 115.954C33.1804 116.047 33.1804 116.141 33.1905 116.233C33.8191 119.12 34.2666 122.043 34.5304 124.985C34.7654 126.835 34.9652 128.685 35.1885 130.536C35.5176 133.154 35.8467 135.761 36.1875 138.379C36.4226 140.23 36.6694 142.08 36.881 143.93C36.9296 144.383 37.1527 144.8 37.5039 145.094C38.6843 146.18 40.1052 146.977 41.6527 147.422C43.1482 147.848 44.6777 148.148 46.2247 148.318C49.2425 148.674 52.3019 148.417 55.2158 147.561C56.2148 147.305 57.2255 147.049 58.3538 146.758ZM19.9801 94.6809C19.9318 94.8797 19.9003 95.0821 19.886 95.286C19.859 96.3803 19.6123 97.4584 19.1603 98.4574C18.7083 99.4563 18.0601 100.356 17.2534 101.105C15.999 102.318 14.4666 103.212 12.7872 103.712C10.8714 104.328 8.90869 104.875 6.98119 105.376C5.88815 105.701 4.79512 106.051 3.72559 106.458C3.21787 106.665 2.74288 106.943 2.31522 107.284C2.01853 107.505 1.79285 107.806 1.66559 108.151C1.53832 108.496 1.51494 108.87 1.59828 109.228C1.7938 110.346 2.25284 111.402 2.93813 112.312C3.13874 112.591 3.40279 112.819 3.70901 112.979C4.01523 113.139 4.35505 113.225 4.70109 113.231C5.24644 113.28 5.78569 113.381 6.31126 113.533C6.93417 113.673 7.48657 113.871 8.16825 114.022C8.56785 114.115 8.97921 114.162 9.34355 114.232C9.79352 114.355 10.2687 114.355 10.7187 114.232C10.7187 113.976 10.7187 113.755 10.7774 113.533C10.8434 113.139 10.7583 112.734 10.5388 112.398C10.3192 112.062 9.98103 111.82 9.59037 111.718C9.27969 111.631 9.01112 111.436 8.83406 111.169C8.65699 110.902 8.58333 110.58 8.62661 110.263C8.6026 109.759 8.69925 109.257 8.90869 108.797C9.15677 108.243 9.55257 107.766 10.0536 107.417C10.5547 107.069 11.1421 106.862 11.7529 106.819C12.5215 106.653 13.3244 106.758 14.0236 107.114C14.7228 107.471 15.2747 108.058 15.5844 108.774C15.9743 109.714 16.2237 110.706 16.3249 111.718C16.4053 112.348 16.519 112.973 16.6657 113.592C16.8609 113.615 17.0582 113.615 17.2534 113.592C20.1868 112.806 22.924 111.427 25.2925 109.542C26.4678 108.588 27.4198 107.412 28.4893 106.353C28.7026 106.149 28.8664 105.899 28.9682 105.623C29.07 105.347 29.1072 105.051 29.0769 104.759C28.9242 102.536 28.8419 100.313 28.6656 98.0907C28.6529 97.2798 28.5344 96.4741 28.313 95.6934C25.4944 96.1367 22.6068 95.7858 19.9801 94.6809ZM60.7397 149.505C60.1005 150.344 59.6952 151.336 59.5644 152.379C59.4769 152.834 59.5615 153.305 59.8021 153.702C60.0427 154.099 60.4225 154.394 60.869 154.532C61.1539 154.674 61.4591 154.772 61.774 154.823C62.4508 154.943 63.1334 155.028 63.819 155.079C68.0952 155.252 72.3756 154.86 76.5476 153.915C77.4864 153.702 78.4061 153.414 79.2978 153.054C79.9421 152.875 80.5089 152.491 80.9105 151.961C81.312 151.43 81.5259 150.784 81.5191 150.121C81.5191 149.528 81.5191 148.958 81.5191 148.353C81.5191 148.143 81.5191 147.887 81.1783 147.782L80.6141 148.062C78.4464 149.165 76.0917 149.864 73.6681 150.121C70.602 150.434 67.5096 150.391 64.4537 149.993C63.2313 149.842 62.009 149.668 60.7397 149.505ZM58.6947 147.794C57.9426 148.31 57.1574 148.776 56.344 149.19C55.0324 149.74 53.639 150.074 52.2187 150.18C50.3063 150.397 48.3762 150.416 46.4597 150.238C44.6833 150.063 42.9304 149.704 41.2296 149.167C40.4539 148.899 39.69 148.597 38.879 148.294C38.0821 148.917 37.5025 149.772 37.2218 150.738C37.1129 151.003 37.0591 151.286 37.0638 151.572C37.0684 151.858 37.1314 152.139 37.2489 152.4C37.3663 152.661 37.5359 152.896 37.7474 153.09C37.9589 153.285 38.2079 153.435 38.4794 153.531C38.973 153.768 39.494 153.944 40.0308 154.055C42.0086 154.462 44.0311 154.614 46.0484 154.509C48.5221 154.408 50.9872 154.156 53.4293 153.752C54.8984 153.485 56.3793 153.205 57.7544 152.856C57.9379 152.123 58.1615 151.401 58.4243 150.692C58.7064 150.04 59.1178 149.435 59.4586 148.806L58.6947 147.794ZM82.5651 101.547C83.7404 100.942 84.7277 100.383 85.7032 99.8479C86.3625 99.4427 86.9805 98.975 87.5484 98.4514C88.5538 97.5235 89.2299 96.2991 89.4759 94.9602C89.8203 93.1774 89.7113 91.3377 89.1586 89.607C88.9257 88.6797 88.5277 87.8009 87.9833 87.0118C87.8485 87.0637 87.7219 87.1342 87.6072 87.2213C86.4027 88.2731 85.0677 89.1686 83.6347 89.8863C82.8741 90.3119 82.0346 90.5811 81.1665 90.6776C80.9448 90.7217 80.7282 90.788 80.5201 90.8755C80.6865 92.0518 80.9219 93.2175 81.2253 94.3667C81.4368 95.5304 81.6836 96.764 81.9187 97.9626C82.0729 99.1675 82.2886 100.364 82.5651 101.547ZM12.5874 118.41V119.573C12.5874 120.388 12.5874 121.202 12.5874 122.029C12.5874 130.167 12.6266 138.313 12.7049 146.467C12.7049 146.816 12.7049 147.166 12.7754 147.538C13.268 147.662 13.7848 147.655 14.2738 147.518C14.7628 147.381 15.2068 147.119 15.5609 146.758C15.5609 145.466 15.5609 144.245 15.4904 143.023C15.3729 135.831 15.2632 128.643 15.1613 121.459C15.1613 120.644 15.1613 119.818 15.1613 119.003C15.129 118.728 15.0779 118.456 15.0085 118.188L12.5874 118.41ZM12.2113 148.795C12.1265 149.727 12.099 150.664 12.129 151.599C12.1338 151.76 12.1934 151.914 12.298 152.036C12.4026 152.159 12.546 152.243 12.7049 152.274C13.2561 152.436 13.8366 152.477 14.4052 152.392C14.9739 152.308 15.5169 152.101 15.9958 151.786C16.1331 151.701 16.2428 151.58 16.3117 151.435C16.3805 151.291 16.4055 151.129 16.3836 150.971C16.3836 150.343 16.3014 149.702 16.2544 149.074C16.2544 148.853 16.2544 148.609 15.9605 148.527C13.9037 149.167 13.892 149.167 12.2113 148.795ZM45.3197 74.5599C45.9993 75.7991 46.9272 76.8881 48.0464 77.7601C49.2622 76.9887 50.1779 75.8318 50.6438 74.4784L45.3197 74.5599Z" fill="white" stroke="white" stroke-width="2" mask="url(#path-1-inside-1)"/>
<path d="M55.5879 115.023L55.582 115.048L55.5786 115.073C55.5719 115.122 55.5489 115.169 55.512 115.205C55.4829 115.234 55.4463 115.255 55.4059 115.266C55.3696 115.261 55.3388 115.247 55.311 115.225C55.2735 115.194 55.2129 115.122 55.1698 114.963L55.1696 114.962C55.0461 114.509 54.9608 114.046 54.9144 113.578L54.914 113.574C54.7659 112.198 54.6271 110.818 54.4881 109.436C54.2536 107.104 54.0186 104.768 53.738 102.443C53.0703 96.7719 52.0338 91.1493 50.6353 85.6102L50.6353 85.6102L50.6349 85.6088C50.5547 85.2949 50.486 84.9799 50.4229 84.6616C50.7627 85.8855 51.0984 87.1154 51.4302 88.3513C52.6015 92.8168 53.5739 97.3408 54.359 101.9L54.359 101.901C54.7125 103.948 54.958 106.005 55.2055 108.079C55.2276 108.264 55.2497 108.45 55.2719 108.635C55.3955 109.701 55.5006 110.744 55.6076 111.807C55.6712 112.438 55.7355 113.076 55.8048 113.729C55.7829 113.865 55.7641 113.997 55.7455 114.128C55.7035 114.424 55.6623 114.714 55.5879 115.023Z" fill="white" stroke="white"/>
<path d="M56.3575 87.172L56.356 87.1288L56.1703 86.7072C56.086 86.7443 56.0107 86.7989 55.9495 86.8672C55.8882 86.9356 55.8425 87.0161 55.8153 87.1034C55.7881 87.1908 55.7801 87.2828 55.7919 87.3735C55.807 87.5997 55.8345 87.8251 55.8742 88.0484M56.3575 87.172C56.344 87.1798 56.332 87.1896 56.3219 87.2009C56.3083 87.216 56.2985 87.2335 56.2927 87.2521C56.2869 87.2706 56.2853 87.2901 56.2877 87.3092L56.2897 87.3246L56.2908 87.3401C56.3046 87.5473 56.3297 87.7537 56.366 87.9582M56.3575 87.172L56.3617 87.2972C56.3716 87.5908 56.3966 87.8836 56.4366 88.1747L56.4389 88.1916L56.4424 88.2083C56.5476 88.7148 56.6605 89.2114 56.7723 89.703C56.9951 90.683 57.2135 91.6436 57.3577 92.6246M56.3575 87.172L57.3617 87.2808M56.366 87.9582C56.3658 87.9573 56.3656 87.9563 56.3654 87.9554L55.8742 88.0484M56.366 87.9582C56.4403 88.3506 56.5208 88.7454 56.6022 89.1445C56.746 89.8498 56.8926 90.5689 57.013 91.313M56.366 87.9582C56.3661 87.9591 56.3663 87.9601 56.3664 87.961L55.8742 88.0484M55.8742 88.0484C55.9514 88.4565 56.0334 88.8585 56.1155 89.261C56.2582 89.9603 56.4012 90.6614 56.5206 91.4M57.3617 87.2808C57.3615 87.275 57.3613 87.2693 57.3611 87.2635L56.8614 87.2804V87.7804C56.8722 87.7804 56.8831 87.7804 56.8938 87.7804C56.9043 87.8893 56.917 87.9981 56.9319 88.1066C57.0329 88.5929 57.1433 89.0782 57.2537 89.564C57.5158 90.7173 57.7786 91.8734 57.9192 93.0525M57.3617 87.2808C57.8845 87.2823 58.3524 87.2886 58.7654 87.3153M57.3617 87.2808L64.113 86.8032C62.3266 86.9894 60.5871 87.164 58.7654 87.3153M57.9192 93.0525L57.5262 93.0882C57.4663 92.935 57.4101 92.7804 57.3577 92.6246M57.9192 93.0525C57.9565 93.464 58.1127 93.8562 58.3691 94.1822C58.6254 94.5083 58.9711 94.7544 59.3648 94.8912C59.8245 95.046 60.2681 95.2043 60.706 95.3606C61.3876 95.6039 62.0556 95.8424 62.7497 96.0549M57.9192 93.0525L57.5304 93.0988C57.6813 93.4829 57.8558 93.8582 58.0532 94.2223L58.0589 94.233L58.0642 94.2439C58.0848 94.2868 58.1066 94.329 58.1296 94.3705C58.3311 94.735 58.6203 95.0444 58.9709 95.2716M57.3577 92.6246C57.3812 92.7842 57.4027 92.9443 57.4219 93.1051C57.463 93.5436 57.6133 93.9637 57.8576 94.3284C57.8601 94.3321 57.8627 94.3359 57.8652 94.3396C57.9002 94.3913 57.9372 94.4419 57.976 94.4913C58.2407 94.828 58.5824 95.0951 58.9709 95.2716M57.3577 92.6246C57.2137 92.1961 57.0984 91.7579 57.013 91.313M57.013 91.313C57.0134 91.3154 57.0138 91.3178 57.0142 91.3202L56.5206 91.4M57.013 91.313C57.0126 91.3107 57.0121 91.3084 57.0117 91.306L56.5206 91.4M56.5206 91.4C56.7251 92.4694 57.0938 93.5016 57.6136 94.4606C57.9114 95.0798 58.4129 95.5804 59.0357 95.8804M59.0357 95.8804C60.2739 96.4701 61.5644 96.9453 62.8907 97.3001M59.0357 95.8804L59.2527 95.4299C59.2524 95.4298 59.2521 95.4296 59.2517 95.4295M59.0357 95.8804L59.2507 95.429C59.2511 95.4291 59.2514 95.4293 59.2517 95.4295M62.8907 97.3001C63.3351 97.4046 63.798 97.4046 64.2423 97.3001M62.8907 97.3001L63.0199 96.8171C63.0174 96.8164 63.0148 96.8158 63.0123 96.8151M62.8907 97.3001L63.0051 96.8134C63.0075 96.814 63.0099 96.8145 63.0123 96.8151M64.2423 97.3001C65.8139 96.9071 67.2104 96.0112 68.2149 94.7516C68.2458 94.7195 68.2663 94.6789 68.2736 94.6352C68.2982 94.5555 68.2982 94.4704 68.2736 94.3908M64.2423 97.3001L64.1279 96.8134C64.1268 96.8137 64.1257 96.8139 64.1246 96.8142M64.2423 97.3001L64.121 96.8151C64.1222 96.8148 64.1234 96.8145 64.1246 96.8142M68.2736 94.3908C68.2481 94.3546 68.2149 94.3244 68.1763 94.3023C68.1377 94.2802 68.0947 94.2667 68.0503 94.2628M68.2736 94.3908L68.097 94.4452L68.0962 94.442L68.0503 94.2628M68.2736 94.3908L68.1122 94.5047L68.1347 94.5924L68.1399 94.6127L68.1625 94.701L68.1653 94.712L68.1743 94.7472C67.9314 94.8093 67.6938 94.8904 67.4639 94.9896C67.4133 95.0186 67.3624 95.0478 67.3114 95.077C67.2572 95.108 67.2029 95.1392 67.1483 95.1704M68.0503 94.2628C67.7728 94.3338 67.5015 94.4272 67.2394 94.5421M68.0503 94.2628L68.0325 94.4651L67.9455 94.4918L67.9049 94.5044L67.8769 94.513L67.7958 94.538C67.7926 94.5278 67.7915 94.5171 67.7923 94.5065C67.7943 94.5006 67.7966 94.4948 67.799 94.489C67.8062 94.4721 67.815 94.456 67.8253 94.4409C67.8341 94.428 67.8441 94.4158 67.855 94.4045L67.8386 94.4214L67.8239 94.4398C67.7008 94.5943 67.5713 94.7429 67.4359 94.8853L67.2394 94.5421M67.2394 94.5421C67.1811 94.5754 67.1226 94.6089 67.0639 94.6425C66.365 95.0428 65.6369 95.4599 64.8888 95.8571M67.2394 94.5421L67.4042 94.9184C67.3211 95.0047 67.2357 95.0887 67.1483 95.1704M64.8888 95.8571C64.5643 96.0318 64.2074 96.1394 63.8397 96.1734C63.472 96.2074 63.1012 96.1671 62.7497 96.0549M64.8888 95.8571L65.1232 96.2987C65.1236 96.2985 65.124 96.2983 65.1244 96.2981M64.8888 95.8571L65.1258 96.2974C65.1253 96.2976 65.1248 96.2979 65.1244 96.2981M62.7497 96.0549L62.5977 96.5313C62.5987 96.5316 62.5996 96.5319 62.6006 96.5322M62.7497 96.0549L62.6033 96.533C62.6024 96.5328 62.6015 96.5325 62.6006 96.5322M58.9709 95.2716C59.0459 95.3057 59.1225 95.3363 59.2007 95.3635L59.2007 95.3635L59.2053 95.3651C59.6455 95.5133 60.0822 95.6691 60.5184 95.8247C61.2102 96.0715 61.9005 96.3177 62.6006 96.5322M58.9709 95.2716C59.0607 95.3298 59.1544 95.3825 59.2517 95.4295M62.6006 96.5322C63.0152 96.6641 63.4524 96.7114 63.8858 96.6713C64.3197 96.6312 64.741 96.5043 65.1244 96.2981M65.1244 96.2981C65.8209 95.9283 66.4998 95.5417 67.1483 95.1704M67.1483 95.1704C66.3027 95.9604 65.2633 96.5288 64.1246 96.8142M64.1246 96.8142C63.7589 96.8996 63.3781 96.8999 63.0123 96.8151M63.0123 96.8151C61.7184 96.4685 60.4596 96.0046 59.2517 95.4295M58.7654 87.3153L58.7375 86.9787L62.3715 86.4792M58.7654 87.3153L58.7876 86.9719C59.9835 86.8115 61.1781 86.6472 62.3715 86.4792M62.3715 86.4792C62.9325 86.4229 63.4943 86.365 64.0612 86.3059L64.0614 86.3059C64.5409 86.2561 65.0171 86.1783 65.4873 86.073C65.4968 86.0704 65.5062 86.0676 65.5155 86.0646C65.2671 86.0367 65.0143 86.0586 64.7726 86.1304L64.7379 86.1407L64.702 86.1459C63.9257 86.2586 63.1489 86.3697 62.3715 86.4792ZM68.0025 94.5822L68.0234 94.5675L68.0233 94.5692L68.0117 94.5895L68.0233 94.5693L68.0212 94.5927L68.0208 94.5968L68.0064 94.7608C67.9789 94.7584 67.952 94.7501 67.9276 94.7361L68.0108 94.591L67.9276 94.7361C67.9032 94.7221 67.8818 94.7028 67.8652 94.6792L67.9941 94.5882L68.0025 94.5822ZM66.1885 86.1449L65.8892 86.024L65.8892 86.024L66.1885 86.1449ZM66.2168 85.9537L65.8818 85.9874L66.134 85.776C66.1747 85.8284 66.203 85.8891 66.2168 85.9537ZM65.8116 85.9927L65.8151 85.9941L65.8107 85.9923L65.8116 85.9927ZM58.7604 86.814C58.6507 86.8072 58.5375 86.8019 58.421 86.7976L58.3658 86.5239L58.7604 86.814Z" fill="white" stroke="white"/>
<mask id="path-4-inside-2" fill="white">
<path d="M69.4373 92.9595C69.4373 93.0293 69.3668 93.2038 69.2728 93.2504C69.1788 93.2969 68.8849 93.3435 68.8027 93.2504C68.6509 93.088 68.5489 92.8862 68.5088 92.6685C68.2033 90.8415 67.9212 89.0028 67.6391 87.1757C67.6157 86.998 67.6157 86.818 67.6391 86.6404C67.6391 86.524 67.7684 86.3145 67.8154 86.3261C67.8624 86.3378 68.2033 86.4192 68.262 86.5356C68.4189 86.8562 68.5297 87.197 68.5911 87.5481C68.8967 89.2355 69.1905 90.9346 69.4726 92.622C69.4673 92.735 69.4555 92.8477 69.4373 92.9595Z"/>
</mask>
<path d="M69.4373 92.9595C69.4373 93.0293 69.3668 93.2038 69.2728 93.2504C69.1788 93.2969 68.8849 93.3435 68.8027 93.2504C68.6509 93.088 68.5489 92.8862 68.5088 92.6685C68.2033 90.8415 67.9212 89.0028 67.6391 87.1757C67.6157 86.998 67.6157 86.818 67.6391 86.6404C67.6391 86.524 67.7684 86.3145 67.8154 86.3261C67.8624 86.3378 68.2033 86.4192 68.262 86.5356C68.4189 86.8562 68.5297 87.197 68.5911 87.5481C68.8967 89.2355 69.1905 90.9346 69.4726 92.622C69.4673 92.735 69.4555 92.8477 69.4373 92.9595Z" fill="white"/>
<path d="M69.4373 92.9595L68.4503 92.7988L68.4373 92.8786V92.9595H69.4373ZM68.8027 93.2504L69.552 92.5882L69.5427 92.5777L69.5331 92.5674L68.8027 93.2504ZM68.5088 92.6685L67.5225 92.8335L67.5239 92.8416L67.5254 92.8496L68.5088 92.6685ZM67.6391 87.1757L66.6477 87.3062L66.6491 87.3172L66.6508 87.3283L67.6391 87.1757ZM67.6391 86.6404L68.6306 86.7708L68.6391 86.7059V86.6404H67.6391ZM68.262 86.5356L69.1603 86.0961L69.1547 86.0849L68.262 86.5356ZM68.5911 87.5481L67.6061 87.7205L67.6071 87.7263L68.5911 87.5481ZM69.4726 92.622L70.4715 92.6687L70.4765 92.5623L70.4589 92.4571L69.4726 92.622ZM68.4373 92.9595C68.4373 92.8379 68.4624 92.756 68.4671 92.7402C68.4763 92.7097 68.4865 92.685 68.4977 92.6629C68.5082 92.6421 68.5292 92.6042 68.5673 92.5581C68.6005 92.5179 68.6836 92.4262 68.8291 92.3542L69.7165 94.1466C70.0632 93.9749 70.2278 93.6737 70.283 93.5644C70.3428 93.4458 70.4373 93.2206 70.4373 92.9595H68.4373ZM68.8291 92.3542C68.8751 92.3315 68.9094 92.3199 68.922 92.3159C68.9377 92.3108 68.9478 92.3084 68.9519 92.3075C68.9585 92.306 68.9634 92.3052 68.9725 92.3046C68.9759 92.3044 69.0201 92.3011 69.091 92.3151C69.1383 92.3244 69.3599 92.3709 69.552 92.5882L68.0533 93.9126C68.2865 94.1765 68.5758 94.252 68.7042 94.2773C68.8563 94.3073 68.9952 94.3069 69.0941 94.3009C69.2645 94.2905 69.5069 94.2504 69.7165 94.1466L68.8291 92.3542ZM69.5331 92.5674C69.5113 92.5441 69.4976 92.5162 69.4923 92.4874L67.5254 92.8496C67.6003 93.2562 67.7904 93.632 68.0723 93.9334L69.5331 92.5674ZM69.4951 92.5036C69.1908 90.684 68.9098 88.8522 68.6274 87.0231L66.6508 87.3283C66.9326 89.1533 67.2157 90.9989 67.5225 92.8335L69.4951 92.5036ZM68.6306 87.0452C68.6186 86.9541 68.6186 86.8619 68.6306 86.7708L66.6477 86.5099C66.6129 86.7742 66.6129 87.0419 66.6477 87.3062L68.6306 87.0452ZM68.6391 86.6404C68.6391 86.7741 68.607 86.8623 68.6013 86.8783C68.591 86.9071 68.5812 86.9258 68.5733 86.9392C68.5687 86.9472 68.5455 86.9872 68.4948 87.0408C68.4722 87.0647 68.4104 87.1278 68.3105 87.1881C68.2391 87.2311 67.9558 87.3911 67.5751 87.2969L68.0557 85.3554C67.6633 85.2583 67.3657 85.4223 67.2782 85.475C67.1622 85.5449 67.0826 85.6234 67.0413 85.6671C66.9531 85.7603 66.8887 85.8579 66.8459 85.9312C66.7827 86.0395 66.6391 86.3106 66.6391 86.6404H68.6391ZM67.5751 87.2969C67.6012 87.3033 67.648 87.3149 67.6878 87.3296C67.7094 87.3376 67.6971 87.3351 67.6656 87.3165C67.6488 87.3066 67.61 87.2824 67.5629 87.2405C67.5188 87.2012 67.4364 87.119 67.3694 86.9864L69.1547 86.0849C69.0058 85.7901 68.7628 85.6418 68.6826 85.5944C68.5691 85.5274 68.4576 85.4819 68.3809 85.4536C68.2238 85.3955 68.0766 85.3606 68.0557 85.3554L67.5751 87.2969ZM67.3638 86.9751C67.4794 87.2114 67.5609 87.4623 67.6061 87.7205L69.5761 87.3757C69.4985 86.9318 69.3584 86.5011 69.1603 86.0961L67.3638 86.9751ZM67.6071 87.7263C67.9118 89.4085 68.2048 91.1031 68.4863 92.7868L70.4589 92.4571C70.1762 90.766 69.8816 89.0625 69.5751 87.3699L67.6071 87.7263ZM68.4737 92.5752C68.4702 92.6501 68.4624 92.7247 68.4503 92.7988L70.4243 93.1202C70.4487 92.9707 70.4644 92.82 70.4715 92.6687L68.4737 92.5752Z" fill="white" mask="url(#path-4-inside-2)"/>
<path d="M47.1114 83.571C47.1494 83.5484 47.1896 83.5294 47.2315 83.5146C47.3498 83.5296 47.462 83.5751 47.5567 83.6467C47.6654 83.7289 47.7455 83.8411 47.7874 83.9679C47.8125 84.0828 47.8062 84.2023 47.7689 84.3142C47.7323 84.4242 47.6668 84.5232 47.5788 84.601C47.5173 84.6401 47.4451 84.6613 47.3709 84.6613C47.2979 84.6613 47.2269 84.6409 47.1661 84.603C47.0969 84.5393 47.0406 84.4635 46.9999 84.3796C46.9556 84.288 46.9307 84.1886 46.9268 84.0875C46.9229 83.9864 46.9399 83.8855 46.977 83.7909C47.0085 83.7106 47.0539 83.6362 47.1114 83.571Z" fill="white" stroke="white"/>
<path d="M51.246 109.689C51.3108 109.658 51.3801 109.638 51.4511 109.629C51.5173 109.66 51.5803 109.697 51.6391 109.74C51.6725 109.803 51.6954 109.871 51.7069 109.941C51.7222 110.033 51.7174 110.128 51.6928 110.218C51.6682 110.309 51.6243 110.393 51.5638 110.466C51.5077 110.534 51.4383 110.59 51.3596 110.632C51.3145 110.647 51.2667 110.655 51.2187 110.653C51.1646 110.651 51.1117 110.638 51.0635 110.614C51.0152 110.591 50.9729 110.558 50.939 110.518L50.5571 110.84L50.939 110.518C50.909 110.482 50.8862 110.442 50.8714 110.399C50.8559 110.309 50.8592 110.218 50.8812 110.13C50.9048 110.035 50.9496 109.946 51.0125 109.87C51.0755 109.793 51.1552 109.731 51.246 109.689Z" fill="white" stroke="white"/>
<path d="M49.2274 92.6246C49.1988 92.7451 49.1599 92.863 49.1111 92.9771C49.0905 93.0141 49.0606 93.0461 49.0236 93.0697L49.292 93.4915L49.0236 93.0697C48.9854 93.094 48.9412 93.1084 48.8953 93.1111C48.7543 93.1092 48.6646 93.0645 48.6068 93.0084C48.5461 92.9493 48.479 92.8365 48.4629 92.6298C48.4299 92.2051 48.6458 92.0316 48.7514 92.0041C48.868 92.0057 48.9799 92.0482 49.067 92.1235C49.1554 92.2001 49.2118 92.3047 49.2274 92.4175V92.6246Z" fill="white" stroke="white"/>
<path d="M50.234 100.604L50.2393 100.566L50.2387 100.528C50.2372 100.431 50.2734 100.336 50.3412 100.263C50.4003 100.2 50.4796 100.157 50.5666 100.143C50.6918 100.165 50.8051 100.229 50.8869 100.325C50.9761 100.428 51.0214 100.561 51.0149 100.695C51.0098 100.744 50.9954 100.791 50.9723 100.834C50.9482 100.879 50.9151 100.919 50.8746 100.952C50.834 100.985 50.787 101.009 50.7362 101.024L50.8763 101.504L50.7362 101.024C50.6854 101.039 50.632 101.044 50.5792 101.038C50.5264 101.032 50.4755 101.016 50.4296 100.99C50.3836 100.965 50.3437 100.931 50.3118 100.89L49.9246 101.194L50.3118 100.89C50.28 100.849 50.2569 100.803 50.2436 100.754C50.2303 100.705 50.2271 100.654 50.234 100.604Z" fill="white" stroke="white"/>
<path d="M50.0157 48.5652L49.7476 48.3872L49.4746 48.5575C49.4097 48.5979 49.3464 48.6377 49.2841 48.6768C49.0326 48.8347 48.7997 48.9809 48.5579 49.1139L48.5579 49.1139L48.5508 49.1179C47.1553 49.9154 45.5563 50.297 43.9464 50.2164L43.9325 50.2157L43.9187 50.2158C43.5258 50.2178 43.137 50.1379 42.7777 49.9813C42.4185 49.8248 42.0969 49.5952 41.8339 49.3078C41.5709 49.0204 41.3723 48.6816 41.2507 48.3137C41.1291 47.9459 41.0873 47.5569 41.1278 47.1721L41.13 47.1509L41.1304 47.1296C41.1439 46.4392 41.3269 45.7622 41.6639 45.157C41.7192 45.0635 41.797 44.9846 41.8906 44.9272C41.8808 45.1626 41.8473 45.4048 41.8067 45.6692C41.8012 45.7048 41.7956 45.741 41.7899 45.7776C41.747 46.0537 41.6997 46.3572 41.6827 46.6612L41.6819 46.6752V46.6892C41.6819 47.404 41.7735 48.1861 42.2852 48.7481C42.8158 49.3309 43.6661 49.5434 44.8444 49.4451L44.8444 49.4452L44.8534 49.4443C45.8724 49.3407 46.8635 49.0515 47.7766 48.5911C48.2241 48.3695 48.6622 48.1292 49.1372 47.8686C49.1979 47.8353 49.2592 47.8017 49.3211 47.7678L49.5629 47.6354L49.58 47.3602C49.6335 46.4975 49.6919 45.626 49.7521 44.7273C49.7845 44.245 49.8173 43.7549 49.8502 43.254L49.8745 42.8842L49.5277 42.7534L48.2937 42.288L48.2839 42.2843L48.2741 42.281C47.7311 42.1016 47.2776 41.7267 47.0027 41.2326L46.9894 41.2086L46.9735 41.1862C46.935 41.1319 46.9111 41.0694 46.9037 41.0043C46.8962 40.9392 46.9054 40.8732 46.9306 40.8122C46.9557 40.7512 46.9962 40.6969 47.0487 40.6546C47.0919 40.6198 47.1421 40.5941 47.1961 40.5792H47.271H47.3245L47.3767 40.5679C48.992 40.2183 50.6502 40.104 52.2989 40.2286L52.3289 40.2309L52.359 40.2295C52.5275 40.222 52.6933 40.2699 52.8304 40.3651C52.9675 40.4602 53.068 40.5969 53.1173 40.7532L53.1198 40.7612L53.1225 40.769C53.1852 40.9468 53.1852 41.1401 53.1227 41.3178C53.0602 41.4957 52.9383 41.6484 52.7759 41.7504L52.7758 41.7503L52.7663 41.7566C52.3687 42.0191 51.9544 42.229 51.48 42.4693C51.2243 42.5989 50.9511 42.7372 50.6538 42.8975L50.4198 43.0235L50.3934 43.288C50.3191 44.0324 50.3183 44.7822 50.3909 45.5268V45.5292V45.5337V45.5382V45.5427V45.5472V45.5517V45.5562V45.5607V45.5652V45.5697V45.5742V45.5787V45.5832V45.5877V45.5922V45.5967V45.6012V45.6057V45.6102V45.6147V45.6192V45.6237V45.6282V45.6327V45.6372V45.6417V45.6462V45.6507V45.6552V45.6597V45.6642V45.6687V45.6732V45.6777V45.6822V45.6867V45.6912V45.6957V45.7002V45.7047V45.7092V45.7137V45.7182V45.7227V45.7272V45.7317V45.7362V45.7407V45.7452V45.7497V45.7542V45.7587V45.7633V45.7678V45.7723V45.7768V45.7813V45.7858V45.7903V45.7948V45.7993V45.8038V45.8083V45.8128V45.8173V45.8218V45.8263V45.8308V45.8353V45.8398V45.8443V45.8488V45.8533V45.8578V45.8623V45.8668V45.8713V45.8758V45.8803V45.8848V45.8893V45.8938V45.8983V45.9029V45.9074V45.9119V45.9164V45.9209V45.9254V45.9299V45.9344V45.9389V45.9434V45.9479V45.9524V45.9569V45.9614V45.9659V45.9704V45.9749V45.9794V45.9839V45.9885V45.993V45.9975V46.002V46.0065V46.011V46.0155V46.02V46.0245V46.029V46.0335V46.038V46.0425V46.047V46.0516V46.0561V46.0606V46.0651V46.0696V46.0741V46.0786V46.0831V46.0876V46.0921V46.0966V46.1012V46.1057V46.1102V46.1147V46.1192V46.1237V46.1282V46.1327V46.1372V46.1417V46.1463V46.1508V46.1553V46.1598V46.1643V46.1688V46.1733V46.1778V46.1824V46.1869V46.1914V46.1959V46.2004V46.2049V46.2094V46.2139V46.2185V46.223V46.2275V46.232V46.2365V46.241V46.2455V46.2501V46.2546V46.2591V46.2636V46.2681V46.2726V46.2771V46.2817V46.2862V46.2907V46.2952V46.2997V46.3042V46.3088V46.3133V46.3178V46.3223V46.3268V46.3313V46.3359V46.3404V46.3449V46.3494V46.3539V46.3585V46.363V46.3675V46.372V46.3765V46.3811V46.3856V46.3901V46.3946V46.3991V46.4037V46.4082V46.4127V46.4172V46.4217V46.4263V46.4308V46.4353V46.4398V46.4444V46.4489V46.4534V46.4579V46.4625V46.467V46.4715V46.476V46.4806V46.4851V46.4896V46.4941V46.4987V46.5032V46.5077V46.5122V46.5168V46.5213V46.5258V46.5303V46.5349V46.5394V46.5439V46.5485V46.553V46.5575V46.562V46.5666V46.5711V46.5756V46.5802V46.5847V46.5892V46.5937V46.5983V46.6028V46.6073V46.6119V46.6164V46.6209V46.6255V46.63V46.6345V46.6391V46.6436V46.6481V46.6527V46.6572V46.6617V46.6663V46.6708V46.6753V46.6799V46.6844V46.689V46.6935V46.698V46.7026V46.7071V46.7116V46.7162V46.7207V46.7253V46.7298V46.7343V46.7389V46.7434V46.7479V46.7525V46.757V46.7616V46.7661V46.7707V46.7752V46.7797V46.7843V46.7888V46.7934V46.7979V46.8025V46.807V46.8115V46.8161V46.8206V46.8252V46.8297V46.8343V46.8388V46.8434V46.8479V46.8524V46.857V46.8615V46.8661V46.8706V46.8752V46.8797V46.8843V46.8888V46.8934V46.8979V46.9025V46.907V46.9116V46.9161V46.9207V46.9252V46.9298V46.9343V46.9389V46.9434V46.948V46.9526V46.9571V46.9617V46.9662V46.9708V46.9753V46.9799V46.9844V46.989V46.9936V46.9981V47.0027V47.0072V47.0118V47.0163V47.0209V47.0255V47.03V47.0346V47.0391V47.0437V47.0483V47.0528V47.0574V47.062V47.0665V47.0711V47.0756V47.0802V47.0848V47.0893V47.0939V47.0985V47.103V47.1076V47.1122V47.1167V47.1213V47.1259V47.1304V47.135V47.1396V47.1441V47.1487V47.1533V47.1578V47.1624V47.167V47.1716V47.1761V47.1807V47.1853V47.1898V47.1944V47.199V47.2036V47.2081V47.2127V47.2173V47.2219V47.2264V47.231V47.2356V47.2402V47.2447V47.2493V47.2539V47.2585V47.2631V47.2676V47.2722V47.2768V47.2814V47.286V47.2905V47.2951V47.2997V47.3043V47.3089V47.3135V47.318V47.3226V47.3272V47.3318V47.3364V47.341V47.3455V47.3501V47.3547V47.3593V47.3639V47.3685V47.3731V47.3777V47.3823V47.3868V47.3914V47.396V47.4006V47.4052V47.4098V47.4144V47.419V47.4236V47.4282V47.4328V47.4374V47.442V47.4466V47.4512V47.4557V47.4603V47.4649V47.4695V47.4741V47.4787V47.4833V47.4879V47.4925V47.4971V47.5017V47.5063V47.5109V47.5155V47.5202V47.5248V47.5294V47.534V47.5386V47.5432V47.5478V47.5524V47.557V47.5616V47.5662V47.5708V47.5754V47.58V47.5846V47.5893V47.5939V47.5985V47.6031V47.6077V47.6123V47.6169V47.6215V47.6262V47.6308V47.6354V47.64V47.6446V47.6492V47.6538V47.6585V47.6631V47.6677V47.6723V47.6769V47.6816V47.6862V47.6908V47.6954V47.7V47.7047V47.7093V47.7139V47.7185V47.7232V47.7278V47.7324V47.737V47.7417V47.7463V47.7509V47.7556V47.7602V47.7648V47.7694V47.7741V47.7787V47.7833V47.788V47.7926V47.7972V47.8019V47.8065V47.8111V47.8158V47.8204V47.825V47.8297V48.0706L50.5793 48.2207C51.3242 48.8144 52.2013 49.2229 53.1372 49.4126C53.8006 49.5611 54.4874 49.5761 55.1568 49.4568C55.8188 49.3389 56.4506 49.0918 57.0157 48.73C57.5678 48.4494 58.0094 47.9916 58.2673 47.4297C58.5266 46.8649 58.5845 46.2294 58.4315 45.6278C58.3417 45.1304 58.283 44.6279 58.2557 44.1234C58.2561 44.1225 58.2564 44.1216 58.2569 44.1207C58.2585 44.1177 58.261 44.1147 58.2646 44.1121L58.2544 44.0978L58.2646 44.1121C58.2682 44.1095 58.2727 44.1075 58.2779 44.1067C58.283 44.1058 58.2882 44.1062 58.2931 44.1076L58.3093 44.1125L58.3258 44.1162C58.555 44.1682 58.7655 44.2794 58.9361 44.4379C59.1067 44.5964 59.2311 44.7965 59.2973 45.0173L59.3019 45.0327L59.3075 45.0478C59.5735 45.7641 59.603 46.5453 59.3917 47.2791C59.1807 48.0125 58.7398 48.6615 58.1317 49.1323C57.1188 49.9059 55.8796 50.3348 54.5992 50.3542C53.3184 50.3736 52.0661 49.982 51.0295 49.2388L51.0222 49.2335L51.0147 49.2286L50.0157 48.5652ZM41.8837 44.7877C41.8837 44.7877 41.8841 44.7884 41.8848 44.79C41.884 44.7885 41.8837 44.7877 41.8837 44.7877Z" fill="white" stroke="white"/>
<path d="M57.3473 14.1386C57.8894 14.1623 58.4299 14.2037 58.971 14.2557C57.6894 14.1996 56.4041 14.1441 55.1199 14.1028C55.8631 14.1039 56.6059 14.1133 57.3473 14.1386Z" fill="white" stroke="white"/>
<mask id="path-12-inside-3" fill="white">
<path d="M66.6986 23.9846C57.3513 23.4556 47.9787 23.5489 38.644 24.2639C38.8791 23.9381 38.9261 23.7868 39.0201 23.7519C39.3662 23.6307 39.725 23.5488 40.0897 23.5075C46.1284 22.9417 52.1976 22.759 58.2599 22.9605C60.8338 23.0769 63.396 23.298 65.9582 23.4726C66.1247 23.4453 66.2953 23.4837 66.4337 23.5793C66.572 23.675 66.6671 23.8205 66.6986 23.9846Z"/>
</mask>
<path d="M66.6986 23.9846C57.3513 23.4556 47.9787 23.5489 38.644 24.2639C38.8791 23.9381 38.9261 23.7868 39.0201 23.7519C39.3662 23.6307 39.725 23.5488 40.0897 23.5075C46.1284 22.9417 52.1976 22.759 58.2599 22.9605C60.8338 23.0769 63.396 23.298 65.9582 23.4726C66.1247 23.4453 66.2953 23.4837 66.4337 23.5793C66.572 23.675 66.6671 23.8205 66.6986 23.9846Z" fill="white"/>
<path d="M66.6986 23.9846L66.6421 24.983L67.9223 25.0555L67.6807 23.7962L66.6986 23.9846ZM38.644 24.2639L37.833 23.6789L36.5731 25.4255L38.7204 25.261L38.644 24.2639ZM39.0201 23.7519L38.6897 22.808L38.6809 22.8112L38.6721 22.8144L39.0201 23.7519ZM40.0897 23.5075L39.9964 22.5119L39.9868 22.5128L39.9773 22.5138L40.0897 23.5075ZM58.2599 22.9605L58.3051 21.9615L58.2931 21.9611L58.2599 22.9605ZM65.9582 23.4726L65.8902 24.4703L66.0055 24.4781L66.1196 24.4595L65.9582 23.4726ZM66.7551 22.9862C57.3636 22.4546 47.9465 22.5484 38.5677 23.2669L38.7204 25.261C48.0109 24.5493 57.3391 24.4565 66.6421 24.983L66.7551 22.9862ZM39.455 24.849C39.5947 24.6554 39.6906 24.4953 39.7281 24.4366C39.7379 24.4211 39.7407 24.4173 39.7394 24.4191C39.7383 24.4207 39.7263 24.4378 39.7052 24.4618C39.6616 24.5113 39.5522 24.621 39.3682 24.6893L38.6721 22.8144C38.4411 22.9002 38.2906 23.042 38.2044 23.1398C38.1269 23.2277 38.0689 23.3187 38.0419 23.361C37.9735 23.4682 37.9285 23.5466 37.833 23.6789L39.455 24.849ZM39.3505 24.6957C39.626 24.5993 39.9116 24.534 40.2021 24.5012L39.9773 22.5138C39.5384 22.5635 39.1064 22.6622 38.6897 22.808L39.3505 24.6957ZM40.183 24.5031C46.1797 23.9413 52.2066 23.7598 58.2267 23.96L58.2931 21.9611C52.1886 21.7581 46.0772 21.9421 39.9964 22.5119L40.183 24.5031ZM58.2147 23.9595C60.7741 24.0752 63.3034 24.294 65.8902 24.4703L66.0261 22.4749C63.4886 22.302 60.8936 22.0786 58.3051 21.9616L58.2147 23.9595ZM66.1196 24.4595C66.0315 24.4739 65.9402 24.4539 65.8649 24.4018L67.0025 22.7568C66.6504 22.5134 66.2179 22.4168 65.7967 22.4857L66.1196 24.4595ZM65.8649 24.4018C65.7893 24.3495 65.7347 24.2681 65.7165 24.173L67.6807 23.7962C67.5995 23.3729 67.3548 23.0005 67.0025 22.7568L65.8649 24.4018Z" fill="white" mask="url(#path-12-inside-3)"/>
<mask id="path-14-inside-4" fill="white">
<path d="M64.125 18.9108C63.978 19.0664 63.7907 19.1791 63.5834 19.2366C63.3762 19.2941 63.157 19.2941 62.9497 19.2366C60.1055 19.2366 57.2612 19.097 54.417 19.0737C51.2436 19.0737 48.0821 19.2483 44.9323 19.5276C43.6512 19.6439 42.3701 19.7487 41.089 19.8301C40.5762 19.945 40.0424 19.929 39.5376 19.7836C39.5376 19.4926 39.6786 19.4228 39.8667 19.3879C40.948 19.2133 42.041 19.0155 43.1223 18.8759C48.277 18.2634 53.4754 18.0921 58.6598 18.3638C60.2582 18.422 61.8567 18.6431 63.4551 18.7944C63.6314 18.7828 63.8077 18.8409 64.125 18.9108Z"/>
</mask>
<path d="M64.125 18.9108C63.978 19.0664 63.7907 19.1791 63.5834 19.2366C63.3762 19.2941 63.157 19.2941 62.9497 19.2366C60.1055 19.2366 57.2612 19.097 54.417 19.0737C51.2436 19.0737 48.0821 19.2483 44.9323 19.5276C43.6512 19.6439 42.3701 19.7487 41.089 19.8301C40.5762 19.945 40.0424 19.929 39.5376 19.7836C39.5376 19.4926 39.6786 19.4228 39.8667 19.3879C40.948 19.2133 42.041 19.0155 43.1223 18.8759C48.277 18.2634 53.4754 18.0921 58.6598 18.3638C60.2582 18.422 61.8567 18.6431 63.4551 18.7944C63.6314 18.7828 63.8077 18.8409 64.125 18.9108Z" fill="white"/>
<path d="M64.125 18.9108L64.8521 19.5974L66.0644 18.3136L64.3399 17.9341L64.125 18.9108ZM62.9497 19.2366L63.2168 18.273L63.0857 18.2366H62.9497V19.2366ZM54.417 19.0737L54.4252 18.0737H54.417V19.0737ZM44.9323 19.5276L44.8439 18.5315L44.8418 18.5317L44.9323 19.5276ZM41.089 19.8301L41.0255 18.8321L40.9471 18.8371L40.8704 18.8543L41.089 19.8301ZM39.5376 19.7836H38.5376V20.5362L39.2608 20.7445L39.5376 19.7836ZM39.8667 19.3879L39.7073 18.4007L39.6957 18.4026L39.6841 18.4047L39.8667 19.3879ZM43.1223 18.8759L43.0043 17.8828L42.9942 17.8841L43.1223 18.8759ZM58.6598 18.3638L58.6075 19.3624L58.6155 19.3629L58.6234 19.3632L58.6598 18.3638ZM63.4551 18.7944L63.3609 19.79L63.4408 19.7975L63.5209 19.7922L63.4551 18.7944ZM63.3979 18.2242C63.3767 18.2467 63.3487 18.264 63.3162 18.2729L63.8506 20.2002C64.2327 20.0943 64.5793 19.8862 64.8521 19.5974L63.3979 18.2242ZM63.3162 18.2729C63.2838 18.2819 63.2493 18.282 63.2168 18.273L62.6826 20.2003C63.0646 20.3062 63.4685 20.3062 63.8506 20.2002L63.3162 18.2729ZM62.9497 18.2366C61.5424 18.2366 60.1323 18.2021 58.7099 18.1642C57.2915 18.1265 55.8586 18.0855 54.4252 18.0737L54.4088 20.0737C55.8196 20.0852 57.231 20.1256 58.6567 20.1635C60.0786 20.2013 61.5128 20.2366 62.9497 20.2366V18.2366ZM54.417 18.0737C51.2074 18.0737 48.0155 18.2502 44.8439 18.5315L45.0206 20.5236C48.1487 20.2463 51.2799 20.0737 54.417 20.0737V18.0737ZM44.8418 18.5317C43.5664 18.6475 42.2948 18.7514 41.0255 18.8321L41.1525 20.8281C42.4453 20.7459 43.7359 20.6403 45.0227 20.5235L44.8418 18.5317ZM40.8704 18.8543C40.5213 18.9325 40.1579 18.9216 39.8144 18.8226L39.2608 20.7445C39.9269 20.9364 40.6311 20.9575 41.3076 20.8059L40.8704 18.8543ZM40.5376 19.7836C40.5376 19.7948 40.5323 20.0052 40.3352 20.2003C40.1696 20.3643 39.9956 20.3811 40.0492 20.3711L39.6841 18.4047C39.5497 18.4297 39.2111 18.4988 38.928 18.7791C38.6134 19.0906 38.5376 19.4815 38.5376 19.7836H40.5376ZM40.0261 20.3751C41.1329 20.1964 42.1899 20.0046 43.2504 19.8676L42.9942 17.8841C41.8921 18.0264 40.763 18.2303 39.7073 18.4007L40.0261 20.3751ZM43.2403 19.8689C48.3384 19.2631 53.4799 19.0937 58.6075 19.3624L58.7122 17.3652C53.4709 17.0905 48.2155 17.2637 43.0043 17.8828L43.2403 19.8689ZM58.6234 19.3632C60.1844 19.42 61.7036 19.6331 63.3609 19.79L63.5493 17.7988C62.0097 17.6531 60.3321 17.424 58.6962 17.3645L58.6234 19.3632ZM63.5209 19.7922C63.4765 19.7952 63.4621 19.7864 63.5351 19.8014C63.5717 19.809 63.6151 19.8191 63.6814 19.8347C63.7439 19.8495 63.822 19.868 63.9101 19.8874L64.3399 17.9341C64.253 17.915 64.0302 17.8614 63.9392 17.8427C63.8006 17.8141 63.6099 17.782 63.3892 17.7966L63.5209 19.7922Z" fill="white" mask="url(#path-14-inside-4)"/>
<path d="M66.201 33.995L66.1796 33.9932H66.1581H65.9432C65.7312 33.9455 65.5194 33.8982 65.3078 33.8508C63.8811 33.5316 62.4657 33.2149 61.0588 32.8468C60.7747 32.7669 60.5047 32.6451 60.2578 32.4856C60.2639 32.477 60.2706 32.4687 60.2777 32.4607C60.2962 32.4398 60.3176 32.4213 60.3411 32.4058C60.5074 32.3737 60.679 32.3779 60.8438 32.4185L60.8614 32.4228L60.8793 32.4258C62.6027 32.7193 64.3105 33.0204 66.0028 33.3291C66.1641 33.3723 66.3168 33.4419 66.4547 33.5347L66.4748 33.5482L66.4962 33.5598C66.5443 33.5858 66.5817 33.626 66.6036 33.6736C66.6255 33.721 66.6312 33.7739 66.6202 33.8245L67.1086 33.9313L66.6202 33.8245C66.6091 33.8751 66.5816 33.9217 66.5407 33.9568C66.507 33.9858 66.4658 34.0056 66.4213 34.014L66.201 33.995Z" fill="white" stroke="white"/>
<path d="M38.6439 33.4048L38.6288 33.4069L38.6138 33.41C38.2111 33.493 37.8074 33.5765 37.4038 33.66C36.0508 33.9399 34.6978 34.2199 33.3791 34.4792C33.2599 34.5012 33.1689 34.5095 33.1015 34.5093C33.0825 34.5092 33.0664 34.5085 33.053 34.5074C33.0566 34.4984 33.0625 34.4879 33.0714 34.4753C33.1027 34.431 33.1634 34.3781 33.2481 34.3362L33.2483 34.3361C33.797 34.064 34.3633 33.8284 34.9435 33.6306C35.9733 33.3129 37.0256 33.047 38.0834 32.7797C38.1272 32.7686 38.1711 32.7575 38.2149 32.7464C38.4087 32.7071 38.6049 32.6801 38.8022 32.6658C39.1568 32.6677 39.4083 32.7299 39.551 32.801C39.5845 32.8177 39.6073 32.8319 39.6226 32.843C39.6063 32.8709 39.5721 32.9176 39.5001 32.9822C39.3756 33.094 39.2001 33.2028 39.0151 33.2977C38.8972 33.3504 38.7722 33.3864 38.6439 33.4048ZM39.6505 32.8697C39.65 32.8698 39.6477 32.8674 39.6451 32.862C39.6498 32.8669 39.651 32.8696 39.6505 32.8697Z" fill="white" stroke="white"/>
<path d="M24.405 10.1369C24.3763 10.5315 24.2021 10.9029 23.914 11.1801C23.6271 11.456 23.2474 11.619 22.8465 11.6375C22.7253 11.6316 22.609 11.5901 22.5125 11.5187C22.4251 11.454 22.3578 11.3678 22.3168 11.2698C22.2854 10.8674 22.4086 10.4666 22.664 10.1485C22.9309 9.81609 23.3208 9.60064 23.7492 9.55089C23.8335 9.54206 23.9187 9.55111 23.9991 9.57734C24.08 9.60375 24.1538 9.64688 24.2159 9.70353C24.2779 9.76017 24.3266 9.82899 24.3591 9.90519C24.3904 9.97868 24.406 10.0576 24.405 10.1369Z" fill="white" stroke="white"/>
<path d="M81.2548 10.0731L81.2546 10.0731L81.2555 10.0865C81.2625 10.1973 81.2462 10.3083 81.2074 10.4127C81.1686 10.5171 81.1081 10.6127 81.0295 10.6932C80.9508 10.7738 80.8558 10.8375 80.7503 10.8801C80.6449 10.9226 80.5314 10.943 80.4173 10.9398C80.082 10.9299 79.7535 10.8452 79.4562 10.6923L79.4468 10.6875L79.4373 10.6831C79.3467 10.6413 79.2698 10.5765 79.2139 10.496C79.1581 10.4156 79.1254 10.3223 79.1185 10.2259C79.1117 10.1294 79.131 10.0327 79.1748 9.94568C79.2161 9.86354 79.278 9.79255 79.355 9.73962C79.6244 9.59597 79.9077 9.47947 80.2006 9.39188C81.0005 9.41312 81.2451 9.80891 81.2548 10.0731Z" fill="white" stroke="white"/>
<path d="M31.8219 51.6237C32.1814 50.9224 32.677 50.299 33.2796 49.7886C32.7991 50.4018 32.3092 51.0143 31.8219 51.6237Z" fill="white" stroke="white"/>
<path d="M68.9126 42.2133C68.6723 42.0869 68.4207 41.9546 68.1542 41.8242C68.1578 41.8217 68.1615 41.8193 68.1652 41.817C68.1925 41.8007 68.2236 41.791 68.2558 41.7892C68.2909 41.7958 68.3253 41.8057 68.3584 41.8188C68.4253 41.8493 68.4922 41.8797 68.5589 41.9101C69.2198 42.2109 69.873 42.5082 70.4985 42.8315C70.5318 42.8576 70.5628 42.8861 70.5914 42.9167L70.563 42.9175C70.3422 42.8695 70.1262 42.8019 69.9176 42.7156C69.6234 42.5835 69.3431 42.4393 69.0496 42.2853C69.0043 42.2616 68.9586 42.2376 68.9126 42.2133ZM70.89 43.0707L70.8865 43.0687L70.8865 43.0687L70.89 43.0707Z" fill="white" stroke="white"/>
<path d="M69.3758 51.2568C68.8093 50.6702 68.2498 50.0688 67.6967 49.4647C68.326 49.9948 68.8896 50.5964 69.3758 51.2568Z" fill="white" stroke="white"/>
<path d="M70.1164 46.6952C70.122 46.7028 70.1276 46.7104 70.1331 46.718C70.0717 46.7276 70.0089 46.7251 69.9483 46.7103C69.3502 46.3098 68.7653 45.879 68.1753 45.4375C68.54 45.6141 68.8944 45.811 69.2367 46.0273C69.545 46.2298 69.8389 46.453 70.1164 46.6952Z" fill="white" stroke="white"/>
<path d="M31.5282 42.6727C31.5563 42.678 31.5844 42.6836 31.6123 42.6896C31.5821 42.717 31.5485 42.7409 31.5121 42.7608C30.8472 43.0633 30.187 43.3635 29.5181 43.6526C30.1119 43.1954 30.7955 42.8611 31.5282 42.6727Z" fill="white" stroke="white"/>
<path d="M30.2793 47.1809C30.6484 46.8576 31.0421 46.5637 31.4566 46.3019C31.0914 46.6282 30.6975 46.9224 30.2793 47.1809Z" fill="white" stroke="white"/>
</g>
<defs>
<clipPath id="clip0">
<rect width="95" height="157" fill="white"/>
</clipPath>
</defs>
</svg>
