<svg width="13" height="13" viewBox="0 0 13 13" fill="none" xmlns="http://www.w3.org/2000/svg">
<path d="M10.9573 8.6481C10.9573 11.1522 8.6912 12.0014 6.18709 12.0014C3.68299 12.0014 1.88916 11.1522 1.88916 8.6481C1.88916 6.14399 3.91914 4.11401 6.42324 4.11401C8.92735 4.11401 10.9573 6.14399 10.9573 8.6481Z" fill="#24876B"/>
<path d="M2.82165 3.98245C2.91415 5.0143 2.34754 5.7982 1.57114 5.90139C0.794752 6.00458 0.102586 5.38798 0.0100818 4.35613C-0.0824225 3.32428 0.471978 2.40415 1.24837 2.30096C2.02476 2.19777 2.72914 2.9506 2.82165 3.98245Z" fill="#24876B"/>
<path d="M12.2347 4.68919C11.8238 5.58566 11.0676 5.86906 10.4789 5.46819C9.89026 5.06732 9.69194 4.13397 10.1029 3.23751C10.5139 2.34104 11.3243 1.93928 11.913 2.34015C12.5017 2.74102 12.6457 3.79273 12.2347 4.68919Z" fill="#24876B"/>
<path d="M5.70983 1.79898C5.76002 2.7585 5.21727 3.45572 4.50573 3.51253C3.7942 3.56934 3.18333 2.96423 3.13314 2.00471C3.08295 1.04518 3.61907 0.221283 4.3306 0.164473C5.04214 0.107663 5.65963 0.839457 5.70983 1.79898Z" fill="#24876B"/>
<path d="M9.38498 1.74693C9.439 2.76751 8.87678 3.50737 8.13802 3.56566C7.39925 3.62395 6.76371 2.9786 6.70969 1.95801C6.65566 0.937423 7.21076 0.0628194 7.94952 0.0045299C8.68828 -0.0537595 9.33096 0.726338 9.38498 1.74693Z" fill="#24876B"/>
</svg>
