<svg width="130" height="130" viewBox="0 0 130 130" fill="none" xmlns="http://www.w3.org/2000/svg">
<g clip-path="url(#clip0)">
<path d="M120.289 41.4647L67.4758 0.839145C66.0158 -0.279715 63.9845 -0.279715 62.5245 0.839145L9.71117 41.4647C8.33047 42.5279 7.77912 44.349 8.34229 45.9955C8.90172 47.6421 10.4491 48.7488 12.1868 48.7488H16.6343L24.3945 126.342C24.6007 128.417 26.3505 130 28.4371 130H101.563C103.65 130 105.4 128.417 105.606 126.342L113.366 48.7488H117.814C119.551 48.7488 121.099 47.6418 121.658 45.9955C122.221 44.349 121.67 42.5279 120.289 41.4647ZM48.7499 121.875V97.4997C48.7499 88.5376 56.038 81.2494 65.0002 81.2494C73.9623 81.2494 81.2505 88.5376 81.2505 97.4997V121.875H48.7499ZM105.646 44.2815L97.8854 121.875H89.3755V97.4997C89.3755 84.0584 78.4415 73.1244 65.0002 73.1244C51.5588 73.1244 40.6249 84.0584 40.6249 97.4997V121.875H32.1149L24.3547 44.2815C24.2437 43.1825 23.7041 42.2225 22.9105 41.5639L65.0002 9.18647L107.09 41.5639C106.296 42.2225 105.757 43.1825 105.646 44.2815Z" fill="white"/>
<path d="M48.7495 40.6235C44.2703 40.6235 40.6245 44.2696 40.6245 48.7485C40.6245 50.2602 41.1516 51.5976 41.8737 52.811C41.1516 54.0245 40.6245 55.3619 40.6245 56.8735C40.6245 61.3527 44.2706 64.9985 48.7495 64.9985C53.2284 64.9985 56.8745 61.3524 56.8745 56.8735H73.1248C73.1248 61.3527 76.7709 64.9985 81.2498 64.9985C85.7287 64.9985 89.3748 61.3524 89.3748 56.8735C89.3748 55.3619 88.8477 54.0245 88.1256 52.811C88.8477 51.5976 89.3748 50.2602 89.3748 48.7485C89.3748 44.2693 85.7287 40.6235 81.2498 40.6235C76.7709 40.6235 73.1248 44.2696 73.1248 48.7485H56.8745C56.8748 44.2696 53.2287 40.6235 48.7495 40.6235Z" fill="white"/>
</g>
<defs>
<clipPath id="clip0">
<rect width="130" height="130" fill="white"/>
</clipPath>
</defs>
</svg>
