<svg width="20" height="20" viewBox="0 0 20 20" fill="none" xmlns="http://www.w3.org/2000/svg">
<g clip-path="url(#clip0)">
<path d="M19.6116 15.9032L17.3944 14.4249L15.4233 13.1112C15.043 12.8581 14.5317 12.9411 14.2509 13.3015L13.0313 14.8694C12.7693 15.2097 12.298 15.3074 11.9223 15.0994C11.0948 14.6391 10.1161 14.2056 7.95686 12.0436C5.79759 9.88156 5.36138 8.90571 4.90104 8.07815C4.69303 7.70245 4.7908 7.23116 5.13104 6.96921L6.69895 5.74958C7.05937 5.4688 7.14238 4.9576 6.8893 4.57717L5.61587 2.66684L4.09726 0.388902C3.83878 0.00117267 3.32137 -0.115232 2.92176 0.124413L1.17038 1.1751C0.697063 1.45397 0.349137 1.90427 0.19867 2.43267C-0.28027 4.17886 -0.376831 8.03088 5.79654 14.2042C11.9699 20.3776 15.8216 20.2807 17.5678 19.8018C18.0962 19.6513 18.5465 19.3034 18.8253 18.83L19.876 17.0787C20.1157 16.6791 19.9993 16.1617 19.6116 15.9032Z" fill="white"/>
<path d="M11.379 3.1034C14.615 3.10699 17.2374 5.72938 17.241 8.9654C17.241 9.15583 17.3954 9.31024 17.5858 9.31024C17.7763 9.31024 17.9307 9.15587 17.9307 8.9654C17.9267 5.34869 14.9957 2.41774 11.379 2.41376C11.1886 2.41376 11.0342 2.56813 11.0342 2.7586C11.0341 2.94899 11.1885 3.1034 11.379 3.1034Z" fill="white"/>
<path d="M11.379 5.17228C13.4729 5.17475 15.1696 6.87152 15.1721 8.96533C15.1721 9.15575 15.3264 9.31017 15.5169 9.31017C15.7073 9.31017 15.8617 9.15579 15.8617 8.96533C15.8589 6.49078 13.8536 4.48546 11.379 4.4826C11.1886 4.4826 11.0342 4.63698 11.0342 4.82744C11.0342 5.01791 11.1886 5.17228 11.379 5.17228Z" fill="white"/>
<path d="M11.379 7.24128C12.3307 7.24241 13.102 8.01365 13.1031 8.9654C13.1031 9.15582 13.2575 9.31024 13.4479 9.31024C13.6384 9.31024 13.7928 9.15586 13.7928 8.9654C13.7913 7.63295 12.7115 6.55316 11.379 6.55164C11.1886 6.55164 11.0342 6.70601 11.0342 6.89647C11.0341 7.0869 11.1885 7.24128 11.379 7.24128Z" fill="white"/>
</g>
<defs>
<clipPath id="clip0">
<rect width="20" height="20" fill="white"/>
</clipPath>
</defs>
</svg>
