<svg width="70" height="96" viewBox="0 0 70 96" fill="none" xmlns="http://www.w3.org/2000/svg">
<path d="M34.9995 0C15.8286 0 0.231934 15.5966 0.231934 34.7674C0.231934 58.5589 31.3455 93.4862 32.6702 94.9614C33.9144 96.3473 36.0868 96.3448 37.3288 94.9614C38.6535 93.4862 69.7671 58.5589 69.7671 34.7674C69.7667 15.5966 54.1702 0 34.9995 0ZM34.9995 52.2598C25.3541 52.2598 17.5072 44.4128 17.5072 34.7674C17.5072 25.122 25.3543 17.2751 34.9995 17.2751C44.6447 17.2751 52.4916 25.1222 52.4916 34.7676C52.4916 44.4129 44.6447 52.2598 34.9995 52.2598Z" fill="#06C690"/>
</svg>
