<?xml version="1.0" encoding="UTF-8" standalone="no"?>
<!DOCTYPE svg PUBLIC "-//W3C//DTD SVG 1.1//EN" "http://www.w3.org/Graphics/SVG/1.1/DTD/svg11.dtd">
<svg width="100%" height="100%" viewBox="0 0 223 562" version="1.1" xmlns="http://www.w3.org/2000/svg" xmlns:xlink="http://www.w3.org/1999/xlink" xml:space="preserve" xmlns:serif="http://www.serif.com/" style="fill-rule:evenodd;clip-rule:evenodd;stroke-linejoin:round;stroke-miterlimit:2;">
    <g id="Artboard1" transform="matrix(0.512644,0,0,1,0,0)">
        <rect x="0" y="0" width="435" height="562" style="fill:none;"/>
        <clipPath id="_clip1">
            <rect x="0" y="0" width="435" height="562"/>
        </clipPath>
        <g clip-path="url(#_clip1)">
            <g transform="matrix(1.95067,0,0,1,-339.417,0)">
                <clipPath id="_clip2">
                    <rect x="172" y="-1" width="226" height="541"/>
                </clipPath>
                <g clip-path="url(#_clip2)">
                    <path d="M556.963,668.841C555.655,673.209 559.806,673.806 562.134,678.082C562.614,678.957 563.331,679.698 564.22,680.239C565.11,680.78 566.144,681.103 567.229,681.178C568.178,681.278 569.15,681.175 570.068,680.876C570.986,680.577 571.826,680.09 572.52,679.455C573.215,678.82 573.747,678.053 574.073,677.215C574.398,676.377 574.51,675.49 574.398,674.625C574.203,672.907 574.591,671.15 575.51,669.59C575.969,668.827 576.246,667.991 576.323,667.138C576.399,666.285 576.273,665.436 575.953,664.649C575.633,663.862 575.126,663.155 574.468,662.578C573.81,662 573.016,661.566 572.141,661.303C571.165,661.058 570.125,661.048 569.119,661.273C568.114,661.498 567.176,661.952 566.394,662.59C562.243,665.702 558.358,664.476 556.963,668.841ZM551.722,678.082C547.746,679.079 544.853,681.108 549.249,683.459C553.645,685.81 557.224,685.604 559.21,684.365C560.033,683.873 560.694,683.181 561.114,682.373C561.534,681.564 561.695,680.673 561.577,679.807C560.744,677.407 555.656,677.148 551.722,678.082ZM552.246,668.923C549.984,668.057 540.309,665.137 541.463,671.165C541.66,672.141 542.081,673.059 542.699,673.86C543.316,674.661 544.117,675.327 545.049,675.816C546.041,676.352 547.158,676.681 548.324,676.782C549.49,676.882 550.678,676.752 551.807,676.399C556.915,674.94 556.316,670.435 552.246,668.923ZM557.883,658.661C560.494,661.025 564.875,662.868 566.705,660.901C568.535,658.933 568.645,652.18 559.042,653.026C554.471,653.353 555.271,656.298 557.91,658.655L557.883,658.661ZM557.031,660.23C556.367,659.484 555.532,658.881 554.58,658.46C553.628,658.04 552.58,657.811 551.504,657.788C550.428,657.766 549.349,657.951 548.335,658.331C547.322,658.711 546.397,659.278 545.622,659.995C540.593,664.349 550.381,666.705 552.876,666.924C557.486,667.201 560.312,663.449 557.057,660.224L557.031,660.23ZM519.969,637.062C519.956,636.396 519.72,635.76 519.294,635.236C518.868,634.713 518.271,634.327 517.583,634.131C515.938,633.402 514.136,632.985 512.279,632.902C508.576,632.731 505.35,633.999 508.13,637.369C510.91,640.739 514.023,641.493 516.222,640.763C517.141,640.485 517.974,639.996 518.641,639.345C519.308,638.693 519.784,637.902 520.023,637.049L519.969,637.062ZM524.672,615.91C525.954,618.964 529.128,621.647 531.448,620.273C533.768,618.899 536.101,612.406 527.73,610.719C523.705,609.835 523.342,612.892 524.672,615.91ZM511.083,621.31C508.964,620.562 506.857,620.757 506.23,623.779C506,624.726 506.003,625.698 506.239,626.624C506.475,627.55 506.938,628.407 507.594,629.13C508.25,629.853 509.083,630.426 510.031,630.805C510.979,631.185 512.018,631.362 513.072,631.323C513.995,631.387 514.93,631.173 515.735,630.714C516.54,630.255 517.171,629.575 517.532,628.778C517.893,627.982 517.964,627.111 517.734,626.3C517.505,625.489 516.987,624.781 516.26,624.283C514.773,623.002 513.027,621.992 511.109,621.303L511.083,621.31ZM520.192,625.472C519.635,626.16 519.278,626.96 519.155,627.794C519.032,628.627 519.148,629.465 519.491,630.226C520.319,631.897 520.848,633.689 521.059,635.536C521.113,636.457 521.424,637.339 521.964,638.099C522.503,638.859 523.253,639.471 524.142,639.879C524.985,640.189 525.904,640.319 526.829,640.258C527.754,640.198 528.662,639.948 529.486,639.528C530.309,639.108 531.027,638.528 531.586,637.831C532.145,637.135 532.53,636.34 532.713,635.506C533.174,633.81 534.146,632.245 535.517,630.992C536.186,630.41 536.723,629.714 537.093,628.948C537.464,628.181 537.66,627.36 537.671,626.537C537.681,625.713 537.505,624.905 537.153,624.161C536.802,623.418 536.283,622.757 535.628,622.218C534.905,621.702 534.027,621.388 533.095,621.314C532.163,621.24 531.215,621.408 530.358,621.799C525.856,623.746 522.946,621.662 520.219,625.465L520.192,625.472ZM517.541,622.505C518.328,622.908 519.25,623.057 520.166,622.928C521.082,622.8 521.94,622.401 522.607,621.794C523.275,621.187 523.715,620.405 523.858,619.57C524.002,618.735 523.842,617.893 523.402,617.174C523.13,616.316 522.644,615.536 521.979,614.894C521.314,614.252 520.489,613.764 519.568,613.469C518.647,613.174 517.653,613.078 516.664,613.191C515.675,613.303 514.717,613.62 513.863,614.117C510.997,615.577 511.343,617.51 512.724,619.159C514.088,620.542 515.73,621.674 517.568,622.498L517.541,622.505ZM463.041,618.028C464.655,621.051 468.087,624.078 470.499,622.732C472.912,621.386 475.357,614.891 466.058,612.899C461.617,611.94 461.426,615.006 463.068,618.022L463.041,618.028ZM455.619,624.594C459.616,626.15 463.647,623.35 461.718,619.306C461.343,618.412 460.764,617.608 460.018,616.946C459.271,616.283 458.374,615.777 457.383,615.46C456.392,615.142 455.329,615.021 454.263,615.102C453.197,615.184 452.15,615.467 451.191,615.934C445.117,618.734 453.364,623.752 455.646,624.587L455.619,624.594ZM458.647,627.595C455.931,631.446 459.546,633.175 460.059,637.906C460.178,638.874 460.564,639.787 461.181,640.562C461.799,641.337 462.627,641.949 463.591,642.34C464.443,642.697 465.383,642.868 466.338,642.84C467.293,642.812 468.24,642.586 469.105,642.18C469.97,641.773 470.732,641.196 471.332,640.493C471.932,639.79 472.356,638.979 472.57,638.121C472.992,636.417 473.987,634.852 475.413,633.649C476.119,633.06 476.682,632.343 477.065,631.549C477.447,630.755 477.639,629.903 477.626,629.051C477.614,628.2 477.398,627.37 476.993,626.619C476.588,625.869 476.004,625.215 475.282,624.705C474.466,624.176 473.504,623.855 472.489,623.773C471.474,623.691 470.441,623.851 469.489,624.238C464.799,626.002 461.402,623.784 458.662,627.54L458.647,627.595ZM454.305,626.355C452.447,624.954 444.53,619.444 443.532,625.602C443.381,626.616 443.465,627.638 443.779,628.6C444.092,629.562 444.628,630.444 445.351,631.187C446.075,631.93 446.969,632.518 447.976,632.913C448.983,633.307 450.08,633.5 451.195,633.477C456.495,633.454 457.541,628.946 454.332,626.349L454.305,626.355ZM458.996,639.425C459.136,636.833 454.557,635.218 450.562,635.017C446.568,634.816 443.249,636.056 446.446,639.501C449.642,642.945 452.94,643.756 455.216,643.109C456.153,642.871 457.008,642.397 457.682,641.744C458.356,641.09 458.821,640.284 459.023,639.419L458.996,639.425ZM445.304,567.23C445.72,570.451 447.798,574.073 450.362,573.328C452.927,572.584 457.238,566.848 449.701,562.957C446.137,561.088 444.909,563.979 445.331,567.223L445.304,567.23ZM438.198,575.379C434.432,578.445 437.144,580.758 435.947,585.457C435.679,586.366 435.679,587.313 435.947,588.199C436.216,589.085 436.744,589.878 437.475,590.496C438.18,591.012 439.01,591.373 439.904,591.553C440.798,591.733 441.734,591.727 442.645,591.535C443.555,591.344 444.417,590.972 445.168,590.446C445.919,589.921 446.54,589.255 446.986,588.497C447.975,586.994 449.391,585.754 451.075,584.914C451.903,584.526 452.642,583.988 453.243,583.334C453.844,582.681 454.295,581.926 454.566,581.119C454.838,580.312 454.924,579.47 454.82,578.647C454.716,577.824 454.423,577.038 453.96,576.34C453.394,575.661 452.634,575.138 451.758,574.824C450.882,574.509 449.92,574.414 448.968,574.547C444.078,575.184 442.002,572.354 438.198,575.379ZM436.515,571.862C437.149,572.44 437.981,572.805 438.886,572.903C439.792,573.002 440.722,572.827 441.536,572.407C442.351,571.987 443.007,571.343 443.405,570.572C443.803,569.801 443.922,568.945 443.745,568.132C443.763,567.205 443.548,566.297 443.115,565.478C442.682,564.658 442.043,563.95 441.247,563.407C440.452,562.865 439.521,562.503 438.528,562.349C437.534,562.195 436.504,562.254 435.518,562.521C429.101,564.078 434.862,570.486 436.515,571.862ZM434.765,573.247C433.707,571.415 428.359,564.622 425.478,570.178C424.983,571.052 424.7,572.006 424.649,572.972C424.598,573.938 424.78,574.893 425.183,575.768C425.585,576.643 426.198,577.418 426.978,578.037C427.758,578.656 428.685,579.105 429.695,579.351C430.553,579.613 431.493,579.614 432.378,579.353C433.263,579.092 434.046,578.583 434.613,577.9C435.18,577.218 435.5,576.398 435.528,575.56C435.555,574.723 435.288,573.912 434.765,573.247ZM434.455,586.624C435.525,584.233 431.903,581.688 428.405,580.646C424.908,579.604 421.554,579.805 423.136,583.936C426.696,592.302 433.541,588.848 434.455,586.624ZM376.901,558.821C380.199,561.319 384.9,559.374 384.184,555.078C384.097,554.109 383.782,553.178 383.263,552.347C382.743,551.516 382.029,550.804 381.169,550.26C380.309,549.715 379.322,549.35 378.275,549.188C377.228,549.027 376.145,549.073 375.098,549.324C368.366,550.755 375.016,557.426 376.901,558.821ZM375.882,574.114C376.822,571.654 372.843,569.045 369.075,567.943C365.307,566.841 361.93,567.176 363.875,571.394C368.293,579.903 375.049,576.318 375.882,574.114ZM375.234,560.313C373.992,558.424 367.755,551.368 365.181,557.128C364.774,558.087 364.588,559.104 364.634,560.112C364.68,561.121 364.957,562.099 365.448,562.985C365.939,563.872 366.632,564.645 367.484,565.257C368.336,565.869 369.327,566.305 370.394,566.538C375.184,567.64 377.349,563.517 375.109,560.267L375.234,560.313ZM385.842,554.228C386.674,557.523 389.025,561.102 391.72,560.427C394.415,559.752 398.583,553.899 390.181,549.841C386.176,547.801 385.08,550.761 385.717,554.182L385.842,554.228ZM379.003,562.54C375.309,565.665 378.337,568.103 377.443,572.879C377.251,573.847 377.334,574.831 377.682,575.738C378.03,576.646 378.633,577.444 379.432,578.058C380.158,578.57 381.007,578.923 381.918,579.093C382.828,579.262 383.778,579.245 384.7,579.041C385.621,578.836 386.492,578.451 387.249,577.912C388.006,577.373 388.631,576.694 389.079,575.923C390.023,574.399 391.44,573.152 393.141,572.347C393.982,571.948 394.725,571.388 395.316,570.708C395.907,570.027 396.333,569.243 396.562,568.411C396.791,567.579 396.818,566.72 396.641,565.895C396.464,565.07 396.088,564.3 395.539,563.639C394.92,562.93 394.107,562.385 393.175,562.054C392.243,561.724 391.222,561.62 390.21,561.752C385.05,562.329 382.717,559.384 378.878,562.494L379.003,562.54ZM373.28,502.798C373.695,503.56 374.389,504.159 375.247,504.497C376.105,504.835 377.078,504.893 378.006,504.66C378.934,504.428 379.763,503.919 380.359,503.216C380.954,502.514 381.281,501.659 381.285,500.792C381.553,499.862 381.58,498.899 381.365,497.979C381.15,497.059 380.698,496.208 380.046,495.496C379.394,494.783 378.56,494.228 377.611,493.876C376.662,493.524 375.625,493.384 374.584,493.468C368.025,493.45 371.903,500.943 373.155,502.752L373.28,502.798ZM382.95,500.196C382.503,503.479 383.544,507.489 386.227,507.328C388.91,507.167 394.602,502.519 388.291,496.965C386.77,495.658 385.597,495.619 384.671,496.337C383.593,497.392 382.94,498.742 382.825,500.15L382.95,500.196ZM373.934,506.624C369.492,508.811 371.48,511.74 369.099,516.019C368.618,516.862 368.376,517.793 368.397,518.724C368.419,519.654 368.702,520.553 369.221,521.334C369.763,521.993 370.464,522.527 371.274,522.899C372.083,523.271 372.982,523.471 373.904,523.484C374.827,523.497 375.751,523.324 376.611,522.976C377.47,522.628 378.243,522.115 378.875,521.472C380.244,520.17 381.984,519.245 383.878,518.812C384.754,518.595 385.581,518.216 386.305,517.701C387.029,517.185 387.636,516.543 388.086,515.815C388.536,515.087 388.821,514.29 388.922,513.472C389.024,512.654 388.939,511.834 388.674,511.063C388.315,510.275 387.732,509.596 386.983,509.093C386.234,508.59 385.345,508.28 384.403,508.195C379.513,507.706 378.268,504.463 373.809,506.578L373.934,506.624ZM363.146,509.634C360.163,507.823 356.904,507.387 357.228,511.705C358.372,520.728 365.911,518.787 367.376,516.835C368.841,514.882 366.063,511.409 363.021,509.588L363.146,509.634ZM371.07,503.71C370.553,501.665 367.181,493.815 362.87,498.654C362.189,499.404 361.688,500.271 361.4,501.196C361.112,502.122 361.044,503.084 361.201,504.017C361.359,504.949 361.737,505.83 362.311,506.599C362.885,507.367 363.64,508.006 364.526,508.469C368.686,510.675 372.061,507.297 371.07,503.71ZM320.362,480.994C316.004,483.288 318.281,486.349 316.154,490.846C315.716,491.75 315.542,492.732 315.65,493.693C315.758,494.654 316.144,495.56 316.769,496.319C317.322,497.001 318.041,497.553 318.874,497.935C319.708,498.318 320.633,498.52 321.583,498.528C322.533,498.535 323.483,498.348 324.362,497.979C325.241,497.61 326.028,497.07 326.663,496.397C327.938,495.059 329.617,494.094 331.469,493.633C332.378,493.42 333.234,493.03 333.977,492.49C334.72,491.95 335.332,491.273 335.769,490.507C336.206,489.742 336.458,488.906 336.507,488.059C336.556,487.212 336.401,486.374 336.053,485.604C335.626,484.779 334.975,484.072 334.16,483.549C333.344,483.026 332.389,482.702 331.38,482.606C326.33,482.158 324.631,478.799 320.362,480.994ZM329.08,474.283C328.921,477.698 330.316,481.876 333.086,481.719C335.855,481.562 341.365,476.754 334.337,470.945C330.913,468.171 329.122,470.743 328.946,474.316L329.08,474.283ZM317.26,478.037C316.506,475.95 312.427,467.663 308.448,472.803C307.799,473.652 307.349,474.609 307.128,475.61C306.907,476.611 306.92,477.634 307.167,478.61C307.413,479.586 307.887,480.493 308.557,481.271C309.227,482.049 310.078,482.68 311.053,483.122C315.306,485.356 318.54,481.758 317.127,478.071L317.26,478.037ZM309.542,484.217C306.267,482.48 302.734,482.086 303.679,486.504C305.677,495.876 313.067,493.794 314.475,491.727C315.883,489.661 312.721,486.131 309.409,484.25L309.542,484.217ZM319.3,477.015C321.927,480.116 326.834,479.321 327.269,474.864C327.419,473.896 327.345,472.919 327.051,471.998C326.758,471.077 326.251,470.232 325.565,469.518C324.879,468.804 324.028,468.238 323.068,467.856C322.109,467.474 321.062,467.285 319.996,467.301C313.158,467.301 317.755,475.279 319.167,477.048L319.3,477.015ZM329.767,420.94C330.013,421.742 330.545,422.435 331.282,422.913C332.019,423.39 332.919,423.626 333.844,423.583C334.769,423.541 335.667,423.222 336.401,422.676C337.134,422.131 337.661,421.388 337.901,420.564C338.402,419.644 338.641,418.632 338.596,417.627C338.551,416.622 338.223,415.656 337.642,414.823C336.68,413.44 335.167,412.46 333.402,412.075C326.993,410.74 328.703,419.084 329.634,420.973L329.767,420.94ZM320.065,424.88C320.665,425.499 321.48,425.914 322.386,426.061C323.291,426.207 324.239,426.078 325.084,425.693C325.93,425.307 326.628,424.687 327.072,423.925C327.516,423.163 327.683,422.301 327.546,421.471C327.336,419.401 326.207,410.886 320.87,414.806C319.983,415.383 319.242,416.129 318.7,416.988C318.158,417.847 317.829,418.797 317.739,419.769C317.649,420.74 317.8,421.707 318.179,422.597C318.559,423.488 319.158,424.279 319.932,424.913L320.065,424.88ZM339.755,420.381C338.508,423.532 338.384,427.757 341.067,428.159C343.75,428.561 350.243,425.169 345.7,418.303C343.434,415.06 340.89,417.232 339.622,420.414L339.755,420.381ZM318.371,425.585C315.86,423.171 312.654,422.159 312.117,426.437C311.037,435.531 318.625,435.241 320.566,433.603C322.508,431.966 320.722,428.04 318.211,425.626L318.371,425.585ZM329.537,424.859C324.734,426.063 325.884,429.381 322.487,433.122C321.808,433.841 321.345,434.706 321.148,435.624C320.95,436.542 321.025,437.48 321.365,438.339C321.703,439.11 322.231,439.794 322.909,440.34C323.587,440.886 324.398,441.28 325.283,441.493C326.167,441.706 327.102,441.732 328.019,441.57C328.936,441.408 329.81,441.062 330.579,440.557C332.16,439.588 333.996,439.048 335.861,439.003C336.778,438.996 337.692,438.814 338.544,438.469C339.397,438.124 340.17,437.624 340.814,437.001C341.458,436.377 341.958,435.644 342.282,434.849C342.607,434.053 342.75,433.212 342.7,432.379C342.564,431.512 342.167,430.708 341.551,430.054C340.936,429.4 340.126,428.923 339.211,428.675C334.476,427.228 334.266,423.7 329.323,424.913L329.537,424.859ZM294.095,383.945C292.994,387.341 293.462,391.776 296.148,392.075C297.087,392.084 298.024,391.871 298.869,391.458C299.714,391.045 300.438,390.445 300.971,389.716C302.232,387.968 302.532,385.335 299.97,381.706C297.408,378.077 295.014,380.62 293.881,383.999L294.095,383.945ZM272.887,389.848C270.218,387.371 266.932,386.378 266.66,390.922C266.389,395.466 268.44,397.97 270.416,398.83C271.286,399.199 272.262,399.335 273.236,399.222C274.21,399.109 275.142,398.751 275.93,398.19C277.576,396.396 275.3,392.44 272.646,389.908L272.887,389.848ZM284.096,384.686C285.796,388.275 290.726,388.472 292.273,384.146C292.657,383.215 292.821,382.23 292.756,381.256C292.69,380.282 292.396,379.342 291.893,378.499C291.39,377.656 290.689,376.929 289.839,376.368C288.988,375.807 288.007,375.425 286.961,375.247C280.178,374.005 282.894,382.737 283.855,384.746L284.096,384.686ZM288.819,389.794C288.154,389.241 287.33,388.869 286.432,388.716C285.535,388.563 284.598,388.635 283.719,388.924C278.911,390.333 280.376,393.777 277.432,397.737C276.573,398.871 276.168,400.227 276.287,401.565C276.407,402.903 277.044,404.137 278.086,405.049C279.128,405.96 280.508,406.491 281.981,406.546C283.454,406.601 284.926,406.178 286.136,405.351C287.673,404.307 289.502,403.706 291.376,403.629C292.309,403.593 293.233,403.374 294.083,402.986C294.933,402.599 295.69,402.052 296.303,401.384C296.915,400.716 297.368,399.942 297.631,399.115C297.894,398.287 297.961,397.426 297.827,396.59C297.629,395.685 297.174,394.854 296.506,394.179C295.838,393.503 294.98,393.006 294.017,392.737C292.102,392.036 290.345,391.041 288.819,389.794ZM281.65,385.452C281.43,383.231 279.289,374.305 274.242,378.587C273.431,379.301 272.784,380.154 272.345,381.093C271.905,382.032 271.682,383.035 271.689,384.038C271.696,385.041 271.934,386.021 272.387,386.916C272.841,387.811 273.499,388.6 274.32,389.233C278.066,392.156 282.025,389.297 281.65,385.452ZM294.955,333.986C293.072,331.133 290.358,329.486 288.736,333.626C285.635,342.357 293.056,343.541 295.302,342.211C297.548,340.881 296.848,336.76 294.931,333.89L294.955,333.986ZM296.77,333.531C297.216,334.253 297.916,334.811 298.762,335.121C299.608,335.431 300.555,335.476 301.46,335.25C302.365,335.023 303.178,334.537 303.776,333.865C304.374,333.193 304.725,332.371 304.775,331.525C305.182,329.428 305.974,320.765 299.945,323.631C298.959,324.051 298.079,324.662 297.366,325.419C296.653,326.175 296.125,327.059 295.822,328.006C295.518,328.953 295.446,329.94 295.61,330.895C295.774,331.851 296.17,332.751 296.77,333.531ZM316.429,340.932C318.678,341.75 326.087,339.74 323.155,332.06C321.753,328.422 318.85,330.07 316.913,332.959C314.975,335.849 313.986,339.908 316.429,340.932ZM305.926,335.406C301.004,335.692 301.196,339.148 297.238,342.237C296.413,342.819 295.757,343.578 295.334,344.442C294.91,345.305 294.734,346.243 294.822,347.165C294.978,347.992 295.335,348.768 295.869,349.436C296.403,350.105 297.099,350.65 297.908,351.03C298.716,351.411 299.616,351.618 300.541,351.636C301.467,351.655 302.396,351.485 303.259,351.138C305.048,350.512 306.968,350.34 308.809,350.642C309.692,350.822 310.616,350.828 311.52,350.659C312.424,350.489 313.287,350.149 314.053,349.66C314.82,349.171 315.471,348.544 315.965,347.821C316.46,347.098 316.785,346.294 316.921,345.464C316.987,344.586 316.799,343.718 316.376,342.949C315.952,342.179 315.308,341.535 314.509,341.081C310.421,338.601 310.841,335.095 305.901,335.309L305.926,335.406ZM307.095,331.609C307.163,332.443 307.528,333.222 308.135,333.827C308.742,334.432 309.558,334.831 310.46,334.964C311.362,335.096 312.301,334.954 313.135,334.56C313.968,334.166 314.651,333.541 315.08,332.779C315.697,332.027 316.131,331.167 316.349,330.261C316.567,329.355 316.564,328.426 316.34,327.54C316.117,326.655 315.678,325.834 315.055,325.139C314.433,324.444 313.643,323.89 312.741,323.519C306.954,320.826 306.714,329.428 307.071,331.513L307.095,331.609ZM260.675,289.584C263.534,293.266 268.086,291.179 268.589,287.217C268.847,284.979 268.742,275.798 262.935,279.094C261.99,279.644 261.174,280.364 260.54,281.208C259.906,282.051 259.468,282.999 259.255,283.989C259.042,284.979 259.058,285.989 259.303,286.953C259.547,287.917 260.015,288.814 260.675,289.584ZM258.834,290.045C256.813,287.099 253.865,285.536 252.595,289.946C251.325,294.356 252.559,297.218 254.448,298.407C255.193,298.922 256.09,299.231 257.039,299.301C257.989,299.37 258.953,299.196 259.825,298.799C262.26,297.32 260.941,292.995 258.947,290.042L258.834,290.045ZM280.765,288.13C279.868,289.711 279.335,291.43 279.202,293.177C279.082,293.847 279.185,294.525 279.497,295.122C279.81,295.719 280.318,296.207 280.955,296.522C281.873,296.741 282.849,296.733 283.786,296.498C284.723,296.263 285.587,295.811 286.292,295.185C287.204,294.341 287.78,293.247 287.922,292.091C288.126,290.398 287.855,288.705 287.135,287.174C285.431,283.125 282.636,284.976 280.878,288.128L280.765,288.13ZM274.619,292.893C274.105,292.227 273.395,291.709 272.567,291.395C271.738,291.08 270.821,290.98 269.912,291.106C268.98,291.15 268.067,291.421 267.267,291.891C266.467,292.362 265.811,293.014 265.366,293.779C264.444,295.551 263.219,297.188 261.739,298.627C260.648,299.584 259.948,300.847 259.762,302.192C259.577,303.537 259.919,304.875 260.726,305.969C261.534,307.063 262.756,307.841 264.173,308.164C265.59,308.487 267.111,308.335 268.465,307.734C270.205,307.011 272.117,306.764 273.96,307.022C274.871,307.169 275.815,307.133 276.728,306.914C277.641,306.695 278.499,306.3 279.245,305.755C279.99,305.211 280.604,304.53 281.044,303.761C281.484,302.991 281.74,302.151 281.793,301.3C281.788,300.39 281.53,299.508 281.042,298.735C280.554,297.963 279.852,297.325 279.003,296.884C277.34,295.783 275.897,294.435 274.732,292.89L274.619,292.893ZM270.863,287.005C271.828,290.83 276.404,291.985 278.912,287.981C279.488,287.134 279.864,286.194 280.016,285.222C280.167,284.25 280.09,283.27 279.79,282.347C279.49,281.424 278.973,280.58 278.275,279.871C277.577,279.163 276.713,278.606 275.742,278.238C269.804,275.736 270.482,284.825 270.975,287.003L270.863,287.005ZM291.759,237.959C294.111,241.769 298.868,240.27 299.861,236.338C300.549,234.119 301.008,224.925 294.909,227.963C293.97,228.442 293.14,229.088 292.472,229.862C291.804,230.635 291.312,231.519 291.027,232.457C290.742,233.395 290.669,234.368 290.815,235.314C290.96,236.261 291.32,237.16 291.871,237.956L291.759,237.959ZM289.902,238.245C288.26,235.229 285.526,233.613 283.728,237.618C279.945,246.009 287.229,247.662 289.566,246.692C291.903,245.723 291.656,241.258 290.014,238.243L289.902,238.245ZM302.136,236.356C302.476,240.286 306.978,242.048 309.967,238.153C310.721,237.241 311.243,236.191 311.49,235.087C311.738,233.982 311.705,232.853 311.394,231.786C310.806,230.062 309.535,228.624 307.82,227.745C302.077,224.888 302.194,234.116 302.248,236.354L302.136,236.356ZM310.595,247.382C312.742,248.583 320.294,247.254 317.899,237.879C316.793,233.502 313.787,235.304 311.652,238.422C309.517,241.54 308.47,246.048 310.814,247.353L310.595,247.382ZM300.549,240.411C295.629,240.365 295.82,244.154 291.354,246.807C290.493,247.331 289.781,248.039 289.286,248.865C288.79,249.692 288.526,250.609 288.519,251.533C288.533,252.375 288.753,253.194 289.164,253.932C289.574,254.669 290.165,255.306 290.892,255.795C291.619,256.284 292.465,256.614 293.367,256.76C294.269,256.906 295.205,256.865 296.107,256.639C297.979,256.225 299.918,256.337 301.664,256.96C302.531,257.275 303.473,257.406 304.421,257.344C305.37,257.281 306.301,257.027 307.147,256.599C307.993,256.171 308.733,255.581 309.312,254.871C309.892,254.162 310.296,253.35 310.496,252.496C310.733,251.543 310.69,250.561 310.371,249.652C310.051,248.743 309.467,247.94 308.679,247.325C305.004,244.231 305.707,240.5 300.769,240.382L300.549,240.411ZM251.814,197.866C249.301,195.555 246.11,194.718 245.574,198.663C244.24,206.976 251.69,206.926 253.772,205.509C255.854,204.092 254.626,200.128 252.033,197.837L251.814,197.866ZM273.313,193.119C272.209,196.387 271.937,200.701 274.622,201.333C275.578,201.442 276.561,201.315 277.47,200.966C278.379,200.617 279.181,200.058 279.794,199.346C281.252,197.702 281.979,194.962 279.421,191.128C276.864,187.293 274.749,189.817 273.566,193.106L273.313,193.119ZM253.52,197.209C254.103,197.833 254.902,198.257 255.797,198.417C256.691,198.577 257.632,198.465 258.478,198.097C259.324,197.729 260.028,197.126 260.485,196.378C260.942,195.63 261.127,194.778 261.011,193.951C260.907,191.854 259.212,183.455 254.024,187.517C253.216,188.114 252.557,188.862 252.095,189.707C251.634,190.552 251.381,191.472 251.356,192.398C251.332,193.325 251.536,194.235 251.953,195.061C252.37,195.888 252.99,196.609 253.766,197.173L253.52,197.209ZM263.238,193.444C263.47,194.258 263.993,194.968 264.726,195.464C265.459,195.96 266.362,196.215 267.296,196.19C268.23,196.165 269.144,195.861 269.898,195.325C270.651,194.789 271.202,194.051 271.467,193.223C271.877,192.319 272.07,191.354 272.03,190.395C271.991,189.436 271.722,188.506 271.24,187.671C270.759,186.836 270.078,186.116 269.245,185.562C268.411,185.007 267.446,184.632 266.417,184.463C260.359,183.168 262.627,191.474 263.484,193.408L263.238,193.444ZM263.008,197.363C258.231,198.56 259.211,201.767 255.644,205.168C254.926,205.805 254.399,206.597 254.119,207.464C253.839,208.33 253.815,209.238 254.05,210.094C254.372,210.86 254.87,211.549 255.512,212.116C256.154,212.682 256.925,213.114 257.777,213.382C258.628,213.651 259.54,213.751 260.454,213.676C261.369,213.6 262.264,213.351 263.084,212.945C264.78,212.156 266.668,211.825 268.518,211.993C269.427,212.105 270.362,212.029 271.254,211.77C272.146,211.511 272.972,211.075 273.672,210.495C274.372,209.915 274.928,209.205 275.299,208.417C275.669,207.63 275.846,206.785 275.814,205.944C275.754,205.009 275.419,204.117 274.844,203.361C274.269,202.606 273.475,202.015 272.545,201.649C268.396,199.824 268.132,196.309 263.254,197.327L263.008,197.363ZM283.317,143.298C278.449,144.134 279.328,147.724 275.621,151.134C274.877,151.803 274.32,152.624 274.001,153.521C273.683,154.419 273.612,155.364 273.797,156.271C274,157.085 274.402,157.838 274.972,158.477C275.543,159.116 276.268,159.624 277.095,159.965C277.923,160.306 278.832,160.471 279.757,160.448C280.681,160.426 281.599,160.216 282.442,159.834C284.18,159.101 286.095,158.853 287.937,159.122C288.861,159.274 289.82,159.233 290.744,159.003C291.668,158.773 292.533,158.36 293.277,157.793C294.021,157.227 294.624,156.522 295.043,155.729C295.461,154.937 295.684,154.077 295.695,153.214C295.712,152.254 295.455,151.319 294.95,150.5C294.444,149.68 293.708,149.005 292.812,148.54C288.435,146.261 288.31,142.507 283.317,143.298ZM293.966,139.402C292.528,142.806 292.217,147.308 294.811,148.141C297.405,148.975 304.406,146.249 300.079,137.768C297.955,133.85 295.456,136.087 293.966,139.402ZM274.025,142.455C277.205,145.724 281.59,143.424 281.775,139.439C281.94,137.172 280.571,128.155 275.219,132.13C274.347,132.744 273.618,133.512 273.08,134.386C272.542,135.259 272.206,136.217 272.095,137.198C271.984,138.18 272.1,139.161 272.436,140.079C272.771,140.997 273.319,141.831 274.043,142.527L274.025,142.455ZM272.279,143.071C269.972,140.452 266.928,139.297 266.02,143.565C264.104,152.383 271.672,152.686 273.659,151.344C275.647,150.002 274.578,145.769 272.298,143.143L272.279,143.071ZM283.973,139.041C285.179,142.806 290,143.695 292.122,139.403C292.669,138.387 292.958,137.281 292.968,136.17C292.978,135.059 292.707,133.973 292.178,132.996C291.239,131.437 289.694,130.27 287.831,129.712C281.449,128.037 283.412,136.931 283.991,139.113L283.973,139.041ZM234.533,104.832C234.017,102.787 230.626,94.865 226.315,99.704C225.609,100.413 225.078,101.25 224.764,102.154C224.449,103.057 224.359,104.005 224.498,104.925C224.638,105.845 225.005,106.715 225.571,107.471C226.138,108.226 226.889,108.847 227.771,109.288C228.472,109.793 229.344,110.069 230.256,110.077C231.169,110.084 232.074,109.822 232.836,109.329C233.599,108.836 234.177,108.139 234.486,107.342C234.795,106.544 234.818,105.689 234.551,104.904L234.533,104.832ZM226.221,110.342C223.265,108.525 220.003,108.191 220.189,112.186C220.592,120.524 227.984,119.235 229.75,117.462C231.515,115.69 229.23,112.145 226.221,110.342ZM236.693,104.06C237.071,104.832 237.726,105.455 238.556,105.83C239.386,106.205 240.342,106.31 241.273,106.13C242.205,105.949 243.058,105.493 243.698,104.833C244.338,104.173 244.729,103.348 244.808,102.487C245.073,101.526 245.102,100.533 244.892,99.581C244.683,98.629 244.241,97.741 243.598,96.983C242.956,96.225 242.129,95.616 241.177,95.2C240.226,94.784 239.175,94.571 238.101,94.577C231.488,94.572 235.421,102.282 236.681,104.012L236.693,104.06ZM246.602,102.063C246.146,105.426 246.796,109.687 249.559,109.839C250.51,109.773 251.438,109.483 252.25,108.997C253.063,108.511 253.732,107.845 254.193,107.066C255.29,105.232 255.434,102.433 252.188,99.129C248.942,95.825 247.093,98.615 246.59,102.015L246.602,102.063ZM237.22,107.944C232.667,109.801 234.38,112.875 231.543,116.809C230.974,117.565 230.633,118.438 230.555,119.335C230.477,120.232 230.665,121.121 231.099,121.907C231.566,122.604 232.195,123.197 232.943,123.645C233.691,124.093 234.543,124.387 235.442,124.507C236.341,124.627 237.266,124.571 238.157,124.342C239.049,124.114 239.886,123.718 240.614,123.18C242.141,122.127 243.942,121.472 245.811,121.289C246.734,121.241 247.643,121.005 248.472,120.6C249.302,120.195 250.03,119.63 250.605,118.947C251.18,118.264 251.587,117.48 251.795,116.652C252.004,115.824 252.01,114.972 251.813,114.159C251.551,113.278 251.034,112.487 250.315,111.867C249.595,111.248 248.698,110.822 247.716,110.633C242.822,109.455 241.853,106.066 237.208,107.895L237.22,107.944ZM235.351,53.579C232.583,51.382 229.32,50.819 229.267,55.103C229.086,64.049 236.649,63.1 238.466,61.417C240.282,59.734 238.107,55.727 235.339,53.531L235.351,53.579ZM246.191,47.742C248.087,51.206 253.067,51.262 254.44,46.698C254.757,45.725 254.844,44.71 254.696,43.723C254.548,42.736 254.167,41.8 253.58,40.977C252.993,40.154 252.214,39.465 251.294,38.955C250.374,38.444 249.335,38.126 248.247,38.02C241.432,37.324 245.164,45.698 246.179,47.694L246.191,47.742ZM246.414,51.881C241.746,53.511 243.3,56.855 240.297,60.805C239.687,61.579 239.295,62.472 239.157,63.401C239.02,64.329 239.141,65.264 239.51,66.117C239.877,66.876 240.428,67.544 241.124,68.072C241.819,68.6 242.642,68.976 243.532,69.171C244.423,69.366 245.359,69.376 246.274,69.201C247.188,69.025 248.058,68.669 248.821,68.157C250.385,67.157 252.223,66.598 254.092,66.555C255.037,66.543 255.979,66.339 256.847,65.959C257.716,65.579 258.49,65.032 259.115,64.357C259.739,63.682 260.198,62.896 260.459,62.055C260.72,61.215 260.776,60.341 260.622,59.497C260.443,58.559 259.992,57.692 259.315,56.986C258.639,56.28 257.76,55.758 256.769,55.475C251.951,53.92 251.087,50.275 246.401,51.833L246.414,51.881ZM256.157,46.421C255.379,49.967 255.965,54.423 258.702,54.812C261.438,55.2 267.821,51.376 261.876,43.786C259.041,40.2 256.924,42.828 256.145,46.373L256.157,46.421ZM244.025,48.49C243.718,46.265 240.561,37.695 236.06,42.455C235.33,43.196 234.771,44.062 234.42,44.997C234.07,45.931 233.934,46.913 234.023,47.879C234.112,48.844 234.423,49.773 234.936,50.604C235.45,51.436 236.154,52.151 237.003,52.704C240.756,55.319 244.658,52.346 244.013,48.442L244.025,48.49ZM187.423,31.983C186.249,30.729 184.778,29.736 183.113,29.073C179.94,27.745 176.498,28.045 177.49,31.863C178.483,35.681 180.861,37.233 183.032,37.405C183.989,37.485 184.964,37.343 185.867,36.992C186.77,36.64 187.572,36.091 188.199,35.394C188.464,34.808 188.532,34.171 188.395,33.567C188.257,32.962 187.92,32.418 187.429,32.007L187.423,31.983ZM189.164,16.406C189.907,18.21 190.998,19.867 192.386,21.302C192.919,21.993 193.698,22.492 194.6,22.72C195.502,22.948 196.475,22.891 197.367,22.559C198.259,22.227 199.018,21.639 199.525,20.887C200.032,20.135 200.258,19.262 200.167,18.406C200.229,17.44 200.057,16.484 199.66,15.607C199.264,14.73 198.655,13.953 197.877,13.333C197.098,12.713 196.17,12.265 195.16,12.022C194.149,11.779 193.081,11.746 192.033,11.927C188.514,12.374 188.348,14.411 189.063,16.456L189.164,16.406ZM190.401,22.541C189.504,20.813 188.266,19.26 186.747,17.958C184.981,16.584 182.847,16.224 181.306,18.886C180.751,19.691 180.394,20.591 180.262,21.519C180.129,22.448 180.223,23.382 180.539,24.253C180.854,25.125 181.382,25.912 182.084,26.557C182.786,27.203 183.645,27.69 184.597,27.985C185.397,28.354 186.319,28.473 187.225,28.321C188.132,28.17 188.974,27.757 189.627,27.145C190.28,26.533 190.708,25.754 190.847,24.924C190.986,24.094 190.83,23.258 190.401,22.541ZM193.607,25.011C189.435,27.591 191.861,30.231 189.777,34.564C189.364,35.382 189.192,36.276 189.279,37.153C189.366,38.03 189.709,38.859 190.271,39.555C190.871,40.158 191.61,40.633 192.439,40.948C193.269,41.263 194.171,41.411 195.085,41.382C195.999,41.354 196.906,41.149 197.745,40.782C198.585,40.414 199.338,39.893 199.955,39.251C201.269,37.947 202.952,37.001 204.8,36.528C205.708,36.324 206.564,35.941 207.307,35.407C208.051,34.873 208.663,34.2 209.1,33.438C209.537,32.675 209.787,31.842 209.834,30.998C209.88,30.154 209.722,29.319 209.369,28.555C208.931,27.746 208.265,27.065 207.436,26.578C206.607,26.091 205.643,25.815 204.638,25.776C199.67,25.538 197.77,22.51 193.58,25.018L193.607,25.011ZM201.754,17.727C201.907,21.141 203.607,25.063 206.373,24.779C209.138,24.495 214.516,19.388 206.757,13.941C202.971,11.309 201.551,14.223 201.728,17.733L201.754,17.727ZM188.332,-34.076C187.477,-36.112 182.714,-44.075 179.212,-38.619C178.631,-37.771 178.247,-36.829 178.086,-35.854C177.926,-34.879 177.992,-33.895 178.281,-32.964C178.569,-32.034 179.074,-31.179 179.761,-30.456C180.448,-29.734 181.302,-29.159 182.266,-28.771C186.606,-26.866 189.826,-30.409 188.305,-34.069L188.332,-34.076ZM180.827,-27.617C177.581,-29.234 174.212,-29.208 175.084,-25.079C175.957,-20.95 178.197,-19.158 180.402,-18.739C181.344,-18.59 182.324,-18.673 183.243,-18.98C184.162,-19.287 184.988,-19.806 185.636,-20.485C187.04,-22.678 184.114,-26.063 180.8,-27.611L180.827,-27.617ZM190.286,-35.103C193.002,-32.1 197.915,-32.871 198.194,-37.494C198.281,-38.5 198.138,-39.501 197.773,-40.434C197.409,-41.367 196.831,-42.212 196.077,-42.913C195.324,-43.615 194.41,-44.158 193.395,-44.509C192.38,-44.859 191.286,-45.009 190.183,-44.949C183.502,-44.553 188.768,-36.845 190.294,-35.182L190.286,-35.103ZM191.461,-31.126C187.154,-28.742 189.392,-25.723 187.181,-21.332C186.728,-20.479 186.517,-19.544 186.568,-18.616C186.618,-17.689 186.928,-16.8 187.469,-16.034C188,-15.366 188.691,-14.819 189.493,-14.431C190.295,-14.043 191.188,-13.825 192.111,-13.79C193.033,-13.756 193.962,-13.906 194.833,-14.231C195.703,-14.557 196.495,-15.048 197.151,-15.672C198.536,-16.944 200.298,-17.814 202.196,-18.164C203.132,-18.33 204.026,-18.683 204.812,-19.198C205.598,-19.712 206.255,-20.375 206.737,-21.139C207.219,-21.901 207.513,-22.745 207.597,-23.608C207.681,-24.471 207.553,-25.33 207.222,-26.124C206.843,-27.027 206.206,-27.813 205.375,-28.404C204.544,-28.994 203.548,-29.368 202.485,-29.49C197.366,-30.099 195.794,-33.516 191.469,-31.205L191.461,-31.126ZM199.966,-38.117C199.969,-34.511 201.368,-30.207 204.182,-30.298C206.996,-30.39 212.539,-35.18 205.122,-41.633C201.509,-44.59 199.982,-41.65 199.975,-38.195L199.966,-38.117ZM130.108,-36.443C131.105,-38.79 127.395,-41.006 123.948,-41.625C120.5,-42.245 117.18,-41.234 119.031,-37.836C122.781,-30.515 129.283,-34.318 130.108,-36.443ZM139.634,-56.247C140.467,-52.951 142.978,-49.412 145.669,-50.214C148.361,-51.016 152.46,-57.031 143.614,-60.824C139.477,-62.601 138.769,-59.559 139.741,-56.273L139.634,-56.247ZM131.161,-50.926C131.853,-50.391 132.728,-50.085 133.654,-50.054C134.579,-50.023 135.505,-50.27 136.291,-50.756C137.076,-51.242 137.678,-51.941 138.006,-52.748C138.333,-53.554 138.368,-54.423 138.105,-55.224C137.924,-56.17 137.513,-57.058 136.901,-57.823C136.29,-58.588 135.493,-59.211 134.568,-59.647C133.643,-60.084 132.614,-60.322 131.554,-60.346C130.495,-60.37 129.432,-60.178 128.441,-59.785C122.447,-57.567 129.364,-52.087 131.268,-50.953L131.161,-50.926ZM129.533,-49.393C128.185,-51.025 121.709,-56.896 119.702,-51.022C119.326,-50.148 119.172,-49.217 119.25,-48.3C119.328,-47.383 119.636,-46.504 120.152,-45.731C120.668,-44.959 121.377,-44.313 122.224,-43.844C123.072,-43.375 124.036,-43.094 125.041,-43.025C125.929,-42.767 126.9,-42.791 127.801,-43.093C128.701,-43.396 129.479,-43.96 130.01,-44.696C130.542,-45.432 130.796,-46.297 130.734,-47.154C130.672,-48.011 130.296,-48.811 129.667,-49.427L129.533,-49.393ZM133.24,-47.637C129.701,-44.346 132.603,-42.183 131.53,-37.669C131.29,-36.802 131.317,-35.903 131.607,-35.072C131.897,-34.242 132.439,-33.512 133.171,-32.965C133.888,-32.489 134.714,-32.162 135.596,-32.007C136.478,-31.852 137.396,-31.872 138.286,-32.067C139.177,-32.261 140.022,-32.624 140.763,-33.133C141.504,-33.642 142.125,-34.284 142.584,-35.017C143.586,-36.54 145.033,-37.79 146.753,-38.619C147.609,-38.982 148.376,-39.509 148.999,-40.162C149.622,-40.815 150.087,-41.579 150.359,-42.399C150.631,-43.219 150.705,-44.076 150.574,-44.907C150.444,-45.739 150.113,-46.525 149.605,-47.211C148.988,-47.913 148.171,-48.446 147.236,-48.755C146.301,-49.064 145.282,-49.138 144.281,-48.971C139.282,-48.204 136.924,-50.913 133.347,-47.663L133.24,-47.637ZM114.094,-89.744C115.072,-92.163 111.272,-94.74 107.569,-95.475C103.865,-96.209 100.657,-95.431 102.652,-91.685C103.406,-90.138 104.581,-88.806 106.071,-87.81C106.701,-87.424 107.42,-87.168 108.181,-87.061C108.942,-86.953 109.728,-86.995 110.485,-87.185C111.242,-87.374 111.954,-87.707 112.573,-88.161C113.192,-88.615 113.705,-89.179 114.076,-89.816L114.094,-89.744ZM117.037,-101.351C113.513,-98.115 116.54,-95.677 115.542,-90.977C115.332,-90.057 115.377,-89.114 115.673,-88.236C115.969,-87.358 116.507,-86.573 117.236,-85.954C117.929,-85.425 118.746,-85.046 119.632,-84.842C120.518,-84.638 121.451,-84.615 122.366,-84.774C123.282,-84.932 124.158,-85.269 124.933,-85.762C125.709,-86.254 126.366,-86.889 126.859,-87.623C127.883,-89.133 129.386,-90.333 131.157,-91.053C132.044,-91.415 132.839,-91.951 133.485,-92.621C134.13,-93.291 134.609,-94.078 134.886,-94.923C135.163,-95.768 135.23,-96.65 135.084,-97.505C134.938,-98.359 134.581,-99.163 134.041,-99.857C133.406,-100.624 132.564,-101.226 131.591,-101.607C130.618,-101.988 129.544,-102.138 128.467,-102.041C123.3,-101.718 120.84,-104.606 117.17,-101.384L117.037,-101.351ZM123.372,-109.972C124.478,-106.489 127.027,-102.575 129.802,-103.271C132.577,-103.966 136.672,-109.775 127.449,-114.497C123.102,-116.656 122.491,-113.459 123.585,-110.025L123.372,-109.972ZM113.198,-103.407C111.808,-105.039 110.114,-106.43 108.186,-107.522C106.004,-108.637 103.715,-108.601 102.983,-105.655C102.681,-104.696 102.597,-103.7 102.736,-102.729C102.875,-101.757 103.234,-100.832 103.79,-100.011C104.346,-99.19 105.088,-98.491 105.969,-97.958C106.849,-97.424 107.85,-97.067 108.908,-96.91C113.619,-96.121 115.817,-100.227 113.198,-103.407ZM110.147,-109.42C111.425,-107.69 113.006,-106.17 114.831,-104.916C118.38,-102.659 123.151,-104.443 121.99,-109.037C121.784,-110.045 121.348,-110.993 120.711,-111.821C120.074,-112.649 119.25,-113.339 118.289,-113.848C117.329,-114.358 116.254,-114.674 115.132,-114.779C114.009,-114.883 112.865,-114.773 111.77,-114.455C108.447,-113.342 108.901,-111.435 110.174,-109.427L110.147,-109.42ZM56.765,-90.929C56.985,-93.541 52.78,-94.124 49.452,-93.597C46.123,-93.07 43.539,-91.169 46.178,-88.583C48.818,-85.996 51.478,-86.023 53.423,-86.971C54.263,-87.368 55.001,-87.931 55.58,-88.617C56.16,-89.303 56.565,-90.094 56.765,-90.929ZM52.047,-102.534C50.235,-103.64 42.146,-106.574 42.485,-100.624C42.478,-99.749 42.672,-98.891 43.056,-98.106C43.44,-97.321 44.005,-96.626 44.714,-96.067C45.384,-95.58 46.187,-95.262 47.047,-95.143C48.015,-94.945 49.032,-94.963 50.013,-95.196C50.913,-95.303 51.767,-95.663 52.455,-96.226C53.143,-96.789 53.63,-97.527 53.849,-98.335C54.067,-99.143 54.006,-99.981 53.673,-100.731C53.34,-101.482 52.753,-102.108 51.993,-102.52L52.047,-102.534ZM58.023,-110.553C57.506,-111.467 56.724,-112.226 55.758,-112.753C54.792,-113.28 53.677,-113.555 52.528,-113.549C50.629,-113.516 48.778,-112.843 47.331,-111.659C42.45,-107.392 50.914,-104.884 53.034,-104.469C53.883,-104.219 54.811,-104.228 55.682,-104.494C56.553,-104.76 57.32,-105.27 57.872,-105.948C58.423,-106.627 58.731,-107.439 58.748,-108.265C58.766,-109.091 58.493,-109.888 57.97,-110.54L58.023,-110.553ZM56.088,-102.037C53.869,-97.901 57.363,-96.986 57.703,-92.494C57.721,-91.646 57.998,-90.831 58.504,-90.139C59.009,-89.448 59.722,-88.909 60.564,-88.581C61.422,-88.386 62.323,-88.353 63.212,-88.483C64.101,-88.613 64.961,-88.903 65.741,-89.337C66.521,-89.771 67.204,-90.339 67.751,-91.009C68.297,-91.678 68.696,-92.435 68.923,-93.233C69.444,-94.915 70.46,-96.453 71.858,-97.677C72.575,-98.235 73.153,-98.927 73.549,-99.702C73.944,-100.477 74.147,-101.316 74.143,-102.155C74.138,-102.994 73.926,-103.813 73.522,-104.55C73.117,-105.286 72.532,-105.923 71.809,-106.412C70.996,-106.933 70.029,-107.23 69.016,-107.27C68.004,-107.31 66.986,-107.091 66.077,-106.638C61.463,-104.459 58.265,-106.112 56.034,-102.024L56.088,-102.037ZM57.571,-115.938C57.572,-114.497 58.089,-113.118 59.045,-112.011C61.089,-109.199 64.695,-106.828 66.964,-108.292C67.655,-108.905 68.169,-109.663 68.456,-110.492C68.744,-111.321 68.796,-112.194 68.606,-113.026C68.108,-114.998 66.045,-116.988 61.096,-117.487C58.832,-117.687 57.767,-116.959 57.571,-115.938ZM20.613,-132.969C20.325,-135.454 15.3,-135.806 11.599,-134.956C7.898,-134.105 5.576,-131.503 9.385,-129.567C13.267,-127.113 15.974,-127.407 17.912,-128.609C18.716,-129.088 19.385,-129.738 19.857,-130.5C20.329,-131.262 20.589,-132.111 20.613,-132.969ZM12.105,-144.187C9.657,-145.006 -1.312,-146.759 1.152,-140.931C1.489,-139.985 2.036,-139.119 2.76,-138.387C3.483,-137.655 4.369,-137.071 5.363,-136.67C6.358,-136.269 7.44,-136.06 8.546,-136.056C9.652,-136.051 10.758,-136.25 11.797,-136.642C16.511,-137.977 16.417,-142.506 12.105,-144.187ZM17.054,-152.793C16.018,-153.73 14.763,-154.445 13.375,-154.889C12.075,-155.171 10.714,-155.213 9.372,-155.011C7.142,-154.79 5.034,-153.854 3.427,-152.371C1.003,-149.948 2.752,-148.416 5.284,-147.491C7.642,-146.732 10.116,-146.268 12.64,-146.112C17.387,-145.741 20.906,-149.334 17.027,-152.786L17.054,-152.793ZM18.004,-154.31C19.656,-153.011 21.546,-151.981 23.597,-151.261C25.507,-150.666 27.231,-150.356 28.405,-151.213C29.102,-151.858 29.568,-152.678 29.738,-153.557C29.909,-154.435 29.774,-155.326 29.354,-156.105C28.735,-157.338 27.666,-158.323 26.321,-158.9C24.078,-159.742 21.64,-160.125 19.171,-160.024C13.239,-159.919 14.78,-156.852 18.057,-154.323L18.004,-154.31ZM24.226,-148.324L21.103,-147.542C20.147,-147.362 19.253,-146.941 18.525,-146.329C17.796,-145.717 17.262,-144.937 16.984,-144.08C15.509,-139.695 19.827,-139.115 21.301,-134.625C21.574,-133.733 22.084,-132.926 22.788,-132.274C23.491,-131.621 24.367,-131.143 25.34,-130.88C26.212,-130.678 27.131,-130.656 28.032,-130.816C28.933,-130.976 29.794,-131.312 30.554,-131.803C31.374,-132.283 32.075,-132.921 32.603,-133.669C33.131,-134.416 33.474,-135.255 33.606,-136.122C33.847,-137.85 34.714,-139.481 36.068,-140.755C36.734,-141.407 37.227,-142.188 37.507,-143.032C37.787,-143.876 37.846,-144.759 37.679,-145.608C37.526,-146.509 37.135,-147.352 36.54,-148.067C35.945,-148.781 35.162,-149.346 34.259,-149.713C33.228,-150.163 32.085,-150.383 30.92,-150.353C29.755,-150.323 28.601,-150.045 27.55,-149.541C26.485,-149.012 25.36,-148.601 24.199,-148.317L24.226,-148.324Z" style="fill:rgb(205,244,233);fill-rule:nonzero;"/>
                </g>
            </g>
        </g>
    </g>
</svg>
