<svg width="120" height="140" viewBox="0 0 120 140" fill="none" xmlns="http://www.w3.org/2000/svg">
<g clip-path="url(#clip0)">
<path d="M71.2637 75.8767C72.0704 79.7682 72.5545 82.1358 74.5445 84.5986L106.982 97.6312C108.489 98.2971 109.84 99.2773 110.947 100.508C112.054 101.738 112.892 103.191 113.406 104.772C115.065 109.875 117.324 125.675 118.545 139.877" stroke="white" stroke-width="3" stroke-linejoin="round"/>
<path d="M79.1159 8.16404L79.0809 8.13411C75.2461 4.29156 69.2761 1.48584 60.0011 1.47768C50.726 1.46951 44.756 4.29156 40.9078 8.12322C40.8981 8.13768 40.8873 8.15133 40.8755 8.16404" stroke="white" stroke-width="3" stroke-linejoin="round"/>
<path d="M35.0132 37.4648C52.2402 34.9013 63.9758 31.9704 72.1725 18.6195C72.2707 18.4598 72.4122 18.332 72.58 18.2513C72.7479 18.1706 72.9351 18.1404 73.1194 18.1641C73.3038 18.1879 73.4775 18.2648 73.62 18.3855C73.7625 18.5063 73.8677 18.6659 73.9232 18.8453C75.4722 23.8227 79.6969 35.9164 84.8763 38.518C82.8298 57.9294 79.4549 68.4311 70.1207 76.8591C67.9693 78.647 66.2509 79.4852 63.6262 79.9016L63.0884 79.9914C62.4968 80.0866 62.0127 80.1547 61.5448 80.2037C61.0769 80.2526 60.5901 80.2744 59.9985 80.2799C58.9613 80.2745 57.9266 80.178 56.9059 79.9914L56.3681 79.9016C53.7434 79.4852 52.0358 78.647 49.8737 76.8591C40.3701 68.2787 37.0489 57.5511 35.0132 37.4621V37.4648Z" stroke="white" stroke-width="3" stroke-linejoin="round"/>
<path d="M79.0835 8.12598C105.707 31.3228 90.5448 68.638 91.158 77.066C91.4269 80.6636 85.9651 81.2759 80.9632 81.5998" stroke="white" stroke-width="3" stroke-linejoin="round"/>
<path d="M40.9159 8.12598C14.2929 31.3228 29.4519 68.638 28.8441 77.066C28.5752 80.6636 34.0369 81.2759 39.0335 81.5998" stroke="white" stroke-width="3" stroke-linejoin="round"/>
<path d="M45.4473 84.5987L56.5886 92.7464C57.5779 93.4708 58.7679 93.8608 59.9891 93.8608C61.2103 93.8608 62.4003 93.4708 63.3896 92.7464L74.5309 84.5959" stroke="white" stroke-width="3" stroke-linejoin="round"/>
<path d="M48.7387 75.8767C47.932 79.7682 47.4479 82.1358 45.4579 84.5986L13.0208 97.6312C11.5133 98.2968 10.1616 99.2769 9.05405 100.507C7.94651 101.738 7.1081 103.191 6.59364 104.772C4.93441 109.872 2.68893 125.672 1.45459 139.877" stroke="white" stroke-width="3" stroke-linejoin="round"/>
<path d="M42.5002 117.236H36.7802V111.431H30.4714V117.236H24.7515V123.642H30.4714V129.447H36.7802V123.642H42.5002V117.236Z" stroke="white" stroke-width="3" stroke-linejoin="round"/>
<path d="M74.5361 118.011H98.0236" stroke="white" stroke-width="3" stroke-linejoin="round"/>
</g>
<defs>
<clipPath id="clip0">
<rect width="120" height="140" fill="white"/>
</clipPath>
</defs>
</svg>
