<svg width="154" height="111" viewBox="0 0 154 111" fill="none" xmlns="http://www.w3.org/2000/svg">
<g clip-path="url(#clip0)">
<path d="M19.4886 85.7238C20.551 85.7238 21.4123 84.8625 21.4123 83.8001C21.4123 82.7377 20.551 81.8765 19.4886 81.8765C18.4262 81.8765 17.5649 82.7377 17.5649 83.8001C17.5649 84.8625 18.4262 85.7238 19.4886 85.7238Z" fill="white"/>
<path d="M31.9181 84.5689C32.3473 83.5968 31.9072 82.4608 30.9351 82.0316C29.963 81.6024 28.827 82.0425 28.3978 83.0146C27.9686 83.9867 28.4087 85.1227 29.3808 85.5519C30.3529 85.9812 31.4889 85.5411 31.9181 84.5689Z" fill="white"/>
<path d="M31.6476 92.1582C30.7909 92.1582 30.0963 92.8527 30.0963 93.7095C30.0963 95.653 26.4185 95.1499 26.4185 92.193L27.2512 90.9886C27.8526 90.1187 27.23 88.9314 26.1725 88.9314H23.4697C22.4122 88.9314 21.7897 90.1187 22.391 90.9886C23.3485 92.3736 23.2237 92.1282 23.2237 92.3596C23.2237 93.7457 22.0961 94.8735 20.7098 94.8735C20.068 94.8735 19.5459 94.3513 19.5459 93.7095C19.5459 92.8527 18.8513 92.1582 17.9946 92.1582C17.1379 92.1582 16.4434 92.8527 16.4434 93.7095C16.4434 96.0621 18.3573 97.976 20.7098 97.976C22.332 97.976 23.7949 97.284 24.8211 96.1806C25.8473 97.284 27.3102 97.976 28.9323 97.976C31.2848 97.976 33.1988 96.0621 33.1988 93.7095C33.1989 92.8527 32.5043 92.1582 31.6476 92.1582Z" fill="white"/>
<path d="M49.6344 85.4393C49.5527 84.5864 48.7939 83.9608 47.9422 84.0433L45.5276 84.2748C45.3325 80.7278 44.0756 77.364 41.8979 74.4871L41.4381 63.8278C41.3209 61.1128 38.146 59.7025 36.053 61.4345L29.5821 66.7893C26.5625 66.1435 23.2855 66.0995 20.0605 66.7893L13.5895 61.4345C11.4957 59.7019 8.32151 61.1135 8.20448 63.8278L7.74473 74.4871C5.56704 77.3639 4.31013 80.7277 4.11496 84.2748L1.70041 84.0433C0.847799 83.9609 0.089909 84.5865 0.00817668 85.4393C-0.0736526 86.2921 0.55141 87.0497 1.40422 87.1316L4.21996 87.4016C4.39234 88.8107 4.73382 90.1847 5.23555 91.5038L3.94985 91.7646C3.11022 91.935 2.56757 92.7536 2.73792 93.5933C2.88713 94.3289 3.53391 94.8364 4.25661 94.8364C4.46845 94.8364 4.34833 94.8494 6.63906 94.3848C7.66619 96.0901 8.97527 97.6411 10.5462 99.0068C9.04624 102.473 9.27447 104.929 9.27447 108.765C9.27447 109.622 9.96905 110.317 10.8257 110.317H38.8169C39.6736 110.317 40.3681 109.622 40.3681 108.765C40.3681 104.939 40.5958 102.471 39.0964 99.0068C40.6725 97.6365 41.9797 96.0846 43.0035 94.3848L45.076 94.8052C45.9174 94.9758 46.7348 94.4311 46.9047 93.5933C47.075 92.7536 46.5324 91.935 45.6928 91.7646L44.407 91.5038C44.9088 90.1847 45.2503 88.8107 45.4226 87.4016L48.2384 87.1316C49.0912 87.0497 49.7162 86.2921 49.6344 85.4393ZM38.0309 63.8248C38.1521 63.7242 38.3317 63.8039 38.3383 63.9614L38.647 71.1178C36.9913 69.7601 35.1346 68.6699 33.1409 67.8712L38.0309 63.8248ZM11.4155 63.7978C11.5793 63.7251 11.19 63.4759 16.5015 67.8713C14.5079 68.6699 12.6512 69.7602 10.9954 71.1179C11.3347 63.2511 11.2628 63.8656 11.4155 63.7978ZM37.2655 107.214H12.3769C12.3769 104.902 12.262 103.282 13.1234 100.915C20.0466 105.258 29.4049 105.378 36.5192 100.915C37.3767 103.272 37.2655 104.907 37.2655 107.214ZM41.3065 90.875L35.3463 89.666C34.5063 89.4957 33.688 90.0383 33.5176 90.878C33.3473 91.7176 33.8899 92.5363 34.7296 92.7066L39.7232 93.7195C32.7837 103.568 16.8635 103.575 9.91941 93.7195L14.913 92.7066C15.7527 92.5363 16.2953 91.7176 16.125 90.878C15.9546 90.0384 15.1367 89.4957 14.2963 89.666L8.33605 90.875C7.90848 89.8638 7.59202 88.8039 7.4018 87.7067L13.4483 88.2866C14.3011 88.3683 15.0588 87.7433 15.1406 86.8905C15.2224 86.0377 14.5973 85.2801 13.7445 85.1983L7.20779 84.5714C7.60569 76.1402 15.3534 69.391 24.8214 69.391C34.2895 69.391 42.0373 76.1403 42.4351 84.5714L35.8984 85.1983C35.0455 85.2801 34.4205 86.0377 34.5023 86.8905C34.584 87.7433 35.3416 88.3685 36.1945 88.2866L42.2411 87.7067C42.0506 88.8039 41.7341 89.8638 41.3065 90.875Z" fill="white"/>
</g>
<g clip-path="url(#clip1)">
<path d="M84.5381 55.8416C83.6455 55.8416 82.9222 56.5651 82.9222 57.4575C82.9222 58.9742 81.6882 60.2081 80.1716 60.2081C78.6549 60.2081 77.421 58.9742 77.421 57.4575C77.421 56.5651 76.6977 55.8416 75.805 55.8416C72.4893 55.8416 74.4237 63.44 80.1716 63.44C85.9367 63.4403 87.8375 55.8416 84.5381 55.8416Z" fill="white"/>
<path d="M90.4577 46.2247C89.0251 46.2247 87.8638 47.3861 87.8638 48.8187C87.8638 50.2513 89.0251 51.4126 90.4577 51.4126C91.8903 51.4126 93.0517 50.2513 93.0517 48.8187C93.0517 47.3861 91.8903 46.2247 90.4577 46.2247Z" fill="white"/>
<path d="M87.2923 43.1068C88.5525 42.8439 92.6062 42.3811 94.6346 43.6564C95.3904 44.1317 96.388 43.9038 96.8629 43.1486C98.5836 40.4109 92.2438 38.7732 86.6328 39.9427C85.7589 40.125 85.1984 40.9808 85.3805 41.8545C85.5628 42.7282 86.4195 43.2891 87.2923 43.1068Z" fill="white"/>
<path d="M69.8854 46.2247C68.4528 46.2247 67.2915 47.3861 67.2915 48.8187C67.2915 50.2513 68.4528 51.4126 69.8854 51.4126C71.3181 51.4126 72.4794 50.2513 72.4794 48.8187C72.4794 47.3861 71.3181 46.2247 69.8854 46.2247Z" fill="white"/>
<path d="M74.9628 41.8545C75.1451 40.9809 74.5845 40.125 73.7105 39.9428C73.0831 39.812 67.4762 38.7273 63.9885 40.9205C63.2328 41.3956 63.0055 42.393 63.4806 43.1486C63.9562 43.9045 64.9535 44.1313 65.7089 43.6565C67.7349 42.3826 71.696 42.8278 73.0523 43.107C73.9262 43.2884 74.781 42.728 74.9628 41.8545Z" fill="white"/>
<path d="M153.093 105.864C152.368 99.2459 149.237 94.32 146.305 91.0583C149.704 88.2873 151.752 84.0828 151.752 79.6755C151.752 70.6112 152.138 67.8557 150.067 63.4053C153.06 59.1021 152.447 53.9036 152.213 51.9248L152.199 51.8119C152.047 50.5256 150.954 49.5554 149.657 49.5554H140.087C138.79 49.5554 137.697 50.5254 137.545 51.8119C137.485 52.3211 137.442 52.819 137.413 53.3081C136.184 53.0459 134.928 52.9127 133.659 52.9127C130.532 52.9127 129.15 52.8285 126.889 53.3146C126.845 52.763 126.792 52.3058 126.733 51.8119C126.581 50.5256 125.488 49.5554 124.191 49.5554H114.621C113.324 49.5554 112.231 50.5254 112.08 51.8119C111.527 56.4961 112.283 60.3289 114.327 63.2648C112.177 67.7874 112.578 70.6233 112.578 79.6755C112.578 84.0843 114.626 88.2899 118.028 91.0613C117.266 91.9081 116.562 92.7894 115.917 93.7023C112.729 82.4866 103.275 73.6581 91.2605 71.6827C97.3376 68.3051 101.657 62.2528 102.797 55.3442C107.326 54.4302 110.708 50.414 110.708 45.6711C110.708 41.0632 107.47 37.1034 103.104 36.0683V26.4139C104.358 24.7288 105.411 22.7524 106.27 20.4654C107.363 17.9234 107.71 17.3703 107.71 16.1101C107.71 13.9598 106.331 12.143 104.456 11.5912C105.498 8.84665 106.417 7.79735 106.417 5.77072C106.416 2.58878 103.975 0 100.975 0H69.9858C60.6901 0 52.6342 7.94969 52.6342 18.9975C52.6342 19.8899 53.3575 20.6135 54.2502 20.6135C55.1428 20.6135 55.8661 19.8899 55.8661 18.9975C55.8661 9.73005 62.4937 3.23193 69.9858 3.23193H100.975C102.598 3.23193 103.681 5.1963 102.951 6.89263C101.11 11.173 100.889 11.5699 100.889 12.2764C100.889 13.586 101.954 14.6514 103.263 14.6514C103.989 14.6514 104.478 15.4057 104.478 16.1101C104.478 16.8248 103.819 17.7782 103.257 19.2963C96.3471 37.7703 77.7183 26.5848 70.3023 33.9706V29.7521C70.3023 27.9377 68.7553 26.4751 66.9176 26.6289C63.0529 26.95 59.2067 27.7595 56.597 30.5553C56.2697 30.9052 55.8661 30.5743 55.8661 30.0763V25.4614C55.8661 24.5689 55.1426 23.8454 54.2502 23.8454C53.3577 23.8454 52.6342 24.5689 52.6342 25.4614V30.0763C52.6342 32.6615 54.9187 34.4366 57.2384 33.8075V36.0664C52.8736 37.1017 49.6369 41.0623 49.6369 45.6711C49.6369 50.4119 53.0175 54.4279 57.5459 55.3436C58.6861 62.2534 63.007 68.3055 69.0847 71.6821C54.3204 74.1082 43.2461 86.9352 43.2461 102.181C43.2461 106.607 46.8465 110.209 51.2721 110.209H53.8307C54.7233 110.209 55.4466 109.485 55.4466 108.593C55.4466 107.7 54.7233 106.977 53.8307 106.977H51.2721C48.6286 106.977 46.478 104.825 46.478 102.181C46.478 91.7474 52.2024 82.6553 60.744 77.9384V89.4368C57.8596 90.1605 55.7166 92.7745 55.7166 95.8806C55.7166 99.5439 58.6969 102.524 62.3599 102.524C66.0232 102.524 69.0035 99.5439 69.0035 95.8806C69.0035 92.7747 66.8607 90.1605 63.9759 89.4368V76.4183C66.3835 75.4722 68.96 74.8515 71.6541 74.6123L78.5551 97.1253V106.977H60.3197C59.4271 106.977 58.7038 107.7 58.7038 108.593C58.7038 109.485 59.4271 110.209 60.3197 110.209H109.07C110.354 110.209 111.567 109.904 112.644 109.366C113.354 109.964 114.263 110.317 115.224 110.317H138.183C139.076 110.317 139.799 109.593 139.799 108.701C139.799 107.808 139.076 107.085 138.183 107.085H115.418C117.395 104.53 117.287 101.805 116.859 98.3472C117.887 96.3734 119.201 94.5227 120.784 92.8314C124.635 94.732 126.732 94.342 137.085 94.342C139.331 94.342 141.54 93.8214 143.546 92.8307C146.231 95.7022 149.217 100.164 149.88 106.214C149.933 106.688 149.562 107.084 149.103 107.084H144.647C143.754 107.084 143.031 107.808 143.031 108.7C143.031 109.593 143.754 110.316 144.647 110.316H149.103C151.477 110.317 153.354 108.252 153.093 105.864ZM103.104 39.4364C108.931 41.5704 108.902 49.806 103.1 51.9128C103.106 51.4687 103.104 53.1532 103.104 39.4364ZM57.2384 39.4345C57.2384 53.1965 57.2367 51.4566 57.2425 51.9115C51.4377 49.8002 51.4207 41.5676 57.2384 39.4345ZM65.7718 95.8806C65.7718 97.7618 64.2411 99.2922 62.3602 99.2922C60.4792 99.2922 58.9487 97.7616 58.9487 95.8806C58.9487 93.9996 60.4792 92.469 62.3602 92.469C64.2411 92.469 65.7718 93.9994 65.7718 95.8806ZM60.5837 53.7341C60.4277 52.2978 60.4703 53.427 60.4703 31.5544C61.9956 30.6447 64.0899 30.1153 67.0702 29.8592V34.0962C67.0702 37.0136 70.4958 38.4893 72.4774 36.37C76.7591 31.783 90.4635 37.2086 99.8721 29.7665C99.8721 53.4622 99.9152 52.2922 99.7585 53.7367C98.9667 61.1388 93.9277 67.5723 86.9215 70.1271C74.7167 74.572 61.9159 66.1893 60.5837 53.7341ZM74.8195 73.9104C78.3201 74.7483 82.0144 74.7496 85.5221 73.9112L80.1722 91.3718L74.8195 73.9104ZM112.362 105.663C111.845 105.879 111.166 106.977 109.07 106.977H81.7873V97.1324L88.6879 74.6121C91.3825 74.8513 93.9596 75.4722 96.3676 76.4188V86.9749C93.6327 87.692 91.6089 90.1844 91.6089 93.141V101.267C91.6089 102.16 92.3322 102.883 93.2249 102.883C94.1175 102.883 94.8408 102.16 94.8408 101.267V93.141C94.8408 91.4085 96.2504 89.9989 97.9829 89.9989C99.7157 89.9989 101.125 91.4085 101.125 93.141V101.267C101.125 102.16 101.849 102.883 102.741 102.883C103.634 102.883 104.357 102.16 104.357 101.267V93.141C104.357 90.1849 102.334 87.6926 99.5995 86.9751V77.9391C107.031 82.0432 112.329 89.4585 113.581 98.1882C113.825 101.093 114.489 103.65 112.362 105.663ZM140.692 52.7875H149.059C149.554 57.2209 148.821 61.236 145.15 63.8132C145.078 63.8634 144.937 63.8634 144.865 63.813C141.631 61.5489 140.229 57.8416 140.692 52.7875ZM115.226 52.7875H123.593C124.085 57.1976 123.392 61.21 119.684 63.8132C119.612 63.8634 119.471 63.8634 119.399 63.813C116.165 61.5489 114.763 57.8416 115.226 52.7875ZM137.085 91.11H127.245C120.811 91.11 115.81 85.789 115.81 79.6755C115.81 70.7252 115.547 69.0623 116.74 65.8527C116.998 66.0626 117.267 66.2651 117.545 66.4603C118.74 67.297 120.346 67.2972 121.541 66.4582C125.455 63.7104 126.637 59.8155 126.898 56.6357C128.125 56.311 129.39 56.1447 130.67 56.1447C133.796 56.1447 135.204 56.0404 137.468 56.6458C137.897 60.8868 139.75 64.1775 143.011 66.4603C143.609 66.8785 144.308 67.0875 145.008 67.0875C146.226 67.0875 146.961 66.5226 147.638 65.985C148.761 69.0972 148.52 70.6067 148.52 79.6755C148.52 85.8131 143.495 91.11 137.085 91.11Z" fill="white"/>
<path d="M122.615 68.0714C121.592 68.0714 120.763 68.9007 120.763 69.9235C120.763 70.9463 121.592 71.7756 122.615 71.7756C123.638 71.7756 124.467 70.9465 124.467 69.9235C124.467 68.9005 123.638 68.0714 122.615 68.0714Z" fill="white"/>
<path d="M141.714 68.0714C140.691 68.0714 139.862 68.9007 139.862 69.9235C139.862 70.9463 140.691 71.7756 141.714 71.7756C142.737 71.7756 143.566 70.9465 143.566 69.9235C143.566 68.9005 142.737 68.0714 141.714 68.0714Z" fill="white"/>
<path d="M138.482 81.0674C137.589 81.0674 136.866 81.7909 136.866 82.6833C136.866 83.5349 136.173 84.2276 135.322 84.2276C134.49 84.2276 133.812 83.5659 133.781 82.7415C133.781 82.7221 133.782 82.703 133.782 82.6833V79.3706C136.53 77.8919 137.945 75.5192 137.873 72.5047C137.833 70.8002 136.467 69.465 134.763 69.465H129.563C128.722 69.465 127.935 69.7946 127.345 70.3934C126.757 70.99 126.441 71.7792 126.453 72.6155C126.483 74.6468 127.226 77.434 130.546 79.2872V82.6833C130.546 82.703 130.547 82.7221 130.547 82.7415C130.516 83.5659 129.838 84.2276 129.006 84.2276C128.155 84.2276 127.462 83.5349 127.462 82.6833C127.462 81.7909 126.739 81.0674 125.846 81.0674C124.953 81.0674 124.23 81.7909 124.23 82.6833C124.23 85.3169 126.373 87.4595 129.006 87.4595C130.216 87.4595 131.321 87.0064 132.164 86.2622C133.006 87.0064 134.112 87.4595 135.322 87.4595C137.955 87.4595 140.098 85.3169 140.098 82.6833C140.098 81.7909 139.375 81.0674 138.482 81.0674ZM132.358 76.4653C132.295 76.458 132.231 76.4531 132.167 76.4531C132.166 76.4531 132.165 76.4531 132.164 76.4531C132.164 76.4531 132.163 76.4531 132.162 76.4531C132.143 76.4531 132.125 76.4552 132.106 76.4559C130.545 75.5783 129.751 74.3471 129.688 72.6973H134.644C134.651 74.387 133.92 75.5895 132.358 76.4653Z" fill="white"/>
</g>
<defs>
<clipPath id="clip0">
<rect width="49.6424" height="49.6424" fill="white" transform="translate(0 60.6743)"/>
</clipPath>
<clipPath id="clip1">
<rect width="110.317" height="110.317" fill="white" transform="translate(43.0234)"/>
</clipPath>
</defs>
</svg>
